<svg xmlns="http://www.w3.org/2000/svg" viewBox="0 0 201.52 198.66"><defs><style>.cls-1{fill:#22d3c5;}.cls-2{fill:#fff;}.cls-3{fill:#bfced6;}.cls-4{fill:#2f2a34;}</style></defs><title>COD_Circles</title><g id="apps_Development" data-name="apps Development"><circle class="cls-1" cx="44.65" cy="44.65" r="44.65"/><path class="cls-2" d="M20.88,39.15l-.09.42a3.16,3.16,0,0,0-.44.06l-.4.1a.59.59,0,0,0-.33.26,1.39,1.39,0,0,0-.15.39L18,47a.87.87,0,0,0,0,.11s0,.08,0,.1a.53.53,0,0,0,.05.24.51.51,0,0,0,.18.19,1.14,1.14,0,0,0,.36.11,2.76,2.76,0,0,0,.43.06l-.1.42H15.19l.1-.42.54,0a1.36,1.36,0,0,0,.45-.11,1.2,1.2,0,0,0,.34-.28.84.84,0,0,0,.17-.39l1.47-6.75h-.07l-4.62,7.84h-.28l-1.06-8h-.06L11,45.62q-.07.34-.12.66a3.62,3.62,0,0,0,0,.52,1.37,1.37,0,0,0,0,.36.68.68,0,0,0,.12.25,1,1,0,0,0,.45.24,4.21,4.21,0,0,0,.54.14l-.1.42H8.42l.1-.42.56-.09a1.45,1.45,0,0,0,.52-.22,1.31,1.31,0,0,0,.41-.56,7,7,0,0,0,.34-1.22l1-4.7c0-.1,0-.19,0-.27a1.88,1.88,0,0,0,0-.23,1.07,1.07,0,0,0,0-.34.78.78,0,0,0-.13-.23.84.84,0,0,0-.42-.26,2.29,2.29,0,0,0-.49-.09l.09-.42h2.87L14.21,46l3.29-5.7q.19-.33.34-.67a3.63,3.63,0,0,0,.18-.44Z"/><path class="cls-2" d="M24.37,47.36h0l-.31.29a2.86,2.86,0,0,1-.43.34,3,3,0,0,1-.51.28,1.49,1.49,0,0,1-.6.12,1.6,1.6,0,0,1-1.36-.66,3,3,0,0,1-.49-1.81,4.42,4.42,0,0,1,.28-1.54A4.63,4.63,0,0,1,21.67,43a3.67,3.67,0,0,1,1.09-.92,2.67,2.67,0,0,1,2.11-.23,2.3,2.3,0,0,1,.61.27l1.1-.3.07.1-.91,4.12c0,.13-.06.29-.1.48a2.62,2.62,0,0,0-.05.42.65.65,0,0,0,.14.49.73.73,0,0,0,.49.13l.32,0,.32-.08-.09.41-.8.33a1.8,1.8,0,0,1-.64.1.89.89,0,0,1-.68-.27A1,1,0,0,1,24.37,47.36Zm.86-4a1.92,1.92,0,0,0,0-.4.88.88,0,0,0-.17-.36.83.83,0,0,0-.33-.25,1.25,1.25,0,0,0-.53-.1,1.4,1.4,0,0,0-.85.31,3,3,0,0,0-.74.82,4.43,4.43,0,0,0-.51,1.18,5.09,5.09,0,0,0-.2,1.4,5,5,0,0,0,0,.69,1.83,1.83,0,0,0,.16.55.86.86,0,0,0,.33.38,1,1,0,0,0,.54.13,1.45,1.45,0,0,0,.7-.2,3.41,3.41,0,0,0,.83-.71Z"/><path class="cls-2" d="M30.52,47.51l-.09.41a7.56,7.56,0,0,1-.88.33,2.1,2.1,0,0,1-.56.09.92.92,0,0,1-.72-.26.94.94,0,0,1-.24-.66,2,2,0,0,1,0-.31c0-.11,0-.24.08-.4L28.77,44c0-.15.06-.31.09-.48a2.65,2.65,0,0,0,0-.43.72.72,0,0,0-.11-.48.62.62,0,0,0-.45-.12,1.86,1.86,0,0,0-.35,0l-.33.08.09-.41a5.57,5.57,0,0,1,.84-.33,2.23,2.23,0,0,1,.59-.11.91.91,0,0,1,.71.25,1,1,0,0,1,.22.67,2.63,2.63,0,0,1,0,.31,3.35,3.35,0,0,1-.07.4l-.63,2.71c0,.17-.07.33-.1.49a2.27,2.27,0,0,0,0,.39.65.65,0,0,0,.15.5.74.74,0,0,0,.49.13l.33,0A1.61,1.61,0,0,0,30.52,47.51Zm.42-8.16a1,1,0,0,1-.22.63.68.68,0,0,1-.55.27.67.67,0,0,1-.53-.26.88.88,0,0,1-.22-.59.92.92,0,0,1,.22-.61.67.67,0,0,1,.53-.26.7.7,0,0,1,.56.25A.84.84,0,0,1,30.95,39.35Z"/><path class="cls-2" d="M37.74,47.46l-.09.41-.84.33a1.81,1.81,0,0,1-.61.11.92.92,0,0,1-.72-.26.94.94,0,0,1-.24-.66,2.14,2.14,0,0,1,0-.31c0-.11,0-.25.08-.4l.59-2.38c0-.18.08-.35.11-.5a2.16,2.16,0,0,0,0-.36,1.09,1.09,0,0,0-.19-.68.66.66,0,0,0-.56-.25,1.68,1.68,0,0,0-.81.26,3.09,3.09,0,0,0-.85.74l-1,4.69H31.53l.9-4.14.09-.44a2.55,2.55,0,0,0,.06-.47.72.72,0,0,0-.11-.48.63.63,0,0,0-.46-.12,1.51,1.51,0,0,0-.34,0l-.32.08.09-.41a6,6,0,0,1,.83-.33,2.2,2.2,0,0,1,.62-.11.79.79,0,0,1,.68.27,1.31,1.31,0,0,1,.22.76h0A7.58,7.58,0,0,1,34.94,42,2.15,2.15,0,0,1,36,41.76a1.15,1.15,0,0,1,.89.35,1.33,1.33,0,0,1,.32.93c0,.08,0,.21,0,.41a4.5,4.5,0,0,1-.11.58l-.5,2.05c0,.14-.07.29-.11.47a2.41,2.41,0,0,0-.05.41.65.65,0,0,0,.15.5.74.74,0,0,0,.49.13,1.79,1.79,0,0,0,.33,0A1.89,1.89,0,0,0,37.74,47.46Z"/><path class="cls-2" d="M39.9,48.34a1.19,1.19,0,0,1-.83-.25.92.92,0,0,1-.26-.71,2.09,2.09,0,0,1,0-.28c0-.09,0-.19,0-.3l.93-4.26H38.74l.13-.58H40l.42-1.87h1.08L41,42H42.7l-.12.58H40.93l-.77,3.52c0,.16-.07.32-.09.47a2.59,2.59,0,0,0,0,.39.7.7,0,0,0,.16.51.84.84,0,0,0,.59.16l.44,0a1.9,1.9,0,0,0,.44-.11l-.1.47q-.42.17-.79.3A2.75,2.75,0,0,1,39.9,48.34Z"/><path class="cls-2" d="M47.87,43.09a1.77,1.77,0,0,1-.4,1.16,2.67,2.67,0,0,1-1.16.77,8.44,8.44,0,0,1-1.12.35,12.33,12.33,0,0,1-1.25.22,2.82,2.82,0,0,0,.35,1.54,1.15,1.15,0,0,0,1,.53,1.8,1.8,0,0,0,1.05-.32,3.79,3.79,0,0,0,.9-1l.34.27a3.87,3.87,0,0,1-1.2,1.24,2.7,2.7,0,0,1-1.49.47,2,2,0,0,1-1.62-.63A2.62,2.62,0,0,1,42.75,46,5,5,0,0,1,43,44.42a4.53,4.53,0,0,1,.69-1.34,3.46,3.46,0,0,1,1.08-1,2.82,2.82,0,0,1,1.42-.36,1.86,1.86,0,0,1,1.28.37A1.23,1.23,0,0,1,47.87,43.09Zm-1.1-.16a1,1,0,0,0-.07-.39.52.52,0,0,0-.17-.21.54.54,0,0,0-.23-.1l-.25,0a1.68,1.68,0,0,0-1.32.84A4.5,4.5,0,0,0,44,45.15q.42-.06.94-.18a3.29,3.29,0,0,0,.87-.31,1.84,1.84,0,0,0,.74-.7A2,2,0,0,0,46.77,42.93Z"/><path class="cls-2" d="M55,47.46l-.09.41-.84.33a1.81,1.81,0,0,1-.61.11.92.92,0,0,1-.72-.26.94.94,0,0,1-.24-.66,2.14,2.14,0,0,1,0-.31c0-.11,0-.25.08-.4l.59-2.38c0-.18.08-.35.11-.5a2.16,2.16,0,0,0,0-.36,1.09,1.09,0,0,0-.19-.68.66.66,0,0,0-.56-.25,1.68,1.68,0,0,0-.81.26,3.09,3.09,0,0,0-.85.74l-1,4.69H48.77l.9-4.14.09-.44a2.55,2.55,0,0,0,.06-.47.72.72,0,0,0-.11-.48.63.63,0,0,0-.46-.12,1.51,1.51,0,0,0-.34,0l-.32.08.09-.41a6,6,0,0,1,.83-.33,2.2,2.2,0,0,1,.62-.11.79.79,0,0,1,.68.27,1.31,1.31,0,0,1,.22.76h0A7.58,7.58,0,0,1,52.19,42a2.15,2.15,0,0,1,1.08-.27,1.15,1.15,0,0,1,.89.35,1.33,1.33,0,0,1,.32.93c0,.08,0,.21,0,.41a4.5,4.5,0,0,1-.11.58l-.5,2.05c0,.14-.07.29-.11.47a2.41,2.41,0,0,0-.05.41.65.65,0,0,0,.15.5.74.74,0,0,0,.49.13,1.79,1.79,0,0,0,.33,0A1.89,1.89,0,0,0,55,47.46Z"/><path class="cls-2" d="M59.49,47.36h0l-.31.29a2.86,2.86,0,0,1-.43.34,3,3,0,0,1-.51.28,1.49,1.49,0,0,1-.6.12,1.6,1.6,0,0,1-1.36-.66,3,3,0,0,1-.49-1.81A4.42,4.42,0,0,1,56,44.36,4.63,4.63,0,0,1,56.78,43a3.67,3.67,0,0,1,1.09-.92A2.67,2.67,0,0,1,60,41.88a2.3,2.3,0,0,1,.61.27l1.1-.3.07.1-.91,4.12c0,.13-.06.29-.1.48a2.62,2.62,0,0,0-.05.42.65.65,0,0,0,.14.49.73.73,0,0,0,.49.13l.32,0,.32-.08-.09.41-.8.33a1.8,1.8,0,0,1-.64.1.89.89,0,0,1-.68-.27A1,1,0,0,1,59.49,47.36Zm.86-4a1.92,1.92,0,0,0,0-.4.88.88,0,0,0-.17-.36.83.83,0,0,0-.33-.25,1.25,1.25,0,0,0-.53-.1,1.4,1.4,0,0,0-.85.31,3,3,0,0,0-.74.82,4.43,4.43,0,0,0-.51,1.18,5.09,5.09,0,0,0-.2,1.4,5,5,0,0,0,0,.69,1.83,1.83,0,0,0,.16.55.86.86,0,0,0,.33.38,1,1,0,0,0,.54.13,1.45,1.45,0,0,0,.7-.2,3.41,3.41,0,0,0,.83-.71Z"/><path class="cls-2" d="M69.21,47.46l-.09.41-.84.33a1.81,1.81,0,0,1-.61.11A.92.92,0,0,1,67,48a.94.94,0,0,1-.24-.66,2.14,2.14,0,0,1,0-.31c0-.11,0-.25.08-.4l.59-2.38c0-.18.08-.35.11-.5a2.16,2.16,0,0,0,0-.36,1.09,1.09,0,0,0-.19-.68.66.66,0,0,0-.56-.25,1.68,1.68,0,0,0-.81.26,3.09,3.09,0,0,0-.85.74l-1,4.69H63l.9-4.14.09-.44a2.55,2.55,0,0,0,.06-.47.72.72,0,0,0-.11-.48.63.63,0,0,0-.46-.12,1.51,1.51,0,0,0-.34,0l-.32.08.09-.41a6,6,0,0,1,.83-.33,2.2,2.2,0,0,1,.62-.11.79.79,0,0,1,.68.27,1.31,1.31,0,0,1,.22.76h0A7.58,7.58,0,0,1,66.42,42a2.15,2.15,0,0,1,1.08-.27,1.15,1.15,0,0,1,.89.35,1.33,1.33,0,0,1,.32.93c0,.08,0,.21,0,.41a4.5,4.5,0,0,1-.11.58l-.5,2.05c0,.14-.07.29-.11.47a2.41,2.41,0,0,0-.05.41.65.65,0,0,0,.15.5.74.74,0,0,0,.49.13,1.79,1.79,0,0,0,.33,0A1.89,1.89,0,0,0,69.21,47.46Z"/><path class="cls-2" d="M72.22,48.38a2.15,2.15,0,0,1-1.65-.65A2.62,2.62,0,0,1,70,45.88a5.07,5.07,0,0,1,.23-1.53,4.48,4.48,0,0,1,.64-1.3,3.29,3.29,0,0,1,1-.93,2.77,2.77,0,0,1,1.4-.36,1.93,1.93,0,0,1,1.3.39,1.23,1.23,0,0,1,.45,1,1.5,1.5,0,0,1-.19.77.71.71,0,0,1-1.07.16.54.54,0,0,1-.16-.38,1.73,1.73,0,0,1,.13-.56l.21-.57a.44.44,0,0,0-.29-.25,1.42,1.42,0,0,0-.47-.08,1.67,1.67,0,0,0-1.4,1,4.87,4.87,0,0,0-.59,2.48,2.43,2.43,0,0,0,.38,1.44,1.2,1.2,0,0,0,1,.53,1.7,1.7,0,0,0,1-.33,3.82,3.82,0,0,0,.87-.94l.34.27a4,4,0,0,1-1.12,1.2A2.51,2.51,0,0,1,72.22,48.38Z"/><path class="cls-2" d="M80.65,43.09a1.77,1.77,0,0,1-.4,1.16A2.67,2.67,0,0,1,79.1,45a8.44,8.44,0,0,1-1.12.35,12.33,12.33,0,0,1-1.25.22,2.82,2.82,0,0,0,.35,1.54,1.15,1.15,0,0,0,1,.53,1.8,1.8,0,0,0,1.05-.32,3.79,3.79,0,0,0,.9-1l.34.27a3.87,3.87,0,0,1-1.2,1.24,2.7,2.7,0,0,1-1.49.47,2,2,0,0,1-1.62-.63A2.62,2.62,0,0,1,75.53,46a5,5,0,0,1,.24-1.54,4.53,4.53,0,0,1,.69-1.34,3.46,3.46,0,0,1,1.08-1A2.82,2.82,0,0,1,79,41.76a1.86,1.86,0,0,1,1.28.37A1.23,1.23,0,0,1,80.65,43.09Zm-1.1-.16a1,1,0,0,0-.07-.39.52.52,0,0,0-.17-.21.54.54,0,0,0-.23-.1l-.25,0a1.68,1.68,0,0,0-1.32.84,4.5,4.5,0,0,0-.77,2.09q.42-.06.94-.18a3.29,3.29,0,0,0,.87-.31,1.84,1.84,0,0,0,.74-.7A2,2,0,0,0,79.55,42.93Z"/><circle class="cls-1" cx="156.87" cy="44.65" r="44.65"/><path class="cls-2" d="M128.92,41a2.91,2.91,0,0,1-.32,1.38,3.18,3.18,0,0,1-.82,1,3.74,3.74,0,0,1-1.18.63,4.35,4.35,0,0,1-1.36.21h-1L123.6,47a.94.94,0,0,0,0,.12s0,.08,0,.11a.61.61,0,0,0,0,.25.35.35,0,0,0,.19.17,1.36,1.36,0,0,0,.36.08l.49,0-.09.42h-3.64l.09-.42.42,0a1.65,1.65,0,0,0,.4-.08.69.69,0,0,0,.33-.26,1.08,1.08,0,0,0,.15-.39l1.43-6.6s0-.08,0-.13a1.08,1.08,0,0,0,0-.13.59.59,0,0,0,0-.24.33.33,0,0,0-.18-.17,2.09,2.09,0,0,0-.41-.11l-.39-.05.09-.42h3.78a2.68,2.68,0,0,1,1.67.49A1.59,1.59,0,0,1,128.92,41ZM127,42.7a2.55,2.55,0,0,0,.35-.8,3.4,3.4,0,0,0,.1-.8,2,2,0,0,0-.07-.56,1.19,1.19,0,0,0-.72-.8,1.83,1.83,0,0,0-.71-.12h-.78l-.86,4.05H125a2.69,2.69,0,0,0,1.2-.25A2,2,0,0,0,127,42.7Z"/><path class="cls-2" d="M134.08,43.09a1.77,1.77,0,0,1-.4,1.16,2.67,2.67,0,0,1-1.16.77,8.44,8.44,0,0,1-1.12.35,12.33,12.33,0,0,1-1.25.22,2.82,2.82,0,0,0,.35,1.54,1.15,1.15,0,0,0,1,.53,1.8,1.8,0,0,0,1.05-.32,3.79,3.79,0,0,0,.9-1l.34.27a3.87,3.87,0,0,1-1.2,1.24,2.7,2.7,0,0,1-1.49.47,2,2,0,0,1-1.62-.63A2.62,2.62,0,0,1,129,46a5,5,0,0,1,.24-1.54,4.53,4.53,0,0,1,.69-1.34,3.46,3.46,0,0,1,1.08-1,2.82,2.82,0,0,1,1.42-.36,1.86,1.86,0,0,1,1.28.37A1.23,1.23,0,0,1,134.08,43.09Zm-1.1-.16a1,1,0,0,0-.07-.39.52.52,0,0,0-.17-.21.54.54,0,0,0-.23-.1l-.25,0a1.68,1.68,0,0,0-1.32.84,4.5,4.5,0,0,0-.77,2.09q.42-.06.94-.18a3.29,3.29,0,0,0,.87-.31,1.84,1.84,0,0,0,.74-.7A2,2,0,0,0,133,42.93Z"/><path class="cls-2" d="M140,42.8a1.85,1.85,0,0,1,0,.39,1.11,1.11,0,0,1-.14.35.9.9,0,0,1-.24.26.62.62,0,0,1-.37.09.64.64,0,0,1-.48-.17.55.55,0,0,1-.16-.38,1.29,1.29,0,0,1,.09-.44l.18-.49-.24,0a1.92,1.92,0,0,0-.4.16,3.18,3.18,0,0,0-.53.36,4.81,4.81,0,0,0-.63.65l-1,4.57H135l.87-4.14.09-.46a2.74,2.74,0,0,0,.06-.45.73.73,0,0,0-.11-.48.63.63,0,0,0-.45-.12,1.49,1.49,0,0,0-.33,0l-.32.08.09-.41a5.94,5.94,0,0,1,.83-.33,2.18,2.18,0,0,1,.62-.11.79.79,0,0,1,.68.28,1.41,1.41,0,0,1,.2.83h0a12.4,12.4,0,0,1,1.08-.92,1.3,1.3,0,0,1,.77-.26,1.34,1.34,0,0,1,.37.05.72.72,0,0,1,.31.17.84.84,0,0,1,.19.31A1.58,1.58,0,0,1,140,42.8Z"/><path class="cls-2" d="M142.92,42.55l-1.05,5.27a4.38,4.38,0,0,1-1.18,2.32,2.64,2.64,0,0,1-1.86.9,1.16,1.16,0,0,1-.77-.21.68.68,0,0,1-.25-.54.79.79,0,0,1,.16-.48.52.52,0,0,1,.45-.21.59.59,0,0,1,.33.09,1,1,0,0,1,.25.22,2.33,2.33,0,0,1,.19.29l.18.32q.46,0,.79-.66a7.11,7.11,0,0,0,.56-1.79l1.1-5.51h-1.17l.13-.58h1.15l.09-.43a4.83,4.83,0,0,1,.45-1.33,4.43,4.43,0,0,1,.71-1,3,3,0,0,1,.88-.64,2.23,2.23,0,0,1,.95-.23,1.17,1.17,0,0,1,.77.21.68.68,0,0,1,.25.54.82.82,0,0,1-.15.49.52.52,0,0,1-.46.21.59.59,0,0,1-.32-.09.9.9,0,0,1-.25-.23,2,2,0,0,1-.19-.3c0-.09-.11-.2-.18-.31q-.41,0-.73.58a6.62,6.62,0,0,0-.57,1.87L143,42h1.51l-.13.58Z"/><path class="cls-2" d="M150.17,44.27a4.94,4.94,0,0,1-.24,1.51,4,4,0,0,1-.69,1.32,3.55,3.55,0,0,1-1.11.94,3.09,3.09,0,0,1-1.5.35,2.07,2.07,0,0,1-1.61-.68,2.63,2.63,0,0,1-.62-1.84,4.68,4.68,0,0,1,.26-1.58,4.49,4.49,0,0,1,.71-1.29,3.43,3.43,0,0,1,1.11-.9,3.06,3.06,0,0,1,1.43-.34,2.09,2.09,0,0,1,1.66.69A2.68,2.68,0,0,1,150.17,44.27ZM148.95,44a2.48,2.48,0,0,0-.3-1.36,1,1,0,0,0-.87-.45,1.54,1.54,0,0,0-.94.33,2.53,2.53,0,0,0-.76,1.06,5.14,5.14,0,0,0-.36,1.24,7.61,7.61,0,0,0-.11,1.25,2.62,2.62,0,0,0,.3,1.38,1,1,0,0,0,.89.47,1.4,1.4,0,0,0,.94-.36,2.69,2.69,0,0,0,.67-.91,5.19,5.19,0,0,0,.39-1.23A7.28,7.28,0,0,0,148.95,44Z"/><path class="cls-2" d="M156.27,42.8a1.85,1.85,0,0,1,0,.39,1.11,1.11,0,0,1-.14.35.9.9,0,0,1-.24.26.62.62,0,0,1-.37.09.64.64,0,0,1-.48-.17.55.55,0,0,1-.16-.38,1.29,1.29,0,0,1,.09-.44l.18-.49-.24,0a1.92,1.92,0,0,0-.4.16,3.18,3.18,0,0,0-.53.36,4.81,4.81,0,0,0-.63.65l-1,4.57h-1.11l.87-4.14.09-.46a2.74,2.74,0,0,0,.06-.45.73.73,0,0,0-.11-.48.63.63,0,0,0-.45-.12,1.49,1.49,0,0,0-.33,0l-.32.08.09-.41a5.94,5.94,0,0,1,.83-.33,2.18,2.18,0,0,1,.62-.11.79.79,0,0,1,.68.28,1.41,1.41,0,0,1,.2.83h0a12.4,12.4,0,0,1,1.08-.92,1.3,1.3,0,0,1,.77-.26,1.34,1.34,0,0,1,.37.05A.72.72,0,0,1,156,42a.84.84,0,0,1,.19.31A1.58,1.58,0,0,1,156.27,42.8Z"/><path class="cls-2" d="M166.63,47.48l-.09.41a7.51,7.51,0,0,1-.88.33,2.15,2.15,0,0,1-.56.09.92.92,0,0,1-.72-.26.94.94,0,0,1-.24-.66,2.27,2.27,0,0,1,0-.31c0-.11,0-.25.08-.4l.59-2.38q.07-.27.1-.5a2.16,2.16,0,0,0,0-.36,1.18,1.18,0,0,0-.17-.68.62.62,0,0,0-.55-.25,1.67,1.67,0,0,0-.78.2,3.26,3.26,0,0,0-.86.75l-1,4.73h-1.11l.94-4.27c0-.09,0-.19.06-.3a1.45,1.45,0,0,0,0-.23,1,1,0,0,0-.19-.65.69.69,0,0,0-.57-.24,1.85,1.85,0,0,0-.75.18,3,3,0,0,0-1,.81l-1,4.69h-1.12l.9-4.14c0-.15.06-.31.09-.48a2.55,2.55,0,0,0,0-.43.74.74,0,0,0-.11-.49.62.62,0,0,0-.44-.12,1.44,1.44,0,0,0-.34.05l-.32.09.09-.41a6,6,0,0,1,.83-.33,2.2,2.2,0,0,1,.62-.11.78.78,0,0,1,.68.28,1.33,1.33,0,0,1,.21.76h0a8.21,8.21,0,0,1,1.16-.85,2.17,2.17,0,0,1,1.08-.25,1.17,1.17,0,0,1,.86.33,1.27,1.27,0,0,1,.37.83h0a7.5,7.5,0,0,1,1.13-.86,2.23,2.23,0,0,1,1.16-.29,1.1,1.1,0,0,1,.88.35,1.37,1.37,0,0,1,.31.93c0,.08,0,.21,0,.41a4.5,4.5,0,0,1-.1.58l-.5,2.05c0,.14-.07.29-.1.47a2.45,2.45,0,0,0,0,.41.66.66,0,0,0,.14.5.72.72,0,0,0,.48.13l.33,0A1.65,1.65,0,0,0,166.63,47.48Z"/><path class="cls-2" d="M171.13,47.36h0l-.31.29a2.86,2.86,0,0,1-.43.34,3,3,0,0,1-.51.28,1.49,1.49,0,0,1-.6.12,1.6,1.6,0,0,1-1.36-.66,3,3,0,0,1-.49-1.81,4.42,4.42,0,0,1,.28-1.54,4.63,4.63,0,0,1,.76-1.34,3.67,3.67,0,0,1,1.09-.92,2.67,2.67,0,0,1,2.11-.23,2.3,2.3,0,0,1,.61.27l1.1-.3.07.1-.91,4.12c0,.13-.06.29-.1.48a2.62,2.62,0,0,0-.05.42.65.65,0,0,0,.14.49.73.73,0,0,0,.49.13l.32,0,.32-.08-.09.41-.8.33a1.8,1.8,0,0,1-.64.1.89.89,0,0,1-.68-.27A1,1,0,0,1,171.13,47.36Zm.86-4a1.92,1.92,0,0,0,0-.4.88.88,0,0,0-.17-.36.83.83,0,0,0-.33-.25,1.25,1.25,0,0,0-.53-.1,1.4,1.4,0,0,0-.85.31,3,3,0,0,0-.74.82,4.43,4.43,0,0,0-.51,1.18,5.09,5.09,0,0,0-.2,1.4,5,5,0,0,0,0,.69,1.83,1.83,0,0,0,.16.55.86.86,0,0,0,.33.38,1,1,0,0,0,.54.13,1.45,1.45,0,0,0,.7-.2,3.41,3.41,0,0,0,.83-.71Z"/><path class="cls-2" d="M180.86,47.46l-.09.41-.84.33a1.81,1.81,0,0,1-.61.11.92.92,0,0,1-.72-.26.94.94,0,0,1-.24-.66,2.14,2.14,0,0,1,0-.31c0-.11,0-.25.08-.4l.59-2.38c0-.18.08-.35.11-.5a2.16,2.16,0,0,0,0-.36,1.09,1.09,0,0,0-.19-.68.66.66,0,0,0-.56-.25,1.68,1.68,0,0,0-.81.26,3.09,3.09,0,0,0-.85.74l-1,4.69h-1.12l.9-4.14.09-.44a2.55,2.55,0,0,0,.06-.47.72.72,0,0,0-.11-.48.63.63,0,0,0-.46-.12,1.51,1.51,0,0,0-.34,0l-.32.08.09-.41a6,6,0,0,1,.83-.33,2.2,2.2,0,0,1,.62-.11.79.79,0,0,1,.68.27,1.31,1.31,0,0,1,.22.76h0a7.58,7.58,0,0,1,1.13-.83,2.15,2.15,0,0,1,1.08-.27,1.15,1.15,0,0,1,.89.35,1.33,1.33,0,0,1,.32.93c0,.08,0,.21,0,.41a4.5,4.5,0,0,1-.11.58l-.5,2.05c0,.14-.07.29-.11.47a2.41,2.41,0,0,0-.05.41.65.65,0,0,0,.15.5.74.74,0,0,0,.49.13,1.79,1.79,0,0,0,.33,0A1.89,1.89,0,0,0,180.86,47.46Z"/><path class="cls-2" d="M183.87,48.38a2.15,2.15,0,0,1-1.65-.65,2.62,2.62,0,0,1-.61-1.85,5.07,5.07,0,0,1,.23-1.53,4.48,4.48,0,0,1,.64-1.3,3.29,3.29,0,0,1,1-.93,2.77,2.77,0,0,1,1.4-.36,1.93,1.93,0,0,1,1.3.39,1.23,1.23,0,0,1,.45,1,1.5,1.5,0,0,1-.19.77.71.71,0,0,1-1.07.16.54.54,0,0,1-.16-.38,1.73,1.73,0,0,1,.13-.56l.21-.57a.44.44,0,0,0-.29-.25,1.42,1.42,0,0,0-.47-.08,1.67,1.67,0,0,0-1.4,1,4.87,4.87,0,0,0-.59,2.48,2.43,2.43,0,0,0,.38,1.44,1.2,1.2,0,0,0,1,.53,1.7,1.7,0,0,0,1-.33,3.82,3.82,0,0,0,.87-.94l.34.27a4,4,0,0,1-1.12,1.2A2.51,2.51,0,0,1,183.87,48.38Z"/><path class="cls-2" d="M192.3,43.09a1.77,1.77,0,0,1-.4,1.16,2.67,2.67,0,0,1-1.16.77,8.44,8.44,0,0,1-1.12.35,12.33,12.33,0,0,1-1.25.22,2.82,2.82,0,0,0,.35,1.54,1.15,1.15,0,0,0,1,.53,1.8,1.8,0,0,0,1.05-.32,3.79,3.79,0,0,0,.9-1l.34.27a3.87,3.87,0,0,1-1.2,1.24,2.7,2.7,0,0,1-1.49.47,2,2,0,0,1-1.62-.63,2.62,2.62,0,0,1-.56-1.79,5,5,0,0,1,.24-1.54,4.53,4.53,0,0,1,.69-1.34,3.46,3.46,0,0,1,1.08-1,2.82,2.82,0,0,1,1.42-.36,1.86,1.86,0,0,1,1.28.37A1.23,1.23,0,0,1,192.3,43.09Zm-1.1-.16a1,1,0,0,0-.07-.39.52.52,0,0,0-.17-.21.54.54,0,0,0-.23-.1l-.25,0a1.68,1.68,0,0,0-1.32.84,4.5,4.5,0,0,0-.77,2.09q.42-.06.94-.18a3.29,3.29,0,0,0,.87-.31A1.84,1.84,0,0,0,191,44,2,2,0,0,0,191.2,42.93Z"/><circle class="cls-1" cx="44.65" cy="154.01" r="44.65"/><path class="cls-2" d="M33,148.5,32.45,151H32a4.87,4.87,0,0,0-.06-.57,3.42,3.42,0,0,0-.15-.62,1.75,1.75,0,0,0-.27-.5.62.62,0,0,0-.39-.25l-.46,0h-.89l-1.58,7.31a.89.89,0,0,0,0,.11s0,.08,0,.12a.52.52,0,0,0,.05.25.46.46,0,0,0,.2.18,3,3,0,0,0,.43.12,2.82,2.82,0,0,0,.51.08l-.1.42h-4l.1-.42.52-.05a2.24,2.24,0,0,0,.5-.1.79.79,0,0,0,.36-.26,1,1,0,0,0,.17-.4L28.55,149h-.77l-.55,0a1,1,0,0,0-.46.25,4.86,4.86,0,0,0-.53.53,6.58,6.58,0,0,0-.46.61,5,5,0,0,0-.32.55h-.42l.53-2.46Z"/><path class="cls-2" d="M37.39,152.44a1.77,1.77,0,0,1-.4,1.16,2.67,2.67,0,0,1-1.16.77,8.44,8.44,0,0,1-1.12.35,12.33,12.33,0,0,1-1.25.22,2.82,2.82,0,0,0,.35,1.54,1.15,1.15,0,0,0,1,.53,1.8,1.8,0,0,0,1.05-.32,3.79,3.79,0,0,0,.9-1l.34.27a3.87,3.87,0,0,1-1.2,1.24,2.7,2.7,0,0,1-1.49.47,2,2,0,0,1-1.62-.63,2.62,2.62,0,0,1-.56-1.79,5,5,0,0,1,.24-1.54,4.53,4.53,0,0,1,.69-1.34,3.46,3.46,0,0,1,1.08-1,2.82,2.82,0,0,1,1.42-.36,1.86,1.86,0,0,1,1.28.37A1.23,1.23,0,0,1,37.39,152.44Zm-1.1-.16a1,1,0,0,0-.07-.39.52.52,0,0,0-.17-.21.54.54,0,0,0-.23-.1l-.25,0a1.68,1.68,0,0,0-1.32.84,4.5,4.5,0,0,0-.77,2.09q.42-.06.94-.18a3.29,3.29,0,0,0,.87-.31,1.84,1.84,0,0,0,.74-.7A2,2,0,0,0,36.29,152.28Z"/><path class="cls-2" d="M39.79,157.75a2.94,2.94,0,0,1-1.47-.33,1,1,0,0,1-.59-.88.76.76,0,0,1,.17-.48.52.52,0,0,1,.42-.22.59.59,0,0,1,.39.12.87.87,0,0,1,.23.28,2,2,0,0,1,.16.4l.12.38a.83.83,0,0,0,.71.29A1.18,1.18,0,0,0,41.23,156a.86.86,0,0,0-.31-.69,3,3,0,0,0-.93-.48,3.87,3.87,0,0,1-.52-.23,1.93,1.93,0,0,1-.48-.34,1.57,1.57,0,0,1-.35-.49,1.55,1.55,0,0,1-.13-.67,1.82,1.82,0,0,1,.68-1.42,2.47,2.47,0,0,1,1.68-.6l.5,0a2.45,2.45,0,0,1,.59.14,1.26,1.26,0,0,1,.48.3.71.71,0,0,1,.2.52.76.76,0,0,1-.16.48.52.52,0,0,1-.43.21.62.62,0,0,1-.36-.1.82.82,0,0,1-.24-.27,1.92,1.92,0,0,1-.16-.37q-.06-.2-.13-.39l-.2-.07-.24,0a1.13,1.13,0,0,0-.89.34,1.15,1.15,0,0,0-.3.8.83.83,0,0,0,.27.67,3.35,3.35,0,0,0,.9.47,3.1,3.1,0,0,1,1.18.72,1.43,1.43,0,0,1,.37,1,2,2,0,0,1-.7,1.58A2.58,2.58,0,0,1,39.79,157.75Z"/><path class="cls-2" d="M44.72,157.69a1.19,1.19,0,0,1-.83-.25.92.92,0,0,1-.26-.71,2.09,2.09,0,0,1,0-.28c0-.09,0-.19,0-.3l.93-4.26H43.55l.13-.58h1.09l.42-1.87h1.08l-.4,1.87h1.66l-.12.58H45.74L45,155.42c0,.16-.07.32-.09.47a2.59,2.59,0,0,0,0,.39.7.7,0,0,0,.16.51.84.84,0,0,0,.59.16l.44,0a1.9,1.9,0,0,0,.44-.11l-.1.47q-.42.17-.79.3A2.75,2.75,0,0,1,44.72,157.69Z"/><path class="cls-2" d="M50.45,156.86l-.09.41a7.56,7.56,0,0,1-.88.33,2.1,2.1,0,0,1-.56.09.92.92,0,0,1-.72-.26.94.94,0,0,1-.24-.66,2,2,0,0,1,0-.31c0-.11,0-.24.08-.4l.63-2.71c0-.15.06-.31.09-.48a2.65,2.65,0,0,0,0-.43.72.72,0,0,0-.11-.48.62.62,0,0,0-.45-.12,1.86,1.86,0,0,0-.35,0l-.33.08.09-.41a5.57,5.57,0,0,1,.84-.33,2.23,2.23,0,0,1,.59-.11.91.91,0,0,1,.71.25A1,1,0,0,1,50,152a2.63,2.63,0,0,1,0,.31,3.35,3.35,0,0,1-.07.4l-.63,2.71c0,.17-.07.33-.1.49a2.27,2.27,0,0,0,0,.39.65.65,0,0,0,.15.5.74.74,0,0,0,.49.13l.33,0A1.61,1.61,0,0,0,50.45,156.86Zm.42-8.16a1,1,0,0,1-.22.63.68.68,0,0,1-.55.27.67.67,0,0,1-.53-.26.88.88,0,0,1-.22-.59.92.92,0,0,1,.22-.61.67.67,0,0,1,.53-.26.7.7,0,0,1,.56.25A.84.84,0,0,1,50.87,148.7Z"/><path class="cls-2" d="M57.66,156.82l-.09.41-.84.33a1.81,1.81,0,0,1-.61.11.92.92,0,0,1-.72-.26.94.94,0,0,1-.24-.66,2.14,2.14,0,0,1,0-.31c0-.11,0-.25.08-.4l.59-2.38c0-.18.08-.35.11-.5a2.16,2.16,0,0,0,0-.36,1.09,1.09,0,0,0-.19-.68.66.66,0,0,0-.56-.25,1.68,1.68,0,0,0-.81.26,3.09,3.09,0,0,0-.85.74l-1,4.69H51.45l.9-4.14.09-.44a2.55,2.55,0,0,0,.06-.47.72.72,0,0,0-.11-.48.63.63,0,0,0-.46-.12,1.51,1.51,0,0,0-.34,0l-.32.08.09-.41a6,6,0,0,1,.83-.33,2.2,2.2,0,0,1,.62-.11.79.79,0,0,1,.68.27,1.31,1.31,0,0,1,.22.76h0a7.58,7.58,0,0,1,1.13-.83,2.15,2.15,0,0,1,1.08-.27,1.15,1.15,0,0,1,.89.35,1.33,1.33,0,0,1,.32.93c0,.08,0,.21,0,.41a4.5,4.5,0,0,1-.11.58l-.5,2.05c0,.14-.07.29-.11.47a2.41,2.41,0,0,0-.05.41.65.65,0,0,0,.15.5.74.74,0,0,0,.49.13,1.79,1.79,0,0,0,.33,0A1.89,1.89,0,0,0,57.66,156.82Z"/><path class="cls-2" d="M62.25,156.69h0l-.34.29a3.23,3.23,0,0,1-.46.33,3.19,3.19,0,0,1-.56.28,1.69,1.69,0,0,1-.62.11A1.55,1.55,0,0,1,58.9,157a3,3,0,0,1-.47-1.8,4.47,4.47,0,0,1,.27-1.54,4.56,4.56,0,0,1,.74-1.33,3.54,3.54,0,0,1,1.09-.9,2.79,2.79,0,0,1,2.14-.22,2.27,2.27,0,0,1,.62.28l1.09-.3.07.1-1,5a9,9,0,0,1-.58,1.93,4.11,4.11,0,0,1-.82,1.25,2.81,2.81,0,0,1-1.06.67,4,4,0,0,1-1.31.2,3.24,3.24,0,0,1-.81-.08,1.46,1.46,0,0,1-.49-.22.67.67,0,0,1-.24-.3.93.93,0,0,1-.06-.32.73.73,0,0,1,.16-.48.54.54,0,0,1,.44-.19.55.55,0,0,1,.38.14,1.24,1.24,0,0,1,.25.3,3,3,0,0,1,.2.4l.14.34h.18a1.81,1.81,0,0,0,.71-.16,1.89,1.89,0,0,0,.69-.52,4,4,0,0,0,.59-1A6.71,6.71,0,0,0,62.25,156.69Zm.8-4.08a1.4,1.4,0,0,0-.05-.37.9.9,0,0,0-.19-.35.92.92,0,0,0-.33-.24,1.29,1.29,0,0,0-.52-.09,1.45,1.45,0,0,0-.87.3,2.93,2.93,0,0,0-.74.81,4.42,4.42,0,0,0-.5,1.17,5.16,5.16,0,0,0-.19,1.39,4.47,4.47,0,0,0,.05.69,1.78,1.78,0,0,0,.18.55,1,1,0,0,0,.33.37,1,1,0,0,0,.54.13,1.55,1.55,0,0,0,.83-.26,3.85,3.85,0,0,0,.78-.66Z"/><circle class="cls-1" cx="156.87" cy="154.01" r="44.65"/><path class="cls-2" d="M137,157.74a3.88,3.88,0,0,1-1.29-.19,3.37,3.37,0,0,1-.89-.45l-.34.47H134l.59-3.1h.48a6.28,6.28,0,0,0,.14,1,2.7,2.7,0,0,0,.36.87,1.75,1.75,0,0,0,.65.62,2,2,0,0,0,1,.22,2,2,0,0,0,1.43-.53,1.92,1.92,0,0,0,.54-1.44,1.68,1.68,0,0,0-.23-.87,1.5,1.5,0,0,0-.68-.59q-.43-.2-.85-.35a7.31,7.31,0,0,1-.83-.37,2.2,2.2,0,0,1-.87-.79,2.1,2.1,0,0,1-.33-1.16,2.53,2.53,0,0,1,.25-1.13,2.93,2.93,0,0,1,.67-.89,3.09,3.09,0,0,1,1-.58,3.24,3.24,0,0,1,1.15-.22,3.71,3.71,0,0,1,1,.13,2.84,2.84,0,0,1,1,.5l.33-.43h.48l-.6,3h-.48a9.86,9.86,0,0,0-.09-1,2.73,2.73,0,0,0-.25-.87,1.48,1.48,0,0,0-.55-.59,1.79,1.79,0,0,0-.94-.21,1.54,1.54,0,0,0-1.18.52,1.77,1.77,0,0,0-.48,1.24,1.68,1.68,0,0,0,.18.8,1.32,1.32,0,0,0,.55.53,5.7,5.7,0,0,0,.83.37,6.91,6.91,0,0,1,.77.33,3.13,3.13,0,0,1,1.07.83,1.85,1.85,0,0,1,.38,1.19,3,3,0,0,1-.27,1.26,2.91,2.91,0,0,1-.74,1,3.52,3.52,0,0,1-1.08.64A3.78,3.78,0,0,1,137,157.74Z"/><path class="cls-2" d="M146.48,152.44a1.77,1.77,0,0,1-.4,1.16,2.67,2.67,0,0,1-1.16.77,8.44,8.44,0,0,1-1.12.35,12.33,12.33,0,0,1-1.25.22,2.82,2.82,0,0,0,.35,1.54,1.15,1.15,0,0,0,1,.53,1.8,1.8,0,0,0,1.05-.32,3.79,3.79,0,0,0,.9-1l.34.27a3.87,3.87,0,0,1-1.2,1.24,2.7,2.7,0,0,1-1.49.47,2,2,0,0,1-1.62-.63,2.62,2.62,0,0,1-.56-1.79,5,5,0,0,1,.24-1.54,4.53,4.53,0,0,1,.69-1.34,3.46,3.46,0,0,1,1.08-1,2.82,2.82,0,0,1,1.42-.36,1.86,1.86,0,0,1,1.28.37A1.23,1.23,0,0,1,146.48,152.44Zm-1.1-.16a1,1,0,0,0-.07-.39.52.52,0,0,0-.17-.21.54.54,0,0,0-.23-.1l-.25,0a1.68,1.68,0,0,0-1.32.84,4.5,4.5,0,0,0-.77,2.09q.42-.06.94-.18a3.29,3.29,0,0,0,.87-.31,1.84,1.84,0,0,0,.74-.7A2,2,0,0,0,145.38,152.28Z"/><path class="cls-2" d="M149.38,157.73a2.15,2.15,0,0,1-1.65-.65,2.62,2.62,0,0,1-.61-1.85,5.07,5.07,0,0,1,.23-1.53,4.48,4.48,0,0,1,.64-1.3,3.29,3.29,0,0,1,1-.93,2.77,2.77,0,0,1,1.4-.36,1.93,1.93,0,0,1,1.3.39,1.23,1.23,0,0,1,.45,1,1.5,1.5,0,0,1-.19.77.71.71,0,0,1-1.07.16.54.54,0,0,1-.16-.38,1.73,1.73,0,0,1,.13-.56l.21-.57a.44.44,0,0,0-.29-.25,1.42,1.42,0,0,0-.47-.08,1.67,1.67,0,0,0-1.4,1,4.87,4.87,0,0,0-.59,2.48,2.43,2.43,0,0,0,.38,1.44,1.2,1.2,0,0,0,1,.53,1.7,1.7,0,0,0,1-.33,3.82,3.82,0,0,0,.87-.94l.34.27a4,4,0,0,1-1.12,1.2A2.51,2.51,0,0,1,149.38,157.73Z"/><path class="cls-2" d="M156.5,156.66h0l-.53.43a3.48,3.48,0,0,1-.5.33,2.72,2.72,0,0,1-.52.22,2.31,2.31,0,0,1-.61.07,1.13,1.13,0,0,1-.89-.35,1.34,1.34,0,0,1-.32-.93,3.33,3.33,0,0,1,0-.36q0-.21.11-.63l.46-2q.06-.28.1-.5a2.3,2.3,0,0,0,0-.41.73.73,0,0,0-.11-.48.62.62,0,0,0-.45-.12,1.34,1.34,0,0,0-.33.05l-.32.09.09-.41a6.82,6.82,0,0,1,.82-.34,2,2,0,0,1,.57-.12.92.92,0,0,1,.7.24,1,1,0,0,1,.22.68,2.86,2.86,0,0,1,0,.31,3.5,3.5,0,0,1-.07.4l-.53,2.36c0,.18-.07.35-.1.5a2.29,2.29,0,0,0,0,.35,1.16,1.16,0,0,0,.17.68.62.62,0,0,0,.55.25,1.67,1.67,0,0,0,.79-.21,3.19,3.19,0,0,0,.81-.65l1-4.8,1-.08.07.1-.89,4.11c0,.17-.08.35-.11.53a2.41,2.41,0,0,0,0,.37.66.66,0,0,0,.15.5.73.73,0,0,0,.49.13l.32,0,.32-.08-.09.41c-.33.14-.61.25-.83.33a2,2,0,0,1-.61.11.86.86,0,0,1-.72-.3A1.1,1.1,0,0,1,156.5,156.66Z"/><path class="cls-2" d="M165,152.15a1.85,1.85,0,0,1,0,.39,1.11,1.11,0,0,1-.14.35.9.9,0,0,1-.24.26.62.62,0,0,1-.37.09.64.64,0,0,1-.48-.17.55.55,0,0,1-.16-.38,1.29,1.29,0,0,1,.09-.44l.18-.49-.24,0a1.92,1.92,0,0,0-.4.16,3.18,3.18,0,0,0-.53.36,4.81,4.81,0,0,0-.63.65l-1,4.57H160l.87-4.14.09-.46a2.74,2.74,0,0,0,.06-.45.73.73,0,0,0-.11-.48.63.63,0,0,0-.45-.12,1.49,1.49,0,0,0-.33,0l-.32.08.09-.41a5.94,5.94,0,0,1,.83-.33,2.18,2.18,0,0,1,.62-.11.79.79,0,0,1,.68.28,1.41,1.41,0,0,1,.2.83h0a12.4,12.4,0,0,1,1.08-.92,1.3,1.3,0,0,1,.77-.26,1.34,1.34,0,0,1,.37.05.72.72,0,0,1,.31.17.84.84,0,0,1,.19.31A1.58,1.58,0,0,1,165,152.15Z"/><path class="cls-2" d="M168.25,156.86l-.09.41a7.56,7.56,0,0,1-.88.33,2.1,2.1,0,0,1-.56.09.92.92,0,0,1-.72-.26.94.94,0,0,1-.24-.66,2,2,0,0,1,0-.31c0-.11,0-.24.08-.4l.63-2.71c0-.15.06-.31.09-.48a2.65,2.65,0,0,0,0-.43.72.72,0,0,0-.11-.48.62.62,0,0,0-.45-.12,1.86,1.86,0,0,0-.35,0l-.33.08.09-.41a5.57,5.57,0,0,1,.84-.33,2.23,2.23,0,0,1,.59-.11.91.91,0,0,1,.71.25,1,1,0,0,1,.22.67,2.63,2.63,0,0,1,0,.31,3.35,3.35,0,0,1-.07.4l-.63,2.71c0,.17-.07.33-.1.49a2.27,2.27,0,0,0,0,.39.65.65,0,0,0,.15.5.74.74,0,0,0,.49.13l.33,0A1.61,1.61,0,0,0,168.25,156.86Zm.42-8.16a1,1,0,0,1-.22.63.68.68,0,0,1-.55.27.67.67,0,0,1-.53-.26.88.88,0,0,1-.22-.59.92.92,0,0,1,.22-.61.67.67,0,0,1,.53-.26.7.7,0,0,1,.56.25A.84.84,0,0,1,168.68,148.7Z"/><path class="cls-2" d="M170.41,157.69a1.19,1.19,0,0,1-.83-.25.92.92,0,0,1-.26-.71,2.09,2.09,0,0,1,0-.28c0-.09,0-.19,0-.3l.93-4.26h-1.07l.13-.58h1.09l.42-1.87H172l-.4,1.87h1.66l-.12.58h-1.65l-.77,3.52c0,.16-.07.32-.09.47a2.59,2.59,0,0,0,0,.39.7.7,0,0,0,.16.51.84.84,0,0,0,.59.16l.44,0a1.9,1.9,0,0,0,.44-.11l-.1.47q-.42.17-.79.3A2.75,2.75,0,0,1,170.41,157.69Z"/><path class="cls-2" d="M177.14,156.63h0a6.09,6.09,0,0,1-1,.77,2.25,2.25,0,0,1-1.13.28,1.19,1.19,0,0,1-.91-.35,1.3,1.3,0,0,1-.33-.93,3.36,3.36,0,0,1,0-.36q0-.21.11-.62l.46-2q.07-.29.1-.5a2.43,2.43,0,0,0,0-.41.73.73,0,0,0-.11-.48.63.63,0,0,0-.45-.12,1.35,1.35,0,0,0-.33.05l-.32.09.09-.41a6.76,6.76,0,0,1,.82-.34,2,2,0,0,1,.57-.12,1,1,0,0,1,.71.23.94.94,0,0,1,.23.69,2.82,2.82,0,0,1,0,.31,3.51,3.51,0,0,1-.07.4l-.54,2.33c0,.18-.07.35-.1.5a2.25,2.25,0,0,0,0,.35,1.07,1.07,0,0,0,.19.68.68.68,0,0,0,.57.25,1.75,1.75,0,0,0,.85-.23,3.07,3.07,0,0,0,.78-.63l1-4.77,1-.08.07.1-1,5a9,9,0,0,1-.58,1.88,4.28,4.28,0,0,1-.82,1.26,3.06,3.06,0,0,1-1.07.73,3.58,3.58,0,0,1-1.31.22,3.4,3.4,0,0,1-.81-.08,1.29,1.29,0,0,1-.47-.21.65.65,0,0,1-.23-.29.92.92,0,0,1-.06-.32.79.79,0,0,1,.16-.48.52.52,0,0,1,.45-.21.56.56,0,0,1,.38.13,1.24,1.24,0,0,1,.25.29,2.67,2.67,0,0,1,.2.39l.14.34h.14a1.69,1.69,0,0,0,.72-.18,2.08,2.08,0,0,0,.7-.55,4.17,4.17,0,0,0,.61-1.05A7.29,7.29,0,0,0,177.14,156.63Z"/><rect class="cls-3" x="100.4" y="111.22" width="0.79" height="87.44"/><rect class="cls-3" x="100.4" width="0.79" height="87.44"/><rect class="cls-3" y="98.93" width="72.18" height="0.79"/><rect class="cls-3" x="129.41" y="98.93" width="72.11" height="0.79"/><path class="cls-4" d="M80.59,98.93H77.9V98h2.69V95.32h1V98h2.69v.94H81.56v2.68h-1Z"/><path class="cls-4" d="M101.79,94l-.09.42a3.51,3.51,0,0,0-.47.06l-.43.1a.63.63,0,0,0-.36.26,1.38,1.38,0,0,0-.16.38l-1.53,6.55a.71.71,0,0,0,0,.11s0,.08,0,.1a.48.48,0,0,0,.06.24.52.52,0,0,0,.19.19,1.28,1.28,0,0,0,.38.11,3.06,3.06,0,0,0,.45.06l-.1.42h-4l.1-.42.57,0a1.5,1.5,0,0,0,.48-.1,1.25,1.25,0,0,0,.36-.28.82.82,0,0,0,.18-.39L99,95.1h-.07L94,102.9h-.3l-1.13-8h-.07l-1.28,5.54c-.05.22-.09.44-.13.65a3.36,3.36,0,0,0-.05.51,1.24,1.24,0,0,0,0,.36.64.64,0,0,0,.13.24,1,1,0,0,0,.48.24,4.52,4.52,0,0,0,.58.14l-.1.42H88.55l.1-.42.6-.09a1.58,1.58,0,0,0,.55-.22,1.3,1.3,0,0,0,.43-.56,6.49,6.49,0,0,0,.36-1.22l1.08-4.67c0-.1,0-.18,0-.26a1.7,1.7,0,0,0,0-.23,1,1,0,0,0-.05-.34.76.76,0,0,0-.13-.23.9.9,0,0,0-.45-.26,2.49,2.49,0,0,0-.52-.09l.1-.42h3l1,6.77,3.5-5.67c.13-.22.25-.44.36-.67a3.45,3.45,0,0,0,.19-.44Z"/><path class="cls-4" d="M107.65,99.13a4.64,4.64,0,0,1-.25,1.5,3.94,3.94,0,0,1-.74,1.31,3.72,3.72,0,0,1-1.18.94,3.45,3.45,0,0,1-1.6.35,2.27,2.27,0,0,1-1.71-.68,2.52,2.52,0,0,1-.66-1.83,4.41,4.41,0,0,1,1-2.86,3.62,3.62,0,0,1,1.18-.89,3.44,3.44,0,0,1,1.52-.34,2.29,2.29,0,0,1,1.77.69A2.55,2.55,0,0,1,107.65,99.13Zm-1.29-.24a2.34,2.34,0,0,0-.32-1.35,1.06,1.06,0,0,0-.92-.45,1.71,1.71,0,0,0-1,.32,2.54,2.54,0,0,0-.8,1.05,4.86,4.86,0,0,0-.38,1.23,7.18,7.18,0,0,0-.12,1.25,2.47,2.47,0,0,0,.31,1.38,1.07,1.07,0,0,0,.95.47,1.55,1.55,0,0,0,1-.36,2.69,2.69,0,0,0,.71-.9,4.94,4.94,0,0,0,.42-1.22A6.79,6.79,0,0,0,106.35,98.89Z"/><path class="cls-4" d="M114.13,97.67a1.67,1.67,0,0,1-.05.39,1.08,1.08,0,0,1-.15.35,1,1,0,0,1-.25.26.87.87,0,0,1-.91-.08.53.53,0,0,1-.17-.38,1.25,1.25,0,0,1,.09-.44l.2-.49-.25,0a2.12,2.12,0,0,0-.42.16,3.4,3.4,0,0,0-.56.36,4.94,4.94,0,0,0-.67.64L110,103h-1.18l.93-4.12.09-.46a2.61,2.61,0,0,0,.06-.45.48.48,0,0,0-.6-.6,1.68,1.68,0,0,0-.35,0l-.34.08.09-.41a6.68,6.68,0,0,1,.88-.33,2.48,2.48,0,0,1,.65-.11.86.86,0,0,1,.72.28,1.33,1.33,0,0,1,.22.83h0a13,13,0,0,1,1.15-.92,1.45,1.45,0,0,1,.82-.26,1.55,1.55,0,0,1,.39.05.77.77,0,0,1,.32.17.84.84,0,0,1,.21.31A1.49,1.49,0,0,1,114.13,97.67Z"/><path class="cls-4" d="M120,98a1.7,1.7,0,0,1-.42,1.16,2.87,2.87,0,0,1-1.23.77,9.23,9.23,0,0,1-1.19.35q-.6.13-1.33.22a2.66,2.66,0,0,0,.37,1.53,1.25,1.25,0,0,0,1.09.53,2,2,0,0,0,1.12-.32,3.89,3.89,0,0,0,1-.95l.36.27a4,4,0,0,1-1.27,1.24,3,3,0,0,1-1.58.46,2.25,2.25,0,0,1-1.72-.63,2.5,2.5,0,0,1-.59-1.79,4.66,4.66,0,0,1,.25-1.53,4.43,4.43,0,0,1,.73-1.33,3.63,3.63,0,0,1,1.15-1,3.17,3.17,0,0,1,1.51-.36,2.07,2.07,0,0,1,1.35.37A1.19,1.19,0,0,1,120,98Zm-1.17-.16a.91.91,0,0,0-.07-.39.51.51,0,0,0-.18-.21.59.59,0,0,0-.24-.1l-.26,0a1.8,1.8,0,0,0-1.41.84,4.3,4.3,0,0,0-.82,2.08q.44-.06,1-.18a3.67,3.67,0,0,0,.93-.31,1.9,1.9,0,0,0,.78-.7A1.94,1.94,0,0,0,118.78,97.8Z"/><path class="cls-4" d="M122.81,102.31a.82.82,0,0,1-.26.61.87.87,0,0,1-1.23,0,.82.82,0,0,1-.26-.61.87.87,0,0,1,1.74,0Zm1.63-7.88a1.61,1.61,0,0,1,0,.3,4.13,4.13,0,0,1-.14.49q-.3.9-.73,2.13t-1,2.95H122q.22-1.47.45-3.39t.3-2.26a1.06,1.06,0,0,1,.37-.62,1,1,0,0,1,.64-.24.62.62,0,0,1,.47.18A.64.64,0,0,1,124.44,94.43Z"/></g></svg>