<svg xmlns="http://www.w3.org/2000/svg" viewBox="0 0 216.83 216.95"><defs><style>.cls-1{fill:#fff;opacity:0.4;}.cls-2{fill:#22d3c5;}.cls-3{fill:#2f2a34;}</style></defs><title>CirclesArtboard 15</title><g id="apps_Development" data-name="apps Development"><path class="cls-1" d="M216.83,103.34A108.54,108.54,0,0,0,113.48,0V103.34Z"/><path class="cls-1" d="M103.34,0A108.54,108.54,0,0,0,0,103.34H103.34Z"/><path class="cls-2" d="M108.41,216.95A108.53,108.53,0,0,0,216.83,113.48H0A108.53,108.53,0,0,0,108.41,216.95Z"/><path class="cls-3" d="M136.64,51.65h3a3.84,3.84,0,0,1,4.09,3.83v0a3.86,3.86,0,0,1-4.09,3.85h-3Zm1.69,1.53v4.64h1.31a2.19,2.19,0,0,0,2.32-2.3v0a2.21,2.21,0,0,0-2.32-2.32Z"/><path class="cls-3" d="M145.32,51.65H147v7.7h-1.69Z"/><path class="cls-3" d="M148.6,55.53v0a4,4,0,0,1,4-4,4.23,4.23,0,0,1,3,1.06l-1.07,1.29a2.84,2.84,0,0,0-2-.78,2.31,2.31,0,0,0-2.21,2.4v0a2.31,2.31,0,0,0,2.33,2.44,2.71,2.71,0,0,0,1.6-.46v-1.1h-1.71V54.92h3.34v3.34a5,5,0,0,1-3.29,1.22A3.85,3.85,0,0,1,148.6,55.53Z"/><path class="cls-3" d="M157.64,51.65h1.69v7.7h-1.69Z"/><path class="cls-3" d="M163.05,53.22h-2.34V51.65h6.38v1.56h-2.34v6.14h-1.69Z"/><path class="cls-3" d="M170,51.6h1.56l3.3,7.76h-1.77l-.7-1.73h-3.26l-.7,1.73h-1.73Zm1.78,4.53-1-2.5-1,2.5Z"/><path class="cls-3" d="M176.08,51.65h1.69v6.16h3.84v1.54h-5.53Z"/><path class="cls-3" d="M124.9,64.85h1.83l2,3.26,2-3.26h1.83v7.7h-1.68v-5l-2.17,3.29h0l-2.15-3.26v5H124.9Z"/><path class="cls-3" d="M137.09,64.8h1.56l3.3,7.76h-1.77l-.7-1.73h-3.26l-.7,1.73h-1.73Zm1.78,4.53-1-2.5-1,2.5Z"/><path class="cls-3" d="M143.14,64.85h3.52a3.07,3.07,0,0,1,2.25.78,2.42,2.42,0,0,1,.66,1.76v0a2.39,2.39,0,0,1-1.65,2.39l1.88,2.75h-2l-1.65-2.46h-1.33v2.46h-1.69Zm3.41,3.74c.83,0,1.3-.44,1.3-1.09v0c0-.73-.51-1.1-1.33-1.1h-1.68v2.21Z"/><path class="cls-3" d="M151.09,64.85h1.69v3.37l3.13-3.37h2l-3.14,3.27,3.28,4.43h-2l-2.39-3.28-.89.92v2.35h-1.69Z"/><path class="cls-3" d="M159.12,64.85h5.81v1.51h-4.13v1.56h3.63v1.51h-3.63V71H165v1.51h-5.86Z"/><path class="cls-3" d="M168.29,66.42h-2.34V64.85h6.38v1.56H170v6.14h-1.69Z"/><path class="cls-3" d="M173.7,64.85h1.69v7.7H173.7Z"/><path class="cls-3" d="M177.32,64.85h1.56l3.61,4.74V64.85h1.67v7.7h-1.44L179,67.66v4.9h-1.67Z"/><path class="cls-3" d="M185.66,68.73v0a4,4,0,0,1,4-4,4.23,4.23,0,0,1,3,1.06l-1.07,1.29a2.84,2.84,0,0,0-2-.78,2.31,2.31,0,0,0-2.21,2.4v0a2.31,2.31,0,0,0,2.33,2.44,2.71,2.71,0,0,0,1.6-.46v-1.1h-1.71V68.12H193v3.34a5,5,0,0,1-3.29,1.22A3.85,3.85,0,0,1,185.66,68.73Z"/><path class="cls-3" d="M136.68,84.63l1-1.2a3.53,3.53,0,0,0,2.3.94c.69,0,1.11-.27,1.11-.73v0c0-.43-.26-.65-1.55-1-1.55-.4-2.55-.83-2.55-2.35v0a2.41,2.41,0,0,1,2.7-2.32,4.46,4.46,0,0,1,2.86,1l-.88,1.28a3.62,3.62,0,0,0-2-.76c-.65,0-1,.3-1,.67v0c0,.51.33.67,1.66,1,1.56.41,2.44,1,2.44,2.31v0c0,1.53-1.17,2.39-2.83,2.39A4.9,4.9,0,0,1,136.68,84.63Z"/><path class="cls-3" d="M146.08,82.72l-3-4.66h2l1.84,3.09,1.87-3.09h1.92l-3,4.63v3.07h-1.69Z"/><path class="cls-3" d="M150.88,84.63l1-1.2a3.53,3.53,0,0,0,2.3.94c.69,0,1.11-.27,1.11-.73v0c0-.43-.26-.65-1.55-1-1.55-.4-2.55-.83-2.55-2.35v0a2.41,2.41,0,0,1,2.7-2.32,4.46,4.46,0,0,1,2.86,1l-.88,1.28a3.62,3.62,0,0,0-2-.76c-.65,0-1,.3-1,.67v0c0,.51.33.67,1.66,1,1.56.41,2.44,1,2.44,2.31v0c0,1.53-1.17,2.39-2.83,2.39A4.9,4.9,0,0,1,150.88,84.63Z"/><path class="cls-3" d="M160.07,79.62h-2.34V78.05h6.38v1.56h-2.34v6.14h-1.69Z"/><path class="cls-3" d="M165.41,78.05h5.81v1.51h-4.13v1.56h3.63v1.51h-3.63v1.62h4.18v1.51h-5.86Z"/><path class="cls-3" d="M172.78,78.05h1.83l2,3.26,2-3.26h1.83v7.7H178.8v-5L176.63,84h0l-2.15-3.26v5h-1.66Z"/><path class="cls-3" d="M28.58,55.4v0a3.91,3.91,0,0,1,4-4,4,4,0,0,1,3,1.19l-1.08,1.24a2.84,2.84,0,0,0-2-.87,2.28,2.28,0,0,0-2.23,2.4v0a2.29,2.29,0,0,0,2.23,2.42,2.78,2.78,0,0,0,2-.9L35.69,58a3.94,3.94,0,0,1-3.16,1.38A3.89,3.89,0,0,1,28.58,55.4Z"/><path class="cls-3" d="M36.48,55.4v0a4.09,4.09,0,0,1,8.19,0v0a4.09,4.09,0,0,1-8.19,0Zm6.41,0v0A2.34,2.34,0,0,0,40.56,53a2.3,2.3,0,0,0-2.31,2.4v0a2.34,2.34,0,0,0,2.33,2.42A2.3,2.3,0,0,0,42.9,55.4Z"/><path class="cls-3" d="M46.17,51.53h1.56l3.61,4.74V51.53H53v7.7H51.57l-3.73-4.9v4.9H46.17Z"/><path class="cls-3" d="M56.66,53.09H54.31V51.53h6.38v1.56H58.35v6.14H56.66Z"/><path class="cls-3" d="M62,51.53H67.8V53H63.67V54.6H67.3v1.51H63.67v1.62h4.18v1.51H62Z"/><path class="cls-3" d="M69.36,51.53h1.56l3.61,4.74V51.53H76.2v7.7H74.76L71,54.34v4.9H69.36Z"/><path class="cls-3" d="M79.84,53.09H77.5V51.53h6.38v1.56H81.54v6.14H79.84Z"/><path class="cls-3" d="M15.13,64.73H17L19,68l2-3.26h1.83v7.7H21.14v-5L19,70.69h0l-2.15-3.26v5H15.13Z"/><path class="cls-3" d="M27.31,64.68h1.56l3.3,7.76H30.41l-.7-1.73H26.44l-.7,1.73H24Zm1.78,4.53-1-2.5-1,2.5Z"/><path class="cls-3" d="M33.36,64.73h1.56l3.61,4.74V64.73h1.67v7.7H38.77L35,67.54v4.9H33.36Z"/><path class="cls-3" d="M44.69,64.68h1.56l3.3,7.76H47.79l-.7-1.73H43.82l-.7,1.73H41.39Zm1.78,4.53-1-2.5-1,2.5Z"/><path class="cls-3" d="M49.91,68.6v0a4,4,0,0,1,4-4,4.23,4.23,0,0,1,3,1.06L55.9,66.94a2.84,2.84,0,0,0-2-.78,2.31,2.31,0,0,0-2.21,2.4v0A2.31,2.31,0,0,0,54,71a2.71,2.71,0,0,0,1.6-.46v-1.1H53.9V68h3.34v3.34A5,5,0,0,1,54,72.56,3.85,3.85,0,0,1,49.91,68.6Z"/><path class="cls-3" d="M58.87,64.73h5.81v1.51H60.56V67.8h3.63v1.51H60.56v1.62h4.18v1.51H58.87Z"/><path class="cls-3" d="M66.24,64.73h1.83l2,3.26,2-3.26h1.83v7.7H72.26v-5l-2.17,3.29h0L67.9,67.44v5H66.24Z"/><path class="cls-3" d="M75.79,64.73H81.6v1.51H77.47V67.8H81.1v1.51H77.47v1.62h4.18v1.51H75.79Z"/><path class="cls-3" d="M83.16,64.73h1.56l3.61,4.74V64.73H90v7.7H88.56l-3.73-4.9v4.9H83.16Z"/><path class="cls-3" d="M93.64,66.29H91.3V64.73h6.38v1.56H95.34v6.14H93.64Z"/><path class="cls-3" d="M34,84.51l1-1.2a3.53,3.53,0,0,0,2.3.94c.69,0,1.11-.27,1.11-.73v0c0-.43-.26-.65-1.55-1-1.55-.4-2.55-.83-2.55-2.35v0A2.41,2.41,0,0,1,37,77.82a4.46,4.46,0,0,1,2.86,1l-.88,1.28a3.62,3.62,0,0,0-2-.76c-.65,0-1,.3-1,.67v0c0,.51.33.67,1.66,1,1.56.41,2.44,1,2.44,2.31v0c0,1.53-1.17,2.39-2.83,2.39A4.9,4.9,0,0,1,34,84.51Z"/><path class="cls-3" d="M43.37,82.6l-3-4.66h2L44.23,81l1.87-3.09H48l-3,4.63v3.07H43.37Z"/><path class="cls-3" d="M48.16,84.51l1-1.2a3.53,3.53,0,0,0,2.3.94c.69,0,1.11-.27,1.11-.73v0c0-.43-.26-.65-1.55-1-1.55-.4-2.55-.83-2.55-2.35v0a2.41,2.41,0,0,1,2.7-2.32,4.46,4.46,0,0,1,2.86,1l-.88,1.28a3.62,3.62,0,0,0-2-.76c-.65,0-1,.3-1,.67v0c0,.51.33.67,1.66,1,1.56.41,2.44,1,2.44,2.31v0c0,1.53-1.17,2.39-2.83,2.39A4.9,4.9,0,0,1,48.16,84.51Z"/><path class="cls-3" d="M57.36,79.49H55V77.93H61.4v1.56H59.06v6.14H57.36Z"/><path class="cls-3" d="M62.69,77.93H68.5v1.51H64.38V81H68v1.51H64.38v1.62h4.18v1.51H62.69Z"/><path class="cls-3" d="M70.06,77.93h1.83l2,3.26,2-3.26h1.83v7.7H76.08v-5l-2.17,3.29h0l-2.15-3.26v5H70.06Z"/><path class="cls-3" d="M32.49,149.5v0a3.91,3.91,0,0,1,4-4,4,4,0,0,1,3,1.19l-1.08,1.24a2.84,2.84,0,0,0-2-.87,2.28,2.28,0,0,0-2.23,2.4v0a2.29,2.29,0,0,0,2.23,2.42,2.78,2.78,0,0,0,2-.9l1.08,1.09a3.94,3.94,0,0,1-3.16,1.38A3.89,3.89,0,0,1,32.49,149.5Z"/><path class="cls-3" d="M40.82,150v-4.4h1.69V150c0,1.25.63,1.9,1.66,1.9s1.66-.63,1.66-1.85v-4.41h1.69V150c0,2.33-1.31,3.48-3.38,3.48S40.82,152.29,40.82,150Z"/><path class="cls-3" d="M48.73,152.2l1-1.2a3.53,3.53,0,0,0,2.3.94c.69,0,1.11-.27,1.11-.73v0c0-.43-.26-.65-1.55-1-1.55-.4-2.55-.83-2.55-2.35v0a2.41,2.41,0,0,1,2.7-2.32,4.46,4.46,0,0,1,2.86,1l-.88,1.28a3.62,3.62,0,0,0-2-.76c-.65,0-1,.3-1,.67v0c0,.51.33.67,1.66,1,1.56.41,2.44,1,2.44,2.31v0c0,1.53-1.17,2.39-2.83,2.39A4.9,4.9,0,0,1,48.73,152.2Z"/><path class="cls-3" d="M57.93,147.19H55.59v-1.56H62v1.56H59.62v6.14H57.93Z"/><path class="cls-3" d="M62.59,149.5v0a4.09,4.09,0,0,1,8.19,0v0a4.09,4.09,0,0,1-8.19,0Zm6.41,0v0a2.34,2.34,0,0,0-2.33-2.42,2.3,2.3,0,0,0-2.31,2.4v0a2.34,2.34,0,0,0,2.33,2.42A2.3,2.3,0,0,0,69,149.5Z"/><path class="cls-3" d="M72.28,145.62h1.83l2,3.26,2-3.26H80v7.7H78.3v-5l-2.17,3.29h0l-2.15-3.26v5H72.28Z"/><path class="cls-3" d="M81.83,145.62h5.81v1.51H83.52v1.56h3.63v1.51H83.52v1.62H87.7v1.51H81.83Z"/><path class="cls-3" d="M89.2,145.62h3.52a3.07,3.07,0,0,1,2.25.78,2.42,2.42,0,0,1,.66,1.76v0A2.39,2.39,0,0,1,94,150.57l1.88,2.75h-2l-1.65-2.46H90.9v2.46H89.2Zm3.41,3.74c.83,0,1.3-.44,1.3-1.09v0c0-.73-.51-1.1-1.33-1.1H90.9v2.21Z"/><path class="cls-3" d="M100.45,145.62H104a3.07,3.07,0,0,1,2.25.78,2.42,2.42,0,0,1,.66,1.76v0a2.39,2.39,0,0,1-1.65,2.39l1.88,2.75h-2l-1.65-2.46h-1.33v2.46h-1.69Zm3.41,3.74c.83,0,1.3-.44,1.3-1.09v0c0-.73-.51-1.1-1.33-1.1h-1.68v2.21Z"/><path class="cls-3" d="M108.41,145.62h5.81v1.51h-4.13v1.56h3.63v1.51h-3.63v1.62h4.18v1.51h-5.86Z"/><path class="cls-3" d="M115.78,145.62h1.69v6.16h3.84v1.54h-5.53Z"/><path class="cls-3" d="M125.23,145.57h1.56l3.3,7.76h-1.77l-.7-1.73h-3.26l-.7,1.73h-1.73ZM127,150.1l-1-2.5-1,2.5Z"/><path class="cls-3" d="M132.08,147.19h-2.34v-1.56h6.38v1.56h-2.34v6.14h-1.69Z"/><path class="cls-3" d="M137.49,145.62h1.69v7.7h-1.69Z"/><path class="cls-3" d="M140.77,149.5v0a4.09,4.09,0,0,1,8.19,0v0a4.09,4.09,0,0,1-8.19,0Zm6.41,0v0a2.34,2.34,0,0,0-2.33-2.42,2.3,2.3,0,0,0-2.31,2.4v0a2.34,2.34,0,0,0,2.33,2.42A2.3,2.3,0,0,0,147.18,149.5Z"/><path class="cls-3" d="M150.46,145.62H152l3.61,4.74v-4.74h1.67v7.7h-1.44l-3.73-4.9v4.9h-1.67Z"/><path class="cls-3" d="M158.62,152.2l1-1.2a3.53,3.53,0,0,0,2.3.94c.69,0,1.11-.27,1.11-.73v0c0-.43-.26-.65-1.55-1-1.55-.4-2.55-.83-2.55-2.35v0a2.41,2.41,0,0,1,2.7-2.32,4.46,4.46,0,0,1,2.86,1l-.88,1.28a3.62,3.62,0,0,0-2-.76c-.65,0-1,.3-1,.67v0c0,.51.33.67,1.66,1,1.56.41,2.44,1,2.44,2.31v0c0,1.53-1.17,2.39-2.83,2.39A4.9,4.9,0,0,1,158.62,152.2Z"/><path class="cls-3" d="M166.19,145.62h1.69v3H171v-3h1.69v7.7H171v-3.09h-3.12v3.09h-1.69Z"/><path class="cls-3" d="M174.63,145.62h1.69v7.7h-1.69Z"/><path class="cls-3" d="M178.25,145.62h3.15a2.64,2.64,0,0,1,2.95,2.66v0c0,1.78-1.39,2.71-3.11,2.71h-1.29v2.31h-1.69Zm3,3.88a1.19,1.19,0,0,0,1.34-1.17v0c0-.76-.53-1.17-1.37-1.17h-1.31v2.35Z"/><path class="cls-3" d="M67.28,158.82h1.83l2,3.26,2-3.26H75v7.7H73.3v-5l-2.17,3.29h0l-2.15-3.26v5H67.28Z"/><path class="cls-3" d="M79.47,158.77H81l3.3,7.76H82.56l-.7-1.73H78.6l-.7,1.73H76.17Zm1.78,4.53-1-2.5-1,2.5Z"/><path class="cls-3" d="M85.52,158.82h1.56l3.61,4.74v-4.74h1.67v7.7H90.93l-3.73-4.9v4.9H85.52Z"/><path class="cls-3" d="M96.85,158.77h1.56l3.3,7.76H99.94l-.7-1.73H96l-.7,1.73H93.55Zm1.78,4.53-1-2.5-1,2.5Z"/><path class="cls-3" d="M102.07,162.7v0a4,4,0,0,1,4-4,4.23,4.23,0,0,1,3,1.06L108.06,161a2.84,2.84,0,0,0-2-.78,2.31,2.31,0,0,0-2.21,2.4v0a2.31,2.31,0,0,0,2.33,2.44,2.71,2.71,0,0,0,1.6-.46v-1.1h-1.71v-1.46h3.34v3.34a5,5,0,0,1-3.29,1.22A3.85,3.85,0,0,1,102.07,162.7Z"/><path class="cls-3" d="M111,158.82h5.81v1.51h-4.13v1.56h3.63v1.51h-3.63V165h4.18v1.51H111Z"/><path class="cls-3" d="M118.4,158.82h1.83l2,3.26,2-3.26h1.83v7.7h-1.68v-5l-2.17,3.29h0l-2.15-3.26v5H118.4Z"/><path class="cls-3" d="M127.95,158.82h5.81v1.51h-4.13v1.56h3.63v1.51h-3.63V165h4.18v1.51h-5.86Z"/><path class="cls-3" d="M135.32,158.82h1.56l3.61,4.74v-4.74h1.67v7.7h-1.44l-3.73-4.9v4.9h-1.67Z"/><path class="cls-3" d="M145.8,160.39h-2.34v-1.56h6.38v1.56H147.5v6.14H145.8Z"/></g></svg>