<svg xmlns="http://www.w3.org/2000/svg" xmlns:xlink="http://www.w3.org/1999/xlink" viewBox="0 0 130 130"><defs><style>.cls-1{fill:none;}.cls-2{clip-path:url(#clip-path);}.cls-3{fill:#22d3c5;}.cls-4{fill:#fff;}</style><clipPath id="clip-path"><circle class="cls-1" cx="65" cy="65" r="65" transform="translate(-26.92 65) rotate(-45)"/></clipPath></defs><title>Icons</title><g id="apps_Development" data-name="apps Development"><g class="cls-2"><path class="cls-3" d="M109.23,123.65a48.7,48.7,0,0,1-35.1,14L44.4,167.35a47.9,47.9,0,0,1-67.66,0l-14.09-14.09a47.9,47.9,0,0,1,0-67.66L-7.63,55.88a48.69,48.69,0,0,1,14-35.11A47.9,47.9,0,0,1,27.82,8.39L75.9-4.5a47.84,47.84,0,0,1,58.59,58.62L121.61,102.2A47.93,47.93,0,0,1,109.23,123.65Z"/><path class="cls-4" d="M107.28,121.7A45.7,45.7,0,0,1,73,134.83L42.46,165.4a45.14,45.14,0,0,1-63.77,0L-35.4,151.31a45.14,45.14,0,0,1,0-63.77L-4.84,57A45.68,45.68,0,0,1,8.3,22.72,45.14,45.14,0,0,1,28.53,11L76.61-1.84A45.09,45.09,0,0,1,131.83,53.4L119,101.49A45.17,45.17,0,0,1,107.28,121.7Z"/><path class="cls-3" d="M105.34,119.76A42.71,42.71,0,0,1,72,132L40.51,163.46a42.39,42.39,0,0,1-59.88,0l-14.09-14.09a42.39,42.39,0,0,1,0-59.88L-2,58A42.33,42.33,0,0,1,29.24,13.7L77.32.81a42.34,42.34,0,0,1,51.86,51.88L116.3,100.78A42.41,42.41,0,0,1,105.34,119.76Z"/><path class="cls-4" d="M103.39,117.81a39.73,39.73,0,0,1-32.45,11.33L38.57,161.51a39.64,39.64,0,0,1-56,0l-14.09-14.09a39.64,39.64,0,0,1,0-56L.85,59.07A39.58,39.58,0,0,1,30,16.36L78,3.47A39.59,39.59,0,0,1,126.52,52l-12.88,48.09A39.66,39.66,0,0,1,103.39,117.81Z"/><path class="cls-3" d="M101.45,115.87A36.79,36.79,0,0,1,70,126.24L36.63,159.57a36.89,36.89,0,0,1-52.1,0l-14.09-14.09a36.89,36.89,0,0,1,0-52.1L3.75,60.05A36.83,36.83,0,0,1,30.67,19L78.74,6.13a36.84,36.84,0,0,1,45.12,45.14L111,99.35A36.9,36.9,0,0,1,101.45,115.87Z"/><path class="cls-4" d="M99.51,113.92A33.87,33.87,0,0,1,69,123.29L34.68,157.62a34.13,34.13,0,0,1-48.22,0l-14.09-14.09a34.13,34.13,0,0,1,0-48.22L6.7,61A34.08,34.08,0,0,1,31.38,21.67L79.46,8.78a34.09,34.09,0,0,1,41.75,41.77L108.33,98.64A34.15,34.15,0,0,1,99.51,113.92Z"/><path class="cls-3" d="M97.56,112a31.37,31.37,0,0,1-29.43,8.31L32.74,155.68a31.38,31.38,0,0,1-44.33,0l-14.09-14.09a31.38,31.38,0,0,1,0-44.33L9.7,61.88A31.33,31.33,0,0,1,32.09,24.33L80.17,11.44a31.34,31.34,0,0,1,38.38,38.4L105.67,97.93A31.39,31.39,0,0,1,97.56,112Z"/><path class="cls-4" d="M95.62,110a28.75,28.75,0,0,1-28.32,7.19L30.79,153.74a28.63,28.63,0,0,1-40.44,0l-14.09-14.09a28.63,28.63,0,0,1,0-40.44L12.77,62.7A28.58,28.58,0,0,1,32.8,27L80.88,14.1a28.59,28.59,0,0,1,35,35L103,97.22A28.63,28.63,0,0,1,95.62,110Z"/><path class="cls-3" d="M93.67,108.09a26,26,0,0,1-27.12,6l-37.7,37.7a25.87,25.87,0,0,1-36.55,0L-21.79,137.7a25.87,25.87,0,0,1,0-36.55l37.7-37.7a25.83,25.83,0,0,1,17.6-33.81L81.59,16.75a25.84,25.84,0,0,1,31.65,31.66L100.36,96.5A25.88,25.88,0,0,1,93.67,108.09Z"/><path class="cls-4" d="M91.73,106.14a23.19,23.19,0,0,1-25.84,4.71l-39,39a23.12,23.12,0,0,1-32.66,0l-14.09-14.09a23.12,23.12,0,0,1,0-32.66l39-39A23.08,23.08,0,0,1,34.22,32.3L82.3,19.41A23.09,23.09,0,0,1,110.59,47.7L97.7,95.79A23.12,23.12,0,0,1,91.73,106.14Z"/><path class="cls-3" d="M89.78,104.2a20.5,20.5,0,0,1-24.43,3.31L25,147.9a20.37,20.37,0,0,1-28.77,0L-17.9,133.81a20.37,20.37,0,0,1,0-28.77l40.4-40.4A20.33,20.33,0,0,1,34.93,35L83,22.07A20.34,20.34,0,0,1,107.93,47L95,95.08A20.36,20.36,0,0,1,89.78,104.2Z"/><path class="cls-4" d="M87.84,102.26A17.62,17.62,0,0,1,65,104L23,146a17.61,17.61,0,0,1-24.88,0L-16,131.87A17.61,17.61,0,0,1-16,107L26,65a17.58,17.58,0,0,1,9.63-27.41L83.73,24.72a17.59,17.59,0,0,1,21.55,21.55L92.39,94.37A17.61,17.61,0,0,1,87.84,102.26Z"/><path class="cls-3" d="M85.89,100.31a14.86,14.86,0,0,1-21,0l-.06-.06L21.07,144a14.86,14.86,0,0,1-21,0L-14,129.92a14.86,14.86,0,0,1,0-21L29.75,65.16l-.06-.06a14.84,14.84,0,0,1,6.66-24.83L84.44,27.38a14.84,14.84,0,0,1,18.18,18.18L89.73,93.66A14.85,14.85,0,0,1,85.89,100.31Z"/><path class="cls-4" d="M83.95,98.37a12.11,12.11,0,0,1-17.11,0l-2-2L19.12,142.07a12.11,12.11,0,0,1-17.1,0L-12.07,128a12.11,12.11,0,0,1,0-17.1L33.64,65.16l-2-2a12.09,12.09,0,0,1,5.43-20.23L85.15,30A12.09,12.09,0,0,1,100,44.85L87.08,92.95A12.1,12.1,0,0,1,83.95,98.37Z"/><path class="cls-3" d="M82,96.42a9.36,9.36,0,0,1-13.22,0l-4-4L17.18,140.12a9.35,9.35,0,0,1-13.21,0L-10.12,126a9.35,9.35,0,0,1,0-13.21L37.53,65.16l-4-4a9.34,9.34,0,0,1,4.19-15.63L85.86,32.69A9.34,9.34,0,0,1,97.31,44.14L84.42,92.23A9.35,9.35,0,0,1,82,96.42Z"/><path class="cls-4" d="M80.06,94.48a6.6,6.6,0,0,1-9.33,0l-5.9-5.9-49.6,49.6a6.6,6.6,0,0,1-9.32,0L-8.18,124.09a6.6,6.6,0,0,1,0-9.32l49.6-49.6-5.9-5.9a6.59,6.59,0,0,1,3-11L86.58,35.35a6.59,6.59,0,0,1,8.07,8.08L81.76,91.52A6.59,6.59,0,0,1,80.06,94.48Z"/><path class="cls-3" d="M78.12,92.53a3.85,3.85,0,0,1-5.44,0l-7.84-7.84L13.29,136.23a3.85,3.85,0,0,1-5.44,0L-6.24,122.14a3.85,3.85,0,0,1,0-5.44L45.31,65.16l-7.84-7.84a3.84,3.84,0,0,1,1.72-6.43L87.29,38A3.84,3.84,0,0,1,92,42.71L79.11,90.81A3.85,3.85,0,0,1,78.12,92.53Z"/><path class="cls-4" d="M88,40.66,39.9,53.55a1.09,1.09,0,0,0-.49,1.83l9,9a1.09,1.09,0,0,1,0,1.55L-4.29,118.65a1.09,1.09,0,0,0,0,1.55L9.8,134.29a1.09,1.09,0,0,0,1.55,0L64.06,81.57a1.09,1.09,0,0,1,1.55,0l9,9a1.09,1.09,0,0,0,1.83-.49L89.34,42A1.09,1.09,0,0,0,88,40.66Z"/></g></g></svg>