<svg xmlns="http://www.w3.org/2000/svg" viewBox="0 0 504 73.71"><defs><style>.cls-1{fill:#2f2b34;}.cls-2{fill:#81cec8;}.cls-3{fill:#f37163;}.cls-4{fill:#00aca0;}.cls-5{fill:#c8d9df;}</style></defs><title>Bars_NEWAsset 4</title><g id="Layer_2" data-name="Layer 2"><g id="Layer_1-2" data-name="Layer 1"><path class="cls-1" d="M329.54,67h2.56a2.18,2.18,0,0,1,2.46,2.17v0c0,1.45-1.17,2.21-2.59,2.21h-1.29v2.08h-1.14ZM332,70.32c.86,0,1.4-.48,1.4-1.16v0c0-.76-.55-1.16-1.4-1.16h-1.32v2.33Z"/><path class="cls-1" d="M337.38,66.91h1.06l2.85,6.53h-1.2l-.66-1.57h-3.07l-.67,1.57h-1.17Zm1.63,4-1.12-2.59-1.11,2.59Z"/><path class="cls-1" d="M341.85,72.49l.69-.81a3,3,0,0,0,2,.84c.7,0,1.15-.33,1.15-.81v0c0-.46-.26-.71-1.46-1-1.38-.33-2.16-.74-2.16-1.94v0a2,2,0,0,1,2.21-1.88,3.59,3.59,0,0,1,2.35.81l-.61.86a2.94,2.94,0,0,0-1.76-.67c-.67,0-1.06.34-1.06.77v0c0,.5.3.72,1.55,1s2.07.82,2.07,1.9v0c0,1.21-1,1.94-2.32,1.94A4,4,0,0,1,341.85,72.49Z"/><path class="cls-1" d="M349.67,68h-2.06V67h5.26V68h-2.06v5.43h-1.15Z"/><path class="cls-1" d="M372.25,67h2.56a2.18,2.18,0,0,1,2.46,2.17v0c0,1.45-1.17,2.21-2.59,2.21h-1.29v2.08h-1.14Zm2.46,3.37c.86,0,1.4-.48,1.4-1.16v0c0-.76-.55-1.16-1.4-1.16h-1.32v2.33Z"/><path class="cls-1" d="M378.43,67h2.89a2.61,2.61,0,0,1,1.87.65,2,2,0,0,1,.54,1.4v0a2,2,0,0,1-1.54,2l1.75,2.45h-1.35L381,71.18h-1.43v2.26h-1.14Zm2.81,3.21c.81,0,1.33-.43,1.33-1.08v0c0-.69-.5-1.07-1.34-1.07h-1.66v2.18Z"/><path class="cls-1" d="M385.13,67h4.81v1h-3.67v1.69h3.25v1h-3.25v1.74H390v1h-4.85Z"/><path class="cls-1" d="M390.9,72.49l.69-.81a3,3,0,0,0,2,.84c.7,0,1.15-.33,1.15-.81v0c0-.46-.26-.71-1.46-1-1.38-.33-2.16-.74-2.16-1.94v0a2,2,0,0,1,2.21-1.88,3.59,3.59,0,0,1,2.35.81l-.61.86a2.94,2.94,0,0,0-1.76-.67c-.67,0-1.06.34-1.06.77v0c0,.5.3.72,1.55,1s2.07.82,2.07,1.9v0c0,1.21-1,1.94-2.32,1.94A4,4,0,0,1,390.9,72.49Z"/><path class="cls-1" d="M397.26,67h4.81v1H398.4v1.69h3.25v1H398.4v1.74h3.71v1h-4.85Z"/><path class="cls-1" d="M403.47,67h1.06L408,71.44V67h1.12v6.48h-1l-3.58-4.61v4.61h-1.12Z"/><path class="cls-1" d="M412.38,68h-2.06V67h5.26V68h-2.06v5.43h-1.15Z"/><path class="cls-1" d="M435,67.12h4.83v1h-3.69v1.77h3.27v1h-3.27v2.64H435Z"/><path class="cls-1" d="M441,70.86V67.12h1.14v3.69c0,1.2.62,1.84,1.64,1.84s1.63-.6,1.63-1.8V67.12h1.14V70.8a2.59,2.59,0,0,1-2.79,2.91A2.56,2.56,0,0,1,441,70.86Z"/><path class="cls-1" d="M449.71,68.18h-2.06V67.12h5.26v1.06h-2.06v5.43h-1.15Z"/><path class="cls-1" d="M454,70.86V67.12h1.14v3.69c0,1.2.62,1.84,1.64,1.84s1.63-.6,1.63-1.8V67.12h1.14V70.8a2.59,2.59,0,0,1-2.79,2.91A2.56,2.56,0,0,1,454,70.86Z"/><path class="cls-1" d="M461.13,67.12H464a2.61,2.61,0,0,1,1.87.65,2,2,0,0,1,.54,1.4v0a2,2,0,0,1-1.54,2l1.75,2.45h-1.35l-1.59-2.26h-1.43v2.26h-1.14Zm2.81,3.21c.81,0,1.33-.43,1.33-1.08v0c0-.69-.5-1.07-1.34-1.07h-1.66v2.18Z"/><path class="cls-1" d="M467.83,67.12h4.81v1H469v1.69h3.25v1H469v1.74h3.71v1h-4.85Z"/><rect class="cls-2" x="9.14" y="34.94" width="8.37" height="19.08"/><rect class="cls-3" x="31.52" y="40.68" width="8.37" height="13.34"/><rect class="cls-4" x="53.9" y="28.98" width="8.37" height="25.04"/><rect class="cls-5" x="76.28" y="34.94" width="8.37" height="19.08"/><rect class="cls-2" x="98.66" y="30.58" width="8.37" height="23.45"/><rect class="cls-3" x="121.04" y="41.5" width="8.37" height="12.52"/><rect class="cls-4" x="143.42" y="38.39" width="8.37" height="15.63"/><rect class="cls-5" x="165.8" y="30.58" width="8.37" height="23.45"/><rect class="cls-2" x="188.18" y="43.86" width="8.37" height="10.17"/><rect class="cls-3" x="210.56" y="34.94" width="8.37" height="19.08"/><rect class="cls-4" x="232.95" y="32.64" width="8.37" height="21.38"/><rect class="cls-5" x="255.33" y="34.94" width="8.37" height="19.08"/><rect class="cls-2" x="277.71" y="38.39" width="8.37" height="15.63"/><rect class="cls-3" x="300.09" y="34.94" width="8.37" height="19.08"/><rect class="cls-4" x="322.47" y="32.64" width="8.37" height="21.38"/><rect class="cls-5" x="344.85" y="36.89" width="8.37" height="17.13"/><rect class="cls-2" x="367.23" y="22.86" width="8.37" height="31.17"/><rect class="cls-3" x="389.61" y="8" width="8.37" height="46.03"/><rect class="cls-4" x="411.99" y="20.01" width="8.37" height="34.02"/><rect class="cls-5" x="434.37" y="13.41" width="8.37" height="40.61"/><rect class="cls-2" x="456.75" y="6.17" width="8.37" height="47.85"/><rect class="cls-3" x="479.13" width="8.37" height="54.02"/><rect class="cls-1" x="1.14" y="58.96" width="352.08" height="1.03"/><rect class="cls-1" x="367.23" y="58.96" width="53.13" height="1.03"/><rect class="cls-1" x="434.37" y="58.96" width="68.23" height="1.03"/><rect class="cls-1" x="498.48" y="57.18" width="6.04" height="1.03" transform="translate(187.68 -337.72) rotate(45)"/><rect class="cls-1" x="498.48" y="60.74" width="6.04" height="1.03" transform="translate(103.58 372.55) rotate(-45)"/><rect class="cls-1" x="-0.52" y="57.18" width="6.04" height="1.03" transform="translate(45.07 96.73) rotate(135)"/><rect class="cls-1" x="-0.52" y="60.74" width="6.04" height="1.03" transform="translate(-39.04 106.33) rotate(-135)"/></g></g></svg>