<?xml version="1.0" encoding="utf-8"?>
<!-- Generator: Adobe Illustrator 21.1.0, SVG Export Plug-In . SVG Version: 6.00 Build 0)  -->
<svg version="1.1" xmlns="http://www.w3.org/2000/svg" xmlns:xlink="http://www.w3.org/1999/xlink" x="0px" y="0px"
	 viewBox="0 0 496.6 496.6" style="enable-background:new 0 0 496.6 496.6;" xml:space="preserve">
<style type="text/css">
	.st0{display:none;}
	.st1{display:inline;}
	.st2{fill:#B4EBF7;}
	.st3{fill:#414042;}
	.st4{fill:#FFFFFF;}
	.st5{opacity:0.3;fill:#231F20;}
	.st6{fill:#F1F2F2;}
	.st7{fill:#47D2E9;}
	.st8{fill:#EAEDF0;stroke:#2BD4C6;stroke-width:5;stroke-linejoin:round;stroke-miterlimit:10;}
	.st9{fill:none;stroke:#2BD4C6;stroke-width:5;stroke-linejoin:round;stroke-miterlimit:10;}
	.st10{fill:#22D3C5;}
	.st11{fill:#2F2A34;}
	.st12{opacity:0.8;}
	.st13{opacity:0.4;}
	.st14{fill:#FF6E69;}
	.st15{fill:#00A19C;}
	.st16{fill:#DEDDDE;}
	.st17{fill:none;stroke:#FFF5B1;stroke-width:8.5045;stroke-miterlimit:10;}
	.st18{fill:#C0CDD5;}
	.st19{fill:#FFF5B1;}
	.st20{fill:none;stroke:#FFFFFF;stroke-width:3;stroke-miterlimit:10;}
	.st21{opacity:0;clip-path:url(#SVGID_2_);fill:#FFFFFF;}
	.st22{clip-path:url(#SVGID_4_);}
	.st23{clip-path:url(#SVGID_6_);}
	.st24{clip-path:url(#SVGID_10_);}
	.st25{fill:url(#SVGID_11_);}
	.st26{fill:url(#SVGID_12_);}
	.st27{fill:#B5C3C9;}
	.st28{fill:#BFCFD7;}
	.st29{clip-path:url(#SVGID_14_);}
	.st30{fill:url(#SVGID_15_);}
	.st31{fill:#BFCCD4;}
</style>
<g id="bg_2">
</g>
<g id="Online_Treatment">
</g>
<g id="bg">
</g>
<g id="apps_Development">
	<g>
		<circle class="st11" cx="248.3" cy="248.3" r="248.3"/>
		<g>
			<path class="st14" d="M104.7,429.7L104.7,429.7c1.2-1.5,3.3-1.9,4.9-0.6c1,0.8,1.3,1.6,1.5,2.5l-1.4,0.3
				c-0.1-0.7-0.4-1.3-0.9-1.7c-0.9-0.7-2.1-0.5-2.8,0.5l0,0c-0.7,0.9-0.7,2.2,0.2,2.9c0.6,0.5,1.2,0.5,1.9,0.5l0.2,1.3
				c-1,0.2-1.9,0-2.9-0.8C103.7,433.4,103.5,431.3,104.7,429.7z"/>
			<path class="st14" d="M112.5,431.5l1.2,0.9l-3.2,4.3l2.7,2l-0.8,1.1l-3.9-2.9L112.5,431.5z"/>
			<path class="st14" d="M114.8,437.3L114.8,437.3c1.1-1.6,3.2-2,5-0.8c1.7,1.2,2.1,3.3,1,4.9l0,0c-1.1,1.6-3.2,2-5,0.8
				C114.1,441.1,113.7,438.9,114.8,437.3z M119.4,440.5L119.4,440.5c0.7-1,0.5-2.3-0.5-2.9c-1-0.7-2.2-0.4-2.9,0.6l0,0
				c-0.7,1-0.5,2.2,0.5,2.9C117.6,441.8,118.8,441.5,119.4,440.5z"/>
			<path class="st14" d="M121.4,442.4l2.1-3.2l1.2,0.8l-2,3.2c-0.6,0.9-0.4,1.7,0.3,2.2c0.8,0.5,1.5,0.3,2.1-0.6l2.1-3.2l1.2,0.8
				l-2,3.2c-1.1,1.7-2.6,1.9-4.1,1C120.7,445.5,120.3,444.1,121.4,442.4z"/>
			<path class="st14" d="M129.7,443.1l2.3,1.3c1.8,1.1,2.3,3.1,1.4,4.7l0,0c-1,1.6-3,2.2-4.8,1.1l-2.3-1.3L129.7,443.1z M130.3,445
				l-2.1,3.5l1,0.6c1,0.6,2.2,0.3,2.8-0.7l0,0c0.6-1,0.3-2.2-0.7-2.8L130.3,445z"/>
			<path class="st14" d="M138.7,448.2l2.8,1.5c0.7,0.4,1.1,0.8,1.3,1.4c0.1,0.4,0.1,0.8-0.1,1.2l0,0c-0.4,0.7-0.9,0.9-1.5,0.9
				c0.6,0.6,0.8,1.3,0.3,2.1l0,0c-0.6,1.1-1.8,1.2-3.1,0.4l-2.8-1.5L138.7,448.2z M139.6,453.2l-1.5-0.8l-0.7,1.3l1.6,0.8
				c0.6,0.3,1,0.3,1.3-0.1l0,0C140.4,454,140.2,453.6,139.6,453.2z M141.1,451.8c0.2-0.4,0-0.8-0.5-1.1l-1.3-0.7l-0.7,1.3l1.2,0.7
				C140.4,452.3,140.9,452.3,141.1,451.8L141.1,451.8z"/>
			<path class="st14" d="M146.8,452.5l1.2,0.6l-0.4,7.4l-1.4-0.7l0.1-1.6l-2.6-1.3l-1.2,1.1l-1.4-0.7L146.8,452.5z M146.4,456.7
				l0.2-2.4l-1.8,1.6L146.4,456.7z"/>
			<path class="st14" d="M148.6,459.8l1.2-0.6c0.3,0.7,0.8,1.3,1.5,1.6c0.6,0.3,1,0.2,1.2-0.2l0,0c0.2-0.3,0-0.6-0.9-1.3
				c-1.1-0.9-1.7-1.6-1.2-2.8l0,0c0.5-1.1,1.7-1.4,3-0.9c0.9,0.4,1.5,1,1.9,1.8l-1.2,0.7c-0.4-0.6-0.8-1.1-1.3-1.3
				c-0.5-0.2-0.9-0.1-1,0.2l0,0c-0.2,0.4,0,0.7,0.9,1.4c1.1,0.9,1.6,1.7,1.1,2.7l0,0c-0.6,1.2-1.8,1.5-3.1,0.9
				C149.8,461.6,149,460.8,148.6,459.8z"/>
			<path class="st14" d="M157,457.3l4.7,2l-0.5,1.2l-3.3-1.4l-0.5,1.3l2.9,1.3l-0.5,1.2l-2.9-1.3l-0.6,1.3l3.4,1.4l-0.5,1.2l-4.7-2
				L157,457.3z"/>
			<path class="st14" d="M162.7,459.7l2.4,0.9c2,0.8,2.8,2.6,2.1,4.4l0,0c-0.7,1.8-2.6,2.6-4.6,1.8l-2.4-0.9L162.7,459.7z
				 M163.6,461.5l-1.5,3.8l1.1,0.4c1.1,0.4,2.2,0,2.6-1.1l0,0c0.4-1.1,0-2.2-1.2-2.6L163.6,461.5z"/>
			<path class="st14" d="M174.2,467.5L174.2,467.5c0.3-0.8,1.1-1.2,1.8-0.9c0.8,0.2,1.2,1.1,0.9,1.8l0,0c-0.2,0.8-1.1,1.2-1.8,0.9
				C174.4,469.1,174,468.3,174.2,467.5z"/>
			<path class="st14" d="M187.3,468l1.3,0.4l1,7.3l-1.5-0.4l-0.2-1.6l-2.8-0.8l-1,1.3l-1.5-0.4L187.3,468z M187.7,472.2l-0.3-2.3
				l-1.5,1.9L187.7,472.2z"/>
			<path class="st14" d="M192.4,469.3l2.7,0.6c1.6,0.4,2.3,1.5,2,2.9v0c-0.4,1.5-1.7,2-3.2,1.7l-1.1-0.3l-0.5,2l-1.4-0.3
				L192.4,469.3z M194.2,473.3c0.7,0.2,1.2-0.2,1.4-0.7l0,0c0.2-0.6-0.2-1.1-0.9-1.3l-1.1-0.3l-0.5,2L194.2,473.3z"/>
			<path class="st14" d="M198.6,470.9l1.4,0.3l-1.4,6.6l-1.5-0.3L198.6,470.9z"/>
			<path class="st14" d="M203.4,475.3L203.4,475.3c0.3-1.9,2.1-3.2,4.2-2.8c2.1,0.4,3.3,2.2,2.9,4.1v0c-0.3,1.9-2.1,3.2-4.2,2.8
				C204.3,479,203.1,477.2,203.4,475.3z M209,476.3L209,476.3c0.2-1.2-0.5-2.3-1.6-2.5c-1.2-0.2-2.2,0.6-2.4,1.7l0,0
				c-0.2,1.1,0.5,2.2,1.6,2.4C207.8,478.2,208.8,477.5,209,476.3z"/>
			<path class="st14" d="M212.3,473.5l3,0.4c0.8,0.1,1.5,0.5,1.8,0.9c0.3,0.4,0.4,1,0.4,1.6v0c-0.2,1.1-0.8,1.7-1.7,1.9l1.3,2.6
				l-1.7-0.2l-1.1-2.3l-1.2-0.2l-0.3,2.1l-1.5-0.2L212.3,473.5z M214.8,477.1c0.7,0.1,1.2-0.2,1.3-0.8v0c0.1-0.6-0.3-1-1-1.1
				l-1.5-0.2l-0.3,1.9L214.8,477.1z"/>
			<path class="st14" d="M219.2,474.5l1.5,0.2l-0.9,6.7l-1.5-0.2L219.2,474.5z"/>
			<path class="st14" d="M222.4,474.8l5.1,0.5l-0.1,1.3l-3.6-0.4l-0.1,1.4l3.2,0.3l-0.1,1.3l-3.2-0.3l-0.1,1.4l3.7,0.4l-0.1,1.3
				l-5.1-0.5L222.4,474.8z"/>
			<path class="st14" d="M228.6,475.4l1.4,0.1l2.9,4.4l0.3-4.2l1.5,0.1l-0.5,6.7l-1.3-0.1l-3-4.5l-0.3,4.3l-1.5-0.1L228.6,475.4z"/>
			<path class="st14" d="M237.8,477.4l-2.1-0.1l0.1-1.4l5.6,0.3l-0.1,1.4l-2.1-0.1l-0.3,5.4l-1.5-0.1L237.8,477.4z"/>
			<path class="st14" d="M242.3,476.2l5.1,0.1l0,1.3l-3.6,0l0,1.4l3.2,0l0,1.3l-3.2,0l0,1.4l3.7,0l0,1.3l-5.1-0.1L242.3,476.2z"/>
			<path class="st14" d="M248.7,476.3l2.6,0c2.1,0,3.6,1.4,3.6,3.3v0c0,1.9-1.4,3.4-3.5,3.4l-2.6,0L248.7,476.3z M250.2,477.6
				l0.1,4.1l1.1,0c1.2,0,2-0.8,2-2v0c0-1.2-0.8-2-2.1-2L250.2,477.6z"/>
			<path class="st14" d="M262.2,479.2L262.2,479.2c-0.1-0.8,0.5-1.5,1.3-1.5c0.8-0.1,1.5,0.5,1.5,1.3v0c0.1,0.8-0.5,1.5-1.3,1.5
				C263,480.6,262.3,480,262.2,479.2z"/>
			<path class="st14" d="M274.5,474.8l1.4-0.2l3.6,6.4l-1.5,0.2l-0.8-1.4l-2.8,0.3l-0.4,1.6l-1.5,0.2L274.5,474.8z M276.5,478.5
				l-1.1-2.1l-0.6,2.3L276.5,478.5z"/>
			<path class="st14" d="M279.6,477.6L279.6,477.6c-0.3-1.9,0.9-3.7,3-4c1.2-0.2,2,0,2.8,0.5l-0.8,1.3c-0.6-0.4-1.1-0.5-1.8-0.4
				c-1.1,0.2-1.8,1.2-1.6,2.4v0c0.2,1.2,1.2,2,2.3,1.8c0.5-0.1,1-0.3,1.3-0.6l-0.1-0.9l-1.5,0.2l-0.2-1.3l2.9-0.4l0.4,2.9
				c-0.6,0.7-1.5,1.3-2.7,1.5C281.5,480.8,279.9,479.6,279.6,477.6z"/>
			<path class="st14" d="M286.8,473l1.5-0.3l1.2,6.7l-1.5,0.3L286.8,473z"/>
			<path class="st14" d="M289.9,472.5l1.4-0.3l1,5.3l3.3-0.6l0.3,1.3l-4.7,0.9L289.9,472.5z"/>
			<path class="st14" d="M295.7,471.3l5-1.1l0.3,1.3l-3.5,0.8l0.3,1.3l3.1-0.7l0.3,1.3l-3.1,0.7l0.3,1.4l3.6-0.8l0.3,1.3l-5,1.1
				L295.7,471.3z"/>
			<path class="st14" d="M304.7,469.3l2.7-0.7c1.6-0.4,2.7,0.3,3.1,1.6l0,0c0.4,1.5-0.6,2.6-2,3l-1.1,0.3l0.5,1.9l-1.4,0.4
				L304.7,469.3z M308.1,471.9c0.7-0.2,1-0.7,0.9-1.3v0c-0.2-0.6-0.7-0.9-1.4-0.7l-1.1,0.3l0.5,2L308.1,471.9z"/>
			<path class="st14" d="M310.8,467.7l4.9-1.4l0.4,1.3l-3.4,1l0.4,1.3l3-0.9l0.4,1.3l-3,0.9l0.4,1.4l3.5-1l0.4,1.3l-4.9,1.4
				L310.8,467.7z"/>
			<path class="st14" d="M316.9,465.8l2.9-1c0.8-0.3,1.5-0.2,2.1,0c0.5,0.2,0.8,0.7,1,1.3l0,0c0.3,1,0,1.9-0.7,2.4l2.3,1.8l-1.7,0.5
				l-2.1-1.6l-1.1,0.4l0.7,2.1l-1.4,0.5L316.9,465.8z M320.7,467.9c0.7-0.2,1-0.7,0.8-1.3v0c-0.2-0.6-0.7-0.8-1.4-0.6l-1.4,0.5
				l0.6,1.8L320.7,467.9z"/>
			<path class="st14" d="M324.9,469.2l0.5-1.3c0.7,0.3,1.4,0.4,2.2,0.1c0.6-0.2,0.8-0.6,0.7-0.9l0,0c-0.1-0.4-0.4-0.5-1.6-0.4
				c-1.4,0.1-2.3,0.1-2.8-1.2l0,0c-0.4-1.2,0.2-2.2,1.5-2.7c0.9-0.3,1.8-0.3,2.7,0l-0.4,1.3c-0.7-0.2-1.3-0.2-1.9,0
				c-0.5,0.2-0.7,0.5-0.6,0.8l0,0c0.2,0.4,0.5,0.5,1.7,0.3c1.4-0.1,2.3,0.1,2.7,1.2l0,0c0.5,1.3-0.3,2.3-1.6,2.8
				C327,469.6,325.9,469.6,324.9,469.2z"/>
			<path class="st14" d="M330.1,464.8L330.1,464.8c-0.7-1.8,0.1-3.8,2-4.6s3.9,0.1,4.6,1.9l0,0c0.7,1.8-0.1,3.8-2,4.6
				S330.8,466.6,330.1,464.8z M335.3,462.7L335.3,462.7c-0.4-1.1-1.6-1.7-2.7-1.2c-1.1,0.4-1.5,1.6-1.1,2.7v0
				c0.4,1.1,1.6,1.7,2.7,1.2C335.3,465,335.8,463.8,335.3,462.7z"/>
			<path class="st14" d="M336.6,458.6l1.3-0.5l4.5,2.6l-1.6-3.8l1.3-0.6l2.7,6.2l-1.2,0.5l-4.7-2.6l1.7,3.9l-1.3,0.6L336.6,458.6z"
				/>
			<path class="st14" d="M345.6,454.5l1.2-0.6l5.5,4.9l-1.4,0.7l-1.2-1.1l-2.6,1.2l0.1,1.6l-1.4,0.6L345.6,454.5z M348.7,457.4
				l-1.8-1.6l0.1,2.4L348.7,457.4z"/>
			<path class="st14" d="M350.3,452.3l1.3-0.7l2.4,4.8l3-1.5l0.6,1.2l-4.3,2.2L350.3,452.3z"/>
			<path class="st14" d="M355.5,449.5l1.3-0.7l3.2,6l-1.3,0.7L355.5,449.5z"/>
			<path class="st14" d="M360.9,453l1.1-5.6l-3.1,1.8l-0.6-1.1l4.8-2.7l0.5,1l-1.1,5.6l3.2-1.8l0.6,1.1l-4.9,2.7L360.9,453z"/>
			<path class="st14" d="M366,443.5l1.2-0.7l6,4.3l-1.3,0.8l-1.3-1l-2.4,1.5l0.3,1.6l-1.3,0.8L366,443.5z M369.4,446.1l-1.9-1.4
				l0.4,2.3L369.4,446.1z"/>
			<path class="st14" d="M371.9,441.5l-1.7,1.1l-0.7-1.1l4.7-3.1l0.7,1.1l-1.7,1.1l2.9,4.5l-1.2,0.8L371.9,441.5z"/>
			<path class="st14" d="M375.2,437.8l1.2-0.8l3.8,5.6l-1.2,0.8L375.2,437.8z"/>
			<path class="st14" d="M379.3,439L379.3,439c-1.1-1.6-0.8-3.7,0.9-4.9c1.7-1.2,3.8-0.8,4.9,0.7l0,0c1.1,1.6,0.8,3.7-0.9,4.9
				C382.5,441,380.4,440.6,379.3,439z M383.9,435.8L383.9,435.8c-0.7-1-1.9-1.2-2.9-0.6c-1,0.7-1.1,1.9-0.4,2.9l0,0
				c0.7,0.9,1.9,1.2,2.9,0.5C384.4,438,384.6,436.7,383.9,435.8z"/>
			<path class="st14" d="M384.3,431.4l1.1-0.8l5,1.4l-2.5-3.3l1.2-0.9l4.1,5.3l-1,0.8l-5.2-1.4l2.6,3.4l-1.2,0.9L384.3,431.4z"/>
		</g>
		<path class="st14" d="M464.6,156.8c-11.8-28-28.8-53.1-50.3-74.6c-21.6-21.6-46.7-38.5-74.6-50.3c-29-12.2-59.7-18.5-91.4-18.5
			s-62.5,6.2-91.4,18.5c-28,11.8-53.1,28.8-74.6,50.3c-21.6,21.6-38.5,46.7-50.3,74.6c-12.2,29-18.5,59.7-18.5,91.4
			s6.2,62.5,18.5,91.4c11.8,28,28.8,53.1,50.3,74.6c5.2,5.2,10.5,10.1,16.1,14.7l4.2-4.9c-5.4-4.5-10.7-9.3-15.7-14.3
			c-21-21-37.4-45.4-48.9-72.6C26,309,19.9,279.1,19.9,248.2s6-60.7,17.9-88.9c11.5-27.2,28-51.6,48.9-72.6
			c21-21,45.4-37.4,72.6-48.9c28.2-11.9,58.1-17.9,88.9-17.9s60.7,6,88.9,17.9c27.2,11.5,51.6,28,72.6,48.9
			c21,21,37.4,45.4,48.9,72.6c11.9,28.2,17.9,58.1,17.9,88.9s-6,60.7-17.9,88.9c-11.5,27.2-28,51.6-48.9,72.6
			c-4.9,4.9-10,9.6-15.3,14l4.2,4.9c5.4-4.5,10.7-9.3,15.7-14.3c21.6-21.6,38.5-46.7,50.3-74.6c12.2-29,18.5-59.7,18.5-91.4
			S476.9,185.8,464.6,156.8z"/>
		<g>
			<path class="st18" d="M378.7,253.4c-2.8,67.8-57.2,122.3-125.1,125.1c-1.8,0.1-3.6,0.1-5.4,0.1c-1.8,0-3.6,0-5.4-0.1
				c-67.8-2.8-122.3-57.2-125.1-125.1H378.7z"/>
			<path class="st18" d="M378.7,242.6H253.7V117.6C321.5,120.3,376,174.8,378.7,242.6z"/>
			<path class="st18" d="M242.9,117.6v125.1H117.8C120.6,174.9,175.1,120.4,242.9,117.6z"/>
		</g>
		<g>
			<g>
				<path class="st11" d="M169.4,309.5L169.4,309.5c0-2.3,1.7-4.2,4.2-4.2c1.5,0,2.4,0.5,3.2,1.2l-1.1,1.3c-0.6-0.6-1.2-0.9-2-0.9
					c-1.3,0-2.3,1.1-2.3,2.5v0c0,1.4,0.9,2.5,2.3,2.5c0.9,0,1.5-0.4,2.1-0.9l1.1,1.1c-0.8,0.9-1.7,1.4-3.3,1.4
					C171.1,313.6,169.4,311.8,169.4,309.5z"/>
				<path class="st11" d="M178.1,310v-4.6h1.8v4.5c0,1.3,0.7,2,1.7,2c1.1,0,1.7-0.6,1.7-1.9v-4.6h1.8v4.5c0,2.4-1.4,3.6-3.5,3.6
					C179.4,313.6,178.1,312.4,178.1,310z"/>
				<path class="st11" d="M186.3,312.3l1-1.2c0.7,0.6,1.5,1,2.4,1c0.7,0,1.2-0.3,1.2-0.8v0c0-0.4-0.3-0.7-1.6-1
					c-1.6-0.4-2.7-0.9-2.7-2.4v0c0-1.4,1.2-2.4,2.8-2.4c1.2,0,2.2,0.4,3,1l-0.9,1.3c-0.7-0.5-1.4-0.8-2.1-0.8c-0.7,0-1,0.3-1,0.7v0
					c0,0.5,0.3,0.7,1.7,1.1c1.6,0.4,2.5,1,2.5,2.4v0c0,1.6-1.2,2.5-2.9,2.5C188.5,313.6,187.3,313.1,186.3,312.3z"/>
				<path class="st11" d="M195.9,307.1h-2.4v-1.6h6.6v1.6h-2.4v6.4h-1.8V307.1z"/>
				<path class="st11" d="M200.7,309.5L200.7,309.5c0-2.3,1.8-4.2,4.3-4.2s4.2,1.8,4.2,4.1v0c0,2.3-1.8,4.1-4.3,4.1
					C202.5,313.6,200.7,311.8,200.7,309.5z M207.4,309.5L207.4,309.5c0-1.4-1-2.5-2.4-2.5c-1.4,0-2.4,1.1-2.4,2.5v0
					c0,1.4,1,2.5,2.4,2.5S207.4,310.8,207.4,309.5z"/>
				<path class="st11" d="M210.8,305.5h1.9l2.1,3.4l2.1-3.4h1.9v8h-1.7v-5.2l-2.3,3.4h-0.1l-2.2-3.4v5.2h-1.7V305.5z"/>
				<path class="st11" d="M220.7,305.5h6v1.6h-4.3v1.6h3.8v1.6h-3.8v1.7h4.3v1.6h-6.1V305.5z"/>
				<path class="st11" d="M228.4,305.5h3.7c1,0,1.8,0.3,2.3,0.8c0.4,0.4,0.7,1.1,0.7,1.8v0c0,1.3-0.7,2.1-1.7,2.5l1.9,2.9h-2.1
					l-1.7-2.6h-1.4v2.6h-1.8V305.5z M232,309.3c0.9,0,1.3-0.5,1.3-1.1v0c0-0.8-0.5-1.1-1.4-1.1h-1.7v2.3H232z"/>
				<path class="st11" d="M240.1,305.5h3.7c1,0,1.8,0.3,2.3,0.8c0.4,0.4,0.7,1.1,0.7,1.8v0c0,1.3-0.7,2.1-1.7,2.5l1.9,2.9H245
					l-1.7-2.6h-1.4v2.6h-1.8V305.5z M243.7,309.3c0.9,0,1.3-0.5,1.3-1.1v0c0-0.8-0.5-1.1-1.4-1.1h-1.7v2.3H243.7z"/>
				<path class="st11" d="M248.4,305.5h6v1.6h-4.3v1.6h3.8v1.6h-3.8v1.7h4.3v1.6h-6.1V305.5z"/>
				<path class="st11" d="M256.1,305.5h1.8v6.4h4v1.6h-5.7V305.5z"/>
				<path class="st11" d="M265.9,305.4h1.6l3.4,8.1h-1.8l-0.7-1.8H265l-0.7,1.8h-1.8L265.9,305.4z M267.8,310.1l-1.1-2.6l-1.1,2.6
					H267.8z"/>
				<path class="st11" d="M273,307.1h-2.4v-1.6h6.6v1.6h-2.4v6.4H273V307.1z"/>
				<path class="st11" d="M278.7,305.5h1.8v8h-1.8V305.5z"/>
				<path class="st11" d="M282.1,309.5L282.1,309.5c0-2.3,1.8-4.2,4.3-4.2c2.5,0,4.2,1.8,4.2,4.1v0c0,2.3-1.8,4.1-4.3,4.1
					S282.1,311.8,282.1,309.5z M288.7,309.5L288.7,309.5c0-1.4-1-2.5-2.4-2.5c-1.4,0-2.4,1.1-2.4,2.5v0c0,1.4,1,2.5,2.4,2.5
					C287.8,312,288.7,310.8,288.7,309.5z"/>
				<path class="st11" d="M292.2,305.5h1.6l3.7,4.9v-4.9h1.7v8h-1.5l-3.9-5.1v5.1h-1.7V305.5z"/>
				<path class="st11" d="M300.7,312.3l1-1.2c0.7,0.6,1.5,1,2.4,1c0.7,0,1.2-0.3,1.2-0.8v0c0-0.4-0.3-0.7-1.6-1
					c-1.6-0.4-2.7-0.9-2.7-2.4v0c0-1.4,1.2-2.4,2.8-2.4c1.2,0,2.2,0.4,3,1l-0.9,1.3c-0.7-0.5-1.4-0.8-2.1-0.8s-1,0.3-1,0.7v0
					c0,0.5,0.3,0.7,1.7,1.1c1.6,0.4,2.5,1,2.5,2.4v0c0,1.6-1.2,2.5-2.9,2.5C302.8,313.6,301.6,313.1,300.7,312.3z"/>
				<path class="st11" d="M308.5,305.5h1.8v3.2h3.2v-3.2h1.8v8h-1.8v-3.2h-3.2v3.2h-1.8V305.5z"/>
				<path class="st11" d="M317.3,305.5h1.8v8h-1.8V305.5z"/>
				<path class="st11" d="M321.1,305.5h3.3c1.9,0,3.1,1.1,3.1,2.8v0c0,1.8-1.4,2.8-3.2,2.8h-1.3v2.4h-1.8V305.5z M324.2,309.5
					c0.9,0,1.4-0.5,1.4-1.2v0c0-0.8-0.5-1.2-1.4-1.2h-1.4v2.4H324.2z"/>
				<path class="st11" d="M205.6,319.2h1.9l2.1,3.4l2.1-3.4h1.9v8h-1.7V322l-2.3,3.4h-0.1l-2.2-3.4v5.2h-1.7V319.2z"/>
				<path class="st11" d="M218.3,319.1h1.6l3.4,8.1h-1.8l-0.7-1.8h-3.4l-0.7,1.8h-1.8L218.3,319.1z M220.1,323.8l-1.1-2.6l-1.1,2.6
					H220.1z"/>
				<path class="st11" d="M224.6,319.2h1.6l3.7,4.9v-4.9h1.7v8h-1.5l-3.9-5.1v5.1h-1.7V319.2z"/>
				<path class="st11" d="M236.4,319.1h1.6l3.4,8.1h-1.8l-0.7-1.8h-3.4l-0.7,1.8h-1.8L236.4,319.1z M238.2,323.8l-1.1-2.6l-1.1,2.6
					H238.2z"/>
				<path class="st11" d="M241.8,323.2L241.8,323.2c0-2.3,1.8-4.2,4.2-4.2c1.4,0,2.3,0.4,3.1,1.1l-1.1,1.3c-0.6-0.5-1.2-0.8-2.1-0.8
					c-1.3,0-2.3,1.1-2.3,2.5v0c0,1.5,1,2.5,2.4,2.5c0.6,0,1.2-0.2,1.7-0.5v-1.1h-1.8v-1.5h3.5v3.5c-0.8,0.7-1.9,1.3-3.4,1.3
					C243.5,327.3,241.8,325.6,241.8,323.2z"/>
				<path class="st11" d="M251.1,319.2h6v1.6h-4.3v1.6h3.8v1.6h-3.8v1.7h4.3v1.6h-6.1V319.2z"/>
				<path class="st11" d="M258.8,319.2h1.9l2.1,3.4l2.1-3.4h1.9v8h-1.7V322l-2.3,3.4h-0.1l-2.2-3.4v5.2h-1.7V319.2z"/>
				<path class="st11" d="M268.7,319.2h6v1.6h-4.3v1.6h3.8v1.6h-3.8v1.7h4.3v1.6h-6.1V319.2z"/>
				<path class="st11" d="M276.4,319.2h1.6l3.7,4.9v-4.9h1.7v8H282l-3.9-5.1v5.1h-1.7V319.2z"/>
				<path class="st11" d="M287.3,320.8h-2.4v-1.6h6.6v1.6h-2.4v6.4h-1.8V320.8z"/>
			</g>
		</g>
		<g>
			<path class="st11" d="M162.2,173.4L162.2,173.4c0-2.3,1.7-4.2,4.2-4.2c1.5,0,2.4,0.5,3.2,1.2l-1.1,1.3c-0.6-0.6-1.2-0.9-2-0.9
				c-1.3,0-2.3,1.1-2.3,2.5v0c0,1.4,0.9,2.5,2.3,2.5c0.9,0,1.5-0.4,2.1-0.9l1.1,1.1c-0.8,0.9-1.7,1.4-3.3,1.4
				C164,177.5,162.2,175.6,162.2,173.4z"/>
			<path class="st11" d="M170.5,173.4L170.5,173.4c0-2.3,1.8-4.2,4.3-4.2c2.5,0,4.2,1.8,4.2,4.1v0c0,2.3-1.8,4.1-4.3,4.1
				S170.5,175.6,170.5,173.4z M177.1,173.4L177.1,173.4c0-1.4-1-2.5-2.4-2.5c-1.4,0-2.4,1.1-2.4,2.5v0c0,1.4,1,2.5,2.4,2.5
				S177.1,174.7,177.1,173.4z"/>
			<path class="st11" d="M180.5,169.3h1.6l3.7,4.9v-4.9h1.7v8h-1.5l-3.9-5.1v5.1h-1.7V169.3z"/>
			<path class="st11" d="M191.4,171H189v-1.6h6.6v1.6h-2.4v6.4h-1.8V171z"/>
			<path class="st11" d="M197,169.3h6v1.6h-4.3v1.6h3.8v1.6h-3.8v1.7h4.3v1.6H197V169.3z"/>
			<path class="st11" d="M204.7,169.3h1.6l3.7,4.9v-4.9h1.7v8h-1.5l-3.9-5.1v5.1h-1.7V169.3z"/>
			<path class="st11" d="M215.6,171h-2.4v-1.6h6.6v1.6h-2.4v6.4h-1.8V171z"/>
			<path class="st11" d="M148.2,183.1h1.9l2.1,3.4l2.1-3.4h1.9v8h-1.7v-5.2l-2.3,3.4h-0.1l-2.2-3.4v5.2h-1.7V183.1z"/>
			<path class="st11" d="M160.9,183h1.6l3.4,8.1h-1.8l-0.7-1.8H160l-0.7,1.8h-1.8L160.9,183z M162.8,187.7l-1.1-2.6l-1.1,2.6H162.8z
				"/>
			<path class="st11" d="M167.2,183.1h1.6l3.7,4.9v-4.9h1.7v8h-1.5l-3.9-5.1v5.1h-1.7V183.1z"/>
			<path class="st11" d="M179,183h1.6l3.4,8.1h-1.8l-0.7-1.8h-3.4l-0.7,1.8h-1.8L179,183z M180.8,187.7l-1.1-2.6l-1.1,2.6H180.8z"/>
			<path class="st11" d="M184.4,187.1L184.4,187.1c0-2.3,1.8-4.2,4.2-4.2c1.4,0,2.3,0.4,3.1,1.1l-1.1,1.3c-0.6-0.5-1.2-0.8-2.1-0.8
				c-1.3,0-2.3,1.1-2.3,2.5v0c0,1.5,1,2.5,2.4,2.5c0.6,0,1.2-0.2,1.7-0.5V188h-1.8v-1.5h3.5v3.5c-0.8,0.7-1.9,1.3-3.4,1.3
				C186.1,191.2,184.4,189.5,184.4,187.1z"/>
			<path class="st11" d="M193.8,183.1h6v1.6h-4.3v1.6h3.8v1.6h-3.8v1.7h4.3v1.6h-6.1V183.1z"/>
			<path class="st11" d="M201.4,183.1h1.9l2.1,3.4l2.1-3.4h1.9v8h-1.7v-5.2l-2.3,3.4h-0.1l-2.2-3.4v5.2h-1.7V183.1z"/>
			<path class="st11" d="M211.4,183.1h6v1.6h-4.3v1.6h3.8v1.6h-3.8v1.7h4.3v1.6h-6.1V183.1z"/>
			<path class="st11" d="M219,183.1h1.6l3.7,4.9v-4.9h1.7v8h-1.5l-3.9-5.1v5.1H219V183.1z"/>
			<path class="st11" d="M229.9,184.7h-2.4v-1.6h6.6v1.6h-2.4v6.4h-1.8V184.7z"/>
			<path class="st11" d="M167.8,203.6l1-1.2c0.7,0.6,1.5,1,2.4,1c0.7,0,1.1-0.3,1.1-0.8v0c0-0.4-0.3-0.7-1.6-1
				c-1.6-0.4-2.7-0.9-2.7-2.4v0c0-1.4,1.2-2.4,2.8-2.4c1.2,0,2.2,0.4,3,1L173,199c-0.7-0.5-1.4-0.8-2.1-0.8c-0.7,0-1,0.3-1,0.7v0
				c0,0.5,0.3,0.7,1.7,1.1c1.6,0.4,2.5,1,2.5,2.4v0c0,1.6-1.2,2.5-2.9,2.5C170,204.9,168.8,204.5,167.8,203.6z"/>
			<path class="st11" d="M177.6,201.6l-3.1-4.8h2.1l1.9,3.2l1.9-3.2h2l-3.1,4.8v3.2h-1.8V201.6z"/>
			<path class="st11" d="M182.6,203.6l1-1.2c0.7,0.6,1.5,1,2.4,1c0.7,0,1.1-0.3,1.1-0.8v0c0-0.4-0.3-0.7-1.6-1
				c-1.6-0.4-2.7-0.9-2.7-2.4v0c0-1.4,1.2-2.4,2.8-2.4c1.2,0,2.2,0.4,3,1l-0.9,1.3c-0.7-0.5-1.4-0.8-2.1-0.8s-1,0.3-1,0.7v0
				c0,0.5,0.3,0.7,1.7,1.1c1.6,0.4,2.5,1,2.5,2.4v0c0,1.6-1.2,2.5-2.9,2.5C184.8,204.9,183.6,204.5,182.6,203.6z"/>
			<path class="st11" d="M192.2,198.4h-2.4v-1.6h6.6v1.6h-2.4v6.4h-1.8V198.4z"/>
			<path class="st11" d="M197.7,196.8h6v1.6h-4.3v1.6h3.8v1.6h-3.8v1.7h4.3v1.6h-6.1V196.8z"/>
			<path class="st11" d="M205.4,196.8h1.9l2.1,3.4l2.1-3.4h1.9v8h-1.7v-5.2l-2.3,3.4h-0.1l-2.2-3.4v5.2h-1.7V196.8z"/>
		</g>
		<path class="st11" d="M285.5,274.8H211c-14.7,0-26.7-11.9-26.7-26.7v0c0-14.7,11.9-26.7,26.7-26.7h74.5
			c14.7,0,26.7,11.9,26.7,26.7v0C312.2,262.9,300.2,274.8,285.5,274.8z"/>
		<g>
			<path class="st11" d="M281.3,169.3h3.1c2.5,0,4.3,1.7,4.3,4v0c0,2.3-1.7,4-4.3,4h-3.1V169.3z M283,170.9v4.8h1.4
				c1.4,0,2.4-1,2.4-2.4v0c0-1.4-1-2.4-2.4-2.4H283z"/>
			<path class="st11" d="M290.3,169.3h1.8v8h-1.8V169.3z"/>
			<path class="st11" d="M293.7,173.4L293.7,173.4c0-2.3,1.8-4.2,4.2-4.2c1.4,0,2.3,0.4,3.1,1.1l-1.1,1.3c-0.6-0.5-1.2-0.8-2.1-0.8
				c-1.3,0-2.3,1.1-2.3,2.5v0c0,1.5,1,2.5,2.4,2.5c0.6,0,1.2-0.2,1.7-0.5v-1.1h-1.8v-1.5h3.5v3.5c-0.8,0.7-2,1.3-3.4,1.3
				C295.4,177.5,293.7,175.7,293.7,173.4z"/>
			<path class="st11" d="M303.1,169.3h1.8v8h-1.8V169.3z"/>
			<path class="st11" d="M308.7,171h-2.4v-1.6h6.6v1.6h-2.4v6.4h-1.8V171z"/>
			<path class="st11" d="M316,169.3h1.6l3.4,8.1h-1.8l-0.7-1.8h-3.4l-0.7,1.8h-1.8L316,169.3z M317.9,174l-1.1-2.6l-1.1,2.6H317.9z"
				/>
			<path class="st11" d="M322.3,169.3h1.8v6.4h4v1.6h-5.7V169.3z"/>
			<path class="st11" d="M269,183.1h1.9l2.1,3.4l2.1-3.4h1.9v8h-1.7v-5.2l-2.3,3.4H273l-2.2-3.4v5.2H269V183.1z"/>
			<path class="st11" d="M281.7,183h1.6l3.4,8.1h-1.8l-0.7-1.8h-3.4l-0.7,1.8h-1.8L281.7,183z M283.6,187.7l-1.1-2.6l-1.1,2.6H283.6
				z"/>
			<path class="st11" d="M288,183.1h3.7c1,0,1.8,0.3,2.3,0.8c0.4,0.4,0.7,1.1,0.7,1.8v0c0,1.3-0.7,2.1-1.7,2.5l1.9,2.9h-2.1
				l-1.7-2.6h-1.4v2.6H288V183.1z M291.6,187c0.9,0,1.3-0.5,1.3-1.1v0c0-0.8-0.5-1.1-1.4-1.1h-1.7v2.3H291.6z"/>
			<path class="st11" d="M296.3,183.1h1.8v3.5l3.2-3.5h2.1l-3.3,3.4l3.4,4.6h-2.1l-2.5-3.4l-0.9,1v2.4h-1.8V183.1z"/>
			<path class="st11" d="M304.6,183.1h6v1.6h-4.3v1.6h3.8v1.6h-3.8v1.7h4.3v1.6h-6.1V183.1z"/>
			<path class="st11" d="M314.2,184.7h-2.4v-1.6h6.6v1.6h-2.4v6.4h-1.8V184.7z"/>
			<path class="st11" d="M319.8,183.1h1.8v8h-1.8V183.1z"/>
			<path class="st11" d="M323.6,183.1h1.6l3.7,4.9v-4.9h1.7v8h-1.5l-3.9-5.1v5.1h-1.7V183.1z"/>
			<path class="st11" d="M332.3,187.1L332.3,187.1c0-2.3,1.8-4.2,4.2-4.2c1.4,0,2.3,0.4,3.1,1.1l-1.1,1.3c-0.6-0.5-1.2-0.8-2.1-0.8
				c-1.3,0-2.3,1.1-2.3,2.5v0c0,1.5,1,2.5,2.4,2.5c0.6,0,1.2-0.2,1.7-0.5V188h-1.8v-1.5h3.5v3.5c-0.8,0.7-2,1.3-3.4,1.3
				C334,191.2,332.3,189.5,332.3,187.1z"/>
			<path class="st11" d="M281.3,203.6l1-1.2c0.7,0.6,1.5,1,2.4,1c0.7,0,1.1-0.3,1.1-0.8v0c0-0.4-0.3-0.7-1.6-1
				c-1.6-0.4-2.7-0.9-2.7-2.4v0c0-1.4,1.2-2.4,2.8-2.4c1.2,0,2.2,0.4,3,1l-0.9,1.3c-0.7-0.5-1.4-0.8-2.1-0.8s-1,0.3-1,0.7v0
				c0,0.5,0.3,0.7,1.7,1.1c1.6,0.4,2.5,1,2.5,2.4v0c0,1.6-1.2,2.5-2.9,2.5C283.5,204.9,282.3,204.5,281.3,203.6z"/>
			<path class="st11" d="M291.1,201.6l-3.1-4.8h2.1l1.9,3.2l1.9-3.2h2l-3.1,4.8v3.2h-1.8V201.6z"/>
			<path class="st11" d="M296.1,203.6l1-1.2c0.7,0.6,1.5,1,2.4,1c0.7,0,1.1-0.3,1.1-0.8v0c0-0.4-0.3-0.7-1.6-1
				c-1.6-0.4-2.7-0.9-2.7-2.4v0c0-1.4,1.2-2.4,2.8-2.4c1.2,0,2.2,0.4,3,1l-0.9,1.3c-0.7-0.5-1.4-0.8-2.1-0.8s-1,0.3-1,0.7v0
				c0,0.5,0.3,0.7,1.7,1.1c1.6,0.4,2.5,1,2.5,2.4v0c0,1.6-1.2,2.5-2.9,2.5C298.3,204.9,297,204.5,296.1,203.6z"/>
			<path class="st11" d="M305.6,198.4h-2.4v-1.6h6.6v1.6h-2.4v6.4h-1.8V198.4z"/>
			<path class="st11" d="M311.2,196.8h6v1.6h-4.3v1.6h3.8v1.6h-3.8v1.7h4.3v1.6h-6.1V196.8z"/>
			<path class="st11" d="M318.9,196.8h1.9l2.1,3.4l2.1-3.4h1.9v8h-1.7v-5.2l-2.3,3.4h-0.1l-2.2-3.4v5.2h-1.7V196.8z"/>
		</g>
		<g>
			<path class="st31" d="M213.8,240.3L213.8,240.3c0-2.3,1.7-4.2,4.3-4.2c1.5,0,2.5,0.5,3.2,1.3l-1.1,1.3c-0.6-0.6-1.3-0.9-2.1-0.9
				c-1.4,0-2.4,1.1-2.4,2.5v0c0,1.4,1,2.6,2.4,2.6c0.9,0,1.5-0.4,2.1-1l1.1,1.2c-0.8,0.9-1.8,1.5-3.3,1.5
				C215.6,244.5,213.8,242.6,213.8,240.3z"/>
			<path class="st31" d="M225.6,236.1h1.7l3.5,8.2h-1.9l-0.7-1.8h-3.4l-0.7,1.8h-1.8L225.6,236.1z M227.5,240.9l-1.1-2.6l-1.1,2.6
				H227.5z"/>
			<path class="st31" d="M232.1,236.2h1.9l2.1,3.4l2.1-3.4h1.9v8.2h-1.8V239l-2.3,3.5h0l-2.3-3.4v5.3h-1.8V236.2z"/>
			<path class="st31" d="M242.2,236.2h3.3c1.9,0,3.1,1.2,3.1,2.8v0c0,1.9-1.5,2.9-3.3,2.9H244v2.4h-1.8V236.2z M245.4,240.3
				c0.9,0,1.4-0.5,1.4-1.2v0c0-0.8-0.6-1.2-1.5-1.2H244v2.5H245.4z"/>
			<path class="st31" d="M252,236.1h1.7l3.5,8.2h-1.9l-0.7-1.8h-3.4l-0.7,1.8h-1.8L252,236.1z M253.9,240.9l-1.1-2.6l-1.1,2.6H253.9
				z"/>
			<path class="st31" d="M258.5,236.2h1.8v8.2h-1.8V236.2z"/>
			<path class="st31" d="M262,240.3L262,240.3c0-2.3,1.8-4.2,4.3-4.2c1.5,0,2.4,0.4,3.2,1.1l-1.1,1.4c-0.6-0.5-1.2-0.8-2.1-0.8
				c-1.3,0-2.3,1.2-2.3,2.5v0c0,1.5,1,2.6,2.5,2.6c0.7,0,1.2-0.2,1.7-0.5v-1.2h-1.8v-1.6h3.5v3.5c-0.8,0.7-2,1.3-3.5,1.3
				C263.8,244.5,262,242.7,262,240.3z"/>
			<path class="st31" d="M271.6,236.2h1.7l3.8,5v-5h1.8v8.2h-1.5l-3.9-5.2v5.2h-1.8V236.2z"/>
			<path class="st31" d="M204.7,250.2h1.9l2.1,3.4l2.1-3.4h1.9v8.2H211v-5.3l-2.3,3.5h0l-2.3-3.4v5.3h-1.8V250.2z"/>
			<path class="st31" d="M217.6,250.2h1.7l3.5,8.2h-1.9l-0.7-1.8h-3.4l-0.7,1.8h-1.8L217.6,250.2z M219.5,255l-1.1-2.6l-1.1,2.6
				H219.5z"/>
			<path class="st31" d="M224.1,250.2h1.6l3.8,5v-5h1.8v8.2h-1.5l-3.9-5.2v5.2h-1.8V250.2z"/>
			<path class="st31" d="M236.1,250.2h1.6l3.5,8.2h-1.9l-0.7-1.8h-3.4l-0.7,1.8h-1.8L236.1,250.2z M238,255l-1.1-2.6l-1.1,2.6H238z"
				/>
			<path class="st31" d="M241.7,254.3L241.7,254.3c0-2.3,1.8-4.2,4.3-4.2c1.5,0,2.4,0.4,3.2,1.1l-1.1,1.4c-0.6-0.5-1.2-0.8-2.1-0.8
				c-1.3,0-2.3,1.2-2.3,2.5v0c0,1.5,1,2.6,2.5,2.6c0.7,0,1.2-0.2,1.7-0.5v-1.2h-1.8v-1.6h3.5v3.5c-0.8,0.7-2,1.3-3.5,1.3
				C243.4,258.5,241.7,256.7,241.7,254.3z"/>
			<path class="st31" d="M251.2,250.2h6.2v1.6H253v1.7h3.8v1.6H253v1.7h4.4v1.6h-6.2V250.2z"/>
			<path class="st31" d="M259,250.2h1.9l2.1,3.4l2.1-3.4h1.9v8.2h-1.8v-5.3l-2.3,3.5h0l-2.3-3.4v5.3H259V250.2z"/>
			<path class="st31" d="M269.2,250.2h6.2v1.6H271v1.7h3.8v1.6H271v1.7h4.4v1.6h-6.2V250.2z"/>
			<path class="st31" d="M277,250.2h1.6l3.8,5v-5h1.8v8.2h-1.5l-3.9-5.2v5.2H277V250.2z"/>
			<path class="st31" d="M288.2,251.9h-2.5v-1.7h6.8v1.7H290v6.5h-1.8V251.9z"/>
		</g>
		<g>
			<polygon class="st10" points="399.3,358.7 396,356.3 399.2,356.4 399.2,356.4 398.1,353.4 401.4,355.8 402.2,354.7 397.1,351.1 
				396.2,352.3 397.4,355.1 394.3,354.9 393.5,356.1 398.5,359.7 			"/>
			<path class="st10" d="M399.1,348.1l3.7,5.6l0.8-1.2l-0.8-1.2l1.4-2.2l1.5,0.3l0.8-1.2l-6.6-1.2L399.1,348.1z M402.9,348.9
				l-0.9,1.4l-1.2-1.8L402.9,348.9z"/>
			<polygon class="st10" points="403.8,340.6 407.1,342.5 402.3,343.1 401.7,344.1 407,347.3 407.7,346.2 404.3,344.1 409.2,343.6 
				409.8,342.6 404.5,339.4 			"/>
			<path class="st10" d="M406.4,336.1l4.2,5.4l0.7-1.2l-0.9-1.2l1.3-2.3l1.5,0.2l0.7-1.2L407,335L406.4,336.1z M410.3,336.6
				l-0.8,1.4l-1.4-1.7L410.3,336.6z"/>
			<path class="st10" d="M409.8,329.6c-0.9,1.7-0.2,3.5,1.4,4.3l0,0c1.6,0.8,3.4,0.3,4.3-1.5c0.5-1,0.5-2,0.3-2.8l-2.4-1.2l-1.2,2.4
				l1,0.5l0.6-1.2l0.8,0.4c0.1,0.4,0,0.9-0.3,1.3c-0.5,1-1.6,1.3-2.6,0.8l0,0c-0.9-0.5-1.4-1.6-0.9-2.5c0.3-0.6,0.7-0.9,1.3-1.2
				l-0.5-1.2C410.8,328.1,410.3,328.6,409.8,329.6z"/>
			<polygon class="st10" points="419.2,324.4 418.1,323.9 416.7,326.9 415.6,326.4 416.8,323.7 415.7,323.2 414.5,325.9 
				413.3,325.3 414.7,322.3 413.6,321.8 411.7,326.1 417.3,328.6 			"/>
			<polygon class="st10" points="420.3,322 416.6,320.4 419.7,319.8 419.7,319.8 418,317.1 421.7,318.7 422.2,317.5 416.5,315.1 
				415.9,316.4 417.7,318.9 414.7,319.4 414.1,320.8 419.8,323.2 			"/>
			<polygon class="st10" points="424.5,311.3 423.4,310.9 422.2,314 421,313.6 422,310.8 420.9,310.4 419.8,313.1 418.7,312.7 
				419.8,309.6 418.7,309.1 417,313.5 422.9,315.7 			"/>
			<polygon class="st10" points="425.4,308.7 421.7,307.4 426.4,305.8 426.7,304.7 420.8,302.8 420.4,304 424,305.3 419.5,306.8 
				419.1,308 425,310 			"/>
			<polygon class="st10" points="422.9,300.4 427.6,301.8 428,300.5 423.3,299.1 423.8,297.3 422.6,297 421.1,301.9 422.3,302.2 			
				"/>
			<path class="st10" d="M81.9,305.3l0.6-1.1c-0.6-0.3-1-0.7-1.2-1.3c-0.3-1,0.3-2,1.3-2.3l0,0c1-0.3,2.1,0.1,2.4,1.1
				c0.2,0.6,0.1,1.1-0.2,1.7l1.2,0.5c0.4-0.7,0.5-1.5,0.2-2.6c-0.6-1.8-2.4-2.6-4.1-2.1l0,0c-1.7,0.6-2.6,2.3-2.1,4
				C80.4,304.3,81,304.9,81.9,305.3z"/>
			<path class="st10" d="M84,305.2L84,305.2c-1.7,0.6-2.5,2.4-1.9,4.2c0.6,1.8,2.5,2.6,4.1,2l0,0c1.6-0.6,2.5-2.4,1.8-4.2
				C87.5,305.4,85.7,304.6,84,305.2z M87,307.6c0.4,1-0.2,2.1-1.2,2.4l0,0c-1,0.4-2.1,0-2.4-1.1s0.2-2.1,1.2-2.4l0,0
				C85.5,306.2,86.6,306.6,87,307.6z"/>
			<polygon class="st10" points="84.5,315.1 88.1,313.5 85.7,317.8 86.1,318.9 91.8,316.5 91.3,315.2 87.8,316.7 90.2,312.6 
				89.7,311.4 84,313.8 			"/>
			<path class="st10" d="M90.8,318.6L90.8,318.6c-1.1,0.5-1.1,1.4-0.9,2.7c0.2,1.1,0.1,1.3-0.2,1.5l0,0c-0.3,0.2-0.7-0.1-0.9-0.6
				c-0.3-0.6-0.3-1.3-0.1-2l-1.2-0.3c-0.3,1-0.2,1.9,0.2,2.8c0.6,1.2,1.6,1.8,2.7,1.2l0,0c1-0.5,1.1-1.3,0.8-2.6
				c-0.2-1.1-0.2-1.4,0.2-1.5l0,0c0.3-0.1,0.6,0,0.8,0.5c0.2,0.5,0.2,1.1,0.1,1.7l1.2,0.2c0.2-0.8,0.1-1.6-0.3-2.4
				C92.8,318.6,91.8,318.1,90.8,318.6z"/>
			<path class="st10" d="M90.3,328.1c0.7,1.5,2,2,3.7,1.2l3.1-1.6l-0.6-1.2l-3.2,1.6c-0.9,0.4-1.6,0.2-1.9-0.5
				c-0.4-0.7-0.1-1.4,0.8-1.9l3.1-1.6l-0.6-1.2l-3.2,1.6C90,325.3,89.6,326.6,90.3,328.1z"/>
			<polygon class="st10" points="93.1,333.2 96.7,331.3 95.2,334.1 95.2,334.1 98.4,334.4 94.8,336.3 95.5,337.5 100.9,334.5 
				100.2,333.2 97.1,333.1 98.6,330.4 97.9,329.1 92.5,332.1 			"/>
			<polygon class="st10" points="98.2,339.5 99.3,338.8 100.8,341.3 101.9,340.6 100.3,338.2 101.4,337.5 103.1,340.3 104.2,339.7 
				101.7,335.7 96.4,339 98.9,343 100,342.3 			"/>
			<path class="st10" d="M104.8,340.7l-5.2,3.4l0.8,1.1l1.7-1.1l0.6,0.9l-0.9,2.2l0.9,1.3l1-2.5c0.7,0.5,1.5,0.6,2.4,0l0,0
				c0.5-0.3,0.8-0.7,0.9-1.2c0.1-0.6,0-1.2-0.5-1.9L104.8,340.7z M105.1,345L105.1,345c-0.4,0.3-1,0.2-1.3-0.4l-0.8-1.2l1.5-1
				l0.7,1.1C105.7,344.2,105.6,344.7,105.1,345z"/>
			<polygon class="st10" points="403.4,333.3 402.3,332.7 400.8,335.4 396.4,332.9 395.8,334.1 401.2,337.2 			"/>
			<polygon class="st10" points="406.2,328 405.1,327.4 403.5,330.4 402.4,329.8 403.7,327.2 402.7,326.7 401.3,329.3 400.2,328.7 
				401.7,325.7 400.7,325.2 398.5,329.3 404,332.2 			"/>
			<path class="st10" d="M407.1,326.1l-1-1.1l1.1-2.4l1.5,0.1l0.6-1.3l-6.8-0.3l-0.5,1.1l4.5,5.1L407.1,326.1z M405.2,324.1
				l-1.5-1.6l2.2,0.1L405.2,324.1z"/>
			<path class="st10" d="M410.8,318.1c0.8-1.8,0-3.6-1.5-4.2l0,0c-1.6-0.7-3.4,0-4.1,1.8l-0.9,2.2l5.7,2.4L410.8,318.1z
				 M409.7,317.6l-0.4,1l-3.4-1.5l0.4-1c0.4-1,1.4-1.4,2.5-1l0,0C409.7,315.6,410.1,316.5,409.7,317.6z"/>
			<path class="st10" d="M164.4,402.2L164.4,402.2c0.3-0.5,0.4-1,0.2-1.5c-0.2-0.6-0.6-1-1.3-1.4l-2.5-1.4l-3,5.4l1.2,0.7l1-1.7
				l0.9,0.5l0.2,2.4l1.4,0.8l-0.2-2.7C163.1,403.4,163.9,403.1,164.4,402.2z M161.8,401.8l-1.2-0.7l0.9-1.5l1.2,0.7
				c0.6,0.3,0.8,0.8,0.5,1.3v0C162.9,402,162.4,402.2,161.8,401.8z"/>
			<polygon class="st10" points="168.6,406.3 169.2,405.2 166.6,403.8 167.2,402.7 170.1,404.3 170.7,403.2 166.5,401 163.7,406.5 
				167.9,408.7 168.4,407.6 165.5,406.1 166,404.9 			"/>
			<path class="st10" d="M174,404.7l-2.3-1.1l-2.7,5.6l1.2,0.6l0.8-1.7l0.9,0.5c1.2,0.6,2.6,0.4,3.2-0.9l0,0
				C175.7,406.6,175.3,405.4,174,404.7z M173.9,407.1L173.9,407.1c-0.2,0.5-0.8,0.7-1.4,0.4l-1-0.5l0.8-1.7l1,0.5
				C173.9,406.1,174.2,406.6,173.9,407.1z"/>
			<path class="st10" d="M179.8,407.3c-1.7-0.7-3.6,0-4.3,1.6v0c-0.7,1.6,0,3.4,1.7,4.2c1.7,0.8,3.6,0,4.3-1.6l0,0
				C182.3,409.9,181.6,408.1,179.8,407.3z M180.3,411L180.3,411c-0.4,1-1.5,1.5-2.5,1c-1-0.4-1.4-1.5-0.9-2.5v0c0.4-1,1.5-1.5,2.5-1
				C180.3,408.9,180.7,410,180.3,411z"/>
			<path class="st10" d="M186.7,410.2l-2.6-1l-2.2,5.7l1.3,0.5l0.7-1.8l1,0.4l0.5,2.3l1.5,0.6l-0.6-2.6c0.8,0,1.6-0.4,1.9-1.3l0,0
				c0.2-0.5,0.2-1.1,0-1.5C187.9,410.9,187.4,410.5,186.7,410.2z M186.8,412.5L186.8,412.5c-0.2,0.5-0.7,0.7-1.3,0.5l-1.3-0.5
				l0.6-1.6l1.3,0.5C186.7,411.5,187,412,186.8,412.5z"/>
			<polygon class="st10" points="194.4,412.9 189.5,411.2 189.1,412.4 190.9,413 189.3,417.7 190.5,418.1 192.2,413.5 193.9,414.1 
							"/>
			<polygon class="st10" points="195.5,413.3 193.6,419.1 194.9,419.5 196.8,413.7 			"/>
			<polygon class="st10" points="201.2,418.9 199.5,414.5 198.3,414.1 196.5,420.1 197.8,420.5 198.9,416.7 200.7,421.3 
				201.8,421.6 203.6,415.6 202.3,415.3 			"/>
			<path class="st10" d="M205.4,419.3c0.2-1,1.2-1.7,2.2-1.5c0.7,0.2,1.1,0.5,1.4,1l1.1-0.8c-0.5-0.7-1.1-1.1-2.2-1.4
				c-1.8-0.4-3.5,0.6-3.9,2.4l0,0c-0.4,1.8,0.5,3.4,2.4,3.9c1.1,0.3,2.1,0,2.8-0.3l0.6-2.6l-2.6-0.6l-0.3,1.2l1.3,0.3l-0.2,0.9
				c-0.4,0.2-0.9,0.2-1.3,0.1C205.7,421.4,205.2,420.4,205.4,419.3L205.4,419.3z"/>
			<path class="st10" d="M284.7,417.6l-1.3,6.6l1.4-0.3l0.3-1.5l2.6-0.5l0.8,1.2l1.4-0.3l-3.9-5.5L284.7,417.6z M285.3,421.2
				l0.4-2.1l1.2,1.8L285.3,421.2z"/>
			<polygon class="st10" points="293.6,415.4 294.6,419.1 290.8,416.2 289.5,416.5 291.2,422.5 292.5,422.2 291.4,418.3 
				295.4,421.4 296.5,421.1 294.9,415.1 			"/>
			<path class="st10" d="M298.2,414.1l-0.7,6.7l1.3-0.4l0.1-1.5l2.5-0.8l1,1.2l1.4-0.4l-4.4-5.2L298.2,414.1z M299.1,417.6l0.2-2.2
				l1.4,1.7L299.1,417.6z"/>
			<polygon class="st10" points="306,416.8 304.4,412.1 303.1,412.6 305.1,418.5 309.3,417 308.9,415.9 			"/>
			<polygon class="st10" points="310.8,409.8 310.2,412.7 308,410.9 306.5,411.5 310.1,414.1 310.9,416.4 312.2,415.9 311.3,413.6 
				312.2,409.3 			"/>
			<polygon class="st10" points="317.8,408.4 317.3,407.2 312.5,409.1 313,410.3 314.8,409.6 316.6,414.2 317.9,413.6 316,409.1 			
				"/>
			<polygon class="st10" points="318.3,406.7 320.9,412.3 322.1,411.8 319.6,406.1 			"/>
			<path class="st10" d="M325.8,408.8c-1,0.5-2,0-2.5-1l0,0c-0.5-1-0.1-2.1,0.8-2.5c0.6-0.3,1.1-0.2,1.7,0l0.4-1.3
				c-0.8-0.3-1.6-0.3-2.6,0.2c-1.7,0.8-2.3,2.7-1.6,4.3l0,0c0.8,1.6,2.6,2.3,4.3,1.5c1.1-0.5,1.5-1.2,1.8-2.1l-1.2-0.4
				C326.7,408.1,326.4,408.5,325.8,408.8z"/>
			<path class="st10" d="M332.7,404.6L332.7,404.6c-0.5-1-1.3-1-2.6-0.8c-1.1,0.2-1.4,0.2-1.6-0.1l0,0c-0.1-0.3,0-0.6,0.5-0.8
				c0.5-0.2,1-0.3,1.7-0.2l0.2-1.2c-0.8-0.2-1.6-0.1-2.4,0.4c-1.1,0.6-1.6,1.7-1.1,2.7l0,0c0.6,1.1,1.4,1,2.7,0.7
				c1-0.2,1.3-0.2,1.5,0.1l0,0c0.2,0.3,0,0.7-0.5,0.9c-0.6,0.3-1.3,0.3-2,0.2l-0.3,1.2c1,0.2,1.9,0.1,2.8-0.3
				C332.8,406.7,333.3,405.6,332.7,404.6z"/>
			<path class="st10" d="M272.8,67L272.8,67c0.1-1.1-0.5-1.6-1.7-2.1c-1-0.4-1.3-0.6-1.2-1v0c0-0.3,0.3-0.5,0.9-0.4
				c0.5,0.1,1,0.4,1.5,0.8l0.8-0.9c-0.6-0.6-1.3-0.9-2.2-1c-1.2-0.1-2.2,0.5-2.4,1.6l0,0c-0.1,1.2,0.6,1.7,1.8,2.1
				c1,0.4,1.2,0.6,1.1,0.9l0,0c0,0.4-0.4,0.5-1,0.5c-0.7-0.1-1.2-0.4-1.7-0.9l-0.9,0.9c0.7,0.7,1.6,1.2,2.5,1.3
				C271.6,68.8,272.6,68.2,272.8,67z"/>
			<polygon class="st10" points="278.8,68.6 275.5,68.1 275.7,66.8 278.6,67.2 278.8,66 275.9,65.6 276.1,64.3 279.4,64.8 
				279.6,63.7 274.9,62.9 274,69 278.6,69.8 			"/>
			<path class="st10" d="M284.4,64.5l-1.2-0.2l-3.8,5.6l1.4,0.3l0.8-1.3l2.6,0.5l0.3,1.5l1.4,0.3L284.4,64.5z M282.3,67.8l1.2-1.8
				l0.4,2.1L282.3,67.8z"/>
			<path class="st10" d="M288.4,69.7l1,0.2l0.8,2.2l1.5,0.4l-1-2.5c0.8-0.1,1.5-0.6,1.7-1.6l0,0c0.1-0.6,0.1-1.1-0.2-1.5
				c-0.3-0.5-0.9-0.8-1.6-1l-2.7-0.6l-1.4,6l1.3,0.3L288.4,69.7z M289.1,66.8l1.3,0.3c0.7,0.2,1,0.5,0.9,1.1l0,0
				c-0.1,0.5-0.6,0.8-1.2,0.6l-1.3-0.3L289.1,66.8z"/>
			<path class="st10" d="M295.8,73.7c1.1,0.3,1.9,0.1,2.7-0.4l-0.6-1.1c-0.6,0.3-1.1,0.5-1.7,0.3c-1-0.3-1.5-1.3-1.2-2.3l0,0
				c0.3-1,1.2-1.7,2.2-1.4c0.6,0.2,1,0.5,1.3,1.1l1.1-0.7c-0.4-0.7-1-1.3-2.1-1.6c-1.8-0.5-3.5,0.5-3.9,2.2l0,0
				C293.1,71.5,294,73.2,295.8,73.7z"/>
			<polygon class="st10" points="304.1,72.1 301.7,71.4 302.4,69 301.1,68.6 299.3,74.5 300.6,74.9 301.4,72.6 303.8,73.3 303,75.7 
				304.3,76.1 306.1,70.1 304.8,69.7 			"/>
			<path class="st10" d="M309.8,78.1c0.7,0.2,1.3,0.2,1.9,0l0.4,0.9l1.2-0.3l-0.5-1.2c0.4-0.3,0.8-0.6,1.2-1l-0.8-0.9
				c-0.3,0.3-0.6,0.6-0.9,0.8l-0.5-1.1c0.8,0,1.5-0.3,1.8-1.1l0,0c0.3-0.8-0.1-1.7-1.1-2.1c-1.1-0.4-2,0.1-2.3,0.9v0
				c-0.2,0.4-0.2,0.8,0,1.3c-0.9,0.1-1.4,0.4-1.7,1.2l0,0C308.1,76.7,308.7,77.7,309.8,78.1z M311.4,73.7L311.4,73.7
				c0.1-0.4,0.4-0.5,0.8-0.4c0.3,0.1,0.5,0.4,0.4,0.7v0c-0.1,0.4-0.5,0.5-1.1,0.5C311.3,74.1,311.3,73.9,311.4,73.7z M309.8,76.1
				L309.8,76.1c0.1-0.3,0.4-0.5,0.8-0.6l0.7,1.5c-0.3,0.1-0.7,0.1-1,0C309.9,76.9,309.6,76.5,309.8,76.1z"/>
			<polygon class="st10" points="111.8,129.4 110.8,128.6 108.8,130.9 105,127.7 104.2,128.8 108.9,132.8 			"/>
			<path class="st10" d="M113.1,127.9l-0.6-1.4l1.8-1.9l1.4,0.5l1-1.1l-6.4-2.2l-0.8,0.9l2.8,6.1L113.1,127.9z M110.9,123.5l2,0.7
				l-1.1,1.2L110.9,123.5z"/>
			<polygon class="st10" points="118.2,122.3 115.4,119.6 120.3,120.2 121.1,119.4 116.7,115.1 115.7,116 118.5,118.7 113.7,118.1 
				112.9,119 117.3,123.3 			"/>
			<path class="st10" d="M123.9,116.7c1.4-1.3,1.5-3.3,0.3-4.5l0,0c-1.2-1.3-3.1-1.3-4.5,0l-1.8,1.7l4.3,4.5L123.9,116.7z
				 M120.5,113.1c0.8-0.8,1.9-0.7,2.7,0.1l0,0c0.7,0.8,0.7,1.9-0.1,2.6l-0.8,0.7l-2.6-2.7L120.5,113.1z"/>
			<polygon class="st10" points="128.3,112.7 124.1,108.1 123.1,109 127.3,113.6 			"/>
			<polygon class="st10" points="130.5,110.8 127.9,107.8 132.7,108.9 133.6,108.1 129.6,103.4 128.6,104.3 131.1,107.2 
				126.4,106.2 125.4,107 129.4,111.7 			"/>
			<path class="st10" d="M132.9,104.8c1.1,1.4,3,1.7,4.5,0.5c0.9-0.7,1.3-1.6,1.5-2.4l-1.7-2.1l-2.1,1.6l0.7,0.9l1.1-0.9l0.5,0.7
				c-0.1,0.4-0.4,0.8-0.8,1.1c-0.9,0.7-2,0.5-2.7-0.4l0,0c-0.6-0.8-0.6-2,0.2-2.6c0.6-0.4,1-0.5,1.7-0.5l0-1.3
				c-0.9,0-1.6,0.1-2.4,0.8C132,101.4,131.8,103.4,132.9,104.8L132.9,104.8z"/>
			<polygon class="st10" points="180.7,80.3 179.2,76.6 181.8,78.4 181.8,78.4 182.5,75.3 184,79 185.2,78.5 183,72.8 181.6,73.3 
				181,76.3 178.6,74.5 177.2,75 179.5,80.8 			"/>
			<path class="st10" d="M185.3,75.2c0.6,1.7,2.3,2.6,4.1,1.9c1.8-0.6,2.6-2.4,2.1-4.1l0,0c-0.6-1.7-2.3-2.6-4.1-1.9
				C185.5,71.8,184.7,73.6,185.3,75.2L185.3,75.2z M187.7,72.3c1-0.4,2.1,0.2,2.4,1.2v0c0.3,1-0.1,2.1-1.1,2.4s-2.1-0.2-2.4-1.2v0
				C186.3,73.7,186.7,72.7,187.7,72.3z"/>
			<path class="st10" d="M196.6,74.8c1.3-0.4,2.1-1.2,1.7-2.3v0c-0.2-0.8-0.8-1.1-1.6-1.1c0.4-0.4,0.6-0.8,0.4-1.5l0,0
				c-0.1-0.4-0.4-0.7-0.7-0.9c-0.4-0.2-1-0.3-1.7-0.1l-2.8,0.8l1.8,6L196.6,74.8z M196.9,72.7L196.9,72.7c0.1,0.5-0.2,0.8-0.7,0.9
				l-1.6,0.5l-0.4-1.3l1.5-0.4C196.4,72.1,196.8,72.3,196.9,72.7z M194.9,70c0.6-0.2,0.9,0,1,0.4v0c0.1,0.4-0.2,0.7-0.8,0.9
				l-1.2,0.4l-0.4-1.3L194.9,70z"/>
			
				<rect x="199.1" y="67.6" transform="matrix(0.9651 -0.2618 0.2618 0.9651 -11.5289 54.753)" class="st10" width="1.4" height="6.2"/>
			<polygon class="st10" points="207.1,71.9 206.8,70.7 203.8,71.5 202.6,66.7 201.2,67 202.8,73 			"/>
			<polygon class="st10" points="212.7,70.7 212.4,69.6 209.1,70.2 208.9,69 211.7,68.4 211.5,67.2 208.6,67.8 208.4,66.6 
				211.6,65.9 211.3,64.7 206.8,65.7 208.1,71.7 			"/>
			<polygon class="st10" points="71.3,206.1 75.2,208.2 70.7,208.7 70.5,209.8 74.3,212.1 69.9,212.5 69.6,213.9 76.2,213.2 
				76.4,212 72.8,209.8 77,209.3 77.3,208.1 71.7,204.7 			"/>
			<polygon class="st10" points="77.2,203.4 75.9,203.1 76.6,200.3 75.5,200 74.7,202.8 73.5,202.5 74.4,199.3 73.2,199 72,203.5 
				78,205 79.2,200.5 78,200.2 			"/>
			<path class="st10" d="M79.5,193.8L79.5,193.8c-0.8-0.3-1.3,0-1.8,0.7c-0.1-0.5-0.4-1-1-1.2l0,0c-0.4-0.1-0.8-0.1-1.1,0.1
				c-0.4,0.2-0.8,0.7-1,1.4l-0.9,2.8l5.9,1.8l0.9-2.8C80.8,195.2,80.6,194.1,79.5,193.8z M76.8,195.8l-0.4,1.2l-1.2-0.4l0.4-1.3
				c0.2-0.5,0.5-0.8,0.9-0.7l0,0C76.9,194.8,76.9,195.2,76.8,195.8z M79.3,196.2l-0.5,1.6l-1.3-0.4l0.5-1.5c0.2-0.7,0.5-0.9,0.9-0.8
				l0,0C79.3,195.2,79.4,195.6,79.3,196.2z"/>
			<path class="st10" d="M81.2,188.3L81.2,188.3c-1-0.4-1.7,0.2-2.4,1.3c-0.6,0.9-0.8,1.1-1.2,1l0,0c-0.3-0.1-0.4-0.4-0.3-0.9
				c0.2-0.5,0.6-0.9,1.1-1.3l-0.7-1c-0.7,0.4-1.2,1.1-1.5,1.9c-0.4,1.2,0,2.3,1.1,2.7l0,0c1.2,0.4,1.8-0.3,2.5-1.3
				c0.6-0.9,0.8-1,1.2-0.9l0,0c0.4,0.1,0.5,0.5,0.3,1c-0.2,0.7-0.7,1.1-1.3,1.5l0.7,1.1c0.9-0.5,1.5-1.3,1.8-2.2
				C82.7,189.8,82.3,188.7,81.2,188.3z"/>
			<polygon class="st10" points="77.5,185.6 83.3,187.8 83.8,186.5 78,184.4 			"/>
			<polygon class="st10" points="81.5,178.9 80.3,178.5 78.4,183.2 79.6,183.7 80.3,181.9 84.8,183.8 85.3,182.5 80.8,180.7 			"/>
			<polygon class="st10" points="85.9,178 84.7,177.5 85.9,174.8 84.8,174.3 83.6,177 82.5,176.5 83.8,173.4 82.7,173 80.8,177.2 
				86.5,179.7 88.4,175.4 87.2,174.9 			"/>
			<path class="st10" d="M89.2,169.3L89.2,169.3c-1-0.5-1.7,0-2.5,1c-0.7,0.8-0.9,1-1.3,0.8l0,0c-0.3-0.1-0.4-0.5-0.1-0.9
				c0.2-0.5,0.7-0.9,1.2-1.2l-0.6-1.1c-0.7,0.3-1.3,0.9-1.7,1.7c-0.6,1.1-0.3,2.3,0.7,2.8l0,0c1.1,0.5,1.8,0,2.6-1
				c0.7-0.8,1-0.9,1.3-0.8l0,0c0.3,0.2,0.4,0.6,0.1,1.1c-0.3,0.6-0.8,1-1.5,1.3l0.5,1.1c0.9-0.4,1.6-1.1,2-1.9
				C90.6,171,90.4,169.9,89.2,169.3z"/>
			<path class="st10" d="M120.7,129L120.7,129c-1-0.9-2.2-0.8-3.2,0.3l-1.7,1.9l4.6,4.1l0.9-1l-1.4-1.2l0.7-0.8
				C121.5,131.3,121.7,130,120.7,129z M119.7,131.5l-0.7,0.8l-1.4-1.3l0.7-0.8c0.5-0.5,1-0.6,1.4-0.2l0,0
				C120.1,130.4,120.2,131,119.7,131.5z"/>
			<path class="st10" d="M120.9,125.6l2.6,6.2l1-1l-0.6-1.4l1.8-1.9l1.4,0.6l1-1l-6.3-2.4L120.9,125.6z M124.5,127.1l-1.1,1.2
				l-0.9-2L124.5,127.1z"/>
			<path class="st10" d="M128.3,122.1l0.8,0.9l1-0.9l0.6,0.7c-0.1,0.4-0.3,0.8-0.7,1.2c-0.8,0.8-1.9,0.7-2.7-0.1l0,0
				c-0.7-0.8-0.8-2,0-2.6c0.5-0.5,1-0.6,1.6-0.7l-0.1-1.3c-0.9,0-1.5,0.3-2.4,1.1c-1.4,1.3-1.4,3.3-0.2,4.6l0,0
				c1.3,1.3,3.2,1.4,4.6,0.1c0.8-0.8,1.2-1.7,1.3-2.5l-1.9-2L128.3,122.1z"/>
			<polygon class="st10" points="133.9,120.1 133,119.1 135.2,117.1 134.4,116.2 132.2,118.2 131.3,117.3 133.8,115 133,114.1 
				129.5,117.2 133.6,121.9 137.2,118.7 136.4,117.8 			"/>
			<path class="st10" d="M136.1,113.8L136.1,113.8c-0.2-0.2-0.1-0.6,0.3-0.9c0.4-0.3,1-0.5,1.6-0.6l-0.1-1.2c-0.8,0-1.6,0.3-2.3,0.9
				c-1,0.8-1.2,2-0.5,2.8l0,0c0.8,0.9,1.6,0.7,2.8,0.2c1-0.5,1.3-0.5,1.5-0.2l0,0c0.2,0.3,0.1,0.7-0.3,1c-0.5,0.4-1.2,0.6-1.9,0.6
				l0,1.3c1,0,1.9-0.3,2.7-0.9c1-0.8,1.3-2,0.5-2.9l0,0c-0.7-0.8-1.5-0.7-2.7-0.2C136.6,114,136.3,114.1,136.1,113.8z"/>
			<path class="st10" d="M187.5,82.2l-0.4,6.8l1.3-0.5l0.1-1.5l2.5-0.9l1,1.1l1.3-0.5l-4.6-5L187.5,82.2z M188.6,85.7l0.1-2.2
				l1.5,1.6L188.6,85.7z"/>
			<path class="st10" d="M197.9,81c-0.4-1.2-1.5-1.8-2.9-1.3l-2.4,0.8l1.9,5.9l1.3-0.4l-0.6-1.8l1-0.3
				C197.5,83.4,198.4,82.4,197.9,81L197.9,81z M195.9,82.7l-1,0.3l-0.6-1.8l1-0.3c0.6-0.2,1.1,0,1.3,0.6v0
				C196.8,82,196.5,82.5,195.9,82.7z"/>
			<path class="st10" d="M203.6,79.3c-0.3-1.2-1.4-1.8-2.9-1.4l-2.4,0.7l1.7,6l1.3-0.4l-0.5-1.8l1-0.3
				C203.2,81.7,204.1,80.7,203.6,79.3L203.6,79.3z M201.6,80.9l-1,0.3l-0.5-1.8l1-0.3c0.7-0.2,1.2,0,1.3,0.6v0
				C202.5,80.3,202.2,80.8,201.6,80.9z"/>
			<path class="st10" d="M209.7,80.1c-0.3-1-1-1.3-2.3-1.3c-1.1,0-1.4-0.1-1.5-0.5l0,0c-0.1-0.3,0.1-0.6,0.6-0.7
				c0.5-0.1,1.1,0,1.7,0.2l0.5-1.2c-0.7-0.3-1.5-0.4-2.4-0.2c-1.2,0.3-1.9,1.2-1.7,2.3l0,0c0.3,1.2,1.1,1.3,2.4,1.4
				c1.1,0,1.3,0.1,1.4,0.5l0,0c0.1,0.4-0.2,0.6-0.7,0.8c-0.7,0.2-1.3,0-2-0.3l-0.5,1.1c0.9,0.5,1.9,0.6,2.8,0.3
				C209.3,82.2,210,81.4,209.7,80.1L209.7,80.1z"/>
			<path class="st10" d="M274.4,74.5c0.5,0.1,1,0.4,1.5,0.8l0.9-0.9c-0.6-0.6-1.3-1-2.2-1.1c-1.3-0.2-2.3,0.4-2.4,1.5l0,0
				c-0.2,1.2,0.6,1.7,1.8,2.2c1,0.4,1.2,0.6,1.1,1l0,0c-0.1,0.4-0.4,0.5-1,0.4c-0.7-0.1-1.2-0.5-1.7-1l-0.9,0.8
				c0.6,0.8,1.5,1.2,2.5,1.4c1.3,0.2,2.3-0.4,2.5-1.6l0,0c0.2-1.1-0.5-1.6-1.7-2.1c-1-0.4-1.3-0.6-1.2-1l0,0
				C273.5,74.6,273.9,74.4,274.4,74.5z"/>
			<path class="st10" d="M281.6,74.5c-1.9-0.4-3.5,0.8-3.8,2.5v0c-0.3,1.7,0.8,3.4,2.6,3.7c1.9,0.4,3.5-0.8,3.8-2.5v0
				C284.5,76.5,283.5,74.8,281.6,74.5z M282.8,78L282.8,78c-0.2,1.1-1.1,1.8-2.2,1.6c-1.1-0.2-1.7-1.2-1.5-2.3l0,0
				c0.2-1,1.1-1.8,2.2-1.5C282.4,75.9,283,76.9,282.8,78z"/>
			<path class="st10" d="M287.9,81.1c-1-0.2-1.5-1.3-1.3-2.3v0c0.2-1,1.2-1.7,2.2-1.5c0.6,0.1,1,0.5,1.4,1l1.1-0.8
				c-0.4-0.7-1-1.2-2.2-1.5c-1.8-0.4-3.5,0.7-3.9,2.4v0c-0.4,1.7,0.6,3.4,2.4,3.8c1.2,0.3,1.9,0,2.7-0.5l-0.6-1.1
				C289.1,81.1,288.6,81.3,287.9,81.1z"/>
			<polygon class="st10" points="292.6,77.1 291.1,83.1 292.4,83.4 294,77.4 			"/>
			<path class="st10" d="M297.9,78.5l-4.3,5.3l1.3,0.4l0.9-1.2l2.5,0.7l0.2,1.5l1.4,0.4l-0.8-6.7L297.9,78.5z M296.7,81.9l1.4-1.7
				l0.2,2.2L296.7,81.9z"/>
			<polygon class="st10" points="304.1,80.5 302.8,80 300.8,85.9 305.1,87.3 305.5,86.2 302.5,85.2 			"/>
			<path class="st10" d="M335.7,77.2l1.2,0.6l0.9-1.8l1,0.5l0.3,2.4l1.4,0.7l-0.3-2.7c0.8,0.1,1.6-0.2,2.1-1.1l0,0
				c0.3-0.5,0.3-1,0.2-1.5c-0.2-0.6-0.6-1-1.3-1.4l-2.5-1.3L335.7,77.2z M340.5,74.1c0.6,0.3,0.8,0.8,0.5,1.3l0,0
				c-0.2,0.5-0.8,0.6-1.3,0.3l-1.2-0.7l0.8-1.6L340.5,74.1z"/>
			<polygon class="st10" points="345.4,82.5 346,81.5 343.1,79.8 343.7,78.7 346.3,80.1 346.9,79.1 344.3,77.6 345,76.5 347.8,78.2 
				348.5,77.1 344.4,74.8 341.3,80.2 			"/>
			<path class="st10" d="M347.7,83.9l1-1.6l0.9,0.5c1.2,0.7,2.5,0.7,3.2-0.6l0,0c0.7-1.1,0.4-2.3-0.9-3l-2.1-1.3l-3.2,5.3
				L347.7,83.9z M350.3,79.7l0.9,0.6c0.6,0.4,0.8,0.8,0.5,1.4l0,0c-0.3,0.5-0.8,0.6-1.4,0.2l-0.9-0.6L350.3,79.7z"/>
			<path class="st10" d="M353.7,87.8c1.4,0.9,2.8,0.7,3.8-0.9l1.9-2.9l-1.1-0.7l-1.9,3c-0.5,0.8-1.2,1-1.9,0.5
				c-0.7-0.5-0.8-1.2-0.3-2l1.9-2.9l-1.1-0.7l-1.9,3C352,85.5,352.3,86.9,353.7,87.8z"/>
			<polygon class="st10" points="358.3,90.8 359.4,91.6 362.3,87.5 363.8,88.6 364.6,87.6 360.3,84.6 359.6,85.7 361.2,86.8 			"/>
			<path class="st10" d="M361.9,93.4l1.3-0.8l2.1,1.6l-0.4,1.4l1.1,0.8l1.6-6.6l-1-0.7l-5.8,3.4L361.9,93.4z M366.1,90.8l-0.5,2.1
				l-1.3-1L366.1,90.8z"/>
			<polygon class="st10" points="367.3,97.5 368.4,98.4 371.5,94.5 372.9,95.7 373.7,94.7 369.7,91.5 368.9,92.5 370.4,93.7 			"/>
			
				<rect x="370.2" y="97.7" transform="matrix(0.6387 -0.7695 0.7695 0.6387 59.1803 322.7801)" class="st10" width="6.2" height="1.4"/>
			<path class="st10" d="M374.8,99.7c-1.2,1.3-1.1,3.3,0.4,4.5s3.4,1.1,4.6-0.2l0,0c1.2-1.3,1.1-3.3-0.4-4.5
				C378,98.2,376,98.3,374.8,99.7L374.8,99.7z M375.9,100.6L375.9,100.6c0.7-0.8,1.8-1,2.7-0.2c0.8,0.7,0.8,1.9,0.1,2.7l0,0
				c-0.7,0.8-1.8,0.9-2.7,0.2C375.2,102.5,375.2,101.4,375.9,100.6z"/>
			<polygon class="st10" points="379.6,108 382.3,105.2 381.8,110.1 382.6,110.9 386.9,106.4 385.9,105.5 383.3,108.2 383.8,103.5 
				382.8,102.6 378.6,107.1 			"/>
			<polygon class="st10" points="386.5,114.9 389.4,112.1 388.7,115.2 388.7,115.2 391.8,114.6 388.9,117.4 389.8,118.4 
				394.3,114.1 393.3,113.1 390.3,113.7 391.1,110.7 390.1,109.7 385.6,113.9 			"/>
			<path class="st10" d="M391.5,120.2l1.4-0.5l1.7,2L394,123l1,1.1l2.9-6.1L397,117l-6.4,2.1L391.5,120.2z M396.2,118.6l-1,1.9
				l-1.1-1.2L396.2,118.6z"/>
			<polygon class="st10" points="396.4,126 399.5,123.5 398.3,128.3 399,129.2 403.8,125.3 403,124.2 400,126.6 401.1,122 
				400.3,121 395.6,124.9 			"/>
			<path class="st10" d="M400.5,131.1l1.5-0.4l1.6,2.1l-0.8,1.3l0.9,1.1l3.4-5.9l-0.7-1l-6.6,1.6L400.5,131.1z M405.3,129.8
				l-1.1,1.9l-1-1.3L405.3,129.8z"/>
			<path class="st10" d="M406.3,133.6c-1.5,1.1-1.9,2.9-0.7,4.5c0.7,0.9,1.5,1.4,2.3,1.6l2.2-1.6l-1.5-2.2l-1,0.7l0.8,1.1l-0.7,0.5
				c-0.4-0.1-0.8-0.4-1-0.8c-0.6-0.9-0.4-2,0.5-2.7l0,0c0.9-0.6,2-0.5,2.6,0.4c0.4,0.6,0.5,1.1,0.4,1.7l1.3,0.1
				c0.1-0.8-0.1-1.6-0.7-2.5C409.7,132.9,407.7,132.6,406.3,133.6L406.3,133.6z"/>
			<polygon class="st10" points="410.4,145.3 411.4,144.7 409.6,141.8 410.7,141.1 412.3,143.6 413.3,142.9 411.7,140.5 
				412.8,139.8 414.6,142.6 415.6,141.9 413.1,138 407.9,141.3 			"/>
			<polygon class="st10" points="411.8,147.5 415.3,145.4 413.9,148.3 414,148.3 417.1,148.4 413.7,150.5 414.4,151.7 419.7,148.5 
				418.9,147.2 415.8,147.2 417.2,144.4 416.5,143.2 411.1,146.4 			"/>
			<polygon class="st10" points="417.3,157.1 418.4,156.5 416.8,153.6 417.9,152.9 419.3,155.5 420.4,154.9 419,152.3 420.1,151.7 
				421.7,154.7 422.8,154.1 420.5,149.9 415.1,153 			"/>
			<polygon class="st10" points="418.6,159.4 422,157.6 419.9,162 420.5,163.1 426,160.2 425.3,159 422,160.8 424,156.4 
				423.4,155.3 417.9,158.2 			"/>
			<polygon class="st10" points="426.2,163.7 421.7,165.8 422.3,167 426.8,164.9 427.6,166.6 428.7,166.1 426.5,161.4 425.4,161.9 
							"/>
			<polygon class="st10" points="434.2,195.8 435.5,195.4 436.3,198.2 437.4,197.9 436.6,195.1 437.9,194.7 438.8,197.9 
				439.9,197.6 438.7,193.1 432.7,194.8 434,199.3 435.1,199 			"/>
			<polygon class="st10" points="441.4,203.8 438.5,202.8 440.7,200.6 440.3,199.2 434.3,200.6 434.6,201.9 438.5,201 436.4,203.3 
				436.4,203.3 439.3,204.4 435.4,205.3 435.7,206.6 441.7,205.2 			"/>
			<path class="st10" d="M442.6,208.9l-6.6-1.4l0.3,1.4l1.5,0.3l0.5,2.6l-1.3,0.8l0.3,1.4l5.6-3.8L442.6,208.9z M439.3,211l-0.3-1.6
				l2.1,0.4L439.3,211z"/>
			<polygon class="st10" points="443.5,214 437.4,215.1 437.6,216.4 443.7,215.4 			"/>
			<polygon class="st10" points="444.2,218.3 444,217 437.8,217.9 438.5,222.3 439.7,222.1 439.3,219 			"/>
			<polygon class="st10" points="338.3,109.1 334.9,114.3 338.6,116.7 339.2,115.7 336.7,114 339.4,109.9 			"/>
			<path class="st10" d="M345.1,113.7c-1.5-1.1-3.5-0.7-4.5,0.7l0,0c-1,1.4-0.7,3.4,0.8,4.5c1.5,1.1,3.5,0.7,4.5-0.7l0,0
				C346.9,116.7,346.6,114.8,345.1,113.7z M344.7,117.3L344.7,117.3c-0.6,0.9-1.7,1.1-2.6,0.5c-0.9-0.6-1-1.8-0.4-2.6l0,0
				c0.6-0.9,1.7-1.1,2.6-0.5C345.2,115.3,345.3,116.5,344.7,117.3z"/>
			<path class="st10" d="M349.9,122.9c-0.7,0-1.2,0-1.7-0.4c-0.8-0.7-0.8-1.8-0.2-2.6l0,0c0.7-0.8,1.8-1,2.6-0.4
				c0.5,0.4,0.7,0.9,0.8,1.5l1.3-0.2c-0.1-0.8-0.4-1.5-1.3-2.3c-1.5-1.2-3.4-0.9-4.5,0.5l0,0c-1.1,1.4-0.9,3.3,0.5,4.4
				c0.9,0.7,1.7,0.8,2.7,0.7L349.9,122.9z"/>
			<path class="st10" d="M352.2,125.5l2,1.7l-0.5,1.4l1.1,0.9l2.1-6.4l-1-0.8l-6.1,3l1,0.9L352.2,125.5z M355.3,123.9l-0.7,2
				l-1.2-1.1L355.3,123.9z"/>
			<polygon class="st10" points="358.7,133.2 359.5,132.3 357.3,130.2 360.7,126.6 359.7,125.7 355.5,130.2 			"/>
			<polygon class="st10" points="365.3,138.1 363.2,135.9 366.7,132.5 365.8,131.5 361.4,135.8 364.4,139 			"/>
			
				<rect x="364.9" y="137.6" transform="matrix(0.7384 -0.6744 0.6744 0.7384 3.0126 284.3321)" class="st10" width="6.1" height="1.3"/>
			<path class="st10" d="M370.4,139c-0.9,0.8-0.7,1.6-0.1,2.8c0.5,1,0.5,1.2,0.2,1.5l0,0c-0.3,0.2-0.7,0.1-1-0.3
				c-0.5-0.5-0.6-1.2-0.7-1.9l-1.3,0c0,1,0.4,1.9,1,2.6c0.9,1,2,1.3,2.9,0.5l0,0c0.8-0.7,0.7-1.5,0.1-2.7c-0.5-1-0.6-1.3-0.3-1.5
				l0,0c0.2-0.2,0.6-0.2,0.9,0.3c0.3,0.4,0.5,0.9,0.6,1.6l1.2-0.1c0-0.8-0.3-1.6-0.9-2.3C372.5,138.4,371.3,138.2,370.4,139
				L370.4,139z"/>
			<polygon class="st10" points="371.7,147.3 372.6,148.3 376.4,145.3 377.6,146.7 378.5,145.9 375.3,142 374.4,142.8 375.5,144.2 
							"/>
			
				<rect x="374.2" y="148.6" transform="matrix(0.7903 -0.6127 0.6127 0.7903 -12.3603 262.4876)" class="st10" width="6.2" height="1.4"/>
			<polygon class="st10" points="377,154.1 380.2,151.9 378.8,156.5 379.4,157.5 384.4,153.9 383.6,152.8 380.6,155 382,150.5 
				381.2,149.5 376.3,153.1 			"/>
			<path class="st10" d="M382.8,156.9c-1.5,1-1.9,2.8-0.9,4.5c0.6,1,1.5,1.4,2.3,1.7l2.3-1.5l-1.5-2.3l-1,0.6l0.7,1.1l-0.7,0.5
				c-0.4-0.1-0.7-0.5-1-0.9c-0.6-0.9-0.3-2,0.6-2.6l0,0c0.9-0.6,2-0.4,2.6,0.4c0.4,0.6,0.4,1.1,0.4,1.7l1.3,0.2
				c0.1-0.8,0-1.6-0.6-2.5C386.2,156.3,384.2,155.9,382.8,156.9L382.8,156.9z"/>
			<path class="st10" d="M387.8,162.2c-1,0.6-0.9,1.5-0.6,2.7c0.3,1,0.3,1.3,0,1.5l0,0c-0.3,0.2-0.7,0-1-0.5c-0.4-0.6-0.4-1.2-0.3-2
				l-1.2-0.2c-0.2,1,0,1.9,0.5,2.7c0.7,1.2,1.7,1.6,2.8,1l0,0c0.9-0.5,1-1.4,0.6-2.6c-0.3-1.1-0.3-1.4,0-1.6l0,0
				c0.3-0.2,0.6,0,0.9,0.4c0.3,0.4,0.3,1,0.3,1.7l1.2,0.1c0.1-0.8,0-1.6-0.5-2.4C389.8,162.1,388.7,161.7,387.8,162.2L387.8,162.2z"
				/>
			<path class="st10" d="M403,202.9c0.4,1.3,1.4,2.2,2.8,1.8l0,0c1.2-0.4,1.8-1.5,1.4-2.9l-0.7-2.4l-5.9,1.7l0.4,1.3l1.8-0.5
				L403,202.9z M405.7,201.1l0.3,1c0.2,0.7,0,1.2-0.6,1.3l0,0c-0.5,0.1-1-0.1-1.2-0.8l-0.3-1L405.7,201.1z"/>
			<path class="st10" d="M407.5,210.8L407.5,210.8c0.6-0.1,1-0.4,1.2-0.9c0.3-0.5,0.4-1.1,0.2-1.9l-0.7-2.7l-6,1.5l0.3,1.3l1.9-0.5
				l0.3,1l-1.6,1.8l0.4,1.5l1.8-2C405.8,210.7,406.5,211.1,407.5,210.8z M407.3,207l0.3,1.3c0.2,0.6,0,1.1-0.6,1.2l0,0
				c-0.5,0.1-0.9-0.2-1.1-0.8l-0.3-1.3L407.3,207z"/>
			<polygon class="st10" points="409.7,211.7 403.7,213 404,214.3 410,213 			"/>
			<polygon class="st10" points="411.2,219 407.5,219.6 410.7,216.1 410.5,214.9 404.4,216 404.6,217.3 408.5,216.6 405.2,220.3 
				405.4,221.4 411.5,220.3 			"/>
			<polygon class="st10" points="411.7,221.6 410.5,221.8 410.8,223.7 405.9,224.4 406.1,225.7 410.9,225 411.2,226.9 412.5,226.7 
							"/>
			<rect x="247.7" y="392.8" class="st10" width="1.2" height="69.6"/>
			<path class="st10" d="M75.3,311.2L75.3,311.2c1.7-0.6,2.5-2.3,1.9-4.1l-0.8-2.3l-5.8,2l0.8,2.3C71.9,310.9,73.6,311.7,75.3,311.2
				z M72.4,308.7l-0.3-1l3.5-1.2l0.3,1c0.4,1.1-0.1,2-1.2,2.4l0,0C73.8,310.2,72.8,309.7,72.4,308.7z"/>
			<path class="st10" d="M79.3,312.9l-6.8-0.2l0.5,1.3l1.5,0l0.9,2.4l-1.1,1l0.5,1.3l4.9-4.7L79.3,312.9z M76.5,315.5l-0.6-1.5
				l2.2,0L76.5,315.5z"/>
			<polygon class="st10" points="81.4,321.4 82.6,321 80.6,316.2 79.4,316.7 80.2,318.5 75.6,320.4 76.1,321.6 80.7,319.7 			"/>
			<path class="st10" d="M83.7,323.3l-6.8,0.2l0.6,1.3l1.5-0.1l1.1,2.4l-1,1.1l0.6,1.3l4.6-5L83.7,323.3z M81,326.1l-0.7-1.5
				l2.2-0.1L81,326.1z"/>
			<path class="st10" d="M84,334.4L84,334.4c0.8-0.4,0.9-1,0.9-1.7c0.4,0.3,0.9,0.4,1.6,0.1l0,0c0.4-0.2,0.6-0.5,0.7-0.9
				c0.2-0.5,0.1-1.1-0.2-1.7l-1.3-2.6l-5.5,2.8l1.3,2.6C82.1,334.3,83,334.9,84,334.4z M85.2,329.4l0.6,1.2c0.3,0.5,0.2,0.9-0.2,1.1
				l0,0c-0.4,0.2-0.8,0-1-0.6l-0.6-1.1L85.2,329.4z M82.6,332.5l-0.7-1.4l1.2-0.6l0.7,1.4c0.3,0.6,0.2,1-0.2,1.2l0,0
				C83.2,333.3,82.8,333.1,82.6,332.5z"/>
			<path class="st10" d="M89.6,335.1l-6.8,0.7l0.7,1.2l1.5-0.2l1.3,2.3l-0.9,1.2l0.7,1.2l4.2-5.4L89.6,335.1z M87.1,338.2l-0.8-1.4
				l2.2-0.3L87.1,338.2z"/>
			<path class="st10" d="M90.4,345.3L90.4,345.3c1-0.6,1-1.4,0.6-2.7c-0.3-1.1-0.3-1.4,0-1.6l0,0c0.3-0.2,0.6,0,0.9,0.4
				c0.3,0.5,0.3,1,0.3,1.7l1.3,0.1c0.1-0.8,0-1.6-0.5-2.4c-0.6-1.1-1.7-1.5-2.7-0.9l0,0c-1.1,0.6-1,1.5-0.6,2.7c0.3,1,0.3,1.3,0,1.5
				l0,0c-0.3,0.2-0.7,0-1-0.5c-0.4-0.6-0.4-1.3-0.3-2l-1.3-0.2c-0.2,1,0,2,0.5,2.8C88.3,345.5,89.4,346,90.4,345.3z"/>
			<polygon class="st10" points="89.6,347.5 92.2,351.4 93.2,350.8 91.4,347.9 92.5,347.2 94,349.7 95,349 93.5,346.6 94.5,345.9 
				96.3,348.7 97.3,348 94.8,344.1 			"/>
			<path class="st10" d="M388.9,242.6h77c-3-115.8-96.3-209.1-212-212v77.1C327.2,110.5,386,169.3,388.9,242.6z M382.2,195.6
				l32.6-12c7,17.8,11.1,36.6,12.1,55.9h-35C391,224.3,387.7,209.5,382.2,195.6z M428.1,239.5c-1-19.5-5.2-38.5-12.2-56.4l32.7-12.1
				c8.3,21.7,13.2,44.7,14.1,68.5H428.1z M448.2,169.9L415.5,182c-5.1-12.7-11.6-24.8-19.5-36.1c-18.7-26.8-44.2-47.9-73.9-61.3
				L336,52.2c23.6,10.6,45.3,25.5,64.1,44.2C421.3,117.7,437.5,142.6,448.2,169.9z M257,33.7c27.2,1.1,53.5,7.2,77.8,18l-27.9,65
				l1.1,0.5l13.5-31.5C351,99,376.4,120,395,146.6c7.8,11.2,14.3,23.2,19.3,35.8l-32.6,12c-7.2-17.7-17.9-34-31.7-47.9
				c-25-25-57.9-39.8-93-41.9V33.7z"/>
			<path class="st10" d="M242.6,107.6V30.5c-115.8,3-209.1,96.3-212,212h77C110.5,169.3,169.4,110.5,242.6,107.6z M96.5,96.4
				c13.7-13.7,28.9-25.3,45.3-34.7l34.1,61.9l1.1-0.6l-34.1-61.9c29.3-16.6,62.3-26,96.6-27.4v70.9c-35.1,2.1-68,16.9-93,41.9
				c-6.4,6.4-12.1,13.3-17.2,20.7l-59-39.2C78,116.8,86.7,106.2,96.5,96.4z M33.8,239.5c1.6-39.8,14.1-77.8,35.9-110.4l59,39.2
				c-14.1,21.1-22.5,45.6-24,71.2H33.8z"/>
			<path class="st10" d="M248.3,389.1c-75.9,0-137.7-60-140.7-135.2h-77c3,117.7,99.3,212.1,217.7,212.1
				C366.7,466,463,371.6,466,253.9h-77C386,329,324.2,389.1,248.3,389.1z M109.2,411.8l45.7-53.6l-0.9-0.8L108.3,411
				c-3.4-2.9-6.7-6-10-9.1C58.8,363.3,36,312,33.8,257h70.9c2.2,36.1,17.6,69.7,43.8,94.9c26.9,26,62.4,40.3,99.8,40.3
				c34.4,0,67.1-12.1,93.1-34.2l46,53.8c-38.8,33.1-87.6,51.1-139.1,51.1C196.8,462.9,148,444.9,109.2,411.8z M462.8,257
				c-2.2,55-25,106.3-64.5,144.9c-3.2,3.2-6.6,6.2-10,9.1l-46-53.8c2-1.7,3.9-3.5,5.8-5.3c26.2-25.2,41.6-58.8,43.8-94.9H462.8z"/>
		</g>
	</g>
</g>
</svg>
