<svg xmlns="http://www.w3.org/2000/svg" viewBox="0 0 251 61.86"><defs><style>.cls-1{fill:#22d3c5;}.cls-2{fill:#2f2a34;}</style></defs><title>Logo_Web_HeaderAsset 78</title><g id="Layer_2" data-name="Layer 2"><g id="Layer_1-2" data-name="Layer 1"><path class="cls-1" d="M22.9,16.42V45.32L0,61.86V36.44l7.79-5.51L0,25.29V0Zm6.11,0V45.32l22.9,16.54V36.44l-7.79-5.51,7.79-5.64V0Z"/><path class="cls-2" d="M68.93,8.93h4.82V30.69H68.93ZM79.16,30.69h4.7V16.81L94.45,30.69h4.12V8.93h-4.7V22.34L83.63,8.93H79.16Zm24.58,0h4.82V22.23h10.35V17.87H108.56V13.29h11.76V8.93H103.74Zm20.35,0h15.64V26.34H128.91V8.93h-4.82Zm18.23-9.29c0,6.35,3.65,9.53,9.53,9.53s9.53-3.17,9.53-9.76V8.93h-4.82V21.52c0,3.41-1.77,5.18-4.7,5.18s-4.71-1.88-4.71-5.41V8.93h-4.82V21.4M166.08,8.93V30.69h16.58V26.46H170.9V21.87h10.23V17.64H170.9V13.17h11.65V8.93H166.08ZM187,30.69h4.7V16.81l10.59,13.88h4.12V8.93h-4.71V22.34L191.48,8.93H187Zm23.52-10.82a11.5,11.5,0,0,0,20.11,7.41l-3.06-3.06c-1.76,1.65-3.29,2.59-5.76,2.59-3.76,0-6.35-3.06-6.35-6.82v-.12a6.51,6.51,0,0,1,6.35-6.82,8,8,0,0,1,5.53,2.47L230.42,12a11.64,11.64,0,0,0-19.88,7.88M234.41,8.93V30.69H251V26.46H239.24V21.87h10.23V17.64H239.24V13.17h11.64V8.93H234.41ZM68.93,52.45h2.82V47.28h5.18v5.18h2.82V39.63H76.92v5.06H71.75V39.63H68.93Zm16.82-.12h9.76V49.87H88.57V47.16h6V44.69h-6V42.1h6.82V39.63H85.74ZM105,47.16,106.68,43l1.65,4.12ZM100,52.57h2.82L104,49.75h5.41l1.18,2.82h2.94L108,39.63h-2.59Zm18.35-.12h9.17V49.87h-6.35V39.63h-2.82Zm15.41,0h2.82V42.22h3.88V39.63H129.85v2.59h3.88Zm11.76,0h2.82V47.28h5.18v5.18h2.83V39.63h-2.83v5.06h-5.18V39.63H145.5Z"/></g></g></svg>