<svg xmlns="http://www.w3.org/2000/svg" viewBox="0 0 216.83 216.95"><defs><style>.cls-1{fill:#fff;opacity:0.4;}.cls-2{fill:#22d3c5;}.cls-3,.cls-4{fill:#2f2a34;}.cls-4{font-size:11px;font-family:Gotham-Bold, Gotham;font-weight:700;}.cls-5{letter-spacing:-0.02em;}.cls-6{letter-spacing:-0.04em;}.cls-7{letter-spacing:-0.03em;}.cls-8{letter-spacing:-0.03em;}.cls-9{letter-spacing:-0.02em;}</style></defs><title>CirclesArtboard 16</title><g id="apps_Development" data-name="apps Development"><path class="cls-1" d="M216.83,103.34A108.54,108.54,0,0,0,113.48,0V103.34Z"/><path class="cls-2" d="M103.34,0A108.54,108.54,0,0,0,0,103.34H103.34Z"/><path class="cls-1" d="M108.41,216.95A108.53,108.53,0,0,0,216.83,113.48H0A108.53,108.53,0,0,0,108.41,216.95Z"/><path class="cls-3" d="M136.64,46.65h3a3.84,3.84,0,0,1,4.09,3.83v0a3.86,3.86,0,0,1-4.09,3.85h-3Zm1.69,1.53v4.64h1.31a2.19,2.19,0,0,0,2.32-2.3v0a2.21,2.21,0,0,0-2.32-2.32Z"/><path class="cls-3" d="M145.32,46.65H147v7.7h-1.69Z"/><path class="cls-3" d="M148.59,50.52v0a4,4,0,0,1,4-4,4.23,4.23,0,0,1,3,1.06l-1.07,1.29a2.84,2.84,0,0,0-2-.78,2.31,2.31,0,0,0-2.21,2.4v0a2.31,2.31,0,0,0,2.33,2.44,2.71,2.71,0,0,0,1.6-.46v-1.1h-1.71V49.92h3.34v3.34a5,5,0,0,1-3.29,1.22A3.85,3.85,0,0,1,148.59,50.52Z"/><path class="cls-3" d="M157.64,46.65h1.69v7.7h-1.69Z"/><path class="cls-3" d="M163,48.21h-2.34V46.65h6.38v1.56h-2.34v6.14H163Z"/><path class="cls-3" d="M170,46.59h1.56l3.3,7.76h-1.77l-.7-1.73h-3.26l-.7,1.73h-1.73Zm1.78,4.53-1-2.5-1,2.5Z"/><path class="cls-3" d="M176.08,46.65h1.69v6.16h3.84v1.54h-5.53Z"/><path class="cls-3" d="M124.9,59.85h1.83l2,3.26,2-3.26h1.83v7.7h-1.68v-5l-2.17,3.29h0l-2.15-3.26v5H124.9Z"/><path class="cls-3" d="M137.09,59.79h1.56l3.3,7.76h-1.77l-.7-1.73h-3.26l-.7,1.73h-1.73Zm1.78,4.53-1-2.5-1,2.5Z"/><path class="cls-3" d="M143.14,59.85h3.52a3.07,3.07,0,0,1,2.25.78,2.42,2.42,0,0,1,.66,1.76v0a2.39,2.39,0,0,1-1.65,2.39l1.88,2.75h-2l-1.65-2.46h-1.33v2.46h-1.69Zm3.41,3.74c.83,0,1.3-.44,1.3-1.09v0c0-.73-.51-1.1-1.33-1.1h-1.68v2.21Z"/><path class="cls-3" d="M151.09,59.85h1.69v3.37l3.13-3.37h2l-3.14,3.27,3.28,4.43h-2l-2.39-3.28-.89.92v2.35h-1.69Z"/><path class="cls-3" d="M159.12,59.85h5.81v1.51H160.8v1.56h3.63v1.51H160.8V66H165v1.51h-5.86Z"/><path class="cls-3" d="M168.29,61.41h-2.34V59.85h6.38v1.56H170v6.14h-1.69Z"/><path class="cls-3" d="M173.7,59.85h1.69v7.7H173.7Z"/><path class="cls-3" d="M177.32,59.85h1.56l3.61,4.74V59.85h1.67v7.7h-1.44L179,62.65v4.9h-1.67Z"/><path class="cls-3" d="M185.66,63.72v0a4,4,0,0,1,4-4,4.23,4.23,0,0,1,3,1.06l-1.07,1.29a2.84,2.84,0,0,0-2-.78,2.31,2.31,0,0,0-2.21,2.4v0a2.31,2.31,0,0,0,2.33,2.44,2.71,2.71,0,0,0,1.6-.46v-1.1h-1.71V63.12H193v3.34a5,5,0,0,1-3.29,1.22A3.85,3.85,0,0,1,185.66,63.72Z"/><path class="cls-3" d="M136.68,79.63l1-1.2a3.53,3.53,0,0,0,2.3.94c.69,0,1.11-.27,1.11-.73v0c0-.43-.26-.65-1.55-1-1.55-.4-2.55-.83-2.55-2.35v0a2.41,2.41,0,0,1,2.7-2.32,4.46,4.46,0,0,1,2.86,1l-.88,1.28a3.62,3.62,0,0,0-2-.76c-.65,0-1,.3-1,.67v0c0,.51.33.67,1.66,1,1.56.41,2.44,1,2.44,2.31v0c0,1.53-1.17,2.39-2.83,2.39A4.9,4.9,0,0,1,136.68,79.63Z"/><path class="cls-3" d="M146.08,77.71l-3-4.66h2l1.84,3.09L148.81,73h1.92l-3,4.63v3.07h-1.69Z"/><path class="cls-3" d="M150.88,79.63l1-1.2a3.53,3.53,0,0,0,2.3.94c.69,0,1.11-.27,1.11-.73v0c0-.43-.26-.65-1.55-1-1.55-.4-2.55-.83-2.55-2.35v0a2.41,2.41,0,0,1,2.7-2.32,4.46,4.46,0,0,1,2.86,1l-.88,1.28a3.62,3.62,0,0,0-2-.76c-.65,0-1,.3-1,.67v0c0,.51.33.67,1.66,1,1.56.41,2.44,1,2.44,2.31v0c0,1.53-1.17,2.39-2.83,2.39A4.9,4.9,0,0,1,150.88,79.63Z"/><path class="cls-3" d="M160.07,74.61h-2.34V73h6.38v1.56h-2.34v6.14h-1.69Z"/><path class="cls-3" d="M165.41,73h5.81v1.51h-4.13v1.56h3.63v1.51h-3.63v1.62h4.18v1.51h-5.86Z"/><path class="cls-3" d="M172.78,73h1.83l2,3.26,2-3.26h1.83v7.7H178.8v-5L176.63,79h0l-2.15-3.26v5h-1.66Z"/><text class="cls-4" transform="translate(29.32 54.22)"><tspan class="cls-5">C</tspan><tspan x="7.9" y="0">ONTENT</tspan><tspan x="-13.8" y="13.2">MAN</tspan><tspan class="cls-6" x="13.13" y="13.2">A</tspan><tspan x="21.32" y="13.2">GEMENT</tspan><tspan class="cls-7" x="5.57" y="26.4">S</tspan><tspan class="cls-8" x="12.28" y="26.4">Y</tspan><tspan class="cls-9" x="19.77" y="26.4">S</tspan><tspan x="26.64" y="26.4">TEM</tspan></text><path class="cls-3" d="M32.61,144.48v0a3.91,3.91,0,0,1,4-4,4,4,0,0,1,3,1.19l-1.08,1.24a2.84,2.84,0,0,0-2-.87,2.28,2.28,0,0,0-2.23,2.4v0a2.29,2.29,0,0,0,2.23,2.42,2.78,2.78,0,0,0,2-.9l1.08,1.09a3.94,3.94,0,0,1-3.16,1.38A3.89,3.89,0,0,1,32.61,144.48Z"/><path class="cls-3" d="M41,145v-4.4h1.69V145c0,1.25.63,1.9,1.66,1.9S46,146.24,46,145v-4.41h1.69V145c0,2.33-1.31,3.48-3.38,3.48S41,147.28,41,145Z"/><path class="cls-3" d="M48.86,147.19l1-1.2a3.53,3.53,0,0,0,2.3.94c.69,0,1.11-.27,1.11-.73v0c0-.43-.26-.65-1.55-1-1.55-.4-2.55-.83-2.55-2.35v0a2.41,2.41,0,0,1,2.7-2.32,4.46,4.46,0,0,1,2.86,1l-.88,1.28a3.62,3.62,0,0,0-2-.76c-.65,0-1,.3-1,.67v0c0,.51.33.67,1.66,1,1.56.41,2.44,1,2.44,2.31v0c0,1.53-1.17,2.39-2.83,2.39A4.9,4.9,0,0,1,48.86,147.19Z"/><path class="cls-3" d="M58.06,142.17H55.71v-1.56h6.38v1.56H59.75v6.14H58.06Z"/><path class="cls-3" d="M62.72,144.48v0a4.09,4.09,0,0,1,8.19,0v0a4.09,4.09,0,0,1-8.19,0Zm6.41,0v0A2.34,2.34,0,0,0,66.8,142a2.3,2.3,0,0,0-2.31,2.4v0a2.34,2.34,0,0,0,2.33,2.42A2.3,2.3,0,0,0,69.13,144.48Z"/><path class="cls-3" d="M72.41,140.61h1.83l2,3.26,2-3.26h1.83v7.7H78.43v-5l-2.17,3.29h0l-2.15-3.26v5H72.41Z"/><path class="cls-3" d="M82,140.61h5.81v1.51H83.64v1.56h3.63v1.51H83.64v1.62h4.18v1.51H82Z"/><path class="cls-3" d="M89.33,140.61h3.52a3.07,3.07,0,0,1,2.25.78,2.42,2.42,0,0,1,.66,1.76v0a2.39,2.39,0,0,1-1.65,2.39L96,148.31H94l-1.65-2.46H91v2.46H89.33Zm3.41,3.74c.83,0,1.3-.44,1.3-1.09v0c0-.73-.51-1.1-1.33-1.1H91v2.21Z"/><path class="cls-3" d="M100.58,140.61h3.52a3.07,3.07,0,0,1,2.25.78,2.42,2.42,0,0,1,.66,1.76v0a2.39,2.39,0,0,1-1.65,2.39l1.88,2.75h-2l-1.65-2.46h-1.33v2.46h-1.69Zm3.41,3.74c.83,0,1.3-.44,1.3-1.09v0c0-.73-.51-1.1-1.33-1.1h-1.68v2.21Z"/><path class="cls-3" d="M108.53,140.61h5.81v1.51h-4.13v1.56h3.63v1.51h-3.63v1.62h4.18v1.51h-5.86Z"/><path class="cls-3" d="M115.9,140.61h1.69v6.16h3.84v1.54H115.9Z"/><path class="cls-3" d="M125.35,140.56h1.56l3.3,7.76h-1.77l-.7-1.73h-3.26l-.7,1.73h-1.73Zm1.78,4.53-1-2.5-1,2.5Z"/><path class="cls-3" d="M132.21,142.17h-2.34v-1.56h6.38v1.56H133.9v6.14h-1.69Z"/><path class="cls-3" d="M137.62,140.61h1.69v7.7h-1.69Z"/><path class="cls-3" d="M140.9,144.48v0a4.09,4.09,0,0,1,8.19,0v0a4.09,4.09,0,0,1-8.19,0Zm6.41,0v0A2.34,2.34,0,0,0,145,142a2.3,2.3,0,0,0-2.31,2.4v0a2.34,2.34,0,0,0,2.33,2.42A2.3,2.3,0,0,0,147.31,144.48Z"/><path class="cls-3" d="M150.59,140.61h1.56l3.61,4.74v-4.74h1.67v7.7H156l-3.73-4.9v4.9h-1.67Z"/><path class="cls-3" d="M158.75,147.19l1-1.2a3.53,3.53,0,0,0,2.3.94c.69,0,1.11-.27,1.11-.73v0c0-.43-.26-.65-1.55-1-1.55-.4-2.55-.83-2.55-2.35v0a2.41,2.41,0,0,1,2.7-2.32,4.46,4.46,0,0,1,2.86,1l-.88,1.28a3.62,3.62,0,0,0-2-.76c-.65,0-1,.3-1,.67v0c0,.51.33.67,1.66,1,1.56.41,2.44,1,2.44,2.31v0c0,1.53-1.17,2.39-2.83,2.39A4.9,4.9,0,0,1,158.75,147.19Z"/><path class="cls-3" d="M166.32,140.61H168v3h3.13v-3h1.69v7.7h-1.69v-3.09H168v3.09h-1.69Z"/><path class="cls-3" d="M174.75,140.61h1.69v7.7h-1.69Z"/><path class="cls-3" d="M178.37,140.61h3.15a2.64,2.64,0,0,1,2.95,2.66v0c0,1.78-1.39,2.71-3.11,2.71h-1.29v2.31h-1.69Zm3,3.88a1.19,1.19,0,0,0,1.34-1.17v0c0-.76-.53-1.17-1.37-1.17h-1.31v2.35Z"/><path class="cls-3" d="M67.41,153.81h1.83l2,3.26,2-3.26h1.83v7.7H73.43v-5l-2.17,3.29h0l-2.15-3.26v5H67.41Z"/><path class="cls-3" d="M79.6,153.76h1.56l3.3,7.76H82.69l-.7-1.73H78.73l-.7,1.73H76.3Zm1.78,4.53-1-2.5-1,2.5Z"/><path class="cls-3" d="M85.65,153.81h1.56l3.61,4.74v-4.74h1.67v7.7H91.05l-3.73-4.9v4.9H85.65Z"/><path class="cls-3" d="M97,153.76h1.56l3.3,7.76h-1.77l-.7-1.73H96.11l-.7,1.73H93.68Zm1.78,4.53-1-2.5-1,2.5Z"/><path class="cls-3" d="M102.19,157.68v0a4,4,0,0,1,4-4,4.23,4.23,0,0,1,3,1.06L108.19,156a2.84,2.84,0,0,0-2-.78,2.31,2.31,0,0,0-2.21,2.4v0a2.31,2.31,0,0,0,2.33,2.44,2.71,2.71,0,0,0,1.6-.46v-1.1h-1.71v-1.46h3.34v3.34a5,5,0,0,1-3.29,1.22A3.85,3.85,0,0,1,102.19,157.68Z"/><path class="cls-3" d="M111.16,153.81H117v1.51h-4.13v1.56h3.63v1.51h-3.63V160H117v1.51h-5.86Z"/><path class="cls-3" d="M118.53,153.81h1.83l2,3.26,2-3.26h1.83v7.7h-1.68v-5l-2.17,3.29h0l-2.15-3.26v5h-1.66Z"/><path class="cls-3" d="M128.08,153.81h5.81v1.51h-4.13v1.56h3.63v1.51h-3.63V160h4.18v1.51h-5.86Z"/><path class="cls-3" d="M135.45,153.81H137l3.61,4.74v-4.74h1.67v7.7h-1.44l-3.73-4.9v4.9h-1.67Z"/><path class="cls-3" d="M145.93,155.37h-2.34v-1.56H150v1.56h-2.34v6.14h-1.69Z"/></g></svg>