<?xml version="1.0" encoding="utf-8"?>
<!-- Generator: Adobe Illustrator 21.0.0, SVG Export Plug-In . SVG Version: 6.00 Build 0)  -->
<svg version="1.1" id="Layer_1" xmlns="http://www.w3.org/2000/svg" xmlns:xlink="http://www.w3.org/1999/xlink" x="0px" y="0px"
	 viewBox="0 0 216.8 216.9" style="enable-background:new 0 0 216.8 216.9;" xml:space="preserve">
<style type="text/css">
	.st0{opacity:0.4;fill:#FFFFFF;enable-background:new    ;}
	.st1{fill:#22D3C5;}
	.st2{fill:#2F2A34;}
	.st3{enable-background:new    ;}
</style>
<title>CirclesArtboard 16</title>
<g id="apps_Development">
	<path class="st0" d="M216.8,103.3C214.2,47.4,169.4,2.6,113.5,0v103.3H216.8z"/>
	<path class="st1" d="M103.3,0C47.4,2.6,2.6,47.4,0,103.3h103.3V0z"/>
	<path class="st0" d="M108.4,216.9c58,0,105.7-45.6,108.4-103.5H0C2.7,171.4,50.4,216.9,108.4,216.9z"/>
	<path class="st2" d="M136.6,46.7h3c2.1-0.1,3.9,1.5,4.1,3.6c0,0.1,0,0.2,0,0.2l0,0c0,2.1-1.7,3.9-3.9,3.9c-0.1,0-0.2,0-0.2,0h-3
		V46.7z M138.3,48.2v4.6h1.3c1.2,0.1,2.2-0.8,2.3-2.1c0-0.1,0-0.2,0-0.2l0,0c0.1-1.2-0.9-2.3-2.1-2.3c-0.1,0-0.2,0-0.2,0L138.3,48.2
		z"/>
	<path class="st2" d="M145.3,46.7h1.7v7.7h-1.7L145.3,46.7z"/>
	<path class="st2" d="M148.6,50.5L148.6,50.5c0-2.2,1.8-4,4-4c1.1-0.1,2.2,0.3,3,1.1l-1.1,1.3c-0.5-0.5-1.3-0.8-2-0.8
		c-1.3,0.1-2.3,1.1-2.2,2.4l0,0c-0.1,1.3,0.9,2.4,2.2,2.4c0.1,0,0.1,0,0.2,0c0.6,0,1.1-0.1,1.6-0.5v-1.1h-1.7v-1.5h3.3v3.3
		c-0.9,0.8-2.1,1.2-3.3,1.2c-2.1,0.1-3.9-1.6-4-3.7C148.6,50.7,148.6,50.6,148.6,50.5z"/>
	<path class="st2" d="M157.6,46.7h1.7v7.7h-1.7V46.7z"/>
	<path class="st2" d="M163,48.2h-2.3v-1.6h6.4v1.6h-2.3v6.1H163V48.2z"/>
	<path class="st2" d="M170,46.6h1.6l3.3,7.8h-1.8l-0.7-1.7h-3.3l-0.7,1.7h-1.7L170,46.6z M171.8,51.1l-1-2.5l-1,2.5H171.8z"/>
	<path class="st2" d="M176.1,46.7h1.7v6.2h3.8v1.5h-5.5V46.7z"/>
	<path class="st2" d="M124.9,59.8h1.8l2,3.3l2-3.3h1.8v7.7h-1.7v-5l-2.2,3.3l0,0l-2.2-3.3v5h-1.7V59.8z"/>
	<path class="st2" d="M137.1,59.8h1.6l3.3,7.8h-1.8l-0.7-1.7h-3.3l-0.7,1.7h-1.7L137.1,59.8z M138.9,64.3l-1-2.5l-1,2.5H138.9z"/>
	<path class="st2" d="M143.1,59.8h3.5c0.8-0.1,1.6,0.2,2.2,0.8c0.4,0.5,0.7,1.1,0.7,1.8l0,0c0.1,1.1-0.6,2.1-1.6,2.4l1.9,2.8h-2
		l-1.6-2.5h-1.3v2.5h-1.7L143.1,59.8z M146.6,63.6c0.8,0,1.3-0.4,1.3-1.1l0,0c0-0.7-0.5-1.1-1.3-1.1h-1.7v2.2L146.6,63.6z"/>
	<path class="st2" d="M151.1,59.8h1.7v3.4l3.1-3.4h2l-3.1,3.3l3.3,4.4h-2l-2.4-3.3l-0.9,0.9v2.3h-1.7L151.1,59.8z"/>
	<path class="st2" d="M159.1,59.8h5.8v1.5h-4.1v1.6h3.6v1.5h-3.6V66h4.2v1.5h-5.9L159.1,59.8z"/>
	<path class="st2" d="M168.3,61.4h-2.3v-1.6h6.4v1.6H170v6.1h-1.7L168.3,61.4z"/>
	<path class="st2" d="M173.7,59.8h1.7v7.7h-1.7V59.8z"/>
	<path class="st2" d="M177.3,59.8h1.6l3.6,4.7v-4.7h1.7v7.7h-1.4l-3.7-4.9v4.9h-1.7L177.3,59.8z"/>
	<path class="st2" d="M185.7,63.7L185.7,63.7c0-2.2,1.8-4,4-4c1.1-0.1,2.2,0.3,3,1.1l-1.1,1.3c-0.5-0.5-1.3-0.8-2-0.8
		c-1.3,0.1-2.3,1.1-2.2,2.4l0,0c-0.1,1.3,0.9,2.4,2.2,2.4c0.1,0,0.1,0,0.2,0c0.6,0,1.1-0.1,1.6-0.5v-1.1h-1.7v-1.5h3.4v3.3
		c-0.9,0.8-2.1,1.2-3.3,1.2c-2.1,0.1-3.9-1.5-4-3.6C185.7,63.9,185.7,63.8,185.7,63.7z"/>
	<path class="st2" d="M136.7,79.6l1-1.2c0.6,0.6,1.4,0.9,2.3,0.9c0.7,0,1.1-0.3,1.1-0.7l0,0c0-0.4-0.3-0.7-1.6-1
		c-1.6-0.4-2.6-0.8-2.6-2.3l0,0c0-1.3,1.2-2.4,2.5-2.3c0.1,0,0.1,0,0.2,0c1,0,2.1,0.3,2.9,1l-0.9,1.3c-0.6-0.4-1.3-0.7-2-0.8
		c-0.6,0-1,0.3-1,0.7l0,0c0,0.5,0.3,0.7,1.7,1c1.6,0.4,2.4,1,2.4,2.3l0,0c0,1.5-1.2,2.4-2.8,2.4C138.7,80.9,137.6,80.4,136.7,79.6z"
		/>
	<path class="st2" d="M146.1,77.7l-3-4.7h2l1.8,3.1l1.9-3.1h1.9l-3,4.6v3.1H146L146.1,77.7z"/>
	<path class="st2" d="M150.9,79.6l1-1.2c0.6,0.6,1.4,0.9,2.3,0.9c0.7,0,1.1-0.3,1.1-0.7l0,0c0-0.4-0.3-0.7-1.6-1
		c-1.6-0.4-2.6-0.8-2.6-2.3l0,0c0-1.3,1.2-2.4,2.5-2.3c0.1,0,0.1,0,0.2,0c1,0,2.1,0.3,2.9,1l-0.9,1.3c-0.6-0.4-1.3-0.7-2-0.8
		c-0.6,0-1,0.3-1,0.7l0,0c0,0.5,0.3,0.7,1.7,1c1.6,0.4,2.4,1,2.4,2.3l0,0c0,1.5-1.2,2.4-2.8,2.4C152.9,80.9,151.8,80.4,150.9,79.6z"
		/>
	<path class="st2" d="M160.1,74.6h-2.3V73h6.4v1.6h-2.3v6.1h-1.7L160.1,74.6z"/>
	<path class="st2" d="M165.4,73h5.8v1.5h-4.1v1.6h3.6v1.5h-3.6v1.6h4.2v1.5h-5.9L165.4,73z"/>
	<path class="st2" d="M172.8,73h1.8l2,3.3l2-3.3h1.8v7.7h-1.6v-5l-2.2,3.3l0,0l-2.1-3.3v5h-1.7L172.8,73z"/>
	<g class="st3">
		<path class="st2" d="M33.9,54.4c-0.6,0-1.1-0.1-1.6-0.3s-0.9-0.5-1.3-0.8s-0.6-0.8-0.8-1.3c-0.2-0.5-0.3-1-0.3-1.6v0
			c0-0.6,0.1-1.1,0.3-1.5c0.2-0.5,0.5-0.9,0.8-1.3c0.4-0.4,0.8-0.6,1.3-0.9c0.5-0.2,1-0.3,1.6-0.3c0.4,0,0.7,0,1,0.1
			s0.6,0.1,0.8,0.2c0.2,0.1,0.5,0.2,0.7,0.4c0.2,0.1,0.4,0.3,0.6,0.5l-1.1,1.2c-0.3-0.3-0.6-0.5-0.9-0.6C34.6,48,34.3,48,33.9,48
			c-0.3,0-0.6,0.1-0.9,0.2s-0.5,0.3-0.7,0.5c-0.2,0.2-0.4,0.5-0.5,0.8c-0.1,0.3-0.2,0.6-0.2,0.9v0c0,0.3,0.1,0.6,0.2,0.9
			s0.3,0.5,0.5,0.8c0.2,0.2,0.4,0.4,0.7,0.5c0.3,0.1,0.6,0.2,0.9,0.2c0.4,0,0.8-0.1,1.1-0.2c0.3-0.2,0.6-0.4,0.9-0.7L37,53
			c-0.2,0.2-0.4,0.4-0.6,0.6c-0.2,0.2-0.4,0.3-0.7,0.4s-0.5,0.2-0.8,0.3C34.6,54.3,34.2,54.4,33.9,54.4z"/>
	</g>
	<g class="st3">
		<path class="st2" d="M41.9,54.4c-0.6,0-1.1-0.1-1.6-0.3s-0.9-0.5-1.3-0.8c-0.4-0.4-0.6-0.8-0.8-1.3c-0.2-0.5-0.3-1-0.3-1.5v0
			c0-0.6,0.1-1.1,0.3-1.5c0.2-0.5,0.5-0.9,0.9-1.3c0.4-0.4,0.8-0.6,1.3-0.9s1.1-0.3,1.6-0.3c0.6,0,1.1,0.1,1.6,0.3
			c0.5,0.2,0.9,0.5,1.3,0.8c0.4,0.4,0.6,0.8,0.8,1.3c0.2,0.5,0.3,1,0.3,1.5v0c0,0.5-0.1,1.1-0.3,1.5c-0.2,0.5-0.5,0.9-0.9,1.3
			c-0.4,0.4-0.8,0.6-1.3,0.9C43,54.2,42.5,54.4,41.9,54.4z M41.9,52.8c0.3,0,0.6-0.1,0.9-0.2c0.3-0.1,0.5-0.3,0.7-0.5
			s0.4-0.5,0.5-0.8c0.1-0.3,0.2-0.6,0.2-0.9v0c0-0.3-0.1-0.6-0.2-0.9c-0.1-0.3-0.3-0.5-0.5-0.8c-0.2-0.2-0.5-0.4-0.7-0.5
			C42.5,48,42.2,48,41.9,48c-0.3,0-0.7,0.1-0.9,0.2c-0.3,0.1-0.5,0.3-0.7,0.5c-0.2,0.2-0.4,0.5-0.5,0.8c-0.1,0.3-0.2,0.6-0.2,0.9v0
			c0,0.3,0.1,0.6,0.2,0.9s0.3,0.5,0.5,0.8c0.2,0.2,0.5,0.4,0.7,0.5C41.2,52.7,41.6,52.8,41.9,52.8z"/>
		<path class="st2" d="M47.5,46.5h1.6l3.6,4.7v-4.7h1.7v7.7h-1.4l-3.7-4.9v4.9h-1.7V46.5z"/>
		<path class="st2" d="M58,48.1h-2.3v-1.6H62v1.6h-2.3v6.1H58V48.1z"/>
		<path class="st2" d="M63.3,46.5h5.8V48H65v1.6h3.6v1.5H65v1.6h4.2v1.5h-5.9V46.5z"/>
		<path class="st2" d="M70.7,46.5h1.6l3.6,4.7v-4.7h1.7v7.7h-1.4l-3.7-4.9v4.9h-1.7V46.5z"/>
		<path class="st2" d="M81.2,48.1h-2.3v-1.6h6.4v1.6h-2.3v6.1h-1.7V48.1z"/>
	</g>
	<g class="st3">
		<path class="st2" d="M16.4,59.7h1.8l2,3.3l2-3.3h1.8v7.7h-1.7v-5l-2.2,3.3h0l-2.1-3.3v5h-1.7V59.7z"/>
		<path class="st2" d="M28.6,59.7h1.6l3.3,7.8h-1.8L31,65.7h-3.3l-0.7,1.7h-1.7L28.6,59.7z M30.4,64.2l-1-2.5l-1,2.5H30.4z"/>
		<path class="st2" d="M34.7,59.7h1.6l3.6,4.7v-4.7h1.7v7.7h-1.4l-3.7-4.9v4.9h-1.7V59.7z"/>
	</g>
	<g class="st3">
		<path class="st2" d="M46,59.7h1.6l3.3,7.8h-1.8l-0.7-1.7h-3.3l-0.7,1.7h-1.7L46,59.7z M47.8,64.2l-1-2.5l-1,2.5H47.8z"/>
	</g>
	<g class="st3">
		<path class="st2" d="M55.3,67.6c-0.6,0-1.1-0.1-1.6-0.3c-0.5-0.2-0.9-0.5-1.3-0.8c-0.4-0.4-0.6-0.8-0.8-1.3
			c-0.2-0.5-0.3-1-0.3-1.6v0c0-0.6,0.1-1.1,0.3-1.5c0.2-0.5,0.5-0.9,0.8-1.3c0.4-0.4,0.8-0.6,1.3-0.9s1-0.3,1.6-0.3
			c0.3,0,0.7,0,0.9,0.1s0.5,0.1,0.8,0.2c0.2,0.1,0.5,0.2,0.7,0.3c0.2,0.1,0.4,0.3,0.6,0.5l-1.1,1.3c-0.1-0.1-0.3-0.2-0.4-0.3
			c-0.1-0.1-0.3-0.2-0.5-0.2c-0.2-0.1-0.3-0.1-0.5-0.2s-0.4-0.1-0.6-0.1c-0.3,0-0.6,0.1-0.9,0.2c-0.3,0.1-0.5,0.3-0.7,0.5
			s-0.4,0.5-0.5,0.8S53,63.2,53,63.6v0c0,0.4,0.1,0.7,0.2,1c0.1,0.3,0.3,0.6,0.5,0.8c0.2,0.2,0.5,0.4,0.7,0.5C54.7,66,55,66,55.3,66
			c0.6,0,1.2-0.2,1.6-0.5v-1.1h-1.7V63h3.3v3.3c-0.4,0.3-0.9,0.6-1.4,0.9S56,67.6,55.3,67.6z"/>
		<path class="st2" d="M60.2,59.7H66v1.5h-4.1v1.6h3.6v1.5h-3.6v1.6H66v1.5h-5.9V59.7z"/>
		<path class="st2" d="M67.6,59.7h1.8l2,3.3l2-3.3h1.8v7.7h-1.7v-5l-2.2,3.3h0l-2.1-3.3v5h-1.7V59.7z"/>
		<path class="st2" d="M77.1,59.7h5.8v1.5h-4.1v1.6h3.6v1.5h-3.6v1.6H83v1.5h-5.9V59.7z"/>
		<path class="st2" d="M84.5,59.7H86l3.6,4.7v-4.7h1.7v7.7h-1.4l-3.7-4.9v4.9h-1.7V59.7z"/>
		<path class="st2" d="M95,61.3h-2.3v-1.6H99v1.6h-2.3v6.1H95V61.3z"/>
	</g>
	<g class="st3">
		<path class="st2" d="M38.6,80.7c-0.6,0-1.2-0.1-1.7-0.3c-0.6-0.2-1.1-0.5-1.5-0.9l1-1.2c0.4,0.3,0.7,0.5,1.1,0.7
			c0.4,0.2,0.8,0.3,1.2,0.3c0.4,0,0.6-0.1,0.8-0.2c0.2-0.1,0.3-0.3,0.3-0.5v0c0-0.1,0-0.2-0.1-0.3c0-0.1-0.1-0.2-0.2-0.2
			c-0.1-0.1-0.3-0.1-0.5-0.2s-0.5-0.2-0.8-0.2c-0.4-0.1-0.7-0.2-1.1-0.3c-0.3-0.1-0.6-0.3-0.8-0.4c-0.2-0.2-0.4-0.4-0.5-0.6
			c-0.1-0.3-0.2-0.6-0.2-1v0c0-0.4,0.1-0.7,0.2-1c0.1-0.3,0.3-0.5,0.6-0.7s0.5-0.4,0.8-0.5c0.3-0.1,0.7-0.2,1.1-0.2
			c0.6,0,1.1,0.1,1.6,0.3c0.5,0.2,0.9,0.4,1.3,0.7l-0.9,1.3c-0.3-0.2-0.7-0.4-1-0.6s-0.7-0.2-1-0.2c-0.3,0-0.6,0.1-0.7,0.2
			c-0.2,0.1-0.2,0.3-0.2,0.5v0c0,0.1,0,0.2,0.1,0.3c0,0.1,0.1,0.2,0.3,0.2c0.1,0.1,0.3,0.1,0.5,0.2c0.2,0.1,0.5,0.1,0.8,0.2
			c0.4,0.1,0.7,0.2,1,0.3c0.3,0.1,0.6,0.3,0.8,0.5c0.2,0.2,0.4,0.4,0.5,0.6s0.2,0.5,0.2,0.9v0c0,0.4-0.1,0.7-0.2,1
			c-0.1,0.3-0.3,0.5-0.6,0.7c-0.2,0.2-0.5,0.4-0.9,0.5C39.4,80.7,39,80.7,38.6,80.7z"/>
	</g>
	<g class="st3">
		<path class="st2" d="M44.7,77.6l-3-4.7h2l1.8,3.1l1.9-3.1h1.9l-3,4.6v3.1h-1.7V77.6z"/>
	</g>
	<g class="st3">
		<path class="st2" d="M52.8,80.7c-0.6,0-1.2-0.1-1.7-0.3c-0.6-0.2-1.1-0.5-1.5-0.9l1-1.2c0.4,0.3,0.7,0.5,1.1,0.7
			c0.4,0.2,0.8,0.3,1.2,0.3c0.4,0,0.6-0.1,0.8-0.2c0.2-0.1,0.3-0.3,0.3-0.5v0c0-0.1,0-0.2-0.1-0.3c0-0.1-0.1-0.2-0.2-0.2
			c-0.1-0.1-0.3-0.1-0.5-0.2s-0.5-0.2-0.8-0.2c-0.4-0.1-0.7-0.2-1.1-0.3c-0.3-0.1-0.6-0.3-0.8-0.4c-0.2-0.2-0.4-0.4-0.5-0.6
			c-0.1-0.3-0.2-0.6-0.2-1v0c0-0.4,0.1-0.7,0.2-1c0.1-0.3,0.3-0.5,0.6-0.7s0.5-0.4,0.8-0.5c0.3-0.1,0.7-0.2,1.1-0.2
			c0.6,0,1.1,0.1,1.6,0.3c0.5,0.2,0.9,0.4,1.3,0.7l-0.9,1.3c-0.3-0.2-0.7-0.4-1-0.6s-0.7-0.2-1-0.2c-0.3,0-0.6,0.1-0.7,0.2
			c-0.2,0.1-0.2,0.3-0.2,0.5v0c0,0.1,0,0.2,0.1,0.3c0,0.1,0.1,0.2,0.3,0.2c0.1,0.1,0.3,0.1,0.5,0.2c0.2,0.1,0.5,0.1,0.8,0.2
			c0.4,0.1,0.7,0.2,1,0.3c0.3,0.1,0.6,0.3,0.8,0.5c0.2,0.2,0.4,0.4,0.5,0.6s0.2,0.5,0.2,0.9v0c0,0.4-0.1,0.7-0.2,1
			c-0.1,0.3-0.3,0.5-0.6,0.7c-0.2,0.2-0.5,0.4-0.9,0.5C53.6,80.7,53.2,80.7,52.8,80.7z"/>
	</g>
	<g class="st3">
		<path class="st2" d="M58.7,74.5h-2.3v-1.6h6.4v1.6h-2.3v6.1h-1.7V74.5z"/>
		<path class="st2" d="M64,72.9h5.8v1.5h-4.1V76h3.6v1.5h-3.6v1.6h4.2v1.5H64V72.9z"/>
		<path class="st2" d="M71.4,72.9h1.8l2,3.3l2-3.3h1.8v7.7h-1.7v-5l-2.2,3.3h0l-2.1-3.3v5h-1.7V72.9z"/>
	</g>
	<path class="st2" d="M32.6,144.5L32.6,144.5c-0.1-2.2,1.7-3.9,3.8-4c0.1,0,0.1,0,0.2,0c1.1,0,2.2,0.4,3,1.2l-1.1,1.2
		c-0.5-0.5-1.2-0.9-2-0.9c-1.3,0-2.3,1.1-2.2,2.3c0,0,0,0,0,0.1l0,0c-0.1,1.3,0.9,2.3,2.2,2.4c0,0,0,0,0.1,0c0.8,0,1.5-0.3,2-0.9
		l1.1,1.1c-0.8,0.9-2,1.4-3.2,1.4C34.3,148.4,32.6,146.6,32.6,144.5C32.6,144.5,32.6,144.5,32.6,144.5z"/>
	<path class="st2" d="M41,145v-4.4h1.7v4.4c0,1.2,0.6,1.9,1.7,1.9s1.7-0.7,1.7-1.9v-4.4h1.7v4.4c0,2.3-1.3,3.5-3.4,3.5
		S41,147.3,41,145z"/>
	<path class="st2" d="M48.9,147.2l1-1.2c0.6,0.6,1.4,0.9,2.3,0.9c0.7,0,1.1-0.3,1.1-0.7l0,0c0-0.4-0.3-0.6-1.5-1
		c-1.5-0.4-2.5-0.8-2.5-2.4l0,0c0-1.3,1.2-2.4,2.5-2.3c0.1,0,0.1,0,0.2,0c1,0,2.1,0.3,2.9,1l-0.9,1.3c-0.6-0.4-1.3-0.7-2-0.8
		c-0.7,0-1,0.3-1,0.7l0,0c0,0.5,0.3,0.7,1.7,1c1.6,0.4,2.4,1,2.4,2.3l0,0c0,1.5-1.2,2.4-2.8,2.4C50.9,148.4,49.8,148,48.9,147.2z"/>
	<path class="st2" d="M58.1,142.2h-2.4v-1.6h6.4v1.6h-2.3v6.1h-1.7V142.2z"/>
	<path class="st2" d="M62.7,144.5L62.7,144.5c0-2.3,1.8-4.1,4.1-4.1s4.1,1.8,4.1,4.1l0,0c0,2.3-1.8,4.1-4.1,4.1
		S62.7,146.7,62.7,144.5z M69.1,144.5L69.1,144.5c0.1-1.3-0.9-2.4-2.2-2.5c0,0-0.1,0-0.1,0c-1.3,0-2.3,1-2.3,2.3c0,0,0,0.1,0,0.1
		l0,0c0,1.3,1,2.4,2.3,2.4c0,0,0,0,0.1,0C68.1,146.8,69.1,145.8,69.1,144.5C69.1,144.5,69.1,144.5,69.1,144.5z"/>
	<path class="st2" d="M72.4,140.6h1.8l2,3.3l2-3.3h1.8v7.7h-1.6v-5l-2.2,3.3l0,0l-2.2-3.3v5h-1.7V140.6z"/>
	<path class="st2" d="M82,140.6h5.8v1.5h-4.2v1.6h3.6v1.5h-3.6v1.6h4.2v1.5H82V140.6z"/>
	<path class="st2" d="M89.3,140.6h3.5c0.8-0.1,1.6,0.2,2.2,0.8c0.4,0.5,0.7,1.1,0.7,1.8l0,0c0.1,1.1-0.6,2.1-1.7,2.4l1.9,2.8h-2
		l-1.7-2.5H91v2.5h-1.7V140.6z M92.7,144.4c0.8,0,1.3-0.4,1.3-1.1l0,0c0-0.7-0.5-1.1-1.3-1.1H91v2.2L92.7,144.4z"/>
	<path class="st2" d="M100.6,140.6h3.5c0.8-0.1,1.6,0.2,2.2,0.8c0.4,0.5,0.7,1.1,0.7,1.8l0,0c0.1,1.1-0.6,2.1-1.7,2.4l1.9,2.8h-2
		l-1.7-2.5h-1.3v2.5h-1.7L100.6,140.6z M104,144.4c0.8,0,1.3-0.4,1.3-1.1l0,0c0-0.7-0.5-1.1-1.3-1.1h-1.7v2.2L104,144.4z"/>
	<path class="st2" d="M108.5,140.6h5.8v1.5h-4.1v1.6h3.6v1.5h-3.6v1.6h4.2v1.5h-5.9V140.6z"/>
	<path class="st2" d="M115.9,140.6h1.7v6.2h3.8v1.5h-5.5V140.6z"/>
	<path class="st2" d="M125.3,140.6h1.6l3.3,7.8h-1.8l-0.7-1.7h-3.3l-0.7,1.7H122L125.3,140.6z M127.1,145.1l-1-2.5l-1,2.5H127.1z"/>
	<path class="st2" d="M132.2,142.2h-2.3v-1.6h6.4v1.6h-2.4v6.1h-1.7L132.2,142.2z"/>
	<path class="st2" d="M137.6,140.6h1.7v7.7h-1.7V140.6z"/>
	<path class="st2" d="M140.9,144.5L140.9,144.5c0-2.3,1.8-4.1,4.1-4.1s4.1,1.8,4.1,4.1l0,0c0,2.3-1.8,4.1-4.1,4.1
		S140.9,146.7,140.9,144.5z M147.3,144.5L147.3,144.5c0.1-1.3-0.9-2.4-2.2-2.5c0,0-0.1,0-0.1,0c-1.3,0-2.3,1-2.3,2.3
		c0,0,0,0.1,0,0.1l0,0c0,1.3,1,2.4,2.3,2.4c0,0,0,0,0.1,0C146.3,146.8,147.3,145.8,147.3,144.5C147.3,144.5,147.3,144.5,147.3,144.5
		z"/>
	<path class="st2" d="M150.6,140.6h1.6l3.6,4.7v-4.7h1.7v7.7H156l-3.7-4.9v4.9h-1.7L150.6,140.6z"/>
	<path class="st2" d="M158.8,147.2l1-1.2c0.6,0.6,1.4,0.9,2.3,0.9c0.7,0,1.1-0.3,1.1-0.7l0,0c0-0.4-0.3-0.6-1.6-1
		c-1.6-0.4-2.6-0.8-2.6-2.4l0,0c0-1.3,1.2-2.4,2.5-2.3c0.1,0,0.1,0,0.2,0c1,0,2.1,0.3,2.9,1l-0.9,1.3c-0.6-0.4-1.3-0.7-2-0.8
		c-0.6,0-1,0.3-1,0.7l0,0c0,0.5,0.3,0.7,1.7,1c1.6,0.4,2.4,1,2.4,2.3l0,0c0,1.5-1.2,2.4-2.8,2.4C160.8,148.4,159.6,148,158.8,147.2z
		"/>
	<path class="st2" d="M166.3,140.6h1.7v3h3.1v-3h1.7v7.7h-1.7v-3.1H168v3.1h-1.7L166.3,140.6z"/>
	<path class="st2" d="M174.8,140.6h1.7v7.7h-1.7V140.6z"/>
	<path class="st2" d="M178.4,140.6h3.1c1.4-0.2,2.8,0.9,2.9,2.3c0,0.1,0,0.2,0,0.3l0,0c0,1.8-1.4,2.7-3.1,2.7h-1.3v2.3h-1.7
		L178.4,140.6z M181.4,144.5c0.7,0.1,1.2-0.4,1.3-1c0,0,0-0.1,0-0.1l0,0c0-0.8-0.5-1.2-1.4-1.2H180v2.4L181.4,144.5z"/>
	<path class="st2" d="M67.4,153.8h1.8l2,3.3l2-3.3h1.8v7.7h-1.6v-5l-2.2,3.3l0,0l-2.2-3.3v5h-1.7V153.8z"/>
	<path class="st2" d="M79.6,153.8h1.6l3.3,7.8h-1.8l-0.7-1.7h-3.3l-0.7,1.7h-1.7L79.6,153.8z M81.4,158.3l-1-2.5l-1,2.5H81.4z"/>
	<path class="st2" d="M85.7,153.8h1.6l3.6,4.7v-4.7h1.7v7.7h-1.4l-3.7-4.9v4.9h-1.7V153.8z"/>
	<path class="st2" d="M97,153.8h1.6l3.3,7.8h-1.8l-0.7-1.7h-3.3l-0.7,1.7h-1.7L97,153.8z M98.8,158.3l-1-2.5l-1,2.5H98.8z"/>
	<path class="st2" d="M102.2,157.7L102.2,157.7c0-2.2,1.8-4,4-4c1.1-0.1,2.2,0.3,3,1.1l-1,1.3c-0.5-0.5-1.3-0.8-2-0.8
		c-1.3,0.1-2.3,1.1-2.2,2.4l0,0c-0.1,1.3,0.9,2.4,2.2,2.4c0.1,0,0.1,0,0.2,0c0.6,0,1.1-0.1,1.6-0.5v-1.1h-1.7V157h3.3v3.3
		c-0.9,0.8-2.1,1.2-3.3,1.2c-2.1,0.1-3.9-1.5-4.1-3.6C102.2,157.9,102.2,157.8,102.2,157.7z"/>
	<path class="st2" d="M111.2,153.8h5.8v1.5h-4.1v1.6h3.6v1.5h-3.6v1.6h4.1v1.5h-5.9L111.2,153.8z"/>
	<path class="st2" d="M118.5,153.8h1.8l2,3.3l2-3.3h1.8v7.7h-1.7v-5l-2.2,3.3l0,0l-2.2-3.3v5h-1.7V153.8z"/>
	<path class="st2" d="M128.1,153.8h5.8v1.5h-4.1v1.6h3.6v1.5h-3.6v1.6h4.2v1.5h-5.9L128.1,153.8z"/>
	<path class="st2" d="M135.4,153.8h1.6l3.6,4.7v-4.7h1.7v7.7h-1.4l-3.7-4.9v4.9h-1.7L135.4,153.8z"/>
	<path class="st2" d="M145.9,155.4h-2.3v-1.6h6.4v1.6h-2.3v6.1H146L145.9,155.4z"/>
</g>
</svg>
