<svg xmlns="http://www.w3.org/2000/svg" viewBox="0 0 216.83 216.95"><defs><style>.cls-1{fill:#22d3c5;}.cls-2{fill:#fff;}.cls-3{fill:#deddde;}.cls-4{fill:#2f2a34;}</style></defs><title>CXP</title><g id="Layer_2" data-name="Layer 2"><g id="apps_Development" data-name="apps Development"><path class="cls-1" d="M216.83,103.34A108.54,108.54,0,0,0,113.48,0V103.34Z"/><path class="cls-2" d="M103.34,0A108.54,108.54,0,0,0,0,103.34H103.34Z"/><path class="cls-3" d="M108.41,216.95A108.53,108.53,0,0,0,216.83,113.48H0A108.53,108.53,0,0,0,108.41,216.95Z"/><path class="cls-4" d="M29.37,53.53v0a3.91,3.91,0,0,1,4-4,4,4,0,0,1,3,1.19L35.34,52a2.84,2.84,0,0,0-2-.87,2.28,2.28,0,0,0-2.23,2.4v0a2.29,2.29,0,0,0,2.23,2.42,2.78,2.78,0,0,0,2-.9l1.08,1.09a3.94,3.94,0,0,1-3.16,1.38A3.89,3.89,0,0,1,29.37,53.53Z"/><path class="cls-4" d="M37.27,53.53v0a4.09,4.09,0,0,1,8.19,0v0a4.09,4.09,0,0,1-8.19,0Zm6.41,0v0a2.34,2.34,0,0,0-2.33-2.42A2.3,2.3,0,0,0,39,53.48v0a2.34,2.34,0,0,0,2.33,2.42A2.3,2.3,0,0,0,43.68,53.53Z"/><path class="cls-4" d="M47,49.65h1.56l3.61,4.74V49.65H53.8v7.7H52.36l-3.73-4.9v4.9H47Z"/><path class="cls-4" d="M57.44,51.22H55.1V49.65h6.38v1.56H59.14v6.14H57.44Z"/><path class="cls-4" d="M62.78,49.65h5.81v1.51H64.46v1.56h3.63v1.51H64.46v1.62h4.18v1.51H62.78Z"/><path class="cls-4" d="M70.15,49.65h1.56l3.61,4.74V49.65H77v7.7H75.55l-3.73-4.9v4.9H70.15Z"/><path class="cls-4" d="M80.63,51.22H78.29V49.65h6.38v1.56H82.33v6.14H80.63Z"/><path class="cls-4" d="M15.91,62.85h1.83l2,3.26,2-3.26h1.83v7.7H21.93v-5l-2.17,3.29h0l-2.15-3.26v5H15.91Z"/><path class="cls-4" d="M28.1,62.8h1.56L33,70.55H31.19l-.7-1.73H27.23l-.7,1.73H24.8Zm1.78,4.53-1-2.5-1,2.5Z"/><path class="cls-4" d="M34.15,62.85h1.56l3.61,4.74V62.85H41v7.7H39.55l-3.73-4.9v4.9H34.15Z"/><path class="cls-4" d="M45.48,62.8H47l3.3,7.76H48.57l-.7-1.73H44.61l-.7,1.73H42.18Zm1.78,4.53-1-2.5-1,2.5Z"/><path class="cls-4" d="M50.69,66.73v0a4,4,0,0,1,4-4,4.23,4.23,0,0,1,3,1.06l-1.07,1.29a2.84,2.84,0,0,0-2-.78,2.31,2.31,0,0,0-2.21,2.4v0a2.31,2.31,0,0,0,2.33,2.44,2.71,2.71,0,0,0,1.6-.46v-1.1H54.69V66.12H58v3.34a5,5,0,0,1-3.29,1.22A3.85,3.85,0,0,1,50.69,66.73Z"/><path class="cls-4" d="M59.66,62.85h5.81v1.51H61.34v1.56H65v1.51H61.34V69h4.18v1.51H59.66Z"/><path class="cls-4" d="M67,62.85h1.83l2,3.26,2-3.26h1.83v7.7H73v-5l-2.17,3.29h0l-2.15-3.26v5H67Z"/><path class="cls-4" d="M76.58,62.85h5.81v1.51H78.26v1.56h3.63v1.51H78.26V69h4.18v1.51H76.58Z"/><path class="cls-4" d="M83.95,62.85h1.56l3.61,4.74V62.85h1.67v7.7H89.35l-3.73-4.9v4.9H83.95Z"/><path class="cls-4" d="M94.43,64.42H92.09V62.85h6.38v1.56H96.13v6.14H94.43Z"/><path class="cls-4" d="M34.75,82.63l1-1.2a3.53,3.53,0,0,0,2.3.94c.69,0,1.11-.27,1.11-.73v0c0-.43-.26-.65-1.55-1-1.55-.4-2.55-.83-2.55-2.35v0a2.41,2.41,0,0,1,2.7-2.32,4.46,4.46,0,0,1,2.86,1l-.88,1.28a3.62,3.62,0,0,0-2-.76c-.65,0-1,.3-1,.67v0c0,.51.33.67,1.66,1,1.56.41,2.44,1,2.44,2.31v0c0,1.53-1.17,2.39-2.83,2.39A4.9,4.9,0,0,1,34.75,82.63Z"/><path class="cls-4" d="M44.16,80.72l-3-4.66h2L45,79.14l1.87-3.09h1.92l-3,4.63v3.07H44.16Z"/><path class="cls-4" d="M49,82.63l1-1.2a3.53,3.53,0,0,0,2.3.94c.69,0,1.11-.27,1.11-.73v0c0-.43-.26-.65-1.55-1-1.55-.4-2.55-.83-2.55-2.35v0A2.41,2.41,0,0,1,52,75.94a4.46,4.46,0,0,1,2.86,1l-.88,1.28a3.62,3.62,0,0,0-2-.76c-.65,0-1,.3-1,.67v0c0,.51.33.67,1.66,1,1.56.41,2.44,1,2.44,2.31v0c0,1.53-1.17,2.39-2.83,2.39A4.9,4.9,0,0,1,49,82.63Z"/><path class="cls-4" d="M58.15,77.62H55.8V76.05h6.38v1.56H59.84v6.14H58.15Z"/><path class="cls-4" d="M63.48,76.05h5.81v1.51H65.17v1.56H68.8v1.51H65.17v1.62h4.18v1.51H63.48Z"/><path class="cls-4" d="M70.85,76.05h1.83l2,3.26,2-3.26h1.83v7.7H76.87v-5L74.7,82h0l-2.15-3.26v5H70.85Z"/><path class="cls-4" d="M136.64,49.65h3a3.84,3.84,0,0,1,4.09,3.83v0a3.86,3.86,0,0,1-4.09,3.85h-3Zm1.69,1.53v4.64h1.31a2.19,2.19,0,0,0,2.32-2.3v0a2.21,2.21,0,0,0-2.32-2.32Z"/><path class="cls-4" d="M145.32,49.65H147v7.7h-1.69Z"/><path class="cls-4" d="M148.6,53.53v0a4,4,0,0,1,4-4,4.23,4.23,0,0,1,3,1.06l-1.07,1.29a2.84,2.84,0,0,0-2-.78,2.31,2.31,0,0,0-2.21,2.4v0a2.31,2.31,0,0,0,2.33,2.44,2.71,2.71,0,0,0,1.6-.46v-1.1h-1.71V52.92h3.34v3.34a5,5,0,0,1-3.29,1.22A3.85,3.85,0,0,1,148.6,53.53Z"/><path class="cls-4" d="M157.64,49.65h1.69v7.7h-1.69Z"/><path class="cls-4" d="M163.05,51.22h-2.34V49.65h6.38v1.56h-2.34v6.14h-1.69Z"/><path class="cls-4" d="M170,49.6h1.56l3.3,7.76h-1.77l-.7-1.73h-3.26l-.7,1.73h-1.73Zm1.78,4.53-1-2.5-1,2.5Z"/><path class="cls-4" d="M176.08,49.65h1.69v6.16h3.84v1.54h-5.53Z"/><path class="cls-4" d="M124.9,62.85h1.83l2,3.26,2-3.26h1.83v7.7h-1.68v-5l-2.17,3.29h0l-2.15-3.26v5H124.9Z"/><path class="cls-4" d="M137.09,62.8h1.56l3.3,7.76h-1.77l-.7-1.73h-3.26l-.7,1.73h-1.73Zm1.78,4.53-1-2.5-1,2.5Z"/><path class="cls-4" d="M143.14,62.85h3.52a3.07,3.07,0,0,1,2.25.78,2.42,2.42,0,0,1,.66,1.76v0a2.39,2.39,0,0,1-1.65,2.39l1.88,2.75h-2l-1.65-2.46h-1.33v2.46h-1.69Zm3.41,3.74c.83,0,1.3-.44,1.3-1.09v0c0-.73-.51-1.1-1.33-1.1h-1.68v2.21Z"/><path class="cls-4" d="M151.09,62.85h1.69v3.37l3.13-3.37h2l-3.14,3.27,3.28,4.43h-2l-2.39-3.28-.89.92v2.35h-1.69Z"/><path class="cls-4" d="M159.12,62.85h5.81v1.51h-4.13v1.56h3.63v1.51h-3.63V69H165v1.51h-5.86Z"/><path class="cls-4" d="M168.29,64.42h-2.34V62.85h6.38v1.56H170v6.14h-1.69Z"/><path class="cls-4" d="M173.7,62.85h1.69v7.7H173.7Z"/><path class="cls-4" d="M177.32,62.85h1.56l3.61,4.74V62.85h1.67v7.7h-1.44L179,65.66v4.9h-1.67Z"/><path class="cls-4" d="M185.66,66.73v0a4,4,0,0,1,4-4,4.23,4.23,0,0,1,3,1.06l-1.07,1.29a2.84,2.84,0,0,0-2-.78,2.31,2.31,0,0,0-2.21,2.4v0a2.31,2.31,0,0,0,2.33,2.44,2.71,2.71,0,0,0,1.6-.46v-1.1h-1.71V66.12H193v3.34a5,5,0,0,1-3.29,1.22A3.85,3.85,0,0,1,185.66,66.73Z"/><path class="cls-4" d="M136.68,82.63l1-1.2a3.53,3.53,0,0,0,2.3.94c.69,0,1.11-.27,1.11-.73v0c0-.43-.26-.65-1.55-1-1.55-.4-2.55-.83-2.55-2.35v0a2.41,2.41,0,0,1,2.7-2.32,4.46,4.46,0,0,1,2.86,1l-.88,1.28a3.62,3.62,0,0,0-2-.76c-.65,0-1,.3-1,.67v0c0,.51.33.67,1.66,1,1.56.41,2.44,1,2.44,2.31v0c0,1.53-1.17,2.39-2.83,2.39A4.9,4.9,0,0,1,136.68,82.63Z"/><path class="cls-4" d="M146.08,80.72l-3-4.66h2l1.84,3.09,1.87-3.09h1.92l-3,4.63v3.07h-1.69Z"/><path class="cls-4" d="M150.88,82.63l1-1.2a3.53,3.53,0,0,0,2.3.94c.69,0,1.11-.27,1.11-.73v0c0-.43-.26-.65-1.55-1-1.55-.4-2.55-.83-2.55-2.35v0a2.41,2.41,0,0,1,2.7-2.32,4.46,4.46,0,0,1,2.86,1l-.88,1.28a3.62,3.62,0,0,0-2-.76c-.65,0-1,.3-1,.67v0c0,.51.33.67,1.66,1,1.56.41,2.44,1,2.44,2.31v0c0,1.53-1.17,2.39-2.83,2.39A4.9,4.9,0,0,1,150.88,82.63Z"/><path class="cls-4" d="M160.07,77.62h-2.34V76.05h6.38v1.56h-2.34v6.14h-1.69Z"/><path class="cls-4" d="M165.41,76.05h5.81v1.51h-4.13v1.56h3.63v1.51h-3.63v1.62h4.18v1.51h-5.86Z"/><path class="cls-4" d="M172.78,76.05h1.83l2,3.26,2-3.26h1.83v7.7H178.8v-5L176.63,82h0l-2.15-3.26v5h-1.66Z"/><path class="cls-4" d="M32.49,149.62v0a3.91,3.91,0,0,1,4-4,4,4,0,0,1,3,1.19L38.46,148a2.84,2.84,0,0,0-2-.87,2.28,2.28,0,0,0-2.23,2.4v0A2.29,2.29,0,0,0,36.49,152a2.78,2.78,0,0,0,2-.9l1.08,1.09a3.94,3.94,0,0,1-3.16,1.38A3.89,3.89,0,0,1,32.49,149.62Z"/><path class="cls-4" d="M40.82,150.15v-4.4h1.69v4.36c0,1.25.63,1.9,1.66,1.9s1.66-.63,1.66-1.85v-4.41h1.69v4.35c0,2.33-1.31,3.48-3.38,3.48S40.82,152.41,40.82,150.15Z"/><path class="cls-4" d="M48.73,152.32l1-1.2a3.53,3.53,0,0,0,2.3.94c.69,0,1.11-.27,1.11-.73v0c0-.43-.26-.65-1.55-1C50,149.94,49,149.51,49,148v0a2.41,2.41,0,0,1,2.7-2.32,4.46,4.46,0,0,1,2.86,1l-.88,1.28a3.62,3.62,0,0,0-2-.76c-.65,0-1,.3-1,.67v0c0,.51.33.67,1.66,1,1.56.41,2.44,1,2.44,2.31v0c0,1.53-1.17,2.39-2.83,2.39A4.9,4.9,0,0,1,48.73,152.32Z"/><path class="cls-4" d="M57.93,147.31H55.59v-1.56H62v1.56H59.62v6.14H57.93Z"/><path class="cls-4" d="M62.59,149.62v0a4.09,4.09,0,0,1,8.19,0v0a4.09,4.09,0,0,1-8.19,0Zm6.41,0v0a2.34,2.34,0,0,0-2.33-2.42,2.3,2.3,0,0,0-2.31,2.4v0A2.34,2.34,0,0,0,66.7,152,2.3,2.3,0,0,0,69,149.62Z"/><path class="cls-4" d="M72.28,145.74h1.83l2,3.26,2-3.26H80v7.7H78.3v-5l-2.17,3.29h0l-2.15-3.26v5H72.28Z"/><path class="cls-4" d="M81.83,145.74h5.81v1.51H83.52v1.56h3.63v1.51H83.52v1.62H87.7v1.51H81.83Z"/><path class="cls-4" d="M89.2,145.74h3.52a3.07,3.07,0,0,1,2.25.78,2.42,2.42,0,0,1,.66,1.76v0A2.39,2.39,0,0,1,94,150.69l1.88,2.75h-2L92.23,151H90.9v2.46H89.2Zm3.41,3.74c.83,0,1.3-.44,1.3-1.09v0c0-.73-.51-1.1-1.33-1.1H90.9v2.21Z"/><path class="cls-4" d="M100.45,145.74H104a3.07,3.07,0,0,1,2.25.78,2.42,2.42,0,0,1,.66,1.76v0a2.39,2.39,0,0,1-1.65,2.39l1.88,2.75h-2L103.48,151h-1.33v2.46h-1.69Zm3.41,3.74c.83,0,1.3-.44,1.3-1.09v0c0-.73-.51-1.1-1.33-1.1h-1.68v2.21Z"/><path class="cls-4" d="M108.41,145.74h5.81v1.51h-4.13v1.56h3.63v1.51h-3.63v1.62h4.18v1.51h-5.86Z"/><path class="cls-4" d="M115.78,145.74h1.69v6.16h3.84v1.54h-5.53Z"/><path class="cls-4" d="M125.23,145.69h1.56l3.3,7.76h-1.77l-.7-1.73h-3.26l-.7,1.73h-1.73Zm1.78,4.53-1-2.5-1,2.5Z"/><path class="cls-4" d="M132.08,147.31h-2.34v-1.56h6.38v1.56h-2.34v6.14h-1.69Z"/><path class="cls-4" d="M137.49,145.74h1.69v7.7h-1.69Z"/><path class="cls-4" d="M140.77,149.62v0a4.09,4.09,0,0,1,8.19,0v0a4.09,4.09,0,0,1-8.19,0Zm6.41,0v0a2.34,2.34,0,0,0-2.33-2.42,2.3,2.3,0,0,0-2.31,2.4v0a2.34,2.34,0,0,0,2.33,2.42A2.3,2.3,0,0,0,147.18,149.62Z"/><path class="cls-4" d="M150.46,145.74H152l3.61,4.74v-4.74h1.67v7.7h-1.44l-3.73-4.9v4.9h-1.67Z"/><path class="cls-4" d="M158.62,152.32l1-1.2a3.53,3.53,0,0,0,2.3.94c.69,0,1.11-.27,1.11-.73v0c0-.43-.26-.65-1.55-1-1.55-.4-2.55-.83-2.55-2.35v0a2.41,2.41,0,0,1,2.7-2.32,4.46,4.46,0,0,1,2.86,1l-.88,1.28a3.62,3.62,0,0,0-2-.76c-.65,0-1,.3-1,.67v0c0,.51.33.67,1.66,1,1.56.41,2.44,1,2.44,2.31v0c0,1.53-1.17,2.39-2.83,2.39A4.9,4.9,0,0,1,158.62,152.32Z"/><path class="cls-4" d="M166.19,145.74h1.69v3H171v-3h1.69v7.7H171v-3.09h-3.12v3.09h-1.69Z"/><path class="cls-4" d="M174.63,145.74h1.69v7.7h-1.69Z"/><path class="cls-4" d="M178.25,145.74h3.15a2.64,2.64,0,0,1,2.95,2.66v0c0,1.78-1.39,2.71-3.11,2.71h-1.29v2.31h-1.69Zm3,3.88a1.19,1.19,0,0,0,1.34-1.17v0c0-.76-.53-1.17-1.37-1.17h-1.31v2.35Z"/><path class="cls-4" d="M67.28,158.94h1.83l2,3.26,2-3.26H75v7.7H73.3v-5l-2.17,3.29h0l-2.15-3.26v5H67.28Z"/><path class="cls-4" d="M79.47,158.89H81l3.3,7.76H82.56l-.7-1.73H78.6l-.7,1.73H76.17Zm1.78,4.53-1-2.5-1,2.5Z"/><path class="cls-4" d="M85.52,158.94h1.56l3.61,4.74v-4.74h1.67v7.7H90.93l-3.73-4.9v4.9H85.52Z"/><path class="cls-4" d="M96.85,158.89h1.56l3.3,7.76H99.94l-.7-1.73H96l-.7,1.73H93.55Zm1.78,4.53-1-2.5-1,2.5Z"/><path class="cls-4" d="M102.07,162.82v0a4,4,0,0,1,4-4,4.23,4.23,0,0,1,3,1.06l-1.07,1.29a2.84,2.84,0,0,0-2-.78,2.31,2.31,0,0,0-2.21,2.4v0a2.31,2.31,0,0,0,2.33,2.44,2.71,2.71,0,0,0,1.6-.46v-1.1h-1.71v-1.46h3.34v3.34a5,5,0,0,1-3.29,1.22A3.85,3.85,0,0,1,102.07,162.82Z"/><path class="cls-4" d="M111,158.94h5.81v1.51h-4.13V162h3.63v1.51h-3.63v1.62h4.18v1.51H111Z"/><path class="cls-4" d="M118.4,158.94h1.83l2,3.26,2-3.26h1.83v7.7h-1.68v-5l-2.17,3.29h0l-2.15-3.26v5H118.4Z"/><path class="cls-4" d="M127.95,158.94h5.81v1.51h-4.13V162h3.63v1.51h-3.63v1.62h4.18v1.51h-5.86Z"/><path class="cls-4" d="M135.32,158.94h1.56l3.61,4.74v-4.74h1.67v7.7h-1.44l-3.73-4.9v4.9h-1.67Z"/><path class="cls-4" d="M145.8,160.51h-2.34v-1.56h6.38v1.56H147.5v6.14H145.8Z"/></g></g></svg>