<?xml version="1.0" encoding="utf-8"?>
<!-- Generator: Adobe Illustrator 21.0.0, SVG Export Plug-In . SVG Version: 6.00 Build 0)  -->
<svg version="1.1" id="Layer_1" xmlns="http://www.w3.org/2000/svg" xmlns:xlink="http://www.w3.org/1999/xlink" x="0px" y="0px"
	 viewBox="0 0 491.8 482.1" style="enable-background:new 0 0 491.8 482.1;" xml:space="preserve">
<style type="text/css">
	.st0{fill:#22D3C5;}
	.st1{fill:#2F2A34;}
	.st2{fill:#FFF5B1;}
	.st3{fill:#FFFFFF;}
	.st4{fill:#C0CDD5;}
</style>
<title>CXP_1</title>
<g id="Layer_2">
	<g id="apps_Development">
		<path class="st0" d="M399.9,248.6c-3.3,79.8-67.3,143.8-147.1,147.1c-2.1,0.1-4.2,0.1-6.4,0.1s-4.3,0-6.4-0.1
			c-79.8-3.3-143.8-67.3-147.1-147.1H399.9z"/>
		<path class="st1" d="M464.7,248.7c-3.4,117.7-99.8,212-218.2,212s-214.9-94.3-218.2-212h52.2C84,340.4,161.3,411.8,253,408.2
			c86.6-3.4,156.1-72.9,159.5-159.5L464.7,248.7z"/>
		<path class="st1" d="M464.7,236h-52.2c-3.3-86.8-72.9-156.4-159.7-159.7V24.1C368.3,27.4,461.4,120.4,464.7,236z"/>
		<path class="st1" d="M240,24.1v52.2C153.2,79.6,83.7,149.2,80.4,236H28.2C31.5,120.4,124.5,27.4,240,24.1z"/>
		<path class="st0" d="M399.9,235.9H252.8V88.8C332.6,92.1,396.6,156.1,399.9,235.9z"/>
		<path class="st0" d="M240.1,88.9V236H92.9C96.3,156.2,160.2,92.2,240.1,88.9z"/>
		<path class="st1" d="M288.6,155.2h3.5c2.5-0.2,4.6,1.7,4.7,4.1c0,0.1,0,0.2,0,0.3l0,0c0,2.5-2,4.5-4.5,4.5c-0.1,0-0.2,0-0.3,0
			h-3.5V155.2z M290.6,156.9v5.4h1.5c1.4,0.1,2.6-1,2.7-2.4c0-0.1,0-0.2,0-0.3l0,0c0.1-1.4-1-2.6-2.4-2.7c-0.1,0-0.2,0-0.2,0
			L290.6,156.9z"/>
		<path class="st1" d="M298.7,155.2h2v8.9h-2V155.2z"/>
		<path class="st1" d="M302.5,159.7L302.5,159.7c0-2.5,2-4.6,4.5-4.6c0,0,0.1,0,0.1,0c1.3-0.1,2.5,0.4,3.5,1.2l-1.2,1.5
			c-0.6-0.6-1.5-0.9-2.3-0.9c-1.5,0.1-2.6,1.3-2.6,2.8l0,0c-0.1,1.5,1,2.7,2.5,2.8c0.1,0,0.1,0,0.2,0c0.7,0,1.3-0.2,1.9-0.5v-1.3h-2
			V159h3.9v3.9c-1.1,0.9-2.4,1.4-3.8,1.4c-2.5,0.1-4.6-1.7-4.7-4.2C302.5,160,302.5,159.8,302.5,159.7z"/>
		<path class="st1" d="M312.9,155.2h2v8.9h-2V155.2z"/>
		<path class="st1" d="M319.2,157h-2.7v-1.8h7.4v1.8h-2.7v7.1h-2L319.2,157z"/>
		<path class="st1" d="M327.3,155.1h1.8l3.8,9h-2l-0.8-2h-3.8l-0.8,2h-2L327.3,155.1z M329.4,160.4l-1.2-2.9l-1.2,2.9H329.4z"/>
		<path class="st1" d="M334.3,155.2h2v7.1h4.5v1.8h-6.4L334.3,155.2z"/>
		<path class="st1" d="M275,170.5h2.1l2.4,3.8l2.4-3.8h2.1v8.9h-2v-5.8l-2.5,3.8h0l-2.5-3.8v5.8H275V170.5z"/>
		<path class="st1" d="M289.1,170.4h1.8l3.8,9h-2l-0.8-2h-3.8l-0.8,2h-2L289.1,170.4z M291.2,175.7l-1.2-2.9l-1.2,2.9H291.2z"/>
		<path class="st1" d="M296.1,170.5h4.1c1-0.1,1.9,0.3,2.6,0.9c0.5,0.5,0.8,1.3,0.8,2l0,0c0.1,1.2-0.7,2.4-1.9,2.8l2.2,3.2h-2.3
			l-1.9-2.9h-1.5v2.9h-2L296.1,170.5z M300.1,174.8c1,0,1.5-0.5,1.5-1.3l0,0c0-0.8-0.6-1.3-1.5-1.3h-2v2.6L300.1,174.8z"/>
		<path class="st1" d="M305.4,170.5h2v3.9l3.6-3.9h2.4l-3.6,3.8l3.8,5.1h-2.4l-2.8-3.8l-1,1.1v2.7h-2L305.4,170.5z"/>
		<path class="st1" d="M314.7,170.5h6.7v1.8h-4.8v1.8h4.2v1.8h-4.2v1.9h4.9v1.8h-6.8L314.7,170.5z"/>
		<path class="st1" d="M325.3,172.3h-2.7v-1.8h7.4v1.8h-2.7v7.1h-2V172.3z"/>
		<path class="st1" d="M331.5,170.5h2v8.9h-2V170.5z"/>
		<path class="st1" d="M335.7,170.5h1.8l4.2,5.5v-5.5h1.9v8.9H342l-4.3-5.7v5.7h-1.9V170.5z"/>
		<path class="st1" d="M345.4,175L345.4,175c0-2.5,2-4.6,4.5-4.6c0,0,0.1,0,0.1,0c1.3-0.1,2.5,0.4,3.5,1.2l-1.2,1.4
			c-0.6-0.6-1.5-0.9-2.3-0.9c-1.5,0.1-2.6,1.3-2.6,2.8l0,0c-0.1,1.5,1,2.7,2.5,2.8c0.1,0,0.1,0,0.2,0c0.7,0,1.3-0.2,1.9-0.5V176h-2
			v-1.7h3.9v3.9c-1.1,0.9-2.4,1.4-3.8,1.4c-2.5,0.1-4.6-1.8-4.7-4.2C345.4,175.2,345.4,175.1,345.4,175z"/>
		<path class="st1" d="M288.6,193.4l1.2-1.4c0.7,0.7,1.7,1.1,2.7,1.1c0.8,0,1.3-0.3,1.3-0.8l0,0c0-0.5-0.3-0.8-1.8-1.1
			c-1.8-0.5-3-1-3-2.7l0,0c0-1.6,1.3-2.7,3.1-2.7c1.2,0,2.4,0.4,3.3,1.1l-1,1.5c-0.7-0.5-1.5-0.8-2.3-0.9c-0.8,0-1.1,0.3-1.1,0.8
			l0,0c0,0.6,0.4,0.8,1.9,1.2c1.8,0.5,2.8,1.1,2.8,2.7l0,0c0,1.8-1.4,2.8-3.3,2.8C291,194.8,289.7,194.3,288.6,193.4z"/>
		<path class="st1" d="M299.5,191.2l-3.4-5.4h2.3l2.1,3.6l2.2-3.6h2.2l-3.4,5.4v3.6h-2L299.5,191.2z"/>
		<path class="st1" d="M305.1,193.4l1.2-1.4c0.7,0.7,1.7,1.1,2.7,1.1c0.8,0,1.3-0.3,1.3-0.8l0,0c0-0.5-0.3-0.8-1.8-1.1
			c-1.8-0.5-3-1-3-2.7l0,0c0-1.6,1.3-2.7,3.1-2.7c1.2,0,2.4,0.4,3.3,1.1l-1,1.5c-0.7-0.5-1.5-0.8-2.3-0.9c-0.8,0-1.1,0.3-1.1,0.8
			l0,0c0,0.6,0.4,0.8,1.9,1.2c1.8,0.5,2.8,1.1,2.8,2.7l0,0c0,1.8-1.4,2.8-3.3,2.8C307.5,194.8,306.1,194.3,305.1,193.4z"/>
		<path class="st1" d="M315.8,187.6H313v-1.8h7.4v1.8h-2.7v7.1h-2L315.8,187.6z"/>
		<path class="st1" d="M321.9,185.8h6.7v1.8h-4.8v1.8h4.2v1.8h-4.2v1.9h4.9v1.8H322L321.9,185.8z"/>
		<path class="st1" d="M330.5,185.8h2.1l2.4,3.8l2.4-3.8h2.1v8.9h-2v-5.8l-2.5,3.8h0l-2.5-3.8v5.8h-1.9L330.5,185.8z"/>
		<path class="st1" d="M158.6,312.5L158.6,312.5c0-2.5,2-4.6,4.5-4.6c0.1,0,0.1,0,0.2,0c1.3-0.1,2.6,0.4,3.5,1.4l-1.2,1.4
			c-0.6-0.6-1.4-1-2.3-1c-1.5,0-2.6,1.2-2.6,2.7c0,0,0,0,0,0.1l0,0c-0.1,1.5,1,2.7,2.5,2.8c0,0,0.1,0,0.1,0c0.9,0,1.7-0.4,2.4-1
			l1.2,1.3c-0.9,1.1-2.3,1.6-3.7,1.6c-2.5,0-4.5-1.9-4.6-4.4C158.6,312.7,158.6,312.6,158.6,312.5z"/>
		<path class="st1" d="M168.2,313.1V308h2v5c0,1.5,0.7,2.2,1.9,2.2s1.9-0.7,1.9-2.1V308h2v5c0,2.7-1.5,4-3.9,4
			S168.2,315.8,168.2,313.1z"/>
		<path class="st1" d="M177.4,315.7l1.2-1.4c0.7,0.7,1.7,1.1,2.7,1.1c0.8,0,1.3-0.3,1.3-0.8l0,0c0-0.5-0.3-0.8-1.8-1.1
			c-1.8-0.5-3-1-3-2.7l0,0c0-1.6,1.3-2.7,3.1-2.7c1.2-0.1,2.4,0.3,3.4,1.1l-1,1.5c-0.7-0.5-1.5-0.8-2.3-0.9c-0.8,0-1.1,0.3-1.1,0.8
			l0,0c0,0.6,0.4,0.8,1.9,1.2c1.8,0.5,2.8,1.1,2.8,2.7l0,0c0,1.8-1.4,2.8-3.3,2.8C179.8,317,178.5,316.6,177.4,315.7z"/>
		<path class="st1" d="M188.1,309.9h-2.7V308h7.4v1.8H190v7.2h-2L188.1,309.9z"/>
		<path class="st1" d="M193.5,312.5L193.5,312.5c0.1-2.6,2.3-4.6,5-4.5c2.5,0.1,4.4,2.1,4.5,4.5l0,0c-0.1,2.6-2.3,4.6-5,4.5
			C195.5,316.9,193.6,315,193.5,312.5z M200.9,312.5L200.9,312.5c0.1-1.5-1.1-2.8-2.6-2.8c0,0-0.1,0-0.1,0c-1.5,0-2.7,1.2-2.7,2.7
			c0,0,0,0.1,0,0.1l0,0c-0.1,1.5,1.1,2.8,2.6,2.8c0,0,0.1,0,0.1,0c1.5,0,2.7-1.2,2.7-2.7C200.9,312.6,200.9,312.6,200.9,312.5
			L200.9,312.5z"/>
		<path class="st1" d="M204.7,308h2.1l2.4,3.8l2.4-3.8h2.1v9h-2v-5.8l-2.5,3.8h-0.1l-2.5-3.8v5.8h-1.9V308z"/>
		<path class="st1" d="M215.8,308h6.7v1.8h-4.8v1.8h4.2v1.8h-4.2v1.9h4.9v1.8h-6.8L215.8,308z"/>
		<path class="st1" d="M224.3,308h4.1c1-0.1,1.9,0.3,2.6,0.9c0.5,0.5,0.8,1.3,0.8,2l0,0c0.1,1.2-0.7,2.4-1.9,2.8l2.2,3.3h-2.3
			l-1.9-2.9h-1.5v2.9h-2L224.3,308z M228.3,312.3c1,0,1.5-0.5,1.5-1.3l0,0c0-0.8-0.6-1.3-1.5-1.3h-2v2.6L228.3,312.3z"/>
		<path class="st1" d="M237.4,308h4.1c1-0.1,1.9,0.3,2.6,0.9c0.5,0.5,0.8,1.3,0.8,2l0,0c0.1,1.2-0.7,2.4-1.9,2.8l2.2,3.2h-2.3
			l-1.9-2.9h-1.5v3h-2L237.4,308z M241.4,312.3c1,0,1.5-0.5,1.5-1.3l0,0c0-0.8-0.6-1.3-1.5-1.3h-2v2.6L241.4,312.3z"/>
		<path class="st1" d="M246.6,308h6.7v1.8h-4.8v1.8h4.2v1.8h-4.2v1.9h4.9v1.8h-6.8L246.6,308z"/>
		<path class="st1" d="M255.1,308h2v7.1h4.5v1.9h-6.4L255.1,308z"/>
		<path class="st1" d="M266.1,308h1.8l3.8,9h-2l-0.8-2H265l-0.8,2h-2L266.1,308z M268.1,313.3l-1.2-2.9l-1.2,2.9H268.1z"/>
		<path class="st1" d="M274,309.9h-2.7V308h7.4v1.8H276v7.2h-2V309.9z"/>
		<path class="st1" d="M280.3,308h2v9h-2V308z"/>
		<path class="st1" d="M284.1,312.5L284.1,312.5c0.1-2.6,2.3-4.6,5-4.5c2.5,0.1,4.4,2.1,4.5,4.5l0,0c-0.1,2.6-2.3,4.6-5,4.5
			C286.1,316.9,284.2,315,284.1,312.5z M291.5,312.5L291.5,312.5c0.1-1.5-1.1-2.8-2.6-2.8c0,0-0.1,0-0.1,0c-1.5,0-2.7,1.2-2.7,2.7
			c0,0,0,0.1,0,0.1l0,0c-0.1,1.5,1.1,2.8,2.6,2.8c0,0,0.1,0,0.1,0c1.5,0,2.7-1.2,2.7-2.7C291.5,312.6,291.5,312.6,291.5,312.5z"/>
		<path class="st1" d="M295.3,308h1.8l4.2,5.5V308h1.9v9h-1.7l-4.3-5.7v5.7h-1.9V308z"/>
		<path class="st1" d="M304.8,315.7l1.2-1.4c0.7,0.7,1.7,1.1,2.7,1.1c0.8,0,1.3-0.3,1.3-0.8l0,0c0-0.5-0.3-0.8-1.8-1.1
			c-1.8-0.5-3-1-3-2.7l0,0c0-1.6,1.3-2.7,3.1-2.7c1.2,0,2.4,0.4,3.3,1.1l-1,1.5c-0.7-0.5-1.5-0.8-2.3-0.9c-0.8,0-1.1,0.3-1.1,0.8
			l0,0c0,0.6,0.4,0.8,1.9,1.2c1.8,0.5,2.8,1.1,2.8,2.7l0,0c0,1.8-1.4,2.8-3.3,2.8C307.1,317.1,305.8,316.6,304.8,315.7z"/>
		<path class="st1" d="M313.5,308h2v3.5h3.6V308h2v9h-2v-3.6h-3.7v3.6h-2L313.5,308z"/>
		<path class="st1" d="M323.3,308h2v9h-2V308z"/>
		<path class="st1" d="M327.5,308h3.6c2.1,0,3.4,1.3,3.4,3.1l0,0c0,2.1-1.6,3.1-3.6,3.1h-1.5v2.8h-2L327.5,308z M331,312.5
			c0.8,0.1,1.4-0.4,1.5-1.2c0-0.1,0-0.1,0-0.2l0,0c0-0.9-0.6-1.4-1.6-1.4h-1.5v2.7L331,312.5z"/>
		<path class="st1" d="M198.9,323.3h2.1l2.4,3.8l2.4-3.8h2.1v8.9h-2v-5.8l-2.5,3.8h-0.1l-2.5-3.8v5.8h-1.9V323.3z"/>
		<path class="st1" d="M213,323.3h1.8l3.8,9h-2.1l-0.8-2H212l-0.8,2h-2L213,323.3z M215.1,328.5l-1.2-2.9l-1.2,2.9H215.1z"/>
		<path class="st1" d="M220,323.3h1.8l4.2,5.5v-5.5h2v8.9h-1.7l-4.3-5.7v5.7h-2V323.3z"/>
		<path class="st1" d="M233.2,323.3h1.8l3.8,9h-2.1l-0.8-2h-3.8l-0.8,2h-2L233.2,323.3z M235.2,328.5l-1.2-2.9l-1.2,2.9H235.2z"/>
		<path class="st1" d="M239.2,327.8L239.2,327.8c0-2.5,2-4.6,4.5-4.6c0,0,0.1,0,0.1,0c1.3-0.1,2.5,0.4,3.5,1.2l-1.2,1.5
			c-0.6-0.6-1.5-0.9-2.3-0.9c-1.5,0.1-2.6,1.3-2.6,2.8l0,0c-0.1,1.5,1,2.7,2.5,2.8c0.1,0,0.1,0,0.2,0c0.7,0,1.3-0.2,1.9-0.5v-1.3h-2
			v-1.7h3.9v3.9c-1.1,0.9-2.4,1.4-3.8,1.4c-2.5,0.1-4.6-1.8-4.7-4.2C239.2,328.1,239.2,327.9,239.2,327.8z"/>
		<path class="st1" d="M249.6,323.3h6.7v1.8h-4.8v1.8h4.2v1.8h-4.2v1.9h4.9v1.8h-6.8L249.6,323.3z"/>
		<path class="st1" d="M258.1,323.3h2.1l2.4,3.8l2.4-3.8h2.1v8.9h-2v-5.8l-2.5,3.8h0l-2.5-3.8v5.8h-1.9L258.1,323.3z"/>
		<path class="st1" d="M269.2,323.3h6.7v1.8h-4.8v1.8h4.2v1.8h-4.2v1.9h4.8v1.8h-6.8L269.2,323.3z"/>
		<path class="st1" d="M277.8,323.3h1.8l4.2,5.5v-5.5h1.9v8.9H284l-4.3-5.7v5.7h-1.9L277.8,323.3z"/>
		<path class="st1" d="M289.9,325.1h-2.7v-1.8h7.4v1.8h-2.7v7.1h-2L289.9,325.1z"/>
		<path class="st1" d="M144.3,159.7L144.3,159.7c-0.1-2.5,1.9-4.6,4.4-4.7c0.1,0,0.2,0,0.3,0c1.3-0.1,2.6,0.4,3.5,1.4l-1.2,1.4
			c-0.6-0.6-1.4-1-2.3-1c-1.5,0-2.6,1.2-2.6,2.7c0,0,0,0,0,0.1l0,0c-0.1,1.5,1,2.7,2.5,2.8c0,0,0.1,0,0.1,0c0.9,0,1.7-0.4,2.4-1
			l1.2,1.3c-0.9,1.1-2.3,1.6-3.7,1.6c-2.5,0.1-4.5-1.9-4.6-4.4C144.3,159.8,144.3,159.7,144.3,159.7z"/>
		<path class="st1" d="M153.5,159.7L153.5,159.7c0.1-2.6,2.3-4.6,5-4.5c2.5,0.1,4.4,2.1,4.5,4.5l0,0c-0.1,2.6-2.3,4.6-5,4.5
			C155.6,164.1,153.6,162.1,153.5,159.7z M160.9,159.7L160.9,159.7c0.1-1.5-1.1-2.8-2.6-2.8c0,0-0.1,0-0.1,0c-1.5,0-2.7,1.2-2.7,2.7
			c0,0,0,0.1,0,0.1l0,0c-0.1,1.5,1.1,2.8,2.6,2.8c0,0,0.1,0,0.1,0c1.5,0,2.7-1.2,2.7-2.7C160.9,159.7,160.9,159.7,160.9,159.7
			L160.9,159.7z"/>
		<path class="st1" d="M164.7,155.2h1.8l4.2,5.5v-5.5h1.9v8.9H171l-4.3-5.7v5.7h-1.9L164.7,155.2z"/>
		<path class="st1" d="M176.9,157h-2.7v-1.8h7.4v1.8h-2.7v7.1h-2L176.9,157z"/>
		<path class="st1" d="M183.1,155.2h6.7v1.8H185v1.8h4.2v1.8H185v1.9h4.9v1.8h-6.8V155.2z"/>
		<path class="st1" d="M191.6,155.2h1.8l4.2,5.5v-5.5h1.9v8.9h-1.7l-4.3-5.7v5.7h-1.9L191.6,155.2z"/>
		<path class="st1" d="M203.7,157H201v-1.8h7.4v1.8h-2.7v7.1h-2L203.7,157z"/>
		<path class="st1" d="M128.7,170.5h2.1l2.4,3.8l2.4-3.8h2.1v8.9h-2v-5.8l-2.5,3.8h-0.1l-2.5-3.8v5.8h-1.9L128.7,170.5z"/>
		<path class="st1" d="M142.9,170.4h1.8l3.8,9h-2.1l-0.8-2h-3.8l-0.8,2h-2L142.9,170.4z M144.9,175.7l-1.2-2.9l-1.2,2.9H144.9z"/>
		<path class="st1" d="M149.9,170.5h1.8l4.2,5.5v-5.5h1.9v8.9h-1.7l-4.3-5.7v5.7h-1.9L149.9,170.5z"/>
		<path class="st1" d="M163,170.4h1.8l3.8,9h-2.1l-0.8-2H162l-0.8,2h-2L163,170.4z M165.1,175.7l-1.2-2.9l-1.2,2.9H165.1z"/>
		<path class="st1" d="M169,175L169,175c0-2.5,2-4.6,4.5-4.6c0,0,0.1,0,0.1,0c1.3-0.1,2.5,0.4,3.5,1.2L176,173
			c-0.6-0.6-1.5-0.9-2.3-0.9c-1.5,0.1-2.6,1.3-2.6,2.8l0,0c-0.1,1.5,1,2.7,2.5,2.8c0.1,0,0.1,0,0.2,0c0.7,0,1.3-0.2,1.9-0.5V176h-2
			v-1.7h3.9v3.9c-1.1,0.9-2.4,1.4-3.8,1.4c-2.5,0.2-4.6-1.7-4.7-4.2C169,175.3,169,175.1,169,175z"/>
		<path class="st1" d="M179.4,170.5h6.7v1.8h-4.8v1.8h4.2v1.8h-4.2v1.9h4.9v1.8h-6.8L179.4,170.5z"/>
		<path class="st1" d="M188,170.5h2.1l2.4,3.8l2.4-3.8h2.1v8.9h-2v-5.8l-2.5,3.8h-0.1l-2.5-3.8v5.8H188V170.5z"/>
		<path class="st1" d="M199,170.5h6.7v1.8H201v1.8h4.2v1.8H201v1.9h4.9v1.8H199V170.5z"/>
		<path class="st1" d="M207.6,170.5h1.8l4.2,5.5v-5.5h1.9v8.9h-1.7l-4.3-5.7v5.7h-1.9L207.6,170.5z"/>
		<path class="st1" d="M219.7,172.3H217v-1.8h7.4v1.8h-2.7v7.1h-2L219.7,172.3z"/>
		<path class="st1" d="M150.6,193.4l1.2-1.4c0.7,0.7,1.7,1.1,2.7,1.1c0.8,0,1.3-0.3,1.3-0.8l0,0c0-0.5-0.3-0.8-1.8-1.1
			c-1.8-0.5-3-1-3-2.7l0,0c0-1.6,1.3-2.7,3.1-2.7c1.2,0,2.4,0.4,3.3,1.1l-1,1.5c-0.7-0.5-1.5-0.8-2.3-0.9c-0.8,0-1.1,0.3-1.1,0.8
			l0,0c0,0.6,0.4,0.8,1.9,1.2c1.8,0.5,2.8,1.1,2.8,2.7l0,0c0,1.8-1.4,2.8-3.3,2.8C153,194.8,151.6,194.3,150.6,193.4z"/>
		<path class="st1" d="M161.5,191.2l-3.5-5.4h2.3l2.1,3.6l2.2-3.6h2.2l-3.4,5.4v3.6h-2L161.5,191.2z"/>
		<path class="st1" d="M167,193.4l1.2-1.4c0.7,0.7,1.7,1.1,2.7,1.1c0.8,0,1.3-0.3,1.3-0.8l0,0c0-0.5-0.3-0.8-1.8-1.1
			c-1.8-0.5-3-1-3-2.7l0,0c0-1.6,1.3-2.7,3.1-2.7c1.2,0,2.4,0.4,3.3,1.1l-1,1.5c-0.7-0.5-1.5-0.8-2.3-0.9c-0.8,0-1.1,0.3-1.1,0.8
			l0,0c0,0.6,0.4,0.8,1.9,1.2c1.8,0.5,2.8,1.1,2.8,2.7l0,0c0,1.8-1.4,2.8-3.3,2.8C169.4,194.8,168,194.3,167,193.4z"/>
		<path class="st1" d="M177.7,187.6H175v-1.8h7.4v1.8h-2.7v7.1h-2V187.6z"/>
		<path class="st1" d="M183.9,185.8h6.7v1.8h-4.8v1.8h4.2v1.8h-4.2v1.9h4.9v1.8h-6.8L183.9,185.8z"/>
		<path class="st1" d="M192.4,185.8h2.1l2.4,3.8l2.4-3.8h2.1v8.9h-2v-5.8l-2.5,3.8h-0.1l-2.5-3.8v5.8h-1.9L192.4,185.8z"/>
		<g>
			<path class="st2" d="M246.4,482.1c-64,0-124.2-24.9-169.5-70.2C31.6,366.6,6.7,306.4,6.7,242.4c0-64,24.9-124.2,70.2-169.5
				C122.2,27.6,182.4,2.6,246.4,2.6c64,0,124.2,24.9,169.5,70.2c45.3,45.3,70.2,105.5,70.2,169.5c0,64-24.9,124.2-70.2,169.5
				C370.7,457.2,310.5,482.1,246.4,482.1z M246.4,11.1c-61.8,0-119.8,24.1-163.5,67.7c-43.7,43.7-67.7,101.7-67.7,163.5
				c0,61.8,24.1,119.8,67.7,163.5s101.7,67.7,163.5,67.7s119.8-24.1,163.5-67.7s67.7-101.7,67.7-163.5c0-61.8-24.1-119.8-67.7-163.5
				C366.3,35.2,308.2,11.1,246.4,11.1z"/>
		</g>
		<path class="st3" d="M56.3,276.3L56.3,276.3c1.9-0.4,3.8,0.8,4.3,2.7c0,0.1,0,0.1,0,0.2c0.3,1,0.1,2.1-0.5,2.9l-1.3-0.8
			c0.4-0.6,0.5-1.2,0.4-1.9c-0.2-1.1-1.4-1.8-2.5-1.6c0,0,0,0-0.1,0l0,0c-1.1,0.2-1.9,1.2-1.8,2.4c0,0,0,0.1,0,0.1
			c0.1,0.7,0.6,1.3,1.2,1.7l-0.8,1.2c-1-0.5-1.6-1.5-1.8-2.6c-0.4-1.9,0.8-3.8,2.7-4.2C56.2,276.3,56.2,276.3,56.3,276.3z"/>
		<path class="st3" d="M57.7,283.5L57.7,283.5c2-0.4,4,1,4.3,3.1c0.3,1.8-0.8,3.6-2.6,4.2l0,0c-2,0.5-4-0.7-4.5-2.8
			C54.5,286,55.7,284,57.7,283.5z M59.1,289.2L59.1,289.2c1.2-0.2,1.9-1.4,1.7-2.5c0,0,0,0,0-0.1c-0.3-1.1-1.4-1.8-2.5-1.6
			c0,0-0.1,0-0.1,0l0,0c-1.2,0.2-1.9,1.4-1.7,2.5c0,0,0,0,0,0.1c0.3,1.1,1.4,1.8,2.5,1.6C59,289.3,59,289.3,59.1,289.2L59.1,289.2z"
			/>
		<path class="st3" d="M63.2,291.3l0.4,1.4l-3.3,4.4l4.2-1.2l0.4,1.5l-6.8,1.9l-0.4-1.2l3.4-4.5l-4.3,1.2l-0.4-1.5L63.2,291.3z"/>
		<path class="st3" d="M59.6,300.3l1.3,0.5c-0.3,0.7-0.4,1.5-0.2,2.3c0.2,0.6,0.6,0.9,1,0.8l0,0c0.4-0.1,0.5-0.4,0.4-1.6
			c-0.1-1.5,0-2.5,1.3-2.9l0,0c1.2-0.4,2.4,0.3,2.8,1.5c0,0.1,0,0.2,0.1,0.2c0.3,0.9,0.3,1.9,0,2.8l-1.4-0.4c0.2-0.6,0.3-1.3,0.1-2
			c-0.2-0.6-0.5-0.8-0.9-0.7l0,0c-0.4,0.1-0.5,0.5-0.4,1.7c0.1,1.5-0.2,2.4-1.3,2.8l0,0c-1.3,0.4-2.4-0.3-2.9-1.8
			C59.2,302.4,59.2,301.3,59.6,300.3z"/>
		<path class="st3" d="M63.7,306.3l3.8-1.4l0.5,1.5l-3.7,1.4c-1.1,0.4-1.4,1.1-1.1,2c0.2,0.8,1,1.2,1.8,1c0.1,0,0.2-0.1,0.3-0.1
			l3.8-1.4l0.5,1.5l-3.7,1.4c-1.4,0.7-3.1,0.2-3.8-1.2c-0.1-0.2-0.2-0.4-0.2-0.6c-0.7-1.4-0.1-3.1,1.3-3.7
			C63.3,306.4,63.5,306.3,63.7,306.3z"/>
		<path class="st3" d="M70.1,312l0.6,1.5l-2,2.9l3.5,0.6l0.6,1.5l-6.5,2.7l-0.6-1.4l4.2-1.7l-3.5-0.7l0,0l2-3l-4.2,1.8l-0.6-1.4
			L70.1,312z"/>
		<path class="st3" d="M73.5,320.1l2.2,4.8l-1.2,0.6l-1.6-3.5l-1.3,0.6l1.4,3l-1.2,0.6l-1.4-3l-1.3,0.6l1.6,3.5l-1.2,0.6l-2.2-4.8
			L73.5,320.1z"/>
		<path class="st3" d="M76.3,326.1l1.5,2.9c0.4,0.6,0.5,1.4,0.3,2.1c-0.2,0.6-0.6,1-1.1,1.3l0,0c-0.9,0.5-1.9,0.3-2.6-0.4l-1.5,2.7
			l-0.9-1.6l1.3-2.4l-0.6-1.1l-2,1l-0.7-1.4L76.3,326.1z M74.7,330.5c0.2,0.5,0.7,0.8,1.2,0.7c0.1,0,0.1,0,0.2-0.1l0,0
			c0.6-0.3,0.7-0.9,0.3-1.5l-0.7-1.4l-1.8,0.9L74.7,330.5z"/>
		<path class="st3" d="M81.1,335.2l1.4,2.4c1.1,1.6,0.7,3.8-0.9,4.9c-0.1,0-0.1,0.1-0.2,0.1l0,0c-1.7,1-3.8,0.4-4.8-1.3
			c0-0.1-0.1-0.1-0.1-0.2l-1.4-2.4L81.1,335.2z M80.7,337.2l-3.7,2.2l0.6,1c0.5,1,1.7,1.4,2.7,0.9c0.1,0,0.1-0.1,0.2-0.1l0,0
			c1-0.5,1.4-1.7,0.9-2.7c0-0.1-0.1-0.1-0.1-0.2L80.7,337.2z"/>
		<path class="st3" d="M86.2,343.5l0.8,1.2l-4.4,6.4l-0.9-1.4l1-1.4l-1.6-2.5l-1.7,0.3l-0.8-1.3L86.2,343.5z M83.5,347.1l1.4-2
			l-2.4,0.4L83.5,347.1z"/>
		<path class="st3" d="M88.3,349.6l-1.2-1.8l1.2-0.8l3.3,4.8l-1.2,0.8l-1.2-1.8l-4.6,3.2l-0.9-1.3L88.3,349.6z"/>
		<path class="st3" d="M93.2,354l0.8,1.1l-3.9,6.6l-1-1.3L90,359l-1.8-2.4l-1.7,0.4l-0.9-1.3L93.2,354z M90.9,357.8l1.3-2.1
			l-2.4,0.6L90.9,357.8z"/>
		<path class="st3" d="M96.5,358.4l2,2.6c0.5,0.5,0.7,1.2,0.7,1.8c0,0.4-0.3,0.9-0.6,1.1l0,0c-0.5,0.4-1.2,0.5-1.8,0.2
			c0.3,0.7,0.1,1.6-0.5,2.1l0,0c-1,0.8-2.2,0.4-3.2-0.9l-2-2.6L96.5,358.4z M95.3,363.6l-1.1-1.4l-1.2,1l1.2,1.4
			c0.4,0.5,0.9,0.7,1.3,0.4l0,0C95.8,364.6,95.8,364.2,95.3,363.6L95.3,363.6z M97.4,362.9c0.4-0.3,0.3-0.7-0.1-1.2l-1-1.2l-1.2,0.9
			l0.9,1.1C96.5,363,96.9,363.2,97.4,362.9L97.4,362.9z"/>
		<path class="st3" d="M102.6,365.8l0.9,1.1l-3.4,6.9l-1.1-1.2l0.8-1.5l-1.9-2.2l-1.6,0.5l-1-1.2L102.6,365.8z M100.5,369.8l1.1-2.2
			l-2.3,0.8L100.5,369.8z"/>
		<path class="st3" d="M101.4,373.7l1.4-0.1c0,0.8,0.3,1.5,0.8,2.1c0.4,0.5,0.9,0.6,1.2,0.3l0,0c0.3-0.3,0.3-0.6-0.3-1.6
			c-0.7-1.3-1-2.2,0-3.2l0,0c0.9-0.8,2.3-0.7,3.1,0.2c0,0,0.1,0.1,0.1,0.2c0.6,0.7,1,1.5,1.1,2.5l-1.4,0.2c-0.1-0.7-0.3-1.3-0.7-1.8
			c-0.4-0.4-0.8-0.5-1.1-0.2l0,0c-0.3,0.3-0.2,0.6,0.4,1.7c0.7,1.3,0.9,2.2,0,3.1l0,0c-1,1-2.3,0.7-3.4-0.4
			C101.9,375.8,101.5,374.8,101.4,373.7z"/>
		<path class="st3" d="M110.5,374.6l3.8,3.8l-1,1l-2.7-2.7l-1,1l2.4,2.3l-1,1l-2.3-2.4l-1,1l2.7,2.7l-1,1l-3.8-3.8L110.5,374.6z"/>
		<path class="st3" d="M133.7,394.8l2.6,1.9c0.6,0.4,1.1,1,1.2,1.8c0.1,0.6-0.1,1.2-0.4,1.7l0,0c-0.5,0.8-1.6,1.2-2.5,0.9l-0.1,3
			l-1.5-1l0.1-2.7l-1-0.7l-1.3,1.8l-1.3-0.9L133.7,394.8z M134.2,399.4c0.4,0.4,1,0.4,1.4,0c0.1,0,0.1-0.1,0.1-0.2l0,0
			c0.4-0.5,0.2-1.1-0.4-1.5l-1.2-0.9l-1.1,1.6L134.2,399.4z"/>
		<path class="st3" d="M139.6,399l4.4,2.9l-0.8,1.1l-3.1-2.1l-0.8,1.2l2.8,1.8l-0.8,1.1l-2.8-1.8l-0.8,1.2l3.2,2.1l-0.8,1.1l-4.5-3
			L139.6,399z"/>
		<path class="st3" d="M145.2,402.6l2.5,1.5c1.2,0.6,1.7,2,1.2,3.2c0,0.1-0.1,0.2-0.2,0.3l0,0c-0.9,1.4-2.4,1.5-3.7,0.6l-1-0.6
			l-1.1,1.8l-1.3-0.8L145.2,402.6z M145.7,407.1c0.5,0.4,1.2,0.3,1.5-0.2c0,0,0.1-0.1,0.1-0.1l0,0c0.4-0.6,0.1-1.2-0.5-1.6l-1-0.6
			l-1.1,1.8L145.7,407.1z"/>
		<path class="st3" d="M149,409.1L149,409.1c1-1.8,3.3-2.5,5.1-1.5c1.8,1,2.5,3.3,1.5,5.1l0,0l0,0c-1.1,1.8-3.4,2.3-5.2,1.2
			C148.8,412.9,148.2,410.8,149,409.1z M154.1,411.9L154.1,411.9c0.6-1,0.3-2.3-0.7-2.9c0,0-0.1,0-0.1-0.1c-1-0.6-2.3-0.2-2.9,0.8
			c0,0,0,0,0,0.1l0,0c-0.6,1-0.3,2.3,0.7,2.9c0,0,0.1,0,0.1,0.1C152.2,413.4,153.5,413,154.1,411.9
			C154.1,411.9,154.1,411.9,154.1,411.9L154.1,411.9z"/>
		<path class="st3" d="M158.4,410.2l2.9,1.5c0.7,0.3,1.2,0.9,1.5,1.6c0.2,0.6,0.1,1.2-0.2,1.7l0,0c-0.4,0.9-1.4,1.4-2.3,1.3l0.4,3
			l-1.6-0.8l-0.3-2.7l-1.1-0.5l-1,2l-1.4-0.7L158.4,410.2z M159.6,414.7c0.4,0.3,1.1,0.3,1.4-0.2c0-0.1,0.1-0.1,0.1-0.2l0,0
			c0.3-0.6,0-1.1-0.6-1.5l-1.4-0.7l-0.9,1.8L159.6,414.7z"/>
		<path class="st3" d="M165.8,415.4l-1.9-0.9l0.6-1.3l5.3,2.5l-0.6,1.3l-1.9-0.9l-2.4,5.1l-1.4-0.6L165.8,415.4z"/>
		<path class="st3" d="M170.9,416.2l1.4,0.6l-2.8,6.5l-1.4-0.6L170.9,416.2z"/>
		<path class="st3" d="M173.9,417.5l1.3,0.5l1.5,5.2l1.6-4l1.4,0.6l-2.6,6.6l-1.2-0.5l-1.5-5.4l-1.6,4.2l-1.4-0.6L173.9,417.5z"/>
		<path class="st3" d="M179.8,423.6L179.8,423.6c0.6-1.9,2.7-2.9,4.6-2.3c0,0,0.1,0,0.1,0c1,0.3,1.8,0.9,2.3,1.8l-1.3,0.8
			c-0.3-0.6-0.9-1.1-1.5-1.3c-1.1-0.3-2.3,0.3-2.6,1.4l0,0c-0.4,1.1,0.1,2.3,1.1,2.8c0,0,0.1,0,0.1,0.1c0.5,0.2,1,0.2,1.5,0.1l0.3-1
			l-1.5-0.5l0.4-1.3l2.9,1l-1,2.9c-1,0.4-2.2,0.4-3.2,0.1c-1.9-0.5-3-2.5-2.4-4.4C179.7,423.8,179.8,423.7,179.8,423.6z"/>
		<path class="st3" d="M323.1,415.6l1.3-0.6l5.6,5.2l-1.5,0.7l-1.2-1.2l-2.7,1.3l0,1.7l-1.4,0.6L323.1,415.6z M326.2,418.7l-1.8-1.7
			l0.1,2.5L326.2,418.7z"/>
		<path class="st3" d="M328.1,413.4l1.3-0.6l4.9,2.4l-1.9-3.9l1.4-0.7l3.1,6.3l-1.2,0.6l-5-2.5l2,4l-1.4,0.7L328.1,413.4z"/>
		<path class="st3" d="M337.3,408.6l1.2-0.7l6.1,4.8l-1.4,0.8l-1.3-1.1l-2.6,1.4l0.2,1.7l-1.4,0.8L337.3,408.6z M340.7,411.4
			l-1.9-1.5l0.3,2.5L340.7,411.4z"/>
		<path class="st3" d="M342.1,405.9l1.3-0.8l2.9,4.8l3-1.8l0.7,1.2l-4.3,2.6L342.1,405.9z"/>
		<path class="st3" d="M350.3,406l-4.6-2.1l1.5-1l2.9,1.5l-0.1-3.3l1.5-1v5l1.5,2.4l-1.3,0.8L350.3,406z"/>
		<path class="st3" d="M354.5,399.8l-1.8,1.2l-0.8-1.2l4.8-3.3l0.8,1.2l-1.8,1.2l3.2,4.6l-1.3,0.9L354.5,399.8z"/>
		<path class="st3" d="M357.7,395.8l1.2-0.9l4.2,5.7l-1.2,0.9L357.7,395.8z"/>
		<path class="st3" d="M362.3,396.8L362.3,396.8c-1.2-1.5-1-3.8,0.5-5c0,0,0.1-0.1,0.1-0.1c0.8-0.7,1.8-1,2.9-0.8l-0.1,1.5
			c-0.7-0.1-1.4,0.1-1.9,0.5c-0.9,0.7-1,2-0.3,2.9c0,0,0,0,0.1,0.1l0,0c0.6,1,1.9,1.2,2.9,0.6c0,0,0.1,0,0.1-0.1
			c0.6-0.4,0.9-1.1,1-1.8l1.4,0.2c-0.1,1.1-0.6,2.1-1.5,2.8c-1.5,1.2-3.7,1-5-0.5C362.4,396.9,362.3,396.9,362.3,396.8z"/>
		<path class="st3" d="M369.7,394.2v-1.4c0.8,0,1.5-0.2,2.2-0.7c0.5-0.4,0.6-0.9,0.4-1.2l0,0c-0.2-0.3-0.6-0.3-1.7,0.2
			c-1.3,0.6-2.3,0.9-3.2-0.1l0,0c-0.8-1-0.6-2.3,0.4-3.1c0.1,0,0.1-0.1,0.2-0.1c0.7-0.6,1.6-1,2.6-1l0.1,1.4c-0.7,0-1.3,0.2-1.9,0.6
			c-0.5,0.4-0.5,0.8-0.3,1l0,0c0.3,0.4,0.6,0.3,1.8-0.3c1.3-0.6,2.3-0.8,3.1,0.2l0,0c0.9,1.1,0.6,2.4-0.6,3.3
			C371.8,393.9,370.8,394.2,369.7,394.2z"/>
		<path class="st3" d="M386.1,370.4l1-1.2l4.2,3.8l2.3-2.6l1,0.9l-3.4,3.8L386.1,370.4z"/>
		<path class="st3" d="M390.2,365.8l3.4-4.1l1.1,0.9l-2.4,2.9l1.1,0.9l2.1-2.5l1.1,0.9l-2.1,2.5l1.1,1l2.4-2.9l1.1,0.9l-3.4,4.1
			L390.2,365.8z"/>
		<path class="st3" d="M395.9,358.7l0.9-1.1l7.5,1.9l-1,1.3l-1.6-0.5l-1.8,2.4l0.9,1.5l-1,1.2L395.9,358.7z M400.2,359.9l-2.4-0.6
			l1.2,2.1L400.2,359.9z"/>
		<path class="st3" d="M399.3,354.3l1.6-2.2c1-1.6,3.2-2.1,4.8-1.1c0.1,0,0.1,0.1,0.2,0.1l0,0c1.6,1.1,2,3.3,0.8,4.9
			c0,0.1-0.1,0.1-0.1,0.2l-1.6,2.2L399.3,354.3z M401.3,353.9l3.5,2.5l0.7-1c0.7-0.9,0.6-2.1-0.3-2.8c-0.1,0-0.1-0.1-0.2-0.1l0,0
			c-0.8-0.7-2.1-0.6-2.8,0.3c-0.1,0.1-0.1,0.2-0.2,0.3L401.3,353.9z"/>
		<path class="st3" d="M405.4,345.4l0.9-1.4h3.5l-1.6-3.1l0.9-1.4l6,3.7l-0.8,1.3l-3.9-2.5l1.5,3.3l0,0l-3.6,0.1l3.9,2.4l-0.8,1.3
			L405.4,345.4z"/>
		<path class="st3" d="M411.1,335.9l0.7-1.2l7.7,0.9l-0.8,1.4l-1.7-0.2l-1.5,2.6l1.1,1.3l-0.8,1.4L411.1,335.9z M415.6,336.5
			l-2.5-0.3l1.5,1.9L415.6,336.5z"/>
		<path class="st3" d="M413.8,331.1l0.6-1.3l5.4-1l-3.9-2l0.7-1.4l6.3,3.2l-0.6,1.2l-5.5,1l4,2l-0.7,1.4L413.8,331.1z"/>
		<path class="st3" d="M418.4,321.8l0.6-1.3l7.7,0.2l-0.7,1.5l-1.7-0.1l-1.3,2.7l1.2,1.2l-0.7,1.4L418.4,321.8z M422.8,322l-2.5-0.1
			l1.7,1.8L422.8,322z"/>
		<path class="st3" d="M423.6,318.9L423.6,318.9c-1.9-0.7-2.8-2.8-2.1-4.7c0,0,0-0.1,0.1-0.1c0.3-1,1-1.7,2-2.2l0.7,1.4
			c-0.6,0.3-1.1,0.8-1.4,1.4c-0.4,1.1,0.2,2.3,1.3,2.7l0,0c1,0.5,2.3,0.1,2.8-1c0,0,0-0.1,0.1-0.1c0.2-0.5,0.3-1,0.2-1.5l-0.9-0.4
			l-0.6,1.4l-1.2-0.5l1.2-2.8l2.8,1.2c0.4,1,0.3,2.2-0.1,3.2c-0.6,1.8-2.7,2.8-4.5,2.1C423.8,318.9,423.7,318.9,423.6,318.9z"/>
		<path class="st3" d="M423.4,309.9l1.8-5l1.3,0.5l-1.3,3.5l1.3,0.5l1.1-3.1l1.3,0.5l-1.1,3.1l1.4,0.5l1.3-3.6l1.3,0.5l-1.9,5
			L423.4,309.9z"/>
		<path class="st3" d="M425.7,303.6l0.5-1.6l3.4-0.9l-2.3-2.7l0.5-1.6l6.7,2.1l-0.5,1.5l-4.4-1.4l2.3,2.9l0,0l-3.4,1l4.4,1.4
			l-0.5,1.5L425.7,303.6z"/>
		<path class="st3" d="M428.3,295.4l1.4-5.1l1.3,0.4l-1,3.6l1.4,0.4l0.9-3.2l1.3,0.4l-0.9,3.2l1.4,0.4l1-3.7l1.3,0.4l-1.4,5.2
			L428.3,295.4z"/>
		<path class="st3" d="M430.1,288.9l0.3-1.4l5-2.2l-4.2-1l0.4-1.5l6.9,1.6l-0.3,1.3L433,288l4.4,1l-0.4,1.5L430.1,288.9z"/>
		<path class="st3" d="M433.6,279.8l-0.4,2.1l-1.4-0.3l1.1-5.7l1.4,0.3l-0.4,2.1l5.5,1.1l-0.3,1.5L433.6,279.8z"/>
		<path class="st3" d="M289.3,50.2l5.2,1.3l-0.3,1.4l-3.7-0.9l-0.4,1.5l3.3,0.8l-0.4,1.4l-3.3-0.8l-0.6,2.7l-1.5-0.4L289.3,50.2z"/>
		<path class="st3" d="M297.5,52.2l1.4,0.4l1,7.7l-1.6-0.4l-0.2-1.7l-2.9-0.8l-1,1.3l-1.5-0.4L297.5,52.2z M297.9,56.7l-0.3-2.5
			l-1.5,2L297.9,56.7z"/>
		<path class="st3" d="M301.2,57L301.2,57c0.6-1.9,2.6-3,4.5-2.4c0.1,0,0.1,0,0.2,0c1,0.3,1.9,1,2.3,1.9l-1.3,0.8
			c-0.3-0.6-0.8-1.1-1.5-1.3c-1.1-0.3-2.3,0.3-2.6,1.4c0,0,0,0,0,0.1l0,0c-0.4,1.1,0.1,2.3,1.2,2.7c0,0,0,0,0.1,0
			c0.7,0.2,1.4,0.1,2-0.2l0.6,1.2c-0.9,0.6-2.1,0.7-3.1,0.3C301.7,61,300.6,59,301.2,57C301.2,57.1,301.2,57,301.2,57z"/>
		<path class="st3" d="M310,56.1l5,1.8l-0.5,1.3l-3.6-1.2l-0.5,1.3l3.1,1.1l-0.5,1.3l-3.1-1.2l-0.5,1.4l3.6,1.3l-0.5,1.3l-5-1.8
			L310,56.1z"/>
		<path class="st3" d="M316.6,58.5l3,1.2c0.6,0.2,1.2,0.6,1.5,1.2c0.2,0.4,0.2,0.9,0,1.3l0,0c-0.2,0.6-0.8,1-1.4,1.1
			c0.7,0.5,0.9,1.4,0.6,2.1l0,0c-0.5,1.2-1.7,1.4-3.2,0.8l-3.1-1.2L316.6,58.5z M318.1,63.6l-1.7-0.6l-0.6,1.4l1.7,0.7
			c0.6,0.3,1.1,0.2,1.3-0.3l0,0C319,64.3,318.8,63.9,318.1,63.6z M319.5,62c0.2-0.4-0.1-0.8-0.7-1l-1.4-0.6l-0.6,1.4l1.3,0.5
			C318.9,62.5,319.3,62.5,319.5,62L319.5,62z"/>
		<path class="st3" d="M321.8,64.5L321.8,64.5c0.8-1.9,3.1-2.7,4.9-1.9c1.9,0.8,2.7,3.1,1.9,4.9l0,0c-0.8,1.9-3.1,2.7-4.9,1.9
			C321.8,68.6,321,66.4,321.8,64.5z M327.2,66.9L327.2,66.9c0.5-1.1,0.1-2.3-1-2.9c0,0,0,0,0,0c-1.1-0.5-2.3,0-2.8,1
			c0,0,0,0.1,0,0.1l0,0c-0.5,1.1-0.1,2.3,1,2.9c0,0,0,0,0,0c1.1,0.5,2.3,0,2.8-1C327.2,67,327.2,67,327.2,66.9L327.2,66.9z"/>
		<path class="st3" d="M329.8,68.1L329.8,68.1c0.9-1.8,3.2-2.6,5-1.7c1.8,0.9,2.6,3.2,1.7,5l0,0l0,0c-0.9,1.8-3.2,2.6-5,1.7
			C329.6,72.2,328.9,70,329.8,68.1z M335,70.8L335,70.8c0.6-1,0.2-2.3-0.8-2.9c0,0,0,0-0.1,0c-1-0.5-2.3-0.1-2.8,0.9
			c0,0,0,0.1,0,0.1l0,0c-0.6,1-0.2,2.3,0.8,2.9c0,0,0,0,0.1,0C333.2,72.3,334.4,71.9,335,70.8C335,70.8,335,70.8,335,70.8z"/>
		<path class="st3" d="M339.5,69.2l1.4,0.8l-1.5,2.7l4-1.3l1.6,0.9l-4,1.2l0.6,5l-1.6-0.9l-0.4-3.7l-1.1,0.3l-1,1.9l-1.4-0.8
			L339.5,69.2z"/>
		<path class="st3" d="M357,84.1L357,84.1c1.2-1.6,3.4-2,5.1-0.8c0,0,0.1,0,0.1,0.1c0.9,0.6,1.5,1.4,1.7,2.4l-1.5,0.4
			c-0.1-0.7-0.5-1.3-1.1-1.7c-1-0.6-2.3-0.4-2.9,0.6l0,0c-0.7,0.9-0.6,2.2,0.3,3c0,0,0.1,0.1,0.1,0.1c0.4,0.3,0.9,0.5,1.4,0.5
			l0.6-0.8l-1.3-0.9l0.8-1.1l2.5,1.8l-1.8,2.5c-1.1,0.1-2.2-0.2-3.1-0.9c-1.6-1-2.1-3.2-1.1-4.9C356.9,84.3,356.9,84.2,357,84.1z"/>
		<path class="st3" d="M363.6,88.9L363.6,88.9c1.3-1.6,3.6-1.9,5.3-0.6c1.6,1.3,1.9,3.6,0.6,5.3l0,0c-1.3,1.6-3.6,1.9-5.3,0.6
			C362.6,92.9,362.3,90.5,363.6,88.9L363.6,88.9z M368.2,92.6L368.2,92.6c0.8-0.9,0.7-2.2-0.2-3c0,0,0,0-0.1,0
			c-0.9-0.7-2.2-0.6-3,0.4c0,0,0,0,0,0l0,0c-0.8,0.9-0.7,2.2,0.2,3c0,0,0,0,0.1,0C366.1,93.7,367.4,93.5,368.2,92.6
			C368.1,92.6,368.1,92.6,368.2,92.6z"/>
		<path class="st3" d="M370.4,94.4L370.4,94.4c1.4-1.5,3.8-1.6,5.3-0.1c1.4,1.3,1.6,3.5,0.4,5.1l0,0c-1.5,1.5-3.8,1.5-5.3,0
			C369.4,98,369.3,95.9,370.4,94.4L370.4,94.4z M374.8,98.2L374.8,98.2c0.8-0.9,0.8-2.2-0.1-3c0,0,0,0,0,0c-0.9-0.8-2.2-0.7-3,0.2
			c0,0,0,0,0,0l0,0c-0.8,0.9-0.8,2.2,0.1,3c0,0,0,0,0,0C372.7,99.2,374,99.1,374.8,98.2C374.8,98.2,374.8,98.2,374.8,98.2
			L374.8,98.2z"/>
		<path class="st3" d="M376.9,100.1L376.9,100.1c1.4-1.5,3.6-1.5,5.1-0.2c0,0,0.1,0.1,0.1,0.1c0.8,0.7,1.3,1.6,1.3,2.6l-1.5,0.2
			c0-0.7-0.3-1.3-0.8-1.8c-0.9-0.8-2.2-0.7-3,0.2c0,0,0,0,0,0l0,0c-0.9,0.8-0.9,2.1-0.1,3c0,0,0.1,0.1,0.1,0.1
			c0.4,0.4,0.8,0.6,1.4,0.7l0.7-0.7l-1.2-1.1l0.9-1l2.2,2.1l-2.1,2.2c-1.1,0-2.2-0.5-3-1.3c-1.4-1.3-1.6-3.5-0.3-5
			C376.8,100.2,376.9,100.2,376.9,100.1z"/>
		<path class="st3" d="M385.5,103.4l1.1,1.1l-4,3.9l2.4,2.5l-1,1l-3.5-3.6L385.5,103.4z"/>
		<path class="st3" d="M390,108.1l3.6,3.9l-1,0.9l-2.6-2.8l-1.1,1l2.2,2.4l-1,0.9L388,112l-1.1,1l2.6,2.8l-1,0.9l-3.6-4L390,108.1z"
			/>
		<path class="st3" d="M404.5,125.6l3.1,4.3l-1.1,0.8l-2.2-3.1l-1.2,0.8l1.9,2.7l-1.1,0.8l-1.9-2.7l-1.2,0.9l2.2,3.1L402,134
			l-3.1-4.4L404.5,125.6z"/>
		<path class="st3" d="M408.7,131.3l0.9,1.4l-1.5,3.2l3.5-0.1l0.9,1.4l-5.9,3.9l-0.9-1.3l3.8-2.5H406l0,0l1.4-3.3l-3.8,2.5l-0.8-1.3
			L408.7,131.3z"/>
		<path class="st3" d="M414.9,140.9l0.7,1.2l-4.5,6.2l-0.8-1.4l1-1.4l-1.5-2.6l-1.7,0.3l-0.8-1.4L414.9,140.9z M412.2,144.5l1.5-2
			l-2.4,0.4L412.2,144.5z"/>
		<path class="st3" d="M417.8,146l0.8,1.4l-6.1,3.4l-0.8-1.4L417.8,146z"/>
		<path class="st3" d="M419.5,149.1l0.7,1.4l-5,2.6l1.6,3.1l-1.2,0.7l-2.4-4.5L419.5,149.1z"/>
		<path class="st3" d="M429,169.2l1,2.7c0.6,1.2,0.2,2.6-1,3.2c-0.1,0.1-0.2,0.1-0.3,0.1l0,0c-1.5,0.6-2.8-0.3-3.3-1.8l-0.4-1.1
			l-2,0.7l-0.5-1.4L429,169.2z M426.7,173c0.1,0.6,0.7,0.9,1.3,0.8c0,0,0.1,0,0.1,0l0,0c0.6-0.2,0.8-0.8,0.6-1.6l-0.4-1.1l-2,0.8
			L426.7,173z"/>
		<path class="st3" d="M431.5,175.6l1.1,3c0.3,0.7,0.3,1.5,0,2.2c-0.3,0.5-0.7,0.9-1.3,1.1l0,0c-0.9,0.4-2,0.1-2.6-0.7l-1.8,2.5
			l-0.6-1.7l1.6-2.2l-0.4-1.1l-2.1,0.7l-0.5-1.5L431.5,175.6z M429.3,179.7c0.2,0.7,0.8,1,1.3,0.8l0,0c0.6-0.2,0.8-0.8,0.5-1.5
			l-0.5-1.4l-1.9,0.7L429.3,179.7z"/>
		<path class="st3" d="M433.9,182.8l0.5,1.5l-6.7,2.1l-0.5-1.5L433.9,182.8z"/>
		<path class="st3" d="M435,186.1l0.4,1.4l-3.2,4.4l4.2-1.2l0.4,1.5l-6.8,1.9l-0.4-1.3l3.4-4.5l-4.3,1.2l-0.4-1.5L435,186.1z"/>
		<path class="st3" d="M436.2,196l-0.5-2.1l1.4-0.3l1.4,5.7l-1.4,0.3l-0.5-2.1l-5.5,1.4l-0.4-1.5L436.2,196z"/>
		<path class="st3" d="M48.7,213.8l0.3-1.6l5-0.6l-4.4-2.4l0.2-1.3l5-0.7l-4.4-2.3l0.3-1.6l6.6,3.6l-0.2,1.3l-4.8,0.7l4.3,2.4
			l-0.2,1.3L48.7,213.8z"/>
		<path class="st3" d="M50.9,201.8l1.2-5.2l1.3,0.3l-0.8,3.7l1.4,0.3l0.8-3.2l1.3,0.3l-0.8,3.2l1.4,0.3l0.9-3.7l1.3,0.3l-1.2,5.2
			L50.9,201.8z"/>
		<path class="st3" d="M52.5,195l0.8-3.2c0.1-0.7,0.5-1.2,1.1-1.6c0.4-0.2,0.9-0.3,1.3-0.1l0,0c0.6,0.1,1.1,0.6,1.2,1.3
			c0.4-0.7,1.2-1.1,2-0.8l0,0c1.2,0.3,1.6,1.5,1.2,3l-0.9,3.2L52.5,195z M55.6,191.6c-0.5-0.1-0.8,0.2-1,0.8l-0.4,1.5l1.4,0.4
			l0.4-1.4C56.2,192.2,56.1,191.8,55.6,191.6L55.6,191.6z M57.4,192.9l-0.5,1.7l1.5,0.4l0.5-1.8c0.2-0.7,0-1.1-0.5-1.3l0,0
			C58,191.9,57.6,192.1,57.4,192.9L57.4,192.9z"/>
		<path class="st3" d="M60.1,190l-0.8-1.2c0.7-0.4,1.2-1,1.4-1.8c0.2-0.6,0.1-1-0.3-1.2l0,0c-0.4-0.1-0.6,0.1-1.3,1.1
			c-0.8,1.2-1.4,2-2.8,1.6l0,0c-1.2-0.4-1.8-1.6-1.4-2.8c0-0.1,0.1-0.1,0.1-0.2c0.3-0.9,0.8-1.7,1.6-2.2l0.9,1.1
			c-0.6,0.4-1,1-1.2,1.6c-0.2,0.6,0,0.9,0.3,1l0,0c0.4,0.1,0.7-0.1,1.3-1.2c0.8-1.3,1.5-1.9,2.7-1.5l0,0c1.3,0.4,1.8,1.7,1.3,3.1
			C61.8,188.5,61.1,189.4,60.1,190z"/>
		<path class="st3" d="M56.6,181.3l0.5-1.5l6.7,2.2l-0.5,1.5L56.6,181.3z"/>
		<path class="st3" d="M59.6,176.9l-0.7,2l-1.3-0.5l2-5.5l1.3,0.5l-0.7,2l5.3,1.9l-0.5,1.5L59.6,176.9z"/>
		<path class="st3" d="M60,171.6l2-4.9l1.3,0.5l-1.4,3.5l1.3,0.5l1.2-3.1l1.3,0.5l-1.2,3.1l1.4,0.6l1.4-3.6l1.3,0.5l-2,5L60,171.6z"
			/>
		<path class="st3" d="M68,168l-0.6-1.3c0.7-0.3,1.3-0.9,1.6-1.6c0.3-0.6,0.2-1-0.2-1.2l0,0c-0.4-0.2-0.6,0-1.4,0.9
			c-0.9,1.1-1.6,1.8-2.9,1.3l0,0c-1.1-0.5-1.6-1.8-1-2.9c0-0.1,0.1-0.1,0.1-0.2c0.4-0.9,1-1.6,1.9-2l0.7,1.2
			c-0.6,0.3-1.1,0.8-1.4,1.4c-0.2,0.5-0.1,0.9,0.2,1.1l0,0c0.4,0.2,0.7,0,1.5-1c0.9-1.1,1.7-1.7,2.8-1.2l0,0
			c1.3,0.6,1.6,1.9,0.9,3.2C69.8,166.8,69,167.6,68,168z"/>
		<path class="st3" d="M72.7,145.1l0.8-1.3l4.9,2.9l1.8-3l1.2,0.7l-2.6,4.4L72.7,145.1z"/>
		<path class="st3" d="M77.3,137.5l0.8-1.2l7.6,1.3l-0.9,1.4l-1.7-0.3l-1.6,2.5l1,1.4l-0.8,1.3L77.3,137.5z M81.6,138.3l-2.4-0.4
			l1.4,2L81.6,138.3z"/>
		<path class="st3" d="M80.5,132.6l0.8-1.2l5.4-0.2l-3.6-2.5l0.9-1.3l5.8,4l-0.8,1.1l-5.6,0.2l3.7,2.6l-0.9,1.3L80.5,132.6z"/>
		<path class="st3" d="M85.2,125.8l1.7-2.2c1.1-1.6,3.2-2.1,4.9-1c0.1,0,0.1,0.1,0.2,0.1l0,0c1.6,1.2,1.9,3.4,0.7,4.9
			c0,0.1-0.1,0.1-0.1,0.2l-1.7,2.2L85.2,125.8z M87.3,125.4l3.4,2.6l0.7-1c0.7-0.8,0.7-2.1-0.2-2.8c-0.1-0.1-0.1-0.1-0.2-0.2l0,0
			c-0.8-0.7-2.1-0.7-2.8,0.2c-0.1,0.1-0.1,0.2-0.2,0.2L87.3,125.4z"/>
		<path class="st3" d="M90.2,119.4l1-1.2l5.5,4.4l-1,1.2L90.2,119.4z"/>
		<path class="st3" d="M92.4,116.6l0.9-1.1l5.4,0.3l-3.3-2.8l1-1.2l5.3,4.6l-0.9,1l-5.6-0.3l3.4,2.9l-1,1.2L92.4,116.6z"/>
		<path class="st3" d="M100.2,113L100.2,113c-1.5-1.4-1.6-3.6-0.2-5.1c0,0,0-0.1,0.1-0.1c0.7-0.8,1.6-1.3,2.6-1.4l0.2,1.5
			c-0.7,0-1.3,0.4-1.8,0.9c-0.8,0.9-0.7,2.2,0.2,3c0,0,0,0,0,0l0,0c0.8,0.9,2.1,0.9,3,0.1c0,0,0.1-0.1,0.1-0.1
			c0.4-0.4,0.6-0.8,0.7-1.3l-0.7-0.7l-1.1,1.1l-1-0.9l2.1-2.2l2.2,2.1c0,1.1-0.5,2.2-1.2,3c-1.3,1.5-3.5,1.6-5,0.3
			C100.4,113.1,100.3,113.1,100.2,113z"/>
		<path class="st3" d="M105.7,102.2l2.1-2c0.8-1,2.4-1.2,3.4-0.3c0.1,0.1,0.2,0.1,0.2,0.2l0,0c1.1,1.2,0.8,2.7-0.3,3.8l-0.8,0.8
			l1.5,1.5l-1.1,1.1L105.7,102.2z M110.2,102.8c0.5-0.4,0.6-1,0.2-1.5c0,0-0.1-0.1-0.1-0.1l0,0c-0.4-0.4-1.1-0.5-1.5-0.1
			c-0.1,0-0.1,0.1-0.1,0.2l-0.9,0.8l1.5,1.6L110.2,102.8z"/>
		<path class="st3" d="M112,96.2l1.1-1l7,3.3l-1.2,1.1l-1.5-0.8l-2.2,2l0.6,1.6l-1.2,1.1L112,96.2z M116,98.2l-2.2-1.1l0.8,2.3
			L116,98.2z"/>
		<path class="st3" d="M118.1,95.6L118.1,95.6c-1.3-1.5-1.1-3.8,0.4-5.1c0,0,0.1,0,0.1-0.1c0.8-0.7,1.7-1,2.8-1V91
			c-0.7,0-1.4,0.2-1.9,0.6c-0.9,0.8-1,2.1-0.2,3c0,0,0,0,0,0l0,0c0.7,0.9,2,1.1,2.9,0.5c0,0,0.1-0.1,0.1-0.1
			c0.4-0.3,0.7-0.8,0.9-1.3l-0.6-0.8l-1.2,1l-0.8-1L123,91l1.9,2.4c-0.2,1.1-0.8,2-1.6,2.7c-1.4,1.3-3.7,1.2-5-0.2
			C118.2,95.7,118.2,95.7,118.1,95.6z"/>
		<path class="st3" d="M122.4,87.5l4.2-3.2l0.8,1.1l-3,2.3l0.9,1.1l2.6-2l0.8,1.1l-2.6,2l0.9,1.2l3-2.3l0.8,1.1l-4.3,3.3L122.4,87.5
			z"/>
		<path class="st3" d="M131.1,88.5l0.1-1.4c0.8,0.1,1.6-0.1,2.2-0.5c0.5-0.4,0.7-0.8,0.4-1.1l0,0c-0.2-0.3-0.5-0.3-1.7,0.1
			c-1.4,0.5-2.3,0.7-3.1-0.4l0,0c-0.7-1-0.4-2.4,0.6-3.1c0.1,0,0.1-0.1,0.2-0.1c0.8-0.6,1.7-0.8,2.6-0.8v1.4c-0.7,0-1.3,0.1-1.9,0.5
			c-0.5,0.3-0.6,0.8-0.4,1l0,0c0.3,0.4,0.6,0.3,1.8-0.1c1.4-0.5,2.3-0.6,3,0.4l0,0c0.8,1.1,0.4,2.4-0.8,3.3
			C133.3,88.3,132.2,88.6,131.1,88.5z"/>
		<path class="st3" d="M146.9,71.1l1.5-0.8l3.1,1.7l0.2-3.5l1.5-0.8l3.4,6.2l-1.4,0.7l-2.2-4l-0.3,3.6l0,0l-3.1-1.7l2.2,4l-1.3,0.7
			L146.9,71.1z"/>
		<path class="st3" d="M156.1,70.1L156.1,70.1c-0.8-1.9,0-4.1,1.9-5c1.8-0.8,3.9-0.1,4.8,1.7l0,0c0.8,1.9,0,4.1-1.9,5
			C159.2,72.6,157.1,71.9,156.1,70.1z M161.4,67.6L161.4,67.6c-0.5-1.1-1.7-1.6-2.8-1.1c0,0,0,0-0.1,0c-1,0.5-1.5,1.8-1,2.8
			c0,0,0,0.1,0,0.1l0,0c0.5,1.1,1.7,1.6,2.8,1.1c0,0,0,0,0.1,0C161.5,70,162,68.7,161.4,67.6C161.5,67.6,161.4,67.6,161.4,67.6z"/>
		<path class="st3" d="M162.9,63l3-1.3c0.6-0.3,1.3-0.4,1.9-0.2c0.4,0.2,0.8,0.5,0.9,0.9l0,0c0.3,0.6,0.2,1.3-0.2,1.8
			c0.8-0.1,1.6,0.3,1.9,1.1l0,0c0.5,1.2-0.2,2.2-1.6,2.8l-3.1,1.3L162.9,63z M167.4,63.3c-0.2-0.4-0.6-0.5-1.2-0.3l-1.4,0.6l0.6,1.4
			l1.3-0.6C167.4,64.2,167.7,63.8,167.4,63.3L167.4,63.3z M167.6,65.5l-1.6,0.7l0.6,1.4l1.7-0.7c0.6-0.3,0.9-0.7,0.7-1.1l0,0
			C168.7,65.2,168.3,65.1,167.6,65.5L167.6,65.5z"/>
		<path class="st3" d="M169.8,60l1.4-0.6l2.7,6.5l-1.4,0.6L169.8,60z"/>
		<path class="st3" d="M173.1,58.7l1.4-0.5l2,5.3l3.3-1.2l0.5,1.3l-4.7,1.8L173.1,58.7z"/>
		<path class="st3" d="M179.2,56.4l5-1.7l0.4,1.3l-3.6,1.2l0.5,1.3l3.1-1.1l0.4,1.3l-3.1,1.1l0.5,1.4l3.6-1.2l0.4,1.3l-5.1,1.7
			L179.2,56.4z"/>
		<path class="st3" d="M191.1,52.6l1.4-0.4l4.8,6l-1.6,0.4l-1-1.3l-2.9,0.8l-0.2,1.7l-1.5,0.4L191.1,52.6z M193.8,56.1l-1.5-2
			l-0.3,2.5L193.8,56.1z"/>
		<path class="st3" d="M196.8,51.1l2.8-0.7c1.2-0.5,2.6,0.2,3.1,1.4c0,0.1,0.1,0.2,0.1,0.3l0,0c0.4,1.6-0.7,2.7-2.2,3.1l-1.1,0.3
			l0.5,2.1l-1.5,0.4L196.8,51.1z M200.3,53.9c0.6-0.1,1-0.6,1-1.2c0,0,0-0.1,0-0.1l0,0c-0.2-0.7-0.7-0.9-1.5-0.8l-1.2,0.3l0.5,2.1
			L200.3,53.9z"/>
		<path class="st3" d="M203.6,49.5l2.8-0.6c1.3-0.4,2.6,0.3,3,1.5c0,0.1,0.1,0.2,0.1,0.3l0,0c0.3,1.6-0.8,2.7-2.3,3l-1.1,0.2
			l0.4,2.1l-1.5,0.3L203.6,49.5z M207,52.5c0.6,0,1.1-0.6,1-1.2c0,0,0-0.1,0-0.1l0,0c-0.1-0.7-0.7-1-1.4-0.8l-1.2,0.2l0.4,2.1
			L207,52.5z"/>
		<path class="st3" d="M210.9,54.2l0.7-1.2c0.7,0.4,1.4,0.6,2.2,0.5c0.6-0.1,1-0.4,0.9-0.8l0,0c-0.1-0.4-0.3-0.5-1.6-0.7
			c-1.5-0.1-2.4-0.4-2.7-1.8l0,0c-0.2-1.2,0.7-2.3,1.9-2.5c0.1,0,0.1,0,0.2,0c0.9-0.2,1.9,0,2.7,0.5l-0.6,1.3
			c-0.6-0.3-1.3-0.5-1.9-0.4c-0.6,0.1-0.9,0.4-0.8,0.8l0,0c0.1,0.5,0.4,0.6,1.6,0.7c1.5,0.1,2.4,0.5,2.6,1.7l0,0
			c0.2,1.4-0.7,2.3-2.2,2.6C213,55,211.9,54.8,210.9,54.2z"/>
		<path class="st1" d="M203.3,213.3h86.2c14.6,0,26.5,11.9,26.5,26.5v5.1c0,14.6-11.9,26.5-26.5,26.5h-86.2
			c-14.6,0-26.5-11.9-26.5-26.5v-5.1C176.8,225.2,188.7,213.3,203.3,213.3z"/>
		<path class="st3" d="M208.9,233.8L208.9,233.8c0-2.5,2-4.6,4.5-4.6c0.1,0,0.1,0,0.2,0c1.3-0.1,2.6,0.4,3.5,1.4l-1.2,1.4
			c-0.6-0.6-1.4-1-2.3-1c-1.5,0-2.6,1.2-2.6,2.7c0,0,0,0,0,0.1l0,0c-0.1,1.5,1,2.7,2.5,2.8c0,0,0.1,0,0.1,0c0.9,0,1.7-0.4,2.4-1
			l1.2,1.3c-0.9,1.1-2.3,1.6-3.7,1.6c-2.5,0-4.5-1.9-4.6-4.4C208.9,234,208.9,233.9,208.9,233.8z"/>
		<path class="st3" d="M221.8,229.3h1.8l3.8,9h-2.1l-0.8-2h-3.8l-0.8,2h-2L221.8,229.3z M223.8,234.5l-1.2-2.9l-1.2,2.9H223.8z"/>
		<path class="st3" d="M228.8,229.3h2.1l2.4,3.8l2.4-3.8h2.1v8.9h-2v-5.8l-2.5,3.8h-0.1l-2.5-3.8v5.8h-1.9L228.8,229.3z"/>
		<path class="st3" d="M239.8,229.3h3.6c2.1,0,3.4,1.3,3.4,3.1l0,0c0,2.1-1.6,3.1-3.6,3.1h-1.5v2.7h-2L239.8,229.3z M243.4,233.8
			c0.8,0.1,1.4-0.4,1.5-1.2c0-0.1,0-0.1,0-0.2l0,0c0-0.9-0.6-1.4-1.6-1.4h-1.5v2.7L243.4,233.8z"/>
		<path class="st3" d="M250.5,229.3h1.8l3.8,9h-2.1l-0.8-2h-3.8l-0.8,2h-2L250.5,229.3z M252.6,234.5l-1.2-2.9l-1.2,2.9H252.6z"/>
		<path class="st3" d="M257.6,229.3h2v8.9h-2V229.3z"/>
		<path class="st3" d="M261.4,233.8L261.4,233.8c0-2.5,2-4.6,4.5-4.6c0,0,0.1,0,0.1,0c1.3-0.1,2.5,0.4,3.5,1.2l-1.2,1.5
			c-0.6-0.6-1.5-0.9-2.4-0.9c-1.5,0.1-2.6,1.3-2.6,2.8l0,0c-0.1,1.5,1,2.7,2.5,2.8c0.1,0,0.1,0,0.2,0c0.7,0,1.3-0.2,1.9-0.5v-1.3h-2
			v-1.7h3.9v3.9c-1.1,0.9-2.4,1.4-3.8,1.4c-2.5,0.1-4.5-1.8-4.6-4.3C261.4,234,261.4,233.9,261.4,233.8z"/>
		<path class="st3" d="M271.8,229.3h1.8l4.2,5.5v-5.5h1.9v8.9h-1.7l-4.3-5.7v5.7h-1.9L271.8,229.3z"/>
		<path class="st3" d="M198.9,244.6h2.1l2.4,3.8l2.4-3.8h2.1v8.9h-2v-5.8l-2.5,3.8h-0.1l-2.5-3.8v5.8h-1.9V244.6z"/>
		<path class="st3" d="M213,244.6h1.8l3.8,9h-2.1l-0.8-2H212l-0.8,2h-2L213,244.6z M215.1,249.8l-1.2-2.9l-1.2,2.9H215.1z"/>
		<path class="st3" d="M220,244.6h1.8l4.2,5.5v-5.5h2v8.9h-1.7l-4.3-5.7v5.7h-2V244.6z"/>
		<path class="st3" d="M233.2,244.6h1.8l3.8,9h-2.1l-0.8-2h-3.8l-0.8,2h-2L233.2,244.6z M235.2,249.8l-1.2-2.9l-1.2,2.9H235.2z"/>
		<path class="st3" d="M239.2,249.1L239.2,249.1c0-2.5,2-4.6,4.5-4.6c0,0,0.1,0,0.1,0c1.3-0.1,2.5,0.4,3.5,1.2l-1.2,1.5
			c-0.6-0.6-1.5-0.9-2.3-0.9c-1.5,0.1-2.6,1.3-2.6,2.8l0,0c-0.1,1.5,1,2.7,2.5,2.8c0.1,0,0.1,0,0.2,0c0.7,0,1.3-0.2,1.9-0.5v-1.3h-2
			v-1.7h3.9v3.9c-1.1,0.9-2.4,1.4-3.8,1.4c-2.5,0.1-4.6-1.8-4.7-4.2C239.2,249.3,239.2,249.2,239.2,249.1z"/>
		<path class="st3" d="M249.6,244.6h6.7v1.8h-4.8v1.8h4.2v1.8h-4.2v1.9h4.9v1.8h-6.8L249.6,244.6z"/>
		<path class="st3" d="M258.1,244.6h2.1l2.4,3.8l2.4-3.8h2.1v8.9h-2v-5.8l-2.5,3.8h0l-2.5-3.8v5.8h-1.9L258.1,244.6z"/>
		<path class="st3" d="M269.2,244.6h6.7v1.8h-4.8v1.8h4.2v1.8h-4.2v1.9h4.8v1.8h-6.8L269.2,244.6z"/>
		<path class="st3" d="M277.8,244.6h1.8l4.2,5.5v-5.5h1.9v8.9H284l-4.3-5.7v5.7h-1.9L277.8,244.6z"/>
		<path class="st3" d="M289.9,246.4h-2.7v-1.8h7.4v1.8h-2.7v7.1h-2L289.9,246.4z"/>
		<circle class="st4" cx="206.5" cy="442.7" r="0"/>
		<path class="st4" d="M243.2,430.2l-2.1,0.1c0.4-0.4,0.7-0.7,1.1-1C242.6,429.6,242.9,429.9,243.2,430.2z"/>
		<path class="st4" d="M243.2,430.2l-2.1,0.1c0.4-0.4,0.7-0.7,1.1-1C242.6,429.6,242.9,429.9,243.2,430.2z"/>
		<path class="st2" d="M243.9,477.9c30.6,0,61-5.9,89.3-17.5c-7.2-14.7-23.7-22.1-39.5-17.8c-15.2-25.9-48.5-34.5-74.4-19.3
			c-8,4.7-14.6,11.3-19.3,19.3c-16.5-4.6-33.9,3.9-40.4,19.8C186.6,472.7,215.1,477.9,243.9,477.9z"/>
		<path class="st1" d="M213.7,439.8L213.7,439.8c-0.1-1.7,1.2-3,2.9-3.1c0.1,0,0.1,0,0.2,0c1,0,1.9,0.4,2.5,1.2l-1.2,1
			c-0.3-0.4-0.8-0.7-1.3-0.7c-0.8,0-1.5,0.7-1.4,1.5c0,0,0,0,0,0l0,0c-0.1,0.8,0.5,1.5,1.3,1.6c0,0,0.1,0,0.1,0c0.5,0,1-0.3,1.3-0.7
			l1.2,0.9c-1,1.4-2.9,1.8-4.4,0.8C214.2,441.7,213.7,440.8,213.7,439.8L213.7,439.8z"/>
		<path class="st1" d="M220.1,436.8h1.6v4.5h2.9v1.4h-4.5V436.8z"/>
		<path class="st1" d="M224.8,439.8L224.8,439.8c0.1-1.8,1.6-3.1,3.4-3c1.6,0.1,2.9,1.4,3,3l0,0c-0.1,1.8-1.6,3.1-3.4,3
			C226.2,442.7,224.9,441.4,224.8,439.8z M229.5,439.8L229.5,439.8c0-0.8-0.6-1.6-1.4-1.6c0,0,0,0-0.1,0c-0.8,0-1.5,0.7-1.5,1.5
			c0,0,0,0,0,0.1l0,0c0,0.9,0.6,1.6,1.5,1.6c0,0,0,0,0,0C228.9,441.3,229.5,440.6,229.5,439.8C229.5,439.8,229.5,439.8,229.5,439.8
			L229.5,439.8z"/>
		<path class="st1" d="M232,440.1v-3.3h1.7v3.3c0,0.9,0.4,1.3,1.1,1.3s1.1-0.4,1.1-1.2v-3.4h1.7v3.3c0.2,1.4-0.8,2.6-2.2,2.8
			c-0.2,0-0.4,0-0.6,0c-1.3,0.2-2.6-0.8-2.8-2.1C232,440.5,232,440.3,232,440.1z"/>
		<path class="st1" d="M238.5,436.8h2.3c2.1,0,3.4,1.2,3.4,2.9l0,0c0,1.7-1.2,3-3.4,3h-2.3V436.8z M240.2,438.2v3h0.7
			c0.8,0.1,1.5-0.5,1.6-1.3c0-0.1,0-0.2,0-0.2l0,0c0-0.8-0.6-1.5-1.4-1.5c-0.1,0-0.2,0-0.2,0L240.2,438.2z"/>
		<path class="st1" d="M247.4,436.8h3.1c0.6,0,1.2,0.1,1.6,0.5c0.3,0.3,0.4,0.6,0.4,1l0,0c0,0.6-0.4,1.1-0.9,1.3
			c0.7,0.1,1.2,0.7,1.2,1.5l0,0c0,1-0.8,1.6-2.2,1.6h-3.1L247.4,436.8z M250.8,438.6c0-0.3-0.3-0.5-0.8-0.5H249v1h1
			C250.5,439.1,250.8,438.9,250.8,438.6L250.8,438.6z M250.2,440.3H249v1.1h1.3c0.5,0,0.8-0.2,0.8-0.5l0,0
			C251,440.5,250.8,440.3,250.2,440.3L250.2,440.3z"/>
		<path class="st1" d="M255.5,436.7h1.6l2.5,6h-1.8l-0.4-1.1h-2.3l-0.4,1.1H253L255.5,436.7z M256.9,440.4l-0.7-1.7l-0.7,1.7H256.9z
			"/>
		<path class="st1" d="M259.7,441.8l0.9-1.1c0.5,0.5,1.2,0.7,1.9,0.7c0.5,0,0.7-0.1,0.7-0.4l0,0c0-0.2-0.2-0.4-1-0.6
			c-1.3-0.3-2.2-0.6-2.2-1.9l0,0c0-1.1,0.9-1.9,2.3-1.9c0.9,0,1.8,0.2,2.5,0.8l-0.8,1.2c-0.5-0.4-1.1-0.6-1.7-0.6
			c-0.4,0-0.6,0.2-0.6,0.4l0,0c0,0.3,0.2,0.4,1,0.6c1.4,0.3,2.2,0.7,2.2,1.9l0,0c0,1.2-1,1.9-2.4,1.9
			C261.4,442.8,260.5,442.5,259.7,441.8z"/>
		<path class="st1" d="M265.7,436.8h4.8v1.4h-3.1v0.9h2.9v1.3h-2.9v0.9h3.2v1.4h-4.8L265.7,436.8z"/>
		<path class="st1" d="M271.4,436.8h2.3c2.1,0,3.4,1.2,3.4,2.9l0,0c0,1.7-1.2,3-3.4,3h-2.3V436.8z M273,438.2v3h0.7
			c0.8,0.1,1.5-0.5,1.6-1.3c0-0.1,0-0.2,0-0.2l0,0c0-0.8-0.6-1.5-1.4-1.5c-0.1,0-0.2,0-0.2,0L273,438.2z"/>
		<path class="st1" d="M277.5,441.1h1.7v1.7h-1.7V441.1z"/>
		<path class="st1" d="M216.1,449.2h1.6l2.5,6h-1.8l-0.4-1.1h-2.3l-0.4,1.1h-1.7L216.1,449.2z M217.5,452.8l-0.7-1.7l-0.7,1.7H217.5
			z"/>
		<path class="st1" d="M220.8,449.2h2.6c1.5,0,2.5,0.8,2.5,2.1l0,0c0,1.4-1.1,2.1-2.6,2.1h-0.8v1.7h-1.6V449.2z M223.2,452.2
			c0.6,0,0.9-0.3,0.9-0.8l0,0c0-0.5-0.4-0.8-1-0.8h-0.8v1.6L223.2,452.2z"/>
		<path class="st1" d="M226.5,449.2h1.6v6h-1.6V449.2z"/>
		<path class="st1" d="M231.4,452.2L231.4,452.2c0.1-1.8,1.6-3.1,3.4-3c1.6,0.1,2.9,1.4,3,3l0,0c-0.1,1.8-1.6,3.1-3.4,3
			C232.8,455.2,231.5,453.9,231.4,452.2z M236.1,452.2L236.1,452.2c0-0.8-0.6-1.6-1.4-1.6c0,0,0,0-0.1,0c-0.8,0-1.5,0.7-1.5,1.5
			c0,0,0,0,0,0.1l0,0c0,0.9,0.6,1.6,1.5,1.6c0,0,0,0,0,0C235.5,453.8,236.2,453.1,236.1,452.2C236.1,452.3,236.1,452.3,236.1,452.2z
			"/>
		<path class="st1" d="M238.7,449.2h2.8c0.7-0.1,1.4,0.2,1.9,0.6c0.4,0.4,0.6,0.9,0.5,1.4l0,0c0,0.8-0.5,1.6-1.2,1.8l1.4,2.1h-1.9
			l-1.2-1.8h-0.7v1.8h-1.6L238.7,449.2z M241.4,452.1c0.6,0,0.9-0.3,0.9-0.7l0,0c0-0.5-0.4-0.7-0.9-0.7h-1.1v1.4L241.4,452.1z"/>
		<path class="st1" d="M244.8,449.2h1.6v6h-1.6V449.2z"/>
		<path class="st1" d="M247.6,449.2h4.8v1.4h-3.1v0.9h2.9v1.3h-2.9v0.9h3.2v1.4h-4.8V449.2z"/>
		<path class="st1" d="M253.3,449.2h1.5l2.5,3.1v-3.1h1.6v6h-1.4l-2.6-3.3v3.3h-1.6V449.2z"/>
		<path class="st1" d="M261.4,450.7h-1.8v-1.4h5.2v1.4H263v4.5h-1.6L261.4,450.7z"/>
		<path class="st1" d="M265.5,449.2h4.8v1.4h-3.1v0.9h2.8v1.3h-2.9v0.9h3.2v1.4h-4.8L265.5,449.2z"/>
		<path class="st1" d="M271.2,449.2h2.3c2.1,0,3.4,1.2,3.4,2.9l0,0c0,1.7-1.2,3-3.4,3h-2.3V449.2z M272.9,450.7v3h0.7
			c0.8,0.1,1.5-0.5,1.6-1.3c0-0.1,0-0.2,0-0.2l0,0c0-0.8-0.6-1.5-1.4-1.5c-0.1,0-0.2,0-0.2,0L272.9,450.7z"/>
		<path class="st1" d="M277.3,453.5h1.7v1.7h-1.7L277.3,453.5z"/>
		<path class="st1" d="M190.5,461.7h1.6l2.5,6h-1.8l-0.4-1.1h-2.3l-0.4,1.1H188L190.5,461.7z M191.9,465.3l-0.7-1.7l-0.7,1.7H191.9z
			"/>
		<path class="st1" d="M194.6,464.7L194.6,464.7c0-1.7,1.4-3.1,3.1-3.1c0,0,0.1,0,0.1,0c0.9,0,1.7,0.3,2.4,0.9l-1,1.2
			c-0.4-0.4-0.9-0.6-1.4-0.6c-0.9,0-1.5,0.7-1.5,1.6c0,0,0,0,0,0l0,0c-0.1,0.9,0.6,1.6,1.5,1.7c0,0,0.1,0,0.1,0c0.4,0,0.7-0.1,1-0.2
			v-0.7h-1.2v-1.2h2.7v2.7c-0.7,0.6-1.6,0.9-2.6,0.9c-1.7,0.1-3.1-1.2-3.2-2.8C194.6,464.9,194.6,464.8,194.6,464.7z"/>
		<path class="st1" d="M201.4,461.7h1.6v6h-1.6L201.4,461.7z"/>
		<path class="st1" d="M204.1,461.7h1.6v4.5h2.9v1.4h-4.5V461.7z"/>
		<path class="st1" d="M209.4,461.7h4.8v1.4H211v0.9h2.9v1.3H211v0.9h3.2v1.4h-4.8V461.7z"/>
		<path class="st1" d="M217.4,461.7h2.6c1.5,0,2.5,0.8,2.5,2.1l0,0c0,1.4-1.1,2.1-2.6,2.1h-0.8v1.7h-1.7V461.7z M219.8,464.7
			c0.6,0,0.9-0.3,0.9-0.8l0,0c0-0.5-0.4-0.8-1-0.8H219v1.6L219.8,464.7z"/>
		<path class="st1" d="M223.1,461.7h4.8v1.4h-3.1v0.9h2.9v1.3h-2.9v0.9h3.2v1.4h-4.8L223.1,461.7z"/>
		<path class="st1" d="M228.8,461.7h2.8c0.7-0.1,1.4,0.2,1.9,0.6c0.4,0.4,0.6,0.9,0.5,1.4l0,0c0,0.8-0.5,1.6-1.2,1.8l1.4,2.1h-1.9
			l-1.2-1.8h-0.7v1.8h-1.6L228.8,461.7z M231.6,464.6c0.6,0,0.9-0.3,0.9-0.7l0,0c0-0.5-0.4-0.7-0.9-0.7h-1.1v1.4L231.6,464.6z"/>
		<path class="st1" d="M234.5,466.8l0.9-1.1c0.5,0.5,1.2,0.7,1.9,0.7c0.4,0,0.7-0.1,0.7-0.4l0,0c0-0.2-0.2-0.4-1-0.6
			c-1.3-0.3-2.2-0.6-2.2-1.9l0,0c0-1.1,0.9-1.9,2.3-1.9c0.9,0,1.8,0.2,2.4,0.8l-0.8,1.2c-0.5-0.4-1.1-0.6-1.7-0.6
			c-0.4,0-0.6,0.2-0.6,0.4l0,0c0,0.3,0.2,0.4,1,0.6c1.4,0.3,2.2,0.7,2.2,1.9l0,0c0,1.2-1,1.9-2.4,1.9
			C236.2,467.8,235.2,467.4,234.5,466.8z"/>
		<path class="st1" d="M240.3,464.7L240.3,464.7c0.1-1.8,1.6-3.1,3.4-3c1.6,0.1,2.9,1.4,3,3l0,0c-0.1,1.8-1.6,3.1-3.4,3
			C241.7,467.6,240.4,466.3,240.3,464.7z M245,464.7L245,464.7c0-0.8-0.6-1.6-1.4-1.6c0,0,0,0-0.1,0c-0.8,0-1.5,0.7-1.5,1.5
			c0,0,0,0,0,0.1l0,0c0,0.9,0.6,1.6,1.5,1.6c0,0,0,0,0,0C244.3,466.3,245,465.6,245,464.7C245,464.8,245,464.7,245,464.7L245,464.7z
			"/>
		<path class="st1" d="M247.5,461.7h1.5l2.4,3.1v-3.1h1.6v6h-1.4l-2.6-3.3v3.3h-1.6L247.5,461.7z"/>
		<path class="st1" d="M256.3,461.7h1.6l2.5,6h-1.8l-0.4-1.1h-2.3l-0.4,1.1h-1.7L256.3,461.7z M257.7,465.3l-0.7-1.7l-0.7,1.7H257.7
			z"/>
		<path class="st1" d="M261,461.7h1.6v4.5h2.9v1.4H261V461.7z"/>
		<path class="st1" d="M266.3,461.7h1.6v6h-1.6V461.7z"/>
		<path class="st1" d="M268.8,466.5l3-3.4h-2.9v-1.4h5.1v1.2l-3,3.4h3v1.4h-5.2L268.8,466.5z"/>
		<path class="st1" d="M277,461.7h1.6l2.5,6h-1.8l-0.4-1.1h-2.3l-0.4,1.1h-1.7L277,461.7z M278.4,465.3l-0.7-1.7l-0.7,1.7H278.4z"/>
		<path class="st1" d="M282.4,463.2h-1.8v-1.4h5.2v1.4H284v4.5h-1.6L282.4,463.2z"/>
		<path class="st1" d="M286.6,461.7h1.6v6h-1.6V461.7z"/>
		<path class="st1" d="M289.1,464.7L289.1,464.7c0.1-1.8,1.6-3.1,3.4-3c1.6,0.1,2.9,1.4,3,3l0,0c-0.1,1.8-1.6,3.1-3.4,3
			C290.5,467.6,289.2,466.3,289.1,464.7z M293.9,464.7L293.9,464.7c0-0.8-0.6-1.6-1.4-1.6c0,0,0,0-0.1,0c-0.8,0-1.5,0.7-1.5,1.5
			c0,0,0,0,0,0.1l0,0c0,0.9,0.6,1.6,1.5,1.6c0,0,0,0,0,0C293.2,466.3,293.9,465.6,293.9,464.7C293.9,464.7,293.9,464.7,293.9,464.7z
			"/>
		<path class="st1" d="M296.4,461.7h1.5l2.5,3.1v-3.1h1.6v6h-1.4l-2.6-3.3v3.3h-1.6L296.4,461.7z"/>
		<path class="st1" d="M302.9,466h1.7v1.7h-1.7V466z"/>
		<path class="st0" d="M22.7,154c-11.9,0-21.5,9.6-21.5,21.6s9.6,21.5,21.5,21.5s21.5-9.6,21.5-21.5S34.6,154,22.7,154
			C22.7,154,22.7,154,22.7,154z"/>
		<path class="st0" d="M40.2,329.8c-11.9,0-21.5,9.6-21.5,21.5s9.6,21.6,21.5,21.6s21.5-9.6,21.5-21.6l0,0
			C61.8,339.4,52.2,329.8,40.2,329.8z"/>
		<path class="st0" d="M371.3,418c-11.9,0-21.6,9.6-21.6,21.5s9.6,21.6,21.5,21.6s21.6-9.6,21.6-21.5c0,0,0,0,0,0
			C392.8,427.6,383.2,418,371.3,418z"/>
		<path class="st0" d="M452.7,329.8c-11.9,0-21.6,9.6-21.6,21.5s9.6,21.6,21.5,21.6s21.6-9.6,21.6-21.5c0,0,0,0,0,0
			C474.2,339.4,464.6,329.8,452.7,329.8z"/>
		<path class="st0" d="M401.5,46.5c-11.9,0-21.6,9.6-21.6,21.5s9.6,21.6,21.5,21.6S423,79.9,423,68c0,0,0,0,0,0
			C423,56.1,413.3,46.5,401.5,46.5z"/>
		<path class="st0" d="M326.9,1.1c-11.9,0-21.6,9.6-21.6,21.5s9.6,21.6,21.5,21.6c11.9,0,21.6-9.6,21.6-21.5c0,0,0,0,0,0
			C348.5,10.8,338.8,1.1,326.9,1.1z"/>
		<path class="st0" d="M135.8,426.5c-11.9,0-21.5,9.6-21.5,21.5s9.6,21.6,21.5,21.6s21.6-9.6,21.6-21.6l0,0
			C157.4,436.2,147.7,426.5,135.8,426.5z"/>
		<path class="st0" d="M443.6,96.5c-11.9,0-21.6,9.6-21.6,21.5s9.6,21.6,21.5,21.6s21.6-9.6,21.6-21.5c0,0,0,0,0,0
			C465.2,106.2,455.5,96.5,443.6,96.5z"/>
		<path class="st0" d="M469.1,150.9c-11.9,0-21.6,9.6-21.6,21.5s9.6,21.6,21.5,21.6c11.9,0,21.6-9.6,21.6-21.5l0,0
			C490.7,160.5,481.1,150.9,469.1,150.9z"/>
		<path class="st0" d="M75.8,61.2c-11.9,0-21.5,9.6-21.5,21.5s9.6,21.5,21.6,21.5s21.5-9.6,21.5-21.5S87.8,61.2,75.8,61.2
			C75.8,61.2,75.8,61.2,75.8,61.2z"/>
		<path class="st0" d="M166.5,1.1c-11.9,0-21.5,9.6-21.5,21.5s9.6,21.6,21.5,21.6s21.6-9.6,21.6-21.6S178.4,1.1,166.5,1.1L166.5,1.1
			z"/>
		<path class="st3" d="M469.1,195.1c-12.5,0-22.7-10.2-22.7-22.7c0-12.5,10.2-22.7,22.7-22.7s22.7,10.2,22.7,22.7v0
			C491.8,184.9,481.7,195.1,469.1,195.1z M469.1,152c-11.3,0-20.4,9.1-20.4,20.4c0,11.3,9.1,20.4,20.4,20.4
			c11.3,0,20.4-9.1,20.4-20.4l0,0C489.6,161.1,480.4,152,469.1,152L469.1,152z"/>
		<polygon class="st3" points="468.4,163.7 462.1,163.7 462.1,174.5 459.1,174.5 459.1,161.3 468.4,161.3 		"/>
		<polygon class="st3" points="473.6,165.9 473.6,168.3 467.3,168.3 467.3,179.1 464.4,179.1 464.4,165.9 		"/>
		<rect x="469.6" y="170.6" class="st3" width="9.2" height="13.2"/>
		<path class="st3" d="M22.7,198.2C10.2,198.2,0,188.1,0,175.5s10.2-22.7,22.7-22.7s22.7,10.2,22.7,22.7l0,0
			C45.3,188.1,35.2,198.2,22.7,198.2z M22.7,155.1c-11.3,0-20.4,9.1-20.4,20.4c0,11.3,9.1,20.4,20.4,20.4s20.4-9.1,20.4-20.4
			C43.1,164.3,34,155.1,22.7,155.1z"/>
		<path class="st3" d="M32.2,165.8H13.7c-1,0-1.9,0.9-1.9,1.9v14.2h22.3v-14.2C34.1,166.6,33.3,165.8,32.2,165.8z M32.6,181.2H13.4
			v-13.6h19.2V181.2z"/>
		<path class="st3" d="M8.4,181.2h29.1l0,0v0.2c0,1.1-0.9,2-2,2H10.4c-1.1,0-2-0.9-2-2L8.4,181.2L8.4,181.2z"/>
		<rect x="15.1" y="171.5" class="st3" width="15.8" height="4.4"/>
		<rect x="15.1" y="177" class="st3" width="7.9" height="0.9"/>
		<rect x="15.1" y="169" class="st3" width="3.6" height="0.9"/>
		<rect x="15.1" y="179" class="st3" width="7.9" height="0.9"/>
		<rect x="24.5" y="177" class="st3" width="6.5" height="2.8"/>
		<rect x="24.5" y="179" class="st3" width="6.5" height="0.9"/>
		<path class="st3" d="M452.7,328.7c-12.5,0-22.7,10.2-22.7,22.7c0,12.5,10.2,22.7,22.7,22.7c12.5,0,22.7-10.2,22.7-22.7l0,0
			C475.4,338.8,465.2,328.7,452.7,328.7z M452.7,371.8c-11.3,0-20.4-9.1-20.4-20.4c0-11.3,9.1-20.4,20.4-20.4
			c11.3,0,20.4,9.1,20.4,20.4c0,0,0,0,0,0C473.1,362.6,464,371.8,452.7,371.8L452.7,371.8z"/>
		<path class="st3" d="M443.9,355.5h-1.1c-1.2,0-2.2,1-2.2,2.2l0,0v1.1c0,1.2,1,2.2,2.2,2.2c0,0,0,0,0,0h1.1c1.2,0,2.2-1,2.2-2.2
			c0,0,0,0,0,0v-1.1C446.1,356.5,445.1,355.5,443.9,355.5L443.9,355.5z M445.4,359.6c0,0.4-0.3,0.8-0.8,0.8H442
			c-0.4,0-0.8-0.3-0.8-0.8V357c0-0.4,0.3-0.8,0.8-0.8h2.6c0.4,0,0.8,0.3,0.8,0.8L445.4,359.6z"/>
		<path class="st3" d="M444.6,354.8H442c-1.2,0-2.2,1-2.2,2.2l0,0v2.6c0,1.2,1,2.2,2.2,2.2l0,0h2.6c1.2,0,2.2-1,2.2-2.2l0,0V357
			C446.9,355.8,445.9,354.8,444.6,354.8z M445.4,359.6c0,0.4-0.3,0.8-0.8,0.8H442c-0.4,0-0.8-0.3-0.8-0.8V357c0-0.4,0.3-0.8,0.8-0.8
			h2.6c0.4,0,0.8,0.3,0.8,0.8L445.4,359.6z"/>
		<path class="st3" d="M453.2,358.3h-1.1c-1.2,0-2.2,1-2.2,2.2v1.1c0,1.2,1,2.2,2.2,2.2l0,0h1.1c1.2,0,2.2-1,2.2-2.2l0,0v-1.1
			C455.5,359.3,454.5,358.3,453.2,358.3z M454.7,362.4c0,0.4-0.3,0.8-0.8,0.8h-2.6c-0.4,0-0.8-0.3-0.8-0.8v-2.6
			c0-0.4,0.3-0.8,0.8-0.8h2.6c0.4,0,0.7,0.3,0.8,0.8L454.7,362.4z"/>
		<path class="st3" d="M454,357.6h-2.6c-1.2,0-2.2,1-2.2,2.2v2.6c0,1.2,1,2.2,2.2,2.2l0,0h2.6c1.2,0,2.2-1,2.2-2.2l0,0v-2.6
			C456.2,358.6,455.2,357.6,454,357.6z M454.8,362.4c0,0.4-0.3,0.8-0.8,0.8h-2.6c-0.4,0-0.8-0.3-0.8-0.8v-2.6c0-0.4,0.3-0.8,0.8-0.8
			h2.6c0.4,0,0.7,0.3,0.8,0.8V362.4z"/>
		<path class="st3" d="M462.6,355.5h-1.1c-1.2,0-2.2,1-2.2,2.2l0,0v1.1c0,1.2,1,2.2,2.2,2.2l0,0h1.1c1.2,0,2.2-1,2.2-2.2l0,0v-1.1
			C464.8,356.5,463.8,355.5,462.6,355.5L462.6,355.5z M464.1,359.6c0,0.4-0.3,0.8-0.8,0.8h-2.6c-0.4,0-0.8-0.3-0.8-0.8V357
			c0-0.4,0.3-0.8,0.8-0.8h2.6c0.4,0,0.8,0.3,0.8,0.8V359.6z"/>
		<path class="st3" d="M463.3,354.8h-2.6c-1.2,0-2.2,1-2.2,2.2l0,0v2.6c0,1.2,1,2.2,2.2,2.2l0,0h2.6c1.2,0,2.2-1,2.2-2.2l0,0V357
			C465.6,355.8,464.6,354.8,463.3,354.8z M464.1,359.6c0,0.4-0.3,0.8-0.8,0.8h-2.6c-0.4,0-0.8-0.3-0.8-0.8V357
			c0-0.4,0.3-0.8,0.8-0.8h2.6c0.4,0,0.8,0.3,0.8,0.8V359.6z"/>
		<path class="st3" d="M462.8,355.5h-1.5v-4.1h-17.2v4.1h-1.5v-4.8c0-0.4,0.3-0.8,0.8-0.8H462c0.4,0,0.8,0.3,0.8,0.8L462.8,355.5z"
			/>
		<rect x="451.9" y="344.2" class="st3" width="1.5" height="14.1"/>
		<path class="st3" d="M453,337.6h-0.5c-1.9,0-3.4,1.5-3.5,3.4c0,0,0,0,0,0.1v0.5c0,1.7,1.3,3.1,2.9,3.4c0.2,0,0.3,0,0.5,0h0.6
			c0.2,0,0.3,0,0.5,0c1.7-0.2,2.9-1.7,2.9-3.4V341C456.4,339.1,454.9,337.6,453,337.6z M455.7,342.7c0,0.8-0.7,1.5-1.5,1.5h-2.8
			c-0.8,0-1.5-0.7-1.5-1.5v-2.8c0-0.8,0.7-1.5,1.5-1.5h2.8c0.8,0,1.5,0.7,1.5,1.5V342.7z"/>
		<path class="st3" d="M454.1,336.8h-2.8c-1.7,0-3,1.3-3,3v2.8c0,1.7,1.3,3,3,3h2.8c1.7,0,3-1.3,3-3v-2.8
			C457.1,338.2,455.8,336.8,454.1,336.8z M455.6,342.7c0,0.8-0.7,1.5-1.5,1.5h-2.8c-0.8,0-1.5-0.7-1.5-1.5v-2.8
			c0-0.8,0.7-1.5,1.5-1.5h2.8c0.8,0,1.5,0.7,1.5,1.5V342.7z"/>
		<path class="st3" d="M135.8,470.8c-12.5,0-22.7-10.2-22.7-22.7c0-12.5,10.2-22.7,22.7-22.7c12.5,0,22.7,10.2,22.7,22.7l0,0
			C158.5,460.6,148.3,470.7,135.8,470.8z M135.8,427.6c-11.3,0-20.4,9.1-20.4,20.4s9.1,20.4,20.4,20.4c11.3,0,20.4-9.1,20.4-20.4
			c0,0,0,0,0,0C156.2,436.8,147.1,427.7,135.8,427.6L135.8,427.6z"/>
		<rect x="129.6" y="451.7" class="st3" width="3.2" height="7.1"/>
		<rect x="124.4" y="454.8" class="st3" width="3.2" height="3.9"/>
		<rect x="134.7" y="448.5" class="st3" width="3.2" height="10.2"/>
		<rect x="139.9" y="449.3" class="st3" width="3.2" height="9.5"/>
		<rect x="145" y="444.8" class="st3" width="3.2" height="13.9"/>
		<polygon class="st3" points="116,453.4 115.1,452.2 133,439.2 140,443.2 147,438.4 147.9,439.6 140,445 133.1,441 		"/>
		<polygon class="st3" points="148.4,441.8 150.8,436.7 145.2,437.1 		"/>
		<path class="st3" d="M443.6,140.7c-12.5,0-22.7-10.2-22.7-22.7c0-12.5,10.2-22.7,22.7-22.7c12.5,0,22.7,10.2,22.7,22.7v0
			C466.3,130.6,456.2,140.7,443.6,140.7z M443.6,97.6c-11.3,0-20.4,9.1-20.4,20.4c0,11.3,9.1,20.4,20.4,20.4
			c11.3,0,20.4-9.1,20.4-20.4v0C464,106.8,454.9,97.7,443.6,97.6L443.6,97.6z"/>
		<path class="st3" d="M443.6,140.7c-12.5,0-22.7-10.2-22.7-22.7c0-12.5,10.2-22.7,22.7-22.7c12.5,0,22.7,10.2,22.7,22.7v0
			C466.3,130.6,456.2,140.7,443.6,140.7z M443.6,97.6c-11.3,0-20.4,9.1-20.4,20.4c0,11.3,9.1,20.4,20.4,20.4
			c11.3,0,20.4-9.1,20.4-20.4v0C464,106.8,454.9,97.7,443.6,97.6L443.6,97.6z"/>
		<path class="st3" d="M454.3,126.2H433v-16.3h21.3V126.2z M434.8,124.4h17.6v-12.6h-17.6V124.4z"/>
		<polygon class="st3" points="443.6,121.3 433.3,111.5 434.5,110.2 443.6,118.7 452.7,110.2 454,111.5 		"/>
		<path class="st3" d="M40.2,374c-12.5,0-22.7-10.2-22.7-22.7s10.2-22.7,22.7-22.7s22.7,10.2,22.7,22.7l0,0
			C62.9,363.8,52.8,374,40.2,374z M40.2,330.9c-11.3,0-20.4,9.1-20.4,20.4s9.1,20.4,20.4,20.4s20.4-9.1,20.4-20.4l0,0
			C60.7,340.1,51.5,330.9,40.2,330.9L40.2,330.9z"/>
		<path class="st3" d="M49.4,343.8c-0.2-2.6-4.1-4.5-9.2-4.5s-9,1.9-9.2,4.5c0,0.1,0,0.1,0,0.2v14.8c0,2.7,4,4.7,9.2,4.7
			s9.2-2,9.2-4.7V344C49.5,343.9,49.5,343.8,49.4,343.8z M47.6,349c0,1.2-2.8,2.8-7.3,2.8s-7.3-1.6-7.3-2.8v-2.1
			c2.2,1.3,4.8,1.9,7.3,1.8c2.6,0.1,5.1-0.5,7.3-1.8V349z M47.6,354c0,1.2-2.8,2.8-7.3,2.8s-7.3-1.6-7.3-2.8v-2.1
			c2.2,1.3,4.8,1.9,7.3,1.8c2.6,0.1,5.1-0.5,7.3-1.8V354z M47.6,358.8c0,1.2-2.8,2.8-7.3,2.8s-7.3-1.6-7.3-2.8v-1.9
			c2.2,1.3,4.8,1.9,7.3,1.8c2.6,0.1,5.1-0.5,7.3-1.8V358.8z M40.3,341.2c4.3,0,7,1.5,7.3,2.6c0,0.1,0,0.1,0,0.2
			c0,0.3-0.1,0.5-0.3,0.7c-0.4,0.4-0.8,0.7-1.3,0.9c-1.8,0.8-3.7,1.2-5.7,1.1c-2,0.1-3.9-0.3-5.7-1.1c-0.5-0.2-0.9-0.5-1.3-0.9
			c-0.2-0.2-0.3-0.5-0.3-0.7c0-0.1,0-0.1,0-0.2C33.2,342.6,36,341.1,40.3,341.2L40.3,341.2z"/>
		<path class="st3" d="M371.3,416.9c-12.5,0-22.7,10.2-22.6,22.7c0,12.5,10.2,22.7,22.7,22.6c12.5,0,22.6-10.2,22.6-22.7
			C394,427,383.8,416.9,371.3,416.9z M371.3,460c-11.3,0-20.4-9.1-20.4-20.4c0-11.3,9.1-20.4,20.4-20.4c11.3,0,20.4,9.1,20.4,20.4
			c0,0,0,0,0,0C391.7,450.8,382.6,460,371.3,460z"/>
		<path class="st3" d="M371,439.6v-9.2h-0.5c-5.4,0-9.7,4.4-9.7,9.7c0,2.5,1,5,2.8,6.8l0.1,0.1c1.8,1.9,4.4,3,7.1,3.1
			c2.6,0,5.1-1.1,6.8-3.1c1.7-1.9,2.7-4.4,2.7-6.9v-0.5H371z M370.8,449c-2.4,0-4.7-1-6.4-2.8l-0.1-0.1c-1.6-1.6-2.5-3.8-2.5-6.1
			c0-4.6,3.6-8.4,8.2-8.7v9.2h9.2C378.9,445.2,375.1,449,370.8,449L370.8,449z"/>
		<path class="st3" d="M373.8,426.9h-0.7v10.5h10.5v-0.7C383.6,431.3,379.2,426.9,373.8,426.9z M374.4,435.2v-2.5l3.5-3.5
			c0.5,0.3,1,0.6,1.5,1L374.4,435.2z M374.4,428.2c0.8,0.1,1.5,0.2,2.2,0.5l-2.2,2.2V428.2z M380.2,431.2c0.5,0.5,0.9,1.1,1.2,1.8
			l-3.1,3.1h-3L380.2,431.2z M380.1,436.1l1.8-1.8c0.2,0.6,0.3,1.2,0.4,1.8H380.1z"/>
		<path class="st3" d="M371.1,439.4v-9.2h-0.7c-5.5,0-9.9,4.4-9.8,9.9c0,2.6,1,5.1,2.8,6.9l0.1,0.1l0.1,0.1c1.9,1.9,4.4,3,7,3
			c2.6,0,5.1-1.1,6.9-3.1c1.7-1.9,2.7-4.4,2.7-7v-0.7L371.1,439.4z M370.7,448.9c-2.4,0-4.6-1-6.2-2.7l-0.1-0.1
			c-1.6-1.6-2.4-3.8-2.5-6c0-4.5,3.4-8.2,7.9-8.5v9.2h9.2C378.8,445.2,375.2,448.8,370.7,448.9z"/>
		<path class="st3" d="M379,440.7c-0.2,4.5-3.8,8-8.3,8.1c-2.4,0-4.6-1-6.2-2.7l5.4-5.4H379z"/>
		<path class="st3" d="M166.5,45.4c-12.5,0-22.7-10.2-22.7-22.7S154,0,166.5,0s22.7,10.2,22.7,22.7c0,0,0,0,0,0
			C189.2,35.2,179,45.3,166.5,45.4z M166.5,2.2c-11.3,0-20.4,9.1-20.4,20.4s9.1,20.4,20.4,20.4s20.4-9.1,20.4-20.4c0,0,0,0,0,0
			C186.9,11.4,177.8,2.3,166.5,2.2z"/>
		<rect x="164.1" y="23.3" class="st3" width="5.1" height="1.7"/>
		<rect x="160.9" y="19.7" class="st3" width="10.9" height="0.8"/>
		<rect x="160.9" y="21.2" class="st3" width="10.9" height="0.8"/>
		<rect x="160.9" y="11.1" class="st3" width="11.1" height="6.8"/>
		<rect x="161.1" y="28.4" class="st3" width="10.9" height="2.2"/>
		<path class="st3" d="M172.8,8.2h-12.7c-1.3,0-2.4,1.1-2.4,2.4v22.4c0,1.3,1.1,2.4,2.4,2.4h12.7c1.3,0,2.4-1.1,2.4-2.4V10.7
			C175.3,9.3,174.2,8.3,172.8,8.2z M169,34.1h-5v-0.7h5V34.1z M173.8,32h-14.6V9.7h14.6V32z"/>
		<rect x="164.1" y="23.3" class="st3" width="5.1" height="1.7"/>
		<rect x="160.9" y="19.7" class="st3" width="10.9" height="0.8"/>
		<rect x="160.9" y="21.2" class="st3" width="10.9" height="0.8"/>
		<rect x="160.9" y="11.1" class="st3" width="11.1" height="6.8"/>
		<rect x="161.1" y="28.4" class="st3" width="10.9" height="2.2"/>
		<rect x="160.9" y="11.1" class="st3" width="11.1" height="6.8"/>
		<rect x="160.9" y="19.7" class="st3" width="10.9" height="0.8"/>
		<rect x="160.9" y="21.2" class="st3" width="10.9" height="0.8"/>
		<rect x="161.1" y="28.4" class="st3" width="10.9" height="2.2"/>
		<rect x="164.1" y="23.3" class="st3" width="5.1" height="1.7"/>
		<path class="st3" d="M401.5,90.7c-12.5,0-22.7-10.2-22.7-22.7s10.2-22.7,22.7-22.7c12.5,0,22.7,10.1,22.7,22.7
			C424.1,80.5,414,90.7,401.5,90.7z M401.5,47.6c-11.3,0-20.4,9.1-20.4,20.4s9.1,20.4,20.4,20.4s20.4-9.1,20.4-20.4c0,0,0,0,0,0
			C421.9,56.7,412.7,47.6,401.5,47.6z"/>
		<path class="st3" d="M412.4,66c0-0.1-0.1-0.2-0.2-0.2h-10.4c-0.1,0-0.2,0.1-0.2,0.2c0,1.3,0,2.7,0,4.1c0,0.2,0,0.2,0.2,0.2h5.8
			c0.2,0,0.2,0,0.2,0.2c-0.3,1.4-1.1,2.6-2.4,3.4c-1.5,1-3.4,1.3-5.2,0.9c-2.1-0.4-3.8-1.8-4.7-3.7c-0.1-0.3-0.2-0.6-0.4-0.9
			c0,0,0-0.1,0-0.1c-0.5-1.5-0.5-3.1,0.1-4.5c0.8-2.5,3.1-4.3,5.7-4.5c1.8-0.3,3.7,0.3,5,1.6c0.1,0.1,0.1,0,0.2,0l2.9-2.9
			c0.2-0.2,0.2-0.1,0-0.3l0,0c-1.6-1.4-3.6-2.4-5.7-2.7c-4.9-0.8-9.8,1.8-12,6.3c-0.6,1.2-1,2.6-1.1,4c-0.1,1.4,0,2.8,0.4,4.1
			c0.1,0.3,0.2,0.7,0.3,1c0.1,0.3,0.3,0.7,0.5,1c0,0,0,0.1,0,0.1c1.6,3.1,4.5,5.3,7.9,6c1.6,0.3,3.3,0.3,4.9-0.1
			c3-0.6,5.5-2.5,6.9-5.2c0.6-1.2,1-2.6,1.2-4C412.6,68.6,412.6,67.3,412.4,66z"/>
		<path class="st3" d="M326.9,45.4c-12.5,0-22.7-10.2-22.7-22.7c0-12.5,10.2-22.7,22.7-22.7s22.7,10.2,22.7,22.7c0,0,0,0,0,0
			C349.6,35.2,339.4,45.3,326.9,45.4z M326.9,2.2c-11.3,0-20.4,9.1-20.4,20.4c0,11.3,9.1,20.4,20.4,20.4c11.3,0,20.4-9.1,20.4-20.4
			c0,0,0,0,0,0C347.3,11.4,338.2,2.3,326.9,2.2z"/>
		<path class="st3" d="M332.5,15.5h-2c-1.6,0-1.9,0.8-1.9,1.9v2.5h3.8l-0.5,3.8h-3.3v9.8h-4v-9.8h-3.3v-3.8h3.3V17
			c0-3.3,2-5.1,4.9-5.1c1,0,2,0,3,0.1L332.5,15.5z"/>
		<path class="st3" d="M75.8,105.5c-12.5,0-22.7-10.2-22.7-22.7s10.2-22.7,22.7-22.7s22.7,10.2,22.7,22.7
			C98.5,95.3,88.4,105.4,75.8,105.5z M75.8,62.3c-11.3,0-20.4,9.1-20.4,20.4s9.1,20.4,20.4,20.4s20.4-9.1,20.4-20.4l0,0
			C96.3,71.5,87.1,62.4,75.8,62.3z"/>
		<rect x="66" y="75.9" class="st3" width="3.8" height="0.7"/>
		<rect x="66" y="77.3" class="st3" width="3.8" height="0.7"/>
		<rect x="66" y="78.8" class="st3" width="3.8" height="0.7"/>
		<rect x="66" y="80.9" class="st3" width="3.8" height="0.7"/>
		<rect x="66" y="74.5" class="st3" width="5.2" height="0.7"/>
		<rect x="72.5" y="74.5" class="st3" width="4.5" height="2.5"/>
		<polygon class="st3" points="79.8,71.9 79.8,77 78.8,77 78.8,73 64.3,73 64.3,83.1 70.5,83.1 70.5,84.2 63.3,84.2 63.3,71.9 		"/>
		<rect x="74.3" y="80.6" class="st3" width="5.2" height="0.7"/>
		<rect x="74.3" y="82" class="st3" width="3.8" height="0.7"/>
		<rect x="74.3" y="83.4" class="st3" width="3.8" height="0.7"/>
		<polygon class="st3" points="79.8,78.1 79.8,79.1 72.5,79.1 72.5,84.2 71.6,84.2 71.6,78.1 		"/>
		<rect x="66" y="75.9" class="st3" width="3.8" height="0.7"/>
		<rect x="66" y="77.3" class="st3" width="3.8" height="0.7"/>
		<rect x="66" y="78.8" class="st3" width="3.8" height="0.7"/>
		<rect x="66" y="80.9" class="st3" width="3.8" height="0.7"/>
		<rect x="66" y="74.5" class="st3" width="5.2" height="0.7"/>
		<rect x="72.5" y="74.5" class="st3" width="4.5" height="2.5"/>
		<rect x="66" y="74.5" class="st3" width="5.2" height="0.7"/>
		<rect x="66" y="75.9" class="st3" width="3.8" height="0.7"/>
		<rect x="66" y="77.3" class="st3" width="3.8" height="0.7"/>
		<rect x="66" y="78.8" class="st3" width="3.8" height="0.7"/>
		<rect x="66" y="80.9" class="st3" width="3.8" height="0.7"/>
		<rect x="72.5" y="74.5" class="st3" width="4.5" height="2.5"/>
		<polygon class="st3" points="76.9,78.1 76.9,79.1 72.5,79.1 72.5,81.6 72.5,81.6 72.5,78.1 		"/>
		<rect x="74.3" y="80.6" class="st3" width="2.7" height="0.7"/>
		<rect x="69.3" y="84.2" class="st3" width="1.2" height="2.2"/>
		<rect x="71.6" y="84.2" class="st3" width="1" height="2.2"/>
		<rect x="67.2" y="86.3" class="st3" width="3.3" height="0.7"/>
		<rect x="74.3" y="80.6" class="st3" width="5.2" height="0.7"/>
		<rect x="74.3" y="82" class="st3" width="3.8" height="0.7"/>
		<rect x="74.3" y="83.4" class="st3" width="3.8" height="0.7"/>
		<rect x="74.3" y="84.9" class="st3" width="3.8" height="0.7"/>
		<rect x="74.3" y="87" class="st3" width="3.8" height="0.7"/>
		<rect x="80.7" y="80.6" class="st3" width="4.5" height="7.2"/>
		<path class="st3" d="M71.6,78v12.3h16.5V78H71.6z M87.1,89.2H72.5V79.1h14.6V89.2z"/>
		<rect x="74.3" y="80.6" class="st3" width="5.2" height="0.7"/>
		<rect x="74.3" y="82" class="st3" width="3.8" height="0.7"/>
		<rect x="74.3" y="83.4" class="st3" width="3.8" height="0.7"/>
		<rect x="74.3" y="84.9" class="st3" width="3.8" height="0.7"/>
		<rect x="74.3" y="87" class="st3" width="3.8" height="0.7"/>
		<rect x="80.7" y="80.6" class="st3" width="4.5" height="7.2"/>
		<rect x="74.3" y="80.6" class="st3" width="5.2" height="0.7"/>
		<rect x="74.3" y="82" class="st3" width="3.8" height="0.7"/>
		<rect x="74.3" y="83.4" class="st3" width="3.8" height="0.7"/>
		<rect x="74.3" y="84.9" class="st3" width="3.8" height="0.7"/>
		<rect x="74.3" y="87" class="st3" width="3.8" height="0.7"/>
		<rect x="80.7" y="80.6" class="st3" width="4.5" height="7.2"/>
		<rect x="77.6" y="90.3" class="st3" width="4.5" height="2.2"/>
		<rect x="75.4" y="92.4" class="st3" width="8.8" height="0.7"/>
	</g>
</g>
</svg>
