<?xml version="1.0" encoding="utf-8"?>
<!-- Generator: Adobe Illustrator 21.0.0, SVG Export Plug-In . SVG Version: 6.00 Build 0)  -->
<svg version="1.1" id="Layer_1" xmlns="http://www.w3.org/2000/svg" xmlns:xlink="http://www.w3.org/1999/xlink" x="0px" y="0px"
	 viewBox="0 0 293.8 294" style="enable-background:new 0 0 293.8 294;" xml:space="preserve">
<style type="text/css">
	.st0{fill:#22D3C5;}
	.st1{fill:#FFFFFF;}
	.st2{fill:#DEDDDE;}
	.st3{fill:#2F2933;}
</style>
<title>CirclesArtboard 16</title>
<g>
	<path class="st0" d="M286.4,140.4c-3.3-71.9-61-129.7-133-133v133H286.4z"/>
	<path class="st1" d="M140.4,7.4c-71.9,3.3-129.7,61-133,133h133V7.4z"/>
	<path class="st2" d="M146.9,286.6c75,0,136.1-59,139.5-133.1H7.4C10.8,227.6,72,286.6,146.9,286.6z"/>
	<g>
		<g>
			<path class="st3" d="M52.5,75.3L52.5,75.3c0-2.4,1.8-4.3,4.3-4.3c1.6,0,2.5,0.5,3.2,1.3l-1.2,1.3c-0.6-0.6-1.3-0.9-2.1-0.9
				c-1.4,0-2.4,1.2-2.4,2.6v0c0,1.4,1,2.6,2.4,2.6c0.9,0,1.5-0.4,2.2-1l1.2,1.2c-0.8,0.9-1.8,1.5-3.4,1.5
				C54.3,79.6,52.5,77.7,52.5,75.3z"/>
			<path class="st3" d="M61,75.3L61,75.3c0-2.4,1.8-4.3,4.4-4.3c2.5,0,4.4,1.9,4.4,4.2v0c0,2.3-1.8,4.3-4.4,4.3
				C62.8,79.6,61,77.7,61,75.3z M67.8,75.3L67.8,75.3c0-1.4-1-2.6-2.5-2.6s-2.5,1.2-2.5,2.6v0c0,1.4,1,2.6,2.5,2.6
				S67.8,76.7,67.8,75.3z"/>
			<path class="st3" d="M71.3,71.2H73l3.9,5.1v-5.1h1.8v8.2h-1.5l-4-5.2v5.2h-1.8V71.2z"/>
			<path class="st3" d="M82.5,72.9H80v-1.7h6.8v1.7h-2.5v6.6h-1.8V72.9z"/>
			<path class="st3" d="M88.2,71.2h6.2v1.6H90v1.7h3.9v1.6H90v1.7h4.5v1.6h-6.3V71.2z"/>
			<path class="st3" d="M96.1,71.2h1.7l3.9,5.1v-5.1h1.8v8.2h-1.5l-4-5.2v5.2h-1.8V71.2z"/>
			<path class="st3" d="M107.2,72.9h-2.5v-1.7h6.8v1.7h-2.5v6.6h-1.8V72.9z"/>
			<path class="st3" d="M38.2,85.3h2l2.2,3.5l2.2-3.5h2v8.2h-1.8v-5.4l-2.3,3.5h0l-2.3-3.5v5.3h-1.8V85.3z"/>
			<path class="st3" d="M51.2,85.2h1.7l3.5,8.3h-1.9l-0.8-1.8h-3.5l-0.8,1.8h-1.8L51.2,85.2z M53.1,90.1L52,87.4l-1.1,2.7H53.1z"/>
			<path class="st3" d="M57.6,85.3h1.7l3.9,5.1v-5.1h1.8v8.2h-1.5l-4-5.2v5.2h-1.8V85.3z"/>
			<path class="st3" d="M69.7,85.2h1.7l3.5,8.3H73l-0.8-1.8h-3.5L68,93.5h-1.8L69.7,85.2z M71.6,90.1l-1.1-2.7l-1.1,2.7H71.6z"/>
			<path class="st3" d="M75.3,89.4L75.3,89.4c0-2.4,1.8-4.3,4.3-4.3c1.5,0,2.4,0.4,3.2,1.1l-1.1,1.4c-0.6-0.5-1.2-0.8-2.2-0.8
				c-1.3,0-2.4,1.2-2.4,2.6v0c0,1.5,1,2.6,2.5,2.6c0.7,0,1.2-0.2,1.7-0.5v-1.2h-1.8v-1.6h3.6v3.6c-0.8,0.7-2,1.3-3.5,1.3
				C77.1,93.6,75.3,91.8,75.3,89.4z"/>
			<path class="st3" d="M84.9,85.3h6.2v1.6h-4.4v1.7h3.9v1.6h-3.9v1.7h4.5v1.6h-6.3V85.3z"/>
			<path class="st3" d="M92.7,85.3h2l2.2,3.5l2.2-3.5h2v8.2h-1.8v-5.4l-2.3,3.5h0l-2.3-3.5v5.3h-1.8V85.3z"/>
			<path class="st3" d="M102.9,85.3h6.2v1.6h-4.4v1.7h3.9v1.6h-3.9v1.7h4.5v1.6h-6.3V85.3z"/>
			<path class="st3" d="M110.8,85.3h1.7l3.9,5.1v-5.1h1.8v8.2h-1.5l-4-5.2v5.2h-1.8V85.3z"/>
			<path class="st3" d="M122,86.9h-2.5v-1.7h6.8v1.7h-2.5v6.6H122V86.9z"/>
			<path class="st3" d="M58.3,106.4l1.1-1.3c0.7,0.6,1.5,1,2.5,1c0.7,0,1.2-0.3,1.2-0.8v0c0-0.5-0.3-0.7-1.7-1
				c-1.7-0.4-2.7-0.9-2.7-2.5v0c0-1.5,1.2-2.5,2.9-2.5c1.2,0,2.2,0.4,3.1,1l-0.9,1.4c-0.7-0.5-1.4-0.8-2.1-0.8
				c-0.7,0-1.1,0.3-1.1,0.7v0c0,0.5,0.4,0.7,1.8,1.1c1.7,0.4,2.6,1,2.6,2.5v0c0,1.6-1.2,2.5-3,2.5C60.5,107.7,59.3,107.3,58.3,106.4
				z"/>
			<path class="st3" d="M68.3,104.4l-3.2-5h2.1l2,3.3l2-3.3h2.1l-3.2,4.9v3.3h-1.8V104.4z"/>
			<path class="st3" d="M73.4,106.4l1.1-1.3c0.7,0.6,1.5,1,2.5,1c0.7,0,1.2-0.3,1.2-0.8v0c0-0.5-0.3-0.7-1.7-1
				c-1.7-0.4-2.7-0.9-2.7-2.5v0c0-1.5,1.2-2.5,2.9-2.5c1.2,0,2.2,0.4,3.1,1l-0.9,1.4c-0.7-0.5-1.4-0.8-2.1-0.8
				c-0.7,0-1.1,0.3-1.1,0.7v0c0,0.5,0.4,0.7,1.8,1.1c1.7,0.4,2.6,1,2.6,2.5v0c0,1.6-1.2,2.5-3,2.5C75.7,107.7,74.4,107.3,73.4,106.4
				z"/>
			<path class="st3" d="M83.2,101h-2.5v-1.7h6.8v1.7h-2.5v6.6h-1.8V101z"/>
			<path class="st3" d="M88.9,99.4h6.2v1.6h-4.4v1.7h3.9v1.6h-3.9v1.7h4.5v1.6h-6.3V99.4z"/>
			<path class="st3" d="M96.8,99.4h2l2.2,3.5l2.2-3.5h2v8.2h-1.8v-5.4l-2.3,3.5h0l-2.3-3.5v5.3h-1.8V99.4z"/>
		</g>
	</g>
	<g>
		<g>
			<path class="st3" d="M188.1,71.2h3.2c2.6,0,4.4,1.8,4.4,4.1v0c0,2.3-1.8,4.1-4.4,4.1h-3.2V71.2z M189.9,72.8v5h1.4
				c1.5,0,2.5-1,2.5-2.5v0c0-1.5-1-2.5-2.5-2.5H189.9z"/>
			<path class="st3" d="M197.4,71.2h1.8v8.2h-1.8V71.2z"/>
			<path class="st3" d="M200.9,75.3L200.9,75.3c0-2.4,1.8-4.3,4.3-4.3c1.5,0,2.4,0.4,3.2,1.1l-1.1,1.4c-0.6-0.5-1.2-0.8-2.2-0.8
				c-1.3,0-2.4,1.2-2.4,2.6v0c0,1.5,1,2.6,2.5,2.6c0.7,0,1.2-0.2,1.7-0.5v-1.2h-1.8v-1.6h3.6v3.6c-0.8,0.7-2,1.3-3.5,1.3
				C202.6,79.6,200.9,77.8,200.9,75.3z"/>
			<path class="st3" d="M210.5,71.2h1.8v8.2h-1.8V71.2z"/>
			<path class="st3" d="M216.3,72.9h-2.5v-1.7h6.8v1.7h-2.5v6.6h-1.8V72.9z"/>
			<path class="st3" d="M223.8,71.1h1.7l3.5,8.3h-1.9l-0.8-1.8h-3.5l-0.8,1.8h-1.8L223.8,71.1z M225.7,76l-1.1-2.7l-1.1,2.7H225.7z"
				/>
			<path class="st3" d="M230.2,71.2h1.8v6.6h4.1v1.6h-5.9V71.2z"/>
			<path class="st3" d="M175.6,85.3h2l2.2,3.5l2.2-3.5h2v8.2H182v-5.4l-2.3,3.5h0l-2.3-3.5v5.3h-1.8V85.3z"/>
			<path class="st3" d="M188.6,85.2h1.7l3.5,8.3h-1.9l-0.8-1.8h-3.5l-0.8,1.8h-1.8L188.6,85.2z M190.5,90.1l-1.1-2.7l-1.1,2.7H190.5
				z"/>
			<path class="st3" d="M195.1,85.3h3.8c1,0,1.9,0.3,2.4,0.8c0.5,0.5,0.7,1.1,0.7,1.9v0c0,1.3-0.7,2.2-1.8,2.5l2,2.9H200l-1.8-2.6
				h-1.4v2.6h-1.8V85.3z M198.7,89.3c0.9,0,1.4-0.5,1.4-1.2v0c0-0.8-0.5-1.2-1.4-1.2h-1.8v2.4H198.7z"/>
			<path class="st3" d="M203.5,85.3h1.8v3.6l3.3-3.6h2.2l-3.3,3.5l3.5,4.7h-2.2l-2.5-3.5l-1,1v2.5h-1.8V85.3z"/>
			<path class="st3" d="M212.1,85.3h6.2v1.6h-4.4v1.7h3.9v1.6h-3.9v1.7h4.5v1.6h-6.3V85.3z"/>
			<path class="st3" d="M221.9,86.9h-2.5v-1.7h6.8v1.7h-2.5v6.6h-1.8V86.9z"/>
			<path class="st3" d="M227.7,85.3h1.8v8.2h-1.8V85.3z"/>
			<path class="st3" d="M231.5,85.3h1.7l3.9,5.1v-5.1h1.8v8.2h-1.5l-4-5.2v5.2h-1.8V85.3z"/>
			<path class="st3" d="M240.4,89.4L240.4,89.4c0-2.4,1.8-4.3,4.3-4.3c1.5,0,2.4,0.4,3.2,1.1l-1.1,1.4c-0.6-0.5-1.2-0.8-2.2-0.8
				c-1.3,0-2.4,1.2-2.4,2.6v0c0,1.5,1,2.6,2.5,2.6c0.7,0,1.2-0.2,1.7-0.5v-1.2h-1.8v-1.6h3.6v3.6c-0.8,0.7-2,1.3-3.5,1.3
				C242.2,93.6,240.4,91.8,240.4,89.4z"/>
			<path class="st3" d="M188.2,106.4l1.1-1.3c0.7,0.6,1.5,1,2.5,1c0.7,0,1.2-0.3,1.2-0.8v0c0-0.5-0.3-0.7-1.7-1
				c-1.7-0.4-2.7-0.9-2.7-2.5v0c0-1.5,1.2-2.5,2.9-2.5c1.2,0,2.2,0.4,3.1,1l-0.9,1.4c-0.7-0.5-1.4-0.8-2.1-0.8
				c-0.7,0-1.1,0.3-1.1,0.7v0c0,0.5,0.4,0.7,1.8,1.1c1.7,0.4,2.6,1,2.6,2.5v0c0,1.6-1.2,2.5-3,2.5
				C190.4,107.7,189.1,107.3,188.2,106.4z"/>
			<path class="st3" d="M198.2,104.3l-3.2-5h2.1l2,3.3l2-3.3h2.1l-3.2,4.9v3.3h-1.8V104.3z"/>
			<path class="st3" d="M203.3,106.4l1.1-1.3c0.7,0.6,1.5,1,2.5,1c0.7,0,1.2-0.3,1.2-0.8v0c0-0.5-0.3-0.7-1.7-1
				c-1.7-0.4-2.7-0.9-2.7-2.5v0c0-1.5,1.2-2.5,2.9-2.5c1.2,0,2.2,0.4,3.1,1l-0.9,1.4c-0.7-0.5-1.4-0.8-2.1-0.8
				c-0.7,0-1.1,0.3-1.1,0.7v0c0,0.5,0.4,0.7,1.8,1.1c1.7,0.4,2.6,1,2.6,2.5v0c0,1.6-1.2,2.5-3,2.5
				C205.6,107.7,204.3,107.3,203.3,106.4z"/>
			<path class="st3" d="M213.1,101h-2.5v-1.7h6.8v1.7h-2.5v6.6h-1.8V101z"/>
			<path class="st3" d="M218.8,99.4h6.2v1.6h-4.4v1.7h3.9v1.6h-3.9v1.7h4.5v1.6h-6.3V99.4z"/>
			<path class="st3" d="M226.7,99.4h2l2.2,3.5l2.2-3.5h2v8.2h-1.8v-5.4l-2.3,3.5h0l-2.3-3.5v5.3h-1.8V99.4z"/>
		</g>
	</g>
	<g>
		<g>
			<path class="st3" d="M66,205.8L66,205.8c0-2.4,1.8-4.3,4.3-4.3c1.6,0,2.5,0.5,3.2,1.3l-1.2,1.3c-0.6-0.6-1.3-0.9-2.1-0.9
				c-1.4,0-2.4,1.2-2.4,2.6v0c0,1.4,1,2.6,2.4,2.6c0.9,0,1.5-0.4,2.2-1l1.2,1.2c-0.8,0.9-1.8,1.5-3.4,1.5
				C67.8,210,66,208.1,66,205.8z"/>
			<path class="st3" d="M74.9,206.3v-4.7h1.8v4.7c0,1.3,0.7,2,1.8,2s1.8-0.7,1.8-2v-4.7h1.8v4.6c0,2.5-1.4,3.7-3.6,3.7
				S74.9,208.8,74.9,206.3z"/>
			<path class="st3" d="M83.3,208.7l1.1-1.3c0.7,0.6,1.5,1,2.5,1c0.7,0,1.2-0.3,1.2-0.8v0c0-0.5-0.3-0.7-1.7-1
				c-1.7-0.4-2.7-0.9-2.7-2.5v0c0-1.5,1.2-2.5,2.9-2.5c1.2,0,2.2,0.4,3.1,1l-0.9,1.4c-0.7-0.5-1.4-0.8-2.1-0.8
				c-0.7,0-1.1,0.3-1.1,0.7v0c0,0.5,0.4,0.7,1.8,1.1c1.7,0.4,2.6,1,2.6,2.5v0c0,1.6-1.2,2.5-3,2.5C85.6,210,84.3,209.5,83.3,208.7z"
				/>
			<path class="st3" d="M93.2,203.3h-2.5v-1.7h6.8v1.7H95v6.6h-1.8V203.3z"/>
			<path class="st3" d="M98.1,205.8L98.1,205.8c0-2.4,1.8-4.3,4.4-4.3c2.5,0,4.4,1.9,4.4,4.2v0c0,2.3-1.8,4.3-4.4,4.3
				S98.1,208.1,98.1,205.8z M105,205.8L105,205.8c0-1.4-1-2.6-2.5-2.6s-2.5,1.2-2.5,2.6v0c0,1.4,1,2.6,2.5,2.6S105,207.2,105,205.8z
				"/>
			<path class="st3" d="M108.5,201.6h2l2.2,3.5l2.2-3.5h2v8.2h-1.8v-5.4l-2.3,3.5h0l-2.3-3.5v5.3h-1.8V201.6z"/>
			<path class="st3" d="M118.7,201.6h6.2v1.6h-4.4v1.7h3.9v1.6h-3.9v1.7h4.5v1.6h-6.3V201.6z"/>
			<path class="st3" d="M126.5,201.6h3.8c1,0,1.9,0.3,2.4,0.8c0.5,0.5,0.7,1.1,0.7,1.9v0c0,1.3-0.7,2.2-1.8,2.5l2,2.9h-2.1l-1.8-2.6
				h-1.4v2.6h-1.8V201.6z M130.2,205.6c0.9,0,1.4-0.5,1.4-1.2v0c0-0.8-0.5-1.2-1.4-1.2h-1.8v2.4H130.2z"/>
			<path class="st3" d="M138.6,201.6h3.8c1,0,1.9,0.3,2.4,0.8c0.5,0.5,0.7,1.1,0.7,1.9v0c0,1.3-0.7,2.2-1.8,2.5l2,2.9h-2.1l-1.8-2.6
				h-1.4v2.6h-1.8V201.6z M142.2,205.6c0.9,0,1.4-0.5,1.4-1.2v0c0-0.8-0.5-1.2-1.4-1.2h-1.8v2.4H142.2z"/>
			<path class="st3" d="M147,201.6h6.2v1.6h-4.4v1.7h3.9v1.6h-3.9v1.7h4.5v1.6H147V201.6z"/>
			<path class="st3" d="M154.9,201.6h1.8v6.6h4.1v1.6h-5.9V201.6z"/>
			<path class="st3" d="M165,201.6h1.7l3.5,8.3h-1.9l-0.8-1.8h-3.5l-0.8,1.8h-1.8L165,201.6z M166.9,206.4l-1.1-2.7l-1.1,2.7H166.9z
				"/>
			<path class="st3" d="M172.3,203.3h-2.5v-1.7h6.8v1.7h-2.5v6.6h-1.8V203.3z"/>
			<path class="st3" d="M178.1,201.6h1.8v8.2h-1.8V201.6z"/>
			<path class="st3" d="M181.6,205.8L181.6,205.8c0-2.4,1.8-4.3,4.4-4.3c2.5,0,4.4,1.9,4.4,4.2v0c0,2.3-1.8,4.3-4.4,4.3
				C183.4,210,181.6,208.1,181.6,205.8z M188.4,205.8L188.4,205.8c0-1.4-1-2.6-2.5-2.6s-2.5,1.2-2.5,2.6v0c0,1.4,1,2.6,2.5,2.6
				S188.4,207.2,188.4,205.8z"/>
			<path class="st3" d="M191.9,201.6h1.7l3.9,5.1v-5.1h1.8v8.2h-1.5l-4-5.2v5.2h-1.8V201.6z"/>
			<path class="st3" d="M200.6,208.7l1.1-1.3c0.7,0.6,1.5,1,2.5,1c0.7,0,1.2-0.3,1.2-0.8v0c0-0.5-0.3-0.7-1.7-1
				c-1.7-0.4-2.7-0.9-2.7-2.5v0c0-1.5,1.2-2.5,2.9-2.5c1.2,0,2.2,0.4,3.1,1l-0.9,1.4c-0.7-0.5-1.4-0.8-2.1-0.8
				c-0.7,0-1.1,0.3-1.1,0.7v0c0,0.5,0.4,0.7,1.8,1.1c1.7,0.4,2.6,1,2.6,2.5v0c0,1.6-1.2,2.5-3,2.5
				C202.9,210,201.6,209.5,200.6,208.7z"/>
			<path class="st3" d="M208.7,201.6h1.8v3.3h3.3v-3.3h1.8v8.2h-1.8v-3.3h-3.3v3.3h-1.8V201.6z"/>
			<path class="st3" d="M217.7,201.6h1.8v8.2h-1.8V201.6z"/>
			<path class="st3" d="M221.6,201.6h3.4c2,0,3.1,1.2,3.1,2.8v0c0,1.9-1.5,2.9-3.3,2.9h-1.4v2.5h-1.8V201.6z M224.8,205.8
				c0.9,0,1.4-0.5,1.4-1.2v0c0-0.8-0.6-1.2-1.5-1.2h-1.4v2.5H224.8z"/>
			<path class="st3" d="M103.2,215.7h2l2.2,3.5l2.2-3.5h2v8.2h-1.8v-5.4l-2.3,3.5h0l-2.3-3.5v5.3h-1.8V215.7z"/>
			<path class="st3" d="M116.2,215.7h1.7l3.5,8.3h-1.9l-0.8-1.8h-3.5l-0.8,1.8h-1.8L116.2,215.7z M118.1,220.5l-1.1-2.7l-1.1,2.7
				H118.1z"/>
			<path class="st3" d="M122.6,215.7h1.7l3.9,5.1v-5.1h1.8v8.2h-1.5l-4-5.2v5.2h-1.8V215.7z"/>
			<path class="st3" d="M134.7,215.7h1.7l3.5,8.3H138l-0.8-1.8h-3.5l-0.8,1.8h-1.8L134.7,215.7z M136.6,220.5l-1.1-2.7l-1.1,2.7
				H136.6z"/>
			<path class="st3" d="M140.3,219.9L140.3,219.9c0-2.4,1.8-4.3,4.3-4.3c1.5,0,2.4,0.4,3.2,1.1l-1.1,1.4c-0.6-0.5-1.2-0.8-2.2-0.8
				c-1.3,0-2.4,1.2-2.4,2.6v0c0,1.5,1,2.6,2.5,2.6c0.7,0,1.2-0.2,1.7-0.5v-1.2h-1.8v-1.6h3.6v3.6c-0.8,0.7-2,1.3-3.5,1.3
				C142,224.1,140.3,222.3,140.3,219.9z"/>
			<path class="st3" d="M149.9,215.7h6.2v1.6h-4.4v1.7h3.9v1.6h-3.9v1.7h4.5v1.6h-6.3V215.7z"/>
			<path class="st3" d="M157.7,215.7h2l2.2,3.5l2.2-3.5h2v8.2h-1.8v-5.4l-2.3,3.5h0l-2.3-3.5v5.3h-1.8V215.7z"/>
			<path class="st3" d="M167.9,215.7h6.2v1.6h-4.4v1.7h3.9v1.6h-3.9v1.7h4.5v1.6h-6.3V215.7z"/>
			<path class="st3" d="M175.8,215.7h1.7l3.9,5.1v-5.1h1.8v8.2h-1.5l-4-5.2v5.2h-1.8V215.7z"/>
			<path class="st3" d="M187,217.4h-2.5v-1.7h6.8v1.7h-2.5v6.6H187V217.4z"/>
		</g>
	</g>
</g>
</svg>
