<?xml version="1.0" encoding="utf-8"?>
<!-- Generator: Adobe Illustrator 21.0.0, SVG Export Plug-In . SVG Version: 6.00 Build 0)  -->
<svg version="1.1" id="Layer_1" xmlns="http://www.w3.org/2000/svg" xmlns:xlink="http://www.w3.org/1999/xlink" x="0px" y="0px"
	 viewBox="0 0 573.2 110.4" style="enable-background:new 0 0 573.2 110.4;" xml:space="preserve">
<style type="text/css">
	.st0{fill:#FEF4B1;}
</style>
<g>
	<g>
		<path class="st0" d="M500.1,35.6l9.1,12h3.5V28.7h-4.1v11.6l-8.8-11.6H496v18.8h4.1V35.6z M42.2,80.1c3.6,0,5.8-1.3,7.7-3.4
			l-2.6-2.7c-1.5,1.3-2.8,2.2-4.9,2.2c-3.2,0-5.5-2.7-5.5-5.9v-0.1c0-3.2,2.3-5.9,5.5-5.9c1.9,0,3.4,0.8,4.8,2.1l2.6-3
			c-1.7-1.7-3.9-2.9-7.4-2.9c-5.8,0-9.8,4.4-9.8,9.7v0.1C32.5,75.8,36.6,80.1,42.2,80.1z M526.3,47.8c3.4,0,6.1-1.3,8-3v-8.2h-8.2
			v3.6h4.2v2.7c-1,0.8-2.4,1.1-3.9,1.1c-3.3,0-5.7-2.5-5.7-6v-0.1c0-3.2,2.4-5.9,5.4-5.9c2.2,0,3.5,0.7,4.9,1.9l2.6-3.1
			c-2-1.7-4-2.6-7.4-2.6c-5.7,0-9.9,4.4-9.9,9.7v0.1C516.4,43.7,520.4,47.8,526.3,47.8z M501.6,61v18.8h4.1v-6h3.3l4,6h4.8l-4.6-6.7
			c2.4-0.9,4-2.8,4-5.8v-0.1c0-1.8-0.6-3.3-1.6-4.3c-1.2-1.2-3.1-1.9-5.5-1.9H501.6z M513.1,67.4L513.1,67.4c0,1.6-1.2,2.7-3.2,2.7
			h-4.2v-5.4h4.1C511.9,64.7,513.1,65.6,513.1,67.4z M477.9,70.4L477.9,70.4c0,5.4,4.2,9.7,10,9.7c5.8,0,10-4.4,10-9.7v-0.1
			c0-5.3-4.2-9.7-10-9.7C482.1,60.6,477.9,65,477.9,70.4z M493.6,70.4L493.6,70.4c0,3.3-2.3,5.9-5.6,5.9s-5.7-2.7-5.7-5.9v-0.1
			c0-3.2,2.3-5.9,5.6-5.9S493.6,67.1,493.6,70.4z M483.3,38.1L483.3,38.1c0-5.3-4.1-9.4-10-9.4H466v18.8h7.3
			C479.2,47.5,483.3,43.4,483.3,38.1z M470.1,32.4h3.2c3.4,0,5.7,2.3,5.7,5.7v0.1c0,3.3-2.3,5.6-5.7,5.6h-3.2V32.4z M448.1,79.8h4.1
			v-15h5.7V61h-15.6v3.8h5.7V79.8z M449.1,43.3h8l1.7,4.2h4.3L455,28.6h-3.8l-8.1,18.9h4.2L449.1,43.3z M453,33.5l2.5,6.1h-5
			L453,33.5z M525.5,61H521v18.8h4.1V67.6l5.2,8h0.1l5.3-8v12.3h4.1V61h-4.5l-4.9,8L525.5,61z M50.7,38.1L50.7,38.1
			c0-5.3-4.1-9.4-10-9.4h-7.3v18.8h7.3C46.6,47.5,50.7,43.4,50.7,38.1z M37.5,32.4h3.2c3.4,0,5.7,2.3,5.7,5.7v0.1
			c0,3.3-2.3,5.6-5.7,5.6h-3.2V32.4z M441,43.8h-10.2v-4h8.9v-3.7h-8.9v-3.8h10.1v-3.7h-14.2v18.8H441V43.8z M491.3,28.7h-4.1v18.8
			h4.1V28.7z M207.2,72.1h8.9v-3.7h-8.9v-3.8h10.1V61h-14.2v18.8h14.3v-3.7h-10.2V72.1z M262.8,72.1h8.9v-3.7h-8.9v-3.8h10.1V61
			h-14.2v18.8H273v-3.7h-10.2V72.1z M248.4,61h-7.7v18.8h4.1v-5.6h3.1c4.2,0,7.6-2.3,7.6-6.6v-0.1C255.6,63.6,252.9,61,248.4,61z
			 M251.4,67.6c0,1.6-1.2,2.8-3.3,2.8h-3.3v-5.8h3.2C250.2,64.7,251.4,65.7,251.4,67.6L251.4,67.6z M237.4,61h-4.7l-4,6.1l-3.9-6.1
			h-4.8l6.3,9.2l-6.6,9.6h4.7l4.2-6.4l4.2,6.4h4.8l-6.6-9.6L237.4,61z M143.6,68.9l-4.9-8h-4.5v18.8h4.1V67.6l5.2,8h0.1l5.3-8v12.3
			h4.1V61h-4.5L143.6,68.9z M125.9,71.7c0,3-1.5,4.5-4.1,4.5c-2.5,0-4.1-1.6-4.1-4.6V61h-4.1v10.7c0,5.5,3.1,8.4,8.1,8.4
			s8.2-2.8,8.2-8.5V61h-4.1V71.7z M309.3,72.1h8.9v-3.7h-8.9v-3.8h10.1V61h-14.2v18.8h14.3v-3.7h-10.2V72.1z M368.4,72.1h8.9v-3.7
			h-8.9v-3.8h10.1V61h-14.2v18.8h14.3v-3.7h-10.2V72.1z M0,0v110.4h573.2V0H0z M567.8,105.1H5.3V5.3h562.5V105.1z M461.1,79.8h4.1
			v-7.3h9v-3.8h-9v-4h10.2V61h-14.3V79.8z M431.3,60.8l-8.1,18.9h4.2l1.7-4.2h8l1.7,4.2h4.3l-8.1-18.9H431.3z M430.7,71.9l2.5-6.1
			l2.5,6.1H430.7z M353.4,76.3c-3.2,0-5.5-2.7-5.5-5.9v-0.1c0-3.2,2.3-5.9,5.5-5.9c1.9,0,3.4,0.8,4.8,2.1l2.6-3
			c-1.7-1.7-3.9-2.9-7.4-2.9c-5.8,0-9.8,4.4-9.8,9.7v0.1c0,5.4,4.1,9.7,9.6,9.7c3.6,0,5.8-1.3,7.7-3.4l-2.6-2.7
			C356.8,75.4,355.5,76.3,353.4,76.3z M335.8,72.5L327,61h-3.8v18.8h4.1v-12l9.1,12h3.5V61h-4.1V72.5z M265.2,47.5h4.1v-15h5.7v-3.8
			h-15.6v3.8h5.7V47.5z M221.9,43.8h-10.2v-4h8.9v-3.7h-8.9v-3.8h10.1v-3.7h-14.2v18.8h14.3V43.8z M191.3,40h7.6v7.6h4.1V28.7H199
			v7.4h-7.6v-7.4h-4.1v18.8h4.1V40z M89.4,47.8c3.6,0,5.8-1.3,7.7-3.4l-2.6-2.7C93,43.2,91.7,44,89.5,44c-3.2,0-5.5-2.7-5.5-5.9
			v-0.1c0-3.2,2.3-5.9,5.5-5.9c1.9,0,3.4,0.8,4.8,2.1l2.6-3c-1.7-1.7-3.9-2.9-7.4-2.9c-5.8,0-9.8,4.4-9.8,9.7v0.1
			C79.8,43.6,83.9,47.8,89.4,47.8z M280.8,73.7h3.3l4,6h4.8l-4.6-6.7c2.4-0.9,4-2.8,4-5.8v-0.1c0-1.8-0.6-3.3-1.6-4.3
			c-1.2-1.2-3.1-1.9-5.5-1.9h-8.6v18.8h4.1V73.7z M280.8,64.7h4.1c2,0,3.3,0.9,3.3,2.7v0.1c0,1.6-1.2,2.7-3.2,2.7h-4.2V64.7z
			 M109,47.8c5.8,0,10-4.4,10-9.7v-0.1c0-5.3-4.2-9.7-10-9.7c-5.8,0-10,4.4-10,9.7v0.1C99.1,43.5,103.2,47.8,109,47.8z M103.4,38.1
			c0-3.2,2.3-5.9,5.6-5.9s5.7,2.7,5.7,5.9v0.1c0,3.2-2.3,5.9-5.6,5.9S103.4,41.3,103.4,38.1L103.4,38.1z M260.4,43.7H251v-15h-4.1
			v18.8h13.5V43.7z M75.5,79.8h4.1v-12l9.1,12h3.5V61h-4.1v11.6L79.3,61h-3.8V79.8z M229.9,43.3h8l1.7,4.2h4.3l-8.1-18.9h-3.8
			L224,47.5h4.2L229.9,43.3z M233.9,33.5l2.5,6.1h-5L233.9,33.5z M156,43.8h-10.2v-4h8.9v-3.7h-8.9v-3.8h10.1v-3.7h-14.2v18.8H156
			V43.8z M175.6,79.8h4.1v-6h3.3l4,6h4.8l-4.6-6.7c2.4-0.9,4-2.8,4-5.8v-0.1c0-1.8-0.6-3.3-1.6-4.3c-1.2-1.2-3.1-1.9-5.5-1.9h-8.6
			V79.8z M179.7,64.7h4.1c2,0,3.3,0.9,3.3,2.7v0.1c0,1.6-1.2,2.7-3.2,2.7h-4.2V64.7z M171.9,76.1h-10.2v-4h8.9v-3.7h-8.9v-3.8h10.1
			V61h-14.2v18.8h14.3V76.1z M131.2,47.6l7.6-18.9h-4.5l-4.9,13.2l-4.9-13.2h-4.6l7.6,18.9H131.2z M96.2,66.4c0,3.7,2.4,4.8,6.2,5.8
			c3.1,0.8,3.8,1.3,3.8,2.4v0.1c0,1.1-1,1.8-2.7,1.8c-2.1,0-3.9-0.9-5.6-2.3L95.4,77c2.3,2,5.1,3,8,3c4.1,0,6.9-2.1,6.9-5.8v-0.1
			c0-3.3-2.1-4.6-6-5.6c-3.3-0.8-4.1-1.2-4.1-2.5V66c0-0.9,0.8-1.6,2.4-1.6c1.6,0,3.2,0.7,4.9,1.9l2.1-3.1c-1.9-1.5-4.2-2.4-7-2.4
			C98.9,60.7,96.2,62.9,96.2,66.4L96.2,66.4z M163.8,41.5h3.3l4,6h4.8l-4.6-6.7c2.4-0.9,4-2.8,4-5.8v-0.1c0-1.8-0.6-3.3-1.6-4.3
			c-1.2-1.2-3.1-1.9-5.5-1.9h-8.6v18.8h4.1V41.5z M163.8,32.4h4.1c2,0,3.3,0.9,3.3,2.7v0.1c0,1.6-1.2,2.7-3.2,2.7h-4.2V32.4z
			 M381.5,28.8v-0.1h-4.6l-0.5,8.6h2.1L381.5,28.8z M391.6,44.1c-2.1,0-3.9-0.9-5.6-2.3l-2.4,2.9c2.3,2,5.1,3,8,3
			c4.1,0,6.9-2.1,6.9-5.8v-0.1c0-3.3-2.1-4.6-6-5.6c-3.3-0.8-4.1-1.2-4.1-2.5v-0.1c0-0.9,0.8-1.6,2.4-1.6c1.6,0,3.2,0.7,4.9,1.9
			l2.1-3.1c-1.9-1.5-4.2-2.4-7-2.4c-3.8,0-6.6,2.3-6.6,5.7v0.1c0,3.7,2.4,4.8,6.2,5.8c3.1,0.8,3.8,1.3,3.8,2.4v0.1
			C394.3,43.5,393.3,44.1,391.6,44.1z M373.5,43.8h-10.2v-4h8.9v-3.7h-8.9v-3.8h10.1v-3.7h-14.2v18.8h14.3V43.8z M390.3,61v18.8h4.1
			v-5.6h3.1c4.2,0,7.6-2.3,7.6-6.6v-0.1c0-3.8-2.7-6.5-7.2-6.5H390.3z M401,67.5L401,67.5c0,1.7-1.2,2.9-3.3,2.9h-3.3v-5.8h3.2
			C399.7,64.7,401,65.7,401,67.5z M423.6,43.7h-9.4v-15h-4.1v18.8h13.5V43.7z M421.8,76h-9.4V61h-4.1v18.8h13.5V76z M61.8,80.1
			c5.8,0,10-4.4,10-9.7v-0.1c0-5.3-4.2-9.7-10-9.7c-5.8,0-10,4.4-10,9.7v0.1C51.8,75.8,56,80.1,61.8,80.1z M56.1,70.3
			c0-3.2,2.3-5.9,5.6-5.9s5.7,2.7,5.7,5.9v0.1c0,3.2-2.3,5.9-5.6,5.9S56.1,73.6,56.1,70.3L56.1,70.3z M307.4,47.8
			c3.6,0,5.8-1.3,7.7-3.4l-2.6-2.7c-1.5,1.3-2.8,2.2-4.9,2.2c-3.2,0-5.5-2.7-5.5-5.9v-0.1c0-3.2,2.3-5.9,5.5-5.9
			c1.9,0,3.4,0.8,4.8,2.1l2.6-3c-1.7-1.7-3.9-2.9-7.4-2.9c-5.8,0-9.8,4.4-9.8,9.7v0.1C297.8,43.6,301.9,47.8,307.4,47.8z M300.5,61
			h-4.1v18.8h4.1V61z M282.3,40h7.6v7.6h4.1V28.7H290v7.4h-7.6v-7.4h-4.1v18.8h4.1V40z M70.2,44.1c-2.1,0-3.9-0.9-5.6-2.3l-2.4,2.9
			c2.3,2,5.1,3,8,3c4.1,0,6.9-2.1,6.9-5.8v-0.1c0-3.3-2.1-4.6-6-5.6C67.8,35.4,67,35,67,33.8v-0.1c0-0.9,0.8-1.6,2.4-1.6
			c1.6,0,3.2,0.7,4.9,1.9l2.1-3.1c-1.9-1.5-4.2-2.4-7-2.4c-3.8,0-6.6,2.3-6.6,5.7v0.1c0,3.7,2.4,4.8,6.2,5.8
			c3.1,0.8,3.8,1.3,3.8,2.4v0.1C72.9,43.5,71.9,44.1,70.2,44.1z M343.8,41.5h3.3l4,6h4.8l-4.6-6.7c2.4-0.9,4-2.8,4-5.8v-0.1
			c0-1.8-0.6-3.3-1.6-4.3c-1.2-1.2-3.1-1.9-5.5-1.9h-8.6v18.8h4.1V41.5z M343.8,32.4h4.1c2,0,3.3,0.9,3.3,2.7v0.1
			c0,1.6-1.2,2.7-3.2,2.7h-4.2V32.4z M58.7,28.7h-4.1v18.8h4.1V28.7z M322.8,43.3h8l1.7,4.2h4.3l-8.1-18.9h-3.8l-8.1,18.9h4.2
			L322.8,43.3z M326.8,33.5l2.5,6.1h-5L326.8,33.5z"/>
	</g>
</g>
</svg>
