<?xml version="1.0" encoding="utf-8"?>
<!-- Generator: Adobe Illustrator 21.0.0, SVG Export Plug-In . SVG Version: 6.00 Build 0)  -->
<svg version="1.1" id="Layer_1" xmlns="http://www.w3.org/2000/svg" xmlns:xlink="http://www.w3.org/1999/xlink" x="0px" y="0px"
	 viewBox="0 0 573.2 110.4" style="enable-background:new 0 0 573.2 110.4;" xml:space="preserve">
<style type="text/css">
	.st0{fill:#FEF4B1;}
	.st1{fill:#4CC1BA;}
</style>
<g>
	<g>
		<rect class="st0" width="573.2" height="110.4"/>
	</g>
</g>
<path class="st1" d="M50.7,38.1L50.7,38.1c0-5.3-4.1-9.4-10-9.4h-7.3v18.8h7.3C46.6,47.5,50.7,43.4,50.7,38.1z M37.5,32.4h3.2
	c3.4,0,5.7,2.3,5.7,5.7v0.1c0,3.3-2.3,5.6-5.7,5.6h-3.2V32.4z"/>
<rect x="54.6" y="28.7" class="st1" width="4.1" height="18.8"/>
<path class="st1" d="M70.2,44.1c-2.1,0-3.9-0.9-5.6-2.3l-2.4,2.9c2.3,2,5.1,3,8,3c4.1,0,6.9-2.1,6.9-5.8v-0.1c0-3.3-2.1-4.6-6-5.6
	C67.8,35.4,67,35,67,33.8v-0.1c0-0.9,0.8-1.6,2.4-1.6c1.6,0,3.2,0.7,4.9,1.9l2.1-3.1c-1.9-1.5-4.2-2.4-7-2.4c-3.8,0-6.6,2.3-6.6,5.7
	v0.1c0,3.7,2.4,4.8,6.2,5.8c3.1,0.8,3.8,1.3,3.8,2.4v0.1C72.9,43.5,71.9,44.1,70.2,44.1z"/>
<path class="st1" d="M89.4,47.8c3.6,0,5.8-1.3,7.7-3.4l-2.6-2.7C93,43.2,91.7,44,89.5,44c-3.2,0-5.5-2.7-5.5-5.9v-0.1
	c0-3.2,2.3-5.9,5.5-5.9c1.9,0,3.4,0.8,4.8,2.1l2.6-3c-1.7-1.7-3.9-2.9-7.4-2.9c-5.8,0-9.8,4.4-9.8,9.7v0.1
	C79.8,43.6,83.9,47.8,89.4,47.8z"/>
<path class="st1" d="M109,47.8c5.8,0,10-4.4,10-9.7v-0.1c0-5.3-4.2-9.7-10-9.7c-5.8,0-10,4.4-10,9.7v0.1
	C99.1,43.5,103.2,47.8,109,47.8z M103.4,38.1c0-3.2,2.3-5.9,5.6-5.9s5.7,2.7,5.7,5.9v0.1c0,3.2-2.3,5.9-5.6,5.9
	S103.4,41.3,103.4,38.1L103.4,38.1z"/>
<polygon class="st1" points="131.2,47.6 138.8,28.7 134.3,28.7 129.4,41.9 124.5,28.7 119.9,28.7 127.5,47.6 "/>
<polygon class="st1" points="156,43.8 145.8,43.8 145.8,39.9 154.7,39.9 154.7,36.2 145.8,36.2 145.8,32.4 155.9,32.4 155.9,28.7 
	141.7,28.7 141.7,47.5 156,47.5 "/>
<path class="st1" d="M163.8,41.5h3.3l4,6h4.8l-4.6-6.7c2.4-0.9,4-2.8,4-5.8v-0.1c0-1.8-0.6-3.3-1.6-4.3c-1.2-1.2-3.1-1.9-5.5-1.9
	h-8.6v18.8h4.1V41.5z M163.8,32.4h4.1c2,0,3.3,0.9,3.3,2.7v0.1c0,1.6-1.2,2.7-3.2,2.7h-4.2V32.4z"/>
<polygon class="st1" points="191.3,40 199,40 199,47.5 203.1,47.5 203.1,28.7 199,28.7 199,36.1 191.3,36.1 191.3,28.7 187.2,28.7 
	187.2,47.5 191.3,47.5 "/>
<polygon class="st1" points="221.9,43.8 211.7,43.8 211.7,39.9 220.6,39.9 220.6,36.2 211.7,36.2 211.7,32.4 221.8,32.4 221.8,28.7 
	207.6,28.7 207.6,47.5 221.9,47.5 "/>
<path class="st1" d="M229.9,43.3h8l1.7,4.2h4.3l-8.1-18.9h-3.8L224,47.5h4.2L229.9,43.3z M233.9,33.5l2.5,6.1h-5L233.9,33.5z"/>
<polygon class="st1" points="260.4,43.7 251,43.7 251,28.7 246.8,28.7 246.8,47.5 260.4,47.5 "/>
<polygon class="st1" points="265.2,47.5 269.3,47.5 269.3,32.5 275,32.5 275,28.7 259.5,28.7 259.5,32.5 265.2,32.5 "/>
<polygon class="st1" points="282.3,40 290,40 290,47.5 294.1,47.5 294.1,28.7 290,28.7 290,36.1 282.3,36.1 282.3,28.7 278.2,28.7 
	278.2,47.5 282.3,47.5 "/>
<path class="st1" d="M307.4,47.8c3.6,0,5.8-1.3,7.7-3.4l-2.6-2.7c-1.5,1.3-2.8,2.2-4.9,2.2c-3.2,0-5.5-2.7-5.5-5.9v-0.1
	c0-3.2,2.3-5.9,5.5-5.9c1.9,0,3.4,0.8,4.8,2.1l2.6-3c-1.7-1.7-3.9-2.9-7.4-2.9c-5.8,0-9.8,4.4-9.8,9.7v0.1
	C297.8,43.6,301.9,47.8,307.4,47.8z"/>
<path class="st1" d="M322.8,43.3h8l1.7,4.2h4.3l-8.1-18.9h-3.8l-8.1,18.9h4.2L322.8,43.3z M326.8,33.5l2.5,6.1h-5L326.8,33.5z"/>
<path class="st1" d="M343.8,41.5h3.3l4,6h4.8l-4.6-6.7c2.4-0.9,4-2.8,4-5.8v-0.1c0-1.8-0.6-3.3-1.6-4.3c-1.2-1.2-3.1-1.9-5.5-1.9
	h-8.6v18.8h4.1V41.5z M343.8,32.4h4.1c2,0,3.3,0.9,3.3,2.7v0.1c0,1.6-1.2,2.7-3.2,2.7h-4.2V32.4z"/>
<polygon class="st1" points="373.5,43.8 363.2,43.8 363.2,39.9 372.1,39.9 372.1,36.2 363.2,36.2 363.2,32.4 373.3,32.4 373.3,28.7 
	359.1,28.7 359.1,47.5 373.5,47.5 "/>
<polygon class="st1" points="381.5,28.8 381.5,28.7 376.9,28.7 376.4,37.3 378.5,37.3 "/>
<path class="st1" d="M391.6,44.1c-2.1,0-3.9-0.9-5.6-2.3l-2.4,2.9c2.3,2,5.1,3,8,3c4.1,0,6.9-2.1,6.9-5.8v-0.1c0-3.3-2.1-4.6-6-5.6
	c-3.3-0.8-4.1-1.2-4.1-2.5v-0.1c0-0.9,0.8-1.6,2.4-1.6c1.6,0,3.2,0.7,4.9,1.9l2.1-3.1c-1.9-1.5-4.2-2.4-7-2.4
	c-3.8,0-6.6,2.3-6.6,5.7v0.1c0,3.7,2.4,4.8,6.2,5.8c3.1,0.8,3.8,1.3,3.8,2.4v0.1C394.3,43.5,393.3,44.1,391.6,44.1z"/>
<polygon class="st1" points="423.6,43.7 414.2,43.7 414.2,28.7 410.1,28.7 410.1,47.5 423.6,47.5 "/>
<polygon class="st1" points="441,43.8 430.8,43.8 430.8,39.9 439.7,39.9 439.7,36.2 430.8,36.2 430.8,32.4 440.9,32.4 440.9,28.7 
	426.7,28.7 426.7,47.5 441,47.5 "/>
<path class="st1" d="M449.1,43.3h8l1.7,4.2h4.3L455,28.6h-3.8l-8.1,18.9h4.2L449.1,43.3z M453,33.5l2.5,6.1h-5L453,33.5z"/>
<path class="st1" d="M483.3,38.1L483.3,38.1c0-5.3-4.1-9.4-10-9.4H466v18.8h7.3C479.2,47.5,483.3,43.4,483.3,38.1z M470.1,32.4h3.2
	c3.4,0,5.7,2.3,5.7,5.7v0.1c0,3.3-2.3,5.6-5.7,5.6h-3.2V32.4z"/>
<rect x="487.2" y="28.7" class="st1" width="4.1" height="18.8"/>
<polygon class="st1" points="500.1,35.6 509.2,47.5 512.7,47.5 512.7,28.7 508.6,28.7 508.6,40.3 499.8,28.7 496,28.7 496,47.5 
	500.1,47.5 "/>
<path class="st1" d="M526.3,47.8c3.4,0,6.1-1.3,8-3v-8.2h-8.2v3.6h4.2v2.7c-1,0.8-2.4,1.1-3.9,1.1c-3.3,0-5.7-2.5-5.7-6v-0.1
	c0-3.2,2.4-5.9,5.4-5.9c2.2,0,3.5,0.7,4.9,1.9l2.6-3.1c-2-1.7-4-2.6-7.4-2.6c-5.7,0-9.9,4.4-9.9,9.7v0.1
	C516.4,43.7,520.4,47.8,526.3,47.8z"/>
<path class="st1" d="M42.2,80.1c3.6,0,5.8-1.3,7.7-3.4l-2.6-2.7c-1.5,1.3-2.8,2.2-4.9,2.2c-3.2,0-5.5-2.7-5.5-5.9v-0.1
	c0-3.2,2.3-5.9,5.5-5.9c1.9,0,3.4,0.8,4.8,2.1l2.6-3c-1.7-1.7-3.9-2.9-7.4-2.9c-5.8,0-9.8,4.4-9.8,9.7v0.1
	C32.5,75.8,36.6,80.1,42.2,80.1z"/>
<path class="st1" d="M61.8,80.1c5.8,0,10-4.4,10-9.7v-0.1c0-5.3-4.2-9.7-10-9.7c-5.8,0-10,4.4-10,9.7v0.1
	C51.8,75.8,56,80.1,61.8,80.1z M56.1,70.3c0-3.2,2.3-5.9,5.6-5.9s5.7,2.7,5.7,5.9v0.1c0,3.2-2.3,5.9-5.6,5.9S56.1,73.6,56.1,70.3
	L56.1,70.3z"/>
<polygon class="st1" points="75.5,79.8 79.6,79.8 79.6,67.8 88.7,79.8 92.2,79.8 92.2,61 88.1,61 88.1,72.5 79.3,61 75.5,61 "/>
<path class="st1" d="M96.2,66.4c0,3.7,2.4,4.8,6.2,5.8c3.1,0.8,3.8,1.3,3.8,2.4v0.1c0,1.1-1,1.8-2.7,1.8c-2.1,0-3.9-0.9-5.6-2.3
	L95.4,77c2.3,2,5.1,3,8,3c4.1,0,6.9-2.1,6.9-5.8v-0.1c0-3.3-2.1-4.6-6-5.6c-3.3-0.8-4.1-1.2-4.1-2.5V66c0-0.9,0.8-1.6,2.4-1.6
	c1.6,0,3.2,0.7,4.9,1.9l2.1-3.1c-1.9-1.5-4.2-2.4-7-2.4C98.9,60.7,96.2,62.9,96.2,66.4L96.2,66.4z"/>
<path class="st1" d="M125.9,71.7c0,3-1.5,4.5-4.1,4.5c-2.5,0-4.1-1.6-4.1-4.6V61h-4.1v10.7c0,5.5,3.1,8.4,8.1,8.4s8.2-2.8,8.2-8.5
	V61h-4.1V71.7z"/>
<polygon class="st1" points="143.6,68.9 138.7,61 134.2,61 134.2,79.8 138.3,79.8 138.3,67.6 143.5,75.5 143.6,75.5 148.9,67.5 
	148.9,79.8 153,79.8 153,61 148.6,61 "/>
<polygon class="st1" points="171.9,76.1 161.7,76.1 161.7,72.1 170.5,72.1 170.5,68.4 161.7,68.4 161.7,64.6 171.8,64.6 171.8,61 
	157.6,61 157.6,79.8 171.9,79.8 "/>
<path class="st1" d="M175.6,79.8h4.1v-6h3.3l4,6h4.8l-4.6-6.7c2.4-0.9,4-2.8,4-5.8v-0.1c0-1.8-0.6-3.3-1.6-4.3
	c-1.2-1.2-3.1-1.9-5.5-1.9h-8.6V79.8z M179.7,64.7h4.1c2,0,3.3,0.9,3.3,2.7v0.1c0,1.6-1.2,2.7-3.2,2.7h-4.2V64.7z"/>
<polygon class="st1" points="207.2,72.1 216,72.1 216,68.4 207.2,68.4 207.2,64.6 217.3,64.6 217.3,61 203.1,61 203.1,79.8 
	217.4,79.8 217.4,76.1 207.2,76.1 "/>
<polygon class="st1" points="237.4,61 232.7,61 228.7,67 224.8,61 219.9,61 226.2,70.2 219.7,79.8 224.4,79.8 228.6,73.3 
	232.8,79.8 237.7,79.8 231.1,70.1 "/>
<path class="st1" d="M248.4,61h-7.7v18.8h4.1v-5.6h3.1c4.2,0,7.6-2.3,7.6-6.6v-0.1C255.6,63.6,252.9,61,248.4,61z M251.4,67.6
	c0,1.6-1.2,2.8-3.3,2.8h-3.3v-5.8h3.2C250.2,64.7,251.4,65.7,251.4,67.6L251.4,67.6z"/>
<polygon class="st1" points="262.8,72.1 271.7,72.1 271.7,68.4 262.8,68.4 262.8,64.6 272.9,64.6 272.9,61 258.7,61 258.7,79.8 
	273,79.8 273,76.1 262.8,76.1 "/>
<path class="st1" d="M280.8,73.7h3.3l4,6h4.8l-4.6-6.7c2.4-0.9,4-2.8,4-5.8v-0.1c0-1.8-0.6-3.3-1.6-4.3c-1.2-1.2-3.1-1.9-5.5-1.9
	h-8.6v18.8h4.1V73.7z M280.8,64.7h4.1c2,0,3.3,0.9,3.3,2.7v0.1c0,1.6-1.2,2.7-3.2,2.7h-4.2V64.7z"/>
<rect x="296.3" y="61" class="st1" width="4.1" height="18.8"/>
<polygon class="st1" points="309.3,72.1 318.1,72.1 318.1,68.4 309.3,68.4 309.3,64.6 319.4,64.6 319.4,61 305.2,61 305.2,79.8 
	319.5,79.8 319.5,76.1 309.3,76.1 "/>
<polygon class="st1" points="335.8,72.5 327,61 323.2,61 323.2,79.8 327.3,79.8 327.3,67.8 336.4,79.8 339.9,79.8 339.9,61 
	335.8,61 "/>
<path class="st1" d="M353.4,76.3c-3.2,0-5.5-2.7-5.5-5.9v-0.1c0-3.2,2.3-5.9,5.5-5.9c1.9,0,3.4,0.8,4.8,2.1l2.6-3
	c-1.7-1.7-3.9-2.9-7.4-2.9c-5.8,0-9.8,4.4-9.8,9.7v0.1c0,5.4,4.1,9.7,9.6,9.7c3.6,0,5.8-1.3,7.7-3.4l-2.6-2.7
	C356.8,75.4,355.5,76.3,353.4,76.3z"/>
<polygon class="st1" points="368.4,72.1 377.2,72.1 377.2,68.4 368.4,68.4 368.4,64.6 378.4,64.6 378.4,61 364.2,61 364.2,79.8 
	378.6,79.8 378.6,76.1 368.4,76.1 "/>
<path class="st1" d="M390.3,61v18.8h4.1v-5.6h3.1c4.2,0,7.6-2.3,7.6-6.6v-0.1c0-3.8-2.7-6.5-7.2-6.5H390.3z M401,67.5L401,67.5
	c0,1.7-1.2,2.9-3.3,2.9h-3.3v-5.8h3.2C399.7,64.7,401,65.7,401,67.5z"/>
<polygon class="st1" points="421.8,76 412.4,76 412.4,61 408.3,61 408.3,79.8 421.8,79.8 "/>
<path class="st1" d="M431.3,60.8l-8.1,18.9h4.2l1.7-4.2h8l1.7,4.2h4.3l-8.1-18.9H431.3z M430.7,71.9l2.5-6.1l2.5,6.1H430.7z"/>
<polygon class="st1" points="448.1,79.8 452.2,79.8 452.2,64.8 458,64.8 458,61 442.4,61 442.4,64.8 448.1,64.8 "/>
<polygon class="st1" points="461.1,79.8 465.3,79.8 465.3,72.5 474.2,72.5 474.2,68.7 465.3,68.7 465.3,64.7 475.4,64.7 475.4,61 
	461.1,61 "/>
<path class="st1" d="M477.9,70.4L477.9,70.4c0,5.4,4.2,9.7,10,9.7c5.8,0,10-4.4,10-9.7v-0.1c0-5.3-4.2-9.7-10-9.7
	C482.1,60.6,477.9,65,477.9,70.4z M493.6,70.4L493.6,70.4c0,3.3-2.3,5.9-5.6,5.9s-5.7-2.7-5.7-5.9v-0.1c0-3.2,2.3-5.9,5.6-5.9
	S493.6,67.1,493.6,70.4z"/>
<path class="st1" d="M501.6,61v18.8h4.1v-6h3.3l4,6h4.8l-4.6-6.7c2.4-0.9,4-2.8,4-5.8v-0.1c0-1.8-0.6-3.3-1.6-4.3
	c-1.2-1.2-3.1-1.9-5.5-1.9H501.6z M513.1,67.4L513.1,67.4c0,1.6-1.2,2.7-3.2,2.7h-4.2v-5.4h4.1C511.9,64.7,513.1,65.6,513.1,67.4z"
	/>
<polygon class="st1" points="525.5,61 521,61 521,79.8 525.1,79.8 525.1,67.6 530.3,75.5 530.4,75.5 535.7,67.5 535.7,79.8 
	539.8,79.8 539.8,61 535.4,61 530.4,68.9 "/>
</svg>
