<svg xmlns="http://www.w3.org/2000/svg" viewBox="0 0 322.08 289.43"><defs><style>.cls-1{fill:#3b5998;}.cls-2{fill:#fff;}.cls-3{fill:#ccc;}.cls-4{fill:#4285f4;}.cls-5{opacity:0.54;}.cls-6{fill:#010101;}.cls-7{fill:#ea4335;}.cls-8{fill:#fbbc05;}.cls-9{fill:#34a853;}</style></defs><title>logosArtboard 18</title><g id="apps_Development" data-name="apps Development"><rect class="cls-1" x="0.04" width="321.99" height="132.28" rx="6.32" ry="6.32"/><polygon class="cls-2" points="145.08 31.29 148.68 31.29 148.68 59.88 145.33 59.88 145.33 37.94 139.02 52.32 135.67 52.32 129.36 37.94 129.36 59.88 126.01 59.88 126.01 31.29 129.62 31.29 137.35 48.85 145.08 31.29"/><path class="cls-2" d="M170.32,59.88h-3l-.21-1.76a12.66,12.66,0,0,1-6.78,2.19c-4.55,0-6.35-2.66-6.35-6.65,0-4.21,2.1-6.4,6.61-6.4a16.41,16.41,0,0,1,6.18,1.2V45.2c0-2.75-.86-3.91-4-3.91a19.89,19.89,0,0,0-5.67.81l-.56-3a23.23,23.23,0,0,1,6.61-1c4.94,0,7.26,2.15,7.26,6.83Zm-3.61-9A20.52,20.52,0,0,0,161,50c-2.88,0-3.61,1.37-3.61,3.73,0,2.62.86,3.86,3.35,3.86a10.88,10.88,0,0,0,5.92-1.8Z"/><path class="cls-2" d="M186.59,41.59a25.79,25.79,0,0,0-6.65,2.23V59.88h-3.61V38.59h3l.39,2.49a10.83,10.83,0,0,1,6.44-2.79Z"/><polygon class="cls-2" points="190.33 59.88 190.33 29.57 193.93 29.57 193.93 48.42 201.36 38.59 205.57 38.59 197.41 49.1 205.91 59.88 201.66 59.88 193.93 49.79 193.93 59.88 190.33 59.88"/><path class="cls-2" d="M211.66,50.82c.21,4.51,1.33,6.65,5.67,6.65a18.11,18.11,0,0,0,6.27-1.2l.56,2.75a20,20,0,0,1-6.87,1.29c-7.68,0-9.23-5.24-9.23-11.2,0-6.14,2-10.95,8.54-10.95,5.8,0,8.2,4.08,8.2,9.19v3.48Zm0-2.83h9.66v-.77c0-3.95-1.24-6.35-4.77-6.35-4,0-4.85,2.88-4.89,7.13"/><path class="cls-2" d="M240.86,59.66a16,16,0,0,1-4.38.64c-3.65,0-5.19-2-5.19-5.32V41.5h-3.69V38.59h3.69V33.39l3.61-.51v5.71h6.05l-.3,2.92h-5.75V54.81c0,2,.47,2.58,2.45,2.58a15.83,15.83,0,0,0,3.22-.43Z"/><path class="cls-2" d="M247,30a2.4,2.4,0,1,1-2.4,2.4A2.32,2.32,0,0,1,247,30m-1.8,8.63h3.61V59.88h-3.61Z"/><path class="cls-2" d="M267.82,59.88V44.38c0-1.93-.82-2.92-2.92-2.92a15.48,15.48,0,0,0-6,1.42v17h-3.61V38.59h2.92l.3,1.89a13.63,13.63,0,0,1,7.3-2.32c3.65,0,5.62,2.06,5.62,5.84V59.88Z"/><path class="cls-2" d="M287.48,38.59h6.74V41l-2.83.56a7.73,7.73,0,0,1,.81,3.61c0,4.42-3,7-7.94,7A9,9,0,0,1,282,52a2.57,2.57,0,0,0-.94,2c0,1,.56,1.5,1.93,1.5h4.81c3.74,0,6.05,2.36,6.05,5.71,0,4.55-4,6.83-9.75,6.83s-8.59-1.72-8.59-5.75c0-2.58,1.72-3.74,3.39-4.55a3.27,3.27,0,0,1-1.37-2.83A4.07,4.07,0,0,1,280,51.34a6.41,6.41,0,0,1-3.65-6.14c0-4.55,2.62-7,7.9-7a12.16,12.16,0,0,1,3.22.43M280.7,58.46a4.35,4.35,0,0,0-1.8,3.56c0,2.49,2.1,3.39,5.32,3.39,3.73,0,6.05-1,6.05-3.82,0-1.63-.9-3-3.22-3h-4.64a8.21,8.21,0,0,1-1.72-.17m3.56-17.73c-3,0-4.51,1.25-4.51,4.47s1.67,4.46,4.51,4.46,4.55-1.37,4.55-4.46-1.59-4.47-4.55-4.47"/><path class="cls-2" d="M129.71,92.16v10.65H126V74.22h8.54c6.61,0,9,3.78,9,9s-2.41,9-9,9Zm0-3h4.72c4.29,0,5.45-2.45,5.45-6s-1.16-6-5.45-6h-4.72Z"/><path class="cls-2" d="M161.74,102.81h-3l-.21-1.76a12.65,12.65,0,0,1-6.78,2.19c-4.55,0-6.35-2.66-6.35-6.65,0-4.21,2.1-6.4,6.61-6.4a16.4,16.4,0,0,1,6.18,1.2V88.13c0-2.75-.86-3.91-4-3.91a19.85,19.85,0,0,0-5.67.81l-.56-3a23.22,23.22,0,0,1,6.61-1c4.94,0,7.26,2.15,7.26,6.83Zm-3.61-9a20.54,20.54,0,0,0-5.67-.9c-2.88,0-3.61,1.37-3.61,3.74,0,2.62.86,3.86,3.35,3.86a10.88,10.88,0,0,0,5.92-1.8Z"/><path class="cls-2" d="M178,84.52a25.77,25.77,0,0,0-6.65,2.23v16.06h-3.61V81.52h3l.39,2.49a10.83,10.83,0,0,1,6.44-2.79Z"/><path class="cls-2" d="M192.73,102.6a16,16,0,0,1-4.38.64c-3.65,0-5.19-2-5.19-5.32V84.44h-3.69V81.52h3.69v-5.2l3.61-.51v5.71h6.05l-.3,2.92h-5.75V97.75c0,2,.47,2.58,2.45,2.58a15.87,15.87,0,0,0,3.22-.43Z"/><path class="cls-2" d="M209.65,102.81V87.31c0-1.93-.82-2.92-2.92-2.92a15.48,15.48,0,0,0-6,1.42v17h-3.61V81.52H200l.3,1.89a13.64,13.64,0,0,1,7.3-2.32c3.65,0,5.62,2.06,5.62,5.84v15.88Z"/><path class="cls-2" d="M221.67,93.75c.21,4.51,1.33,6.65,5.67,6.65a18.11,18.11,0,0,0,6.27-1.2l.56,2.75a20,20,0,0,1-6.87,1.29c-7.68,0-9.23-5.24-9.23-11.21,0-6.14,2-10.95,8.54-10.95,5.8,0,8.2,4.08,8.2,9.19v3.48Zm0-2.83h9.66v-.77c0-3.95-1.25-6.35-4.77-6.35-4,0-4.85,2.88-4.89,7.13"/><path class="cls-2" d="M250.13,84.52a25.77,25.77,0,0,0-6.65,2.23v16.06h-3.61V81.52h3l.39,2.49a10.83,10.83,0,0,1,6.44-2.79Z"/><path class="cls-2" d="M101.24,26.79h-70a4.34,4.34,0,0,0-4.34,4.35v70a4.34,4.34,0,0,0,4.34,4.34h37.7V75H58.66V63.14H68.92V54.38c0-10.17,6.21-15.7,15.28-15.7a84.24,84.24,0,0,1,9.17.47V49.77H87.07c-4.93,0-5.89,2.34-5.89,5.78v7.58H92.95L91.42,75H81.18V105.5h20.06a4.34,4.34,0,0,0,4.34-4.34v-70a4.34,4.34,0,0,0-4.34-4.35"/><rect class="cls-2" x="0.5" y="179.52" width="321.08" height="109.41"/><path class="cls-3" d="M321.08,180V288.43H1V180H321.08m1-1H0V289.43H322.08V179Z"/><polygon class="cls-4" points="29.3 179.02 0 179.02 0 289.43 29.3 289.42 29.3 179.02"/><g class="cls-5"><path class="cls-6" d="M58.23,274.79H52.5V230.22H67.69A14.09,14.09,0,0,1,77.5,234a13,13,0,0,1,0,19,14.08,14.08,0,0,1-9.8,3.77H58.23Zm0-23.53h9.59a7.4,7.4,0,0,0,5.79-2.43,7.66,7.66,0,0,0,0-10.71,7.4,7.4,0,0,0-5.79-2.43H58.23Z"/><path class="cls-6" d="M95,275.78A12,12,0,0,1,86.9,273a9.28,9.28,0,0,1-3.27-7.41,9.16,9.16,0,0,1,3.86-7.81A15.67,15.67,0,0,1,97,254.93a16.4,16.4,0,0,1,8.28,1.87v-.87a6.81,6.81,0,0,0-2.3-5.38,8.28,8.28,0,0,0-5.66-2,8.78,8.78,0,0,0-4.51,1.18A6.1,6.1,0,0,0,90,252.94l-5.23-2.24A11.85,11.85,0,0,1,89,245.62a13.36,13.36,0,0,1,8.22-2.33,14.09,14.09,0,0,1,9.71,3.42q3.86,3.42,3.86,9.65v18.43h-5.48v-4.23H105a11.23,11.23,0,0,1-10,5.23m.93-5.23a9.33,9.33,0,0,0,6.44-2.64,8.21,8.21,0,0,0,2.9-6.26q-2.43-2-7.28-2-4.17,0-6.29,1.8a5.42,5.42,0,0,0-2.12,4.23,4.07,4.07,0,0,0,1.93,3.55A7.68,7.68,0,0,0,96,270.55"/><path class="cls-6" d="M122.72,244.29v5H123a7.94,7.94,0,0,1,3.7-4.2,11.92,11.92,0,0,1,5.95-1.52,18.79,18.79,0,0,1,2.05.12v5.6a22.11,22.11,0,0,0-2.3-.12,9.67,9.67,0,0,0-6.75,2.4,8.41,8.41,0,0,0-2.65,6.57v16.68h-5.72v-30.5Zm31.37,31q-4.79,0-7.31-2.55t-2.52-7.22v-16H138.9v-5.23h5.35v-9.34H150v9.34h7.47v5.23H150v15.56q0,5,4.11,5a6.14,6.14,0,0,0,2.62-.5l2,4.92a11.61,11.61,0,0,1-4.61.81"/><path class="cls-6" d="M168.72,244.29v4.23H169a10.16,10.16,0,0,1,3.92-3.7,11.38,11.38,0,0,1,5.73-1.53q5.66,0,8.65,3.49t3,9.34v18.68h-5.73V257q0-8.46-7.53-8.47a7,7,0,0,0-5.79,2.83,10.28,10.28,0,0,0-2.24,6.57v16.87h-5.72v-30.5Z"/><path class="cls-6" d="M210.8,275.78a14.7,14.7,0,0,1-11.24-4.61,16.32,16.32,0,0,1-4.33-11.64,16.8,16.8,0,0,1,4.2-11.45,13.64,13.64,0,0,1,10.74-4.79A14.08,14.08,0,0,1,221,247.71q4.08,4.42,4.08,11.83l-.06,1.06H201a10.34,10.34,0,0,0,3.08,7.28,9.34,9.34,0,0,0,6.63,2.68q6.16,0,8.34-5.23l5.1,2.12a13.68,13.68,0,0,1-4.92,5.95,14.31,14.31,0,0,1-8.4,2.4M219,255.87a8.14,8.14,0,0,0-2.4-5q-2.21-2.36-6.57-2.37a8.22,8.22,0,0,0-5.51,2,10.16,10.16,0,0,0-3.2,5.35Z"/><path class="cls-6" d="M236.07,274.79h-5.73v-30.5h5.48v5h.25a7.83,7.83,0,0,1,3.58-4.11,10.27,10.27,0,0,1,5.26-1.62,10.93,10.93,0,0,1,4.29.75L247,249.64a8.64,8.64,0,0,0-3.05-.44,7.49,7.49,0,0,0-5.51,2.46,8.85,8.85,0,0,0-2.4,6.44Z"/></g><path class="cls-4" d="M65.55,220a13.67,13.67,0,1,1,0-27.34,13,13,0,0,1,9.37,3.77l-2.63,2.63a9.53,9.53,0,0,0-6.74-2.67,9.94,9.94,0,0,0,0,19.87,9.15,9.15,0,0,0,6.9-2.73,7.8,7.8,0,0,0,2-4.7h-9V205H78.12a13.4,13.4,0,0,1,.2,2.44,12.34,12.34,0,0,1-3.23,8.74A12.5,12.5,0,0,1,65.55,220"/><path class="cls-7" d="M98.28,211.21a8.84,8.84,0,1,1-8.84-8.8,8.7,8.7,0,0,1,8.84,8.8m-3.87,0a5,5,0,1,0-5,5.34,5.07,5.07,0,0,0,5-5.34"/><path class="cls-8" d="M118.29,211.21a8.84,8.84,0,1,1-8.84-8.8,8.7,8.7,0,0,1,8.84,8.8m-3.87,0a5,5,0,1,0-5,5.34,5.07,5.07,0,0,0,5-5.34"/><path class="cls-4" d="M137.41,202.94v15.81c0,6.5-3.83,9.17-8.37,9.17a8.39,8.39,0,0,1-7.8-5.2l3.37-1.4a4.87,4.87,0,0,0,4.44,3.13c2.9,0,4.7-1.8,4.7-5.17V218h-.13a6,6,0,0,1-4.64,2,8.81,8.81,0,0,1,0-17.61,6.1,6.1,0,0,1,4.64,2h.13v-1.43Zm-3.4,8.3c0-3.1-2.07-5.37-4.7-5.37a5.35,5.35,0,0,0,0,10.67c2.63,0,4.7-2.23,4.7-5.3"/><rect class="cls-9" x="141.15" y="193.6" width="3.87" height="25.88"/><path class="cls-7" d="M160.77,214.11l3,2a8.75,8.75,0,0,1-7.34,3.9,8.62,8.62,0,0,1-8.74-8.8c0-5.24,3.77-8.8,8.3-8.8s6.8,3.63,7.54,5.6l.4,1-11.77,4.87a4.48,4.48,0,0,0,4.27,2.67,5,5,0,0,0,4.34-2.43m-9.24-3.17,7.87-3.27a3.41,3.41,0,0,0-3.27-1.87,4.83,4.83,0,0,0-4.6,5.14"/></g></svg>