<svg xmlns="http://www.w3.org/2000/svg" viewBox="0 0 322.08 110.41"><defs><style>.cls-1{fill:#fff;}.cls-2{fill:#ccc;}.cls-3{fill:#4285f4;}.cls-4{opacity:0.54;}.cls-5{fill:#010101;}.cls-6{fill:#ea4335;}.cls-7{fill:#fbbc05;}.cls-8{fill:#34a853;}</style></defs><title>logosArtboard 16</title><g id="apps_Development" data-name="apps Development"><rect class="cls-1" x="0.5" y="0.5" width="321.08" height="109.41"/><path class="cls-2" d="M321.08,1V109.41H1V1H321.08m1-1H0V110.41H322.08V0Z"/><polygon class="cls-3" points="29.3 0 0 0 0 110.41 29.3 110.4 29.3 0"/><g class="cls-4"><path class="cls-5" d="M58.23,95.77H52.5V51.19H67.69A14.09,14.09,0,0,1,77.5,55a13,13,0,0,1,0,19,14.08,14.08,0,0,1-9.8,3.77H58.23Zm0-23.53h9.59a7.4,7.4,0,0,0,5.79-2.43,7.66,7.66,0,0,0,0-10.71,7.4,7.4,0,0,0-5.79-2.43H58.23Z"/><path class="cls-5" d="M95,96.76A12,12,0,0,1,86.9,94a9.28,9.28,0,0,1-3.27-7.41,9.16,9.16,0,0,1,3.86-7.81A15.67,15.67,0,0,1,97,75.91a16.4,16.4,0,0,1,8.28,1.87V76.9a6.81,6.81,0,0,0-2.3-5.38,8.28,8.28,0,0,0-5.66-2,8.78,8.78,0,0,0-4.51,1.18A6.1,6.1,0,0,0,90,73.92l-5.23-2.24A11.85,11.85,0,0,1,89,66.6a13.36,13.36,0,0,1,8.22-2.33,14.09,14.09,0,0,1,9.71,3.42q3.86,3.42,3.86,9.65V95.77h-5.48V91.53H105a11.23,11.23,0,0,1-10,5.23M96,91.53a9.33,9.33,0,0,0,6.44-2.64,8.21,8.21,0,0,0,2.9-6.26q-2.43-2-7.28-2-4.17,0-6.29,1.8a5.42,5.42,0,0,0-2.12,4.23,4.07,4.07,0,0,0,1.93,3.55A7.68,7.68,0,0,0,96,91.53"/><path class="cls-5" d="M122.72,65.26v5H123a7.94,7.94,0,0,1,3.7-4.2,11.92,11.92,0,0,1,5.95-1.52,18.79,18.79,0,0,1,2.05.12v5.6a22.11,22.11,0,0,0-2.3-.12,9.67,9.67,0,0,0-6.75,2.4A8.41,8.41,0,0,0,123,79.08V95.77h-5.72V65.26Zm31.37,31q-4.79,0-7.31-2.55t-2.52-7.22v-16H138.9V65.26h5.35V55.93H150v9.34h7.47v5.23H150V86.05q0,5,4.11,5a6.14,6.14,0,0,0,2.62-.5l2,4.92a11.61,11.61,0,0,1-4.61.81"/><path class="cls-5" d="M168.72,65.26v4.23H169a10.16,10.16,0,0,1,3.92-3.7,11.38,11.38,0,0,1,5.73-1.53q5.66,0,8.65,3.49t3,9.34V95.77h-5.73V78q0-8.46-7.53-8.47a7,7,0,0,0-5.79,2.83A10.28,10.28,0,0,0,169,78.9V95.77h-5.72V65.26Z"/><path class="cls-5" d="M210.8,96.76a14.7,14.7,0,0,1-11.24-4.61,16.32,16.32,0,0,1-4.33-11.64,16.8,16.8,0,0,1,4.2-11.45,13.64,13.64,0,0,1,10.74-4.79A14.08,14.08,0,0,1,221,68.68q4.08,4.42,4.08,11.83l-.06,1.06H201A10.34,10.34,0,0,0,204,88.85a9.34,9.34,0,0,0,6.63,2.68q6.16,0,8.34-5.23l5.1,2.12a13.68,13.68,0,0,1-4.92,5.95,14.31,14.31,0,0,1-8.4,2.4M219,76.84a8.14,8.14,0,0,0-2.4-5q-2.21-2.36-6.57-2.37a8.22,8.22,0,0,0-5.51,2,10.16,10.16,0,0,0-3.2,5.35Z"/><path class="cls-5" d="M236.07,95.77h-5.73V65.26h5.48v5h.25a7.83,7.83,0,0,1,3.58-4.11,10.27,10.27,0,0,1,5.26-1.62,10.93,10.93,0,0,1,4.29.75L247,70.62a8.64,8.64,0,0,0-3.05-.44,7.49,7.49,0,0,0-5.51,2.46,8.85,8.85,0,0,0-2.4,6.44Z"/></g><path class="cls-3" d="M65.55,41A13.86,13.86,0,0,1,51.68,27.32,13.86,13.86,0,0,1,65.55,13.65a13,13,0,0,1,9.37,3.77L72.29,20a9.53,9.53,0,0,0-6.74-2.67,9.94,9.94,0,0,0,0,19.87,9.15,9.15,0,0,0,6.9-2.73,7.8,7.8,0,0,0,2-4.7h-9V26H78.12a13.4,13.4,0,0,1,.2,2.44,12.34,12.34,0,0,1-3.23,8.74A12.5,12.5,0,0,1,65.55,41"/><path class="cls-6" d="M98.28,32.19a8.84,8.84,0,1,1-8.84-8.8,8.7,8.7,0,0,1,8.84,8.8m-3.87,0a5,5,0,1,0-9.94,0,5,5,0,1,0,9.94,0"/><path class="cls-7" d="M118.29,32.19a8.84,8.84,0,1,1-8.84-8.8,8.7,8.7,0,0,1,8.84,8.8m-3.87,0a5,5,0,1,0-9.94,0,5,5,0,1,0,9.94,0"/><path class="cls-3" d="M137.41,23.92V39.72c0,6.5-3.83,9.17-8.37,9.17a8.39,8.39,0,0,1-7.8-5.2l3.37-1.4A4.87,4.87,0,0,0,129,45.43c2.9,0,4.7-1.8,4.7-5.17V39h-.13A6,6,0,0,1,129,41a8.81,8.81,0,0,1,0-17.61,6.1,6.1,0,0,1,4.64,2h.13V23.92Zm-3.4,8.3c0-3.1-2.07-5.37-4.7-5.37a5.09,5.09,0,0,0-4.9,5.37,5.05,5.05,0,0,0,4.9,5.3c2.63,0,4.7-2.23,4.7-5.3"/><rect class="cls-8" x="141.15" y="14.58" width="3.87" height="25.88"/><path class="cls-6" d="M160.77,35.09l3,2a8.75,8.75,0,0,1-7.34,3.9,8.62,8.62,0,0,1-8.74-8.8c0-5.24,3.77-8.8,8.3-8.8s6.8,3.63,7.54,5.6l.4,1-11.77,4.87a4.48,4.48,0,0,0,4.27,2.67,5,5,0,0,0,4.34-2.43m-9.24-3.17,7.87-3.27a3.41,3.41,0,0,0-3.27-1.87,4.83,4.83,0,0,0-4.6,5.14"/></g></svg>