<svg xmlns="http://www.w3.org/2000/svg" viewBox="0 0 291.27 291.27"><defs><style>.cls-1{fill:#fff;}.cls-2{fill:#22d3c5;}.cls-3{fill:#ff6e69;}.cls-4{fill:#2f2a34;}.cls-5{fill:#00a19b;}</style></defs><title>graphicsArtboard 14</title><g id="apps_Development" data-name="apps Development"><circle class="cls-1" cx="145.63" cy="145.63" r="145.63"/><rect class="cls-2" x="59.92" y="91.31" width="27.02" height="102.98"/><rect class="cls-3" x="132.16" y="24.88" width="27.02" height="169.41"/><path class="cls-4" d="M145.67,184.64a27.14,27.14,0,1,0,27.14,27.14,27.14,27.14,0,0,0-27.14-27.14"/><path class="cls-1" d="M145.67,240.34a28.56,28.56,0,1,1,28.56-28.56,28.59,28.59,0,0,1-28.56,28.56m0-54.29a25.73,25.73,0,1,0,25.73,25.73,25.75,25.75,0,0,0-25.73-25.73"/><path class="cls-1" d="M152.72,202.71h-2.55c-2,0-2.39,1-2.39,2.35v3.08h4.78l-.62,4.83h-4.16v12.38h-5V213h-4.17v-4.83h4.17v-3.56c0-4.13,2.52-6.38,6.21-6.38a34.26,34.26,0,0,1,3.72.19Z"/><path class="cls-4" d="M73.42,184.64a27.14,27.14,0,1,0,27.14,27.14,27.14,27.14,0,0,0-27.14-27.14"/><path class="cls-1" d="M73.42,240.34A28.56,28.56,0,1,1,102,211.78a28.59,28.59,0,0,1-28.56,28.56m0-54.29a25.73,25.73,0,1,0,25.73,25.73,25.75,25.75,0,0,0-25.73-25.73"/><path class="cls-1" d="M87.23,209.28c0-.15-.09-.18-.23-.18H73.93c-.19,0-.21.06-.21.22q0,2.56,0,5.12c0,.19,0,.23.24.23h7.33c.26,0,.27,0,.21.26a6.5,6.5,0,0,1-3,4.28A8.62,8.62,0,0,1,72,220.32a8.46,8.46,0,0,1-5.92-4.63c-.19-.36-.31-.74-.49-1.11a1,1,0,0,0,0-.11,8.29,8.29,0,0,1,.12-5.68,8.42,8.42,0,0,1,7.17-5.69,7.65,7.65,0,0,1,6.29,2c.13.11.18.06.26,0l3.7-3.7c.22-.22.24-.16,0-.39h0a13.6,13.6,0,0,0-7.18-3.37,14.35,14.35,0,0,0-15.06,7.89,13.83,13.83,0,0,0-1.4,5,14.18,14.18,0,0,0,.47,5.2c.13.44.27.87.43,1.3a11,11,0,0,0,.57,1.25,1.25,1.25,0,0,0,0,.13,14.37,14.37,0,0,0,9.92,7.51,15.06,15.06,0,0,0,6.23-.08,12.58,12.58,0,0,0,8.72-6.56,14.5,14.5,0,0,0,1.51-5,17.2,17.2,0,0,0-.11-4.94"/><rect class="cls-5" x="204.4" y="125.37" width="27.02" height="68.93"/><path class="cls-4" d="M217.91,184.64a27.14,27.14,0,1,0,27.14,27.14,27.14,27.14,0,0,0-27.14-27.14"/><path class="cls-1" d="M217.91,240.34a28.56,28.56,0,1,1,28.56-28.56,28.59,28.59,0,0,1-28.56,28.56m0-54.29a25.73,25.73,0,1,0,25.73,25.73,25.76,25.76,0,0,0-25.73-25.73"/><path class="cls-1" d="M214.1,223.48a15.62,15.62,0,0,0,15.73-15.73c0-.24,0-.48,0-.71a11.24,11.24,0,0,0,2.76-2.86,11,11,0,0,1-3.18.87,5.55,5.55,0,0,0,2.43-3.06,11.07,11.07,0,0,1-3.51,1.34,5.53,5.53,0,0,0-9.42,5,15.7,15.7,0,0,1-11.4-5.78,5.53,5.53,0,0,0,1.71,7.38,5.49,5.49,0,0,1-2.5-.69s0,0,0,.07a5.53,5.53,0,0,0,4.44,5.42,5.53,5.53,0,0,1-2.5.09,5.54,5.54,0,0,0,5.16,3.84,11.18,11.18,0,0,1-8.19,2.29,15.65,15.65,0,0,0,8.48,2.48"/><path class="cls-2" d="M127.95,253.75a21,21,0,0,1,8.88,2.18,20.61,20.61,0,0,1,4,2.64,22.76,22.76,0,0,1,3.32,3.51l-4.73.53a24.36,24.36,0,0,1,.88-2.28c.31-.72.64-1.42,1-2.11a34.73,34.73,0,0,1,2.43-4,33.06,33.06,0,0,1,6.39-6.79,27.37,27.37,0,0,1,8.17-4.49,21.44,21.44,0,0,1,9-1.1,58.64,58.64,0,0,0-7.4,4.4,45,45,0,0,0-6.16,5.29,53.49,53.49,0,0,0-5.16,6.17c-.79,1.09-1.53,2.22-2.25,3.36l-1,1.73c-.33.56-.66,1.22-.91,1.68L142,269l-2.28-4a26.45,26.45,0,0,0-2.16-3.25,24.22,24.22,0,0,0-2.68-2.94A46.83,46.83,0,0,0,127.95,253.75Z"/></g></svg>