<svg xmlns="http://www.w3.org/2000/svg" viewBox="0 0 979.55 151.95"><defs><style>.cls-1{fill:#2f2a34;}.cls-2{fill:#22d3c5;}.cls-3{fill:#ff6e69;}.cls-4{fill:#00a19b;}.cls-5{fill:#c0cdd5;}</style></defs><title>graphArtboard 12</title><g id="apps_Development" data-name="apps Development"><path class="cls-1" d="M640.49,134.07h5c3,0,4.79,1.67,4.79,4.21v0c0,2.83-2.27,4.3-5,4.3h-2.5v4.05h-2.21Zm4.79,6.55c1.67,0,2.72-.94,2.72-2.25v0c0-1.48-1.06-2.25-2.72-2.25H642.7v4.54Z"/><path class="cls-1" d="M655.72,134h2.05l5.55,12.69H661l-1.28-3h-6l-1.3,3h-2.27Zm3.17,7.69-2.18-5-2.16,5Z"/><path class="cls-1" d="M664.41,144.83l1.33-1.58a5.84,5.84,0,0,0,4,1.64c1.37,0,2.23-.65,2.23-1.58v0c0-.9-.5-1.39-2.84-1.93-2.68-.65-4.2-1.44-4.2-3.76v0c0-2.16,1.8-3.65,4.3-3.65a7,7,0,0,1,4.57,1.58l-1.19,1.67a5.72,5.72,0,0,0-3.42-1.3c-1.3,0-2.05.67-2.05,1.5v0c0,1,.58,1.41,3,2,2.67.65,4,1.6,4,3.69v0c0,2.36-1.85,3.76-4.5,3.76A7.77,7.77,0,0,1,664.41,144.83Z"/><path class="cls-1" d="M679.6,136.12h-4v-2.05h10.23v2.05h-4v10.55H679.6Z"/><path class="cls-1" d="M723.48,134.07h5c3,0,4.79,1.67,4.79,4.21v0c0,2.83-2.27,4.3-5,4.3h-2.5v4.05h-2.21Zm4.79,6.55c1.67,0,2.72-.94,2.72-2.25v0c0-1.48-1.06-2.25-2.72-2.25H725.7v4.54Z"/><path class="cls-1" d="M735.51,134.07h5.62a5.07,5.07,0,0,1,3.64,1.26,3.81,3.81,0,0,1,1,2.72v0a3.78,3.78,0,0,1-3,3.82l3.4,4.77h-2.63l-3.1-4.39h-2.77v4.39h-2.21Zm5.46,6.25c1.58,0,2.59-.83,2.59-2.11v0c0-1.35-1-2.09-2.61-2.09h-3.22v4.23Z"/><path class="cls-1" d="M748.52,134.07h9.34v2h-7.13v3.28h6.32v2h-6.32v3.38H758v2h-9.44Z"/><path class="cls-1" d="M759.73,144.83l1.33-1.58a5.84,5.84,0,0,0,4,1.64c1.37,0,2.23-.65,2.23-1.58v0c0-.9-.5-1.39-2.84-1.93-2.68-.65-4.2-1.44-4.2-3.76v0c0-2.16,1.8-3.65,4.3-3.65a7,7,0,0,1,4.57,1.58l-1.19,1.67a5.72,5.72,0,0,0-3.42-1.3c-1.3,0-2.05.67-2.05,1.5v0c0,1,.58,1.41,3,2,2.67.65,4,1.6,4,3.69v0c0,2.36-1.85,3.76-4.5,3.76A7.77,7.77,0,0,1,759.73,144.83Z"/><path class="cls-1" d="M772.1,134.07h9.34v2h-7.13v3.28h6.32v2h-6.32v3.38h7.22v2H772.1Z"/><path class="cls-1" d="M784.16,134.07h2.05l6.75,8.71v-8.71h2.18v12.6h-1.85l-7-9v9h-2.18Z"/><path class="cls-1" d="M801.48,136.12h-4v-2.05h10.23v2.05h-4v10.55h-2.23Z"/><path class="cls-1" d="M845.51,134.4h9.38v2h-7.17v3.44h6.36v2h-6.36V147h-2.21Z"/><path class="cls-1" d="M857.12,141.66V134.4h2.21v7.17c0,2.34,1.21,3.58,3.19,3.58s3.17-1.17,3.17-3.49V134.4h2.21v7.15c0,3.76-2.12,5.65-5.42,5.65S857.12,145.31,857.12,141.66Z"/><path class="cls-1" d="M874,136.45h-4V134.4h10.23v2.05h-4V147H874Z"/><path class="cls-1" d="M882.41,141.66V134.4h2.21v7.17c0,2.34,1.21,3.58,3.19,3.58S891,144,891,141.66V134.4h2.21v7.15c0,3.76-2.12,5.65-5.42,5.65S882.41,145.31,882.41,141.66Z"/><path class="cls-1" d="M896.23,134.4h5.62a5.07,5.07,0,0,1,3.64,1.26,3.81,3.81,0,0,1,1,2.72v0a3.78,3.78,0,0,1-3,3.82l3.4,4.77h-2.63l-3.1-4.39h-2.77V147h-2.21Zm5.46,6.25c1.58,0,2.59-.83,2.59-2.11v0c0-1.35-1-2.09-2.61-2.09h-3.22v4.23Z"/><path class="cls-1" d="M909.25,134.4h9.34v2h-7.13v3.28h6.32v2h-6.32V145h7.22v2h-9.44Z"/><rect class="cls-2" x="17.76" y="25.94" width="16.27" height="83"/><rect class="cls-3" x="61.26" y="50.89" width="16.27" height="58.05"/><rect class="cls-4" x="104.76" width="16.27" height="108.94"/><rect class="cls-5" x="148.26" y="25.94" width="16.27" height="83"/><rect class="cls-2" x="191.75" y="6.94" width="16.27" height="102"/><rect class="cls-3" x="235.25" y="54.47" width="16.27" height="54.47"/><rect class="cls-4" x="278.75" y="40.94" width="16.27" height="68"/><rect class="cls-5" x="322.25" y="6.94" width="16.27" height="102"/><rect class="cls-2" x="365.75" y="64.71" width="16.27" height="44.23"/><rect class="cls-3" x="409.24" y="25.94" width="16.27" height="83"/><rect class="cls-4" x="452.74" y="15.94" width="16.27" height="93"/><rect class="cls-5" x="496.24" y="25.94" width="16.27" height="83"/><rect class="cls-2" x="539.74" y="40.94" width="16.27" height="68"/><rect class="cls-3" x="583.23" y="25.94" width="16.27" height="83"/><rect class="cls-4" x="626.73" y="15.94" width="16.27" height="93"/><rect class="cls-5" x="670.23" y="34.43" width="16.27" height="74.51"/><rect class="cls-2" x="713.73" y="46.94" width="16.27" height="62"/><rect class="cls-3" x="757.23" y="6.94" width="16.27" height="102"/><rect class="cls-4" x="800.72" y="67.44" width="16.27" height="41.5"/><rect class="cls-5" x="844.22" y="34.43" width="16.27" height="74.51"/><rect class="cls-2" x="887.72" y="15.94" width="16.27" height="93"/><rect class="cls-3" x="931.22" y="52.12" width="16.27" height="56.82"/><rect class="cls-1" x="2.21" y="118.53" width="684.29" height="2"/><rect class="cls-1" x="713.73" y="118.53" width="103.26" height="2"/><rect class="cls-1" x="844.22" y="118.53" width="132.61" height="2"/><rect class="cls-1" x="968.82" y="115.08" width="11.74" height="2" transform="translate(367.56 -655.21) rotate(45)"/><rect class="cls-1" x="968.82" y="121.98" width="11.74" height="2" transform="translate(198.52 725.23) rotate(-45)"/><rect class="cls-1" x="-1.01" y="115.08" width="11.74" height="2" transform="translate(90.37 194.73) rotate(135)"/><rect class="cls-1" x="-1.01" y="121.98" width="11.74" height="2" transform="translate(-78.67 213.38) rotate(-135)"/></g></svg>