<svg xmlns="http://www.w3.org/2000/svg" viewBox="0 0 979.55 151.95"><defs><style>.cls-1,.cls-5{font-size:18px;font-family:Gotham-Medium, Gotham;}.cls-1,.cls-10,.cls-5{fill:#2f2a34;}.cls-1{letter-spacing:-0.07em;}.cls-2{letter-spacing:-0.01em;}.cls-3{letter-spacing:-0.01em;}.cls-4{letter-spacing:0em;}.cls-6{fill:#22d3c5;}.cls-7{fill:#ff6e69;}.cls-8{fill:#00a19b;}.cls-9{fill:#c0cdd5;}</style></defs><title>graphicsArtboard 12</title><g id="apps_Development" data-name="apps Development"><text class="cls-1" transform="translate(638.87 146.67)">P<tspan class="cls-2" x="10.76" y="0">A</tspan><tspan class="cls-3" x="24.77" y="0">S</tspan><tspan class="cls-4" x="36.02" y="0">T</tspan></text><text class="cls-5" transform="translate(721.86 146.67)">PRESENT</text><text class="cls-5" transform="translate(843.89 147)">FUTURE</text><rect class="cls-6" x="17.76" y="25.94" width="16.27" height="83"/><rect class="cls-7" x="61.26" y="50.89" width="16.27" height="58.05"/><rect class="cls-8" x="104.76" width="16.27" height="108.94"/><rect class="cls-9" x="148.26" y="25.94" width="16.27" height="83"/><rect class="cls-6" x="191.75" y="6.94" width="16.27" height="102"/><rect class="cls-7" x="235.25" y="54.47" width="16.27" height="54.47"/><rect class="cls-8" x="278.75" y="40.94" width="16.27" height="68"/><rect class="cls-9" x="322.25" y="6.94" width="16.27" height="102"/><rect class="cls-6" x="365.75" y="64.71" width="16.27" height="44.23"/><rect class="cls-7" x="409.24" y="25.94" width="16.27" height="83"/><rect class="cls-8" x="452.74" y="15.94" width="16.27" height="93"/><rect class="cls-9" x="496.24" y="25.94" width="16.27" height="83"/><rect class="cls-6" x="539.74" y="40.94" width="16.27" height="68"/><rect class="cls-7" x="583.23" y="25.94" width="16.27" height="83"/><rect class="cls-8" x="626.73" y="15.94" width="16.27" height="93"/><rect class="cls-9" x="670.23" y="34.43" width="16.27" height="74.51"/><rect class="cls-6" x="713.73" y="46.94" width="16.27" height="62"/><rect class="cls-7" x="757.23" y="6.94" width="16.27" height="102"/><rect class="cls-8" x="800.72" y="67.44" width="16.27" height="41.5"/><rect class="cls-9" x="844.22" y="34.43" width="16.27" height="74.51"/><rect class="cls-6" x="887.72" y="15.94" width="16.27" height="93"/><rect class="cls-7" x="931.22" y="52.12" width="16.27" height="56.82"/><rect class="cls-10" x="2.21" y="118.53" width="684.29" height="2"/><rect class="cls-10" x="713.73" y="118.53" width="103.26" height="2"/><rect class="cls-10" x="844.22" y="118.53" width="132.61" height="2"/><rect class="cls-10" x="968.82" y="115.08" width="11.74" height="2" transform="translate(367.56 -655.21) rotate(45)"/><rect class="cls-10" x="968.82" y="121.98" width="11.74" height="2" transform="translate(198.52 725.23) rotate(-45)"/><rect class="cls-10" x="-1.01" y="115.08" width="11.74" height="2" transform="translate(90.37 194.73) rotate(135)"/><rect class="cls-10" x="-1.01" y="121.98" width="11.74" height="2" transform="translate(-78.67 213.38) rotate(-135)"/></g></svg>