<svg xmlns="http://www.w3.org/2000/svg" xmlns:xlink="http://www.w3.org/1999/xlink" viewBox="0 0 135.72 135.72"><defs><style>.cls-1{fill:none;}.cls-2{clip-path:url(#clip-path);}.cls-3{fill:#22d3c5;}.cls-4{fill:#fff;fill-rule:evenodd;}</style><clipPath id="clip-path"><circle class="cls-1" cx="67.86" cy="67.86" r="67.84" transform="translate(-17.41 111.89) rotate(-72.31)"/></clipPath></defs><title>Icons</title><g id="apps_Development" data-name="apps Development"><g class="cls-2"><path class="cls-3" d="M-38.62,93.84A52.3,52.3,0,0,1-53.86,61.12l-3-35.22A52.52,52.52,0,0,1-35.76-20.57a53.32,53.32,0,0,1,46.41-7.84c13.43-3.77,35.4-9.57,60.17,3.34A75.67,75.67,0,0,1,89.52-11.3c8,7.92,12.71,15.43,17.29,22.68.51.81,1.09,1.73,1.66,2.62A55.86,55.86,0,0,1,136.1,33.16c1.12.95,2.21,1.95,3.24,3a56.06,56.06,0,0,1,11.81,62.24q-.47,1.06-1,2.1a56.14,56.14,0,0,1-32.23,38.74A57.94,57.94,0,0,1,72.37,155,125.36,125.36,0,0,1-6.18,120l-.72-.71A125.44,125.44,0,0,1-18.2,106.37a52.4,52.4,0,0,1-5.64-2.22A52,52,0,0,1-38.62,93.84Z"/><path class="cls-4" d="M-36.68,91.89a49.55,49.55,0,0,1-14.43-31l-3-35.22a49.75,49.75,0,0,1,20-44,50.35,50.35,0,0,1,44.74-7.18c14.11-4,35.09-9.52,58.95,2.91a73,73,0,0,1,18,13.28c7.75,7.7,12.4,15.07,16.9,22.2.68,1.08,1.48,2.36,2.23,3.49a53.16,53.16,0,0,1,27.4,18.73c1.14,1,2.25,2,3.3,3a53.31,53.31,0,0,1,11.23,59.19c-.33.76-.69,1.52-1.06,2.27a53.4,53.4,0,0,1-31.19,37.35A55,55,0,0,1,72.66,152.3,122.76,122.76,0,0,1-4.27,118l-.71-.7A123.43,123.43,0,0,1-16.53,104a49.74,49.74,0,0,1-6.14-2.36A49.28,49.28,0,0,1-36.68,91.89Z"/><path class="cls-3" d="M-34.75,89.94A46.79,46.79,0,0,1-48.38,60.66l-3-35.22A47,47,0,0,1-32.5-16.14a47.4,47.4,0,0,1,43-6.52c14.78-4.17,34.81-9.48,57.75,2.47A70.27,70.27,0,0,1,85.64-7.4C93.17.08,97.74,7.31,102.15,14.31c.88,1.39,1.93,3.06,2.82,4.39A50.45,50.45,0,0,1,132.1,37c1.16,1,2.29,2,3.36,3.05a50.56,50.56,0,0,1,10.65,56.14c-.36.82-.75,1.64-1.15,2.44a50.65,50.65,0,0,1-30.15,36,52.05,52.05,0,0,1-41.86,15A120.16,120.16,0,0,1-2.35,116l-.7-.69a121.28,121.28,0,0,1-11.83-13.7,47.23,47.23,0,0,1-6.64-2.48A46.56,46.56,0,0,1-34.75,89.94Z"/><path class="cls-4" d="M-32.81,88A44,44,0,0,1-45.64,60.43l-3-35.22A44.23,44.23,0,0,1-30.87-13.93a44.45,44.45,0,0,1,41.31-5.85C25.9-24.14,45-29.22,67-17.75A67.56,67.56,0,0,1,83.7-5.45C91,1.81,95.49,8.91,99.83,15.78c1.11,1.76,2.44,3.88,3.46,5.32a47.73,47.73,0,0,1,26.82,17.8c1.19,1,2.34,2,3.42,3.08a47.81,47.81,0,0,1,10.07,53.09c-.39.88-.8,1.75-1.25,2.62a47.9,47.9,0,0,1-29.11,34.56,49.11,49.11,0,0,1-40,14.59A117.56,117.56,0,0,1-.43,114.06l-.68-.67A119.26,119.26,0,0,1-13.23,99.25a44.6,44.6,0,0,1-7.13-2.58A43.81,43.81,0,0,1-32.81,88Z"/><path class="cls-3" d="M-30.87,86a41.29,41.29,0,0,1-12-25.83l-3-35.23A41.46,41.46,0,0,1-29.24-11.71a41.58,41.58,0,0,1,39.55-5.17c16.12-4.56,34.35-9.41,55.43,1.57a64.88,64.88,0,0,1,16,11.81c7.08,7,11.48,14,15.74,20.75,1.38,2.18,3.05,4.84,4.16,6.3a45,45,0,0,1,26.44,17.27,45,45,0,0,1,13,53.15c-.42.94-.87,1.88-1.34,2.79a45.15,45.15,0,0,1-28.07,33.15A46.17,46.17,0,0,1,73.53,144.1a115,115,0,0,1-72-32l-.67-.66a117.29,117.29,0,0,1-12.4-14.59,41.84,41.84,0,0,1-7.61-2.66A41.07,41.07,0,0,1-30.87,86Z"/><path class="cls-4" d="M-28.93,84.09A38.54,38.54,0,0,1-40.16,60l-3-35.23A38.7,38.7,0,0,1-27.61-9.5,38.8,38.8,0,0,1,9.78-14.14l.39.16c16.78-4.75,34.15-9.4,54.31,1.11A62.21,62.21,0,0,1,79.83-1.55C86.69,5.27,91,12.11,95.18,18.73c1.61,2.56,3.45,5.47,4.63,6.92l.31.38a42.28,42.28,0,0,1,26,16.71,42.3,42.3,0,0,1,12.45,50.13c-.44,1-.93,2-1.44,3a42.41,42.41,0,0,1-27,31.74,43.22,43.22,0,0,1-36.26,13.8A112.34,112.34,0,0,1,3.41,110.12l-.66-.65A115.5,115.5,0,0,1-10,94.39,39.15,39.15,0,0,1-18,91.68,38.34,38.34,0,0,1-28.93,84.09Z"/><path class="cls-3" d="M-27,82.14A35.78,35.78,0,0,1-37.42,59.75l-3-35.23A35.93,35.93,0,0,1-26-7.28,36,36,0,0,1,8.74-11.59l1.29.51C27.49-16,44-20.46,63.21-10.44A59.54,59.54,0,0,1,77.89.4c6.64,6.6,10.88,13.31,15,19.8,1.74,2.76,3.54,5.61,4.83,7.19q.46.57.9,1.15a39.85,39.85,0,0,1,21.14,11,40.52,40.52,0,0,1,4.37,5.17A39.55,39.55,0,0,1,136,91.76c-.47,1.07-1,2.12-1.54,3.13a39.65,39.65,0,0,1-26,30.32,40.28,40.28,0,0,1-34.37,13.42A109.74,109.74,0,0,1,5.32,108.15l-.65-.64a113.8,113.8,0,0,1-13-15.6,36.28,36.28,0,0,1-8.54-2.72A35.58,35.58,0,0,1-27,82.14Z"/><path class="cls-4" d="M-25.05,80.18a33,33,0,0,1-9.62-20.66l-3-35.24A33.17,33.17,0,0,1-24.34-5.07a33.25,33.25,0,0,1,32-4c.76.31,1.51.59,2.23.85l.08,0c17.16-4.87,33.34-9.46,51.92.22a56.84,56.84,0,0,1,14,10.35c6.42,6.38,10.57,13,14.59,19.32a88.27,88.27,0,0,0,5,7.46q.77,1,1.48,2a36.92,36.92,0,0,1,20.75,10.36,37.69,37.69,0,0,1,4.3,5.15,36.79,36.79,0,0,1,11.43,44.07c-.5,1.13-1,2.23-1.65,3.3a37.26,37.26,0,0,1-5.31,13.7,36.87,36.87,0,0,1-19.67,15.19,37.33,37.33,0,0,1-32.48,13A107.14,107.14,0,0,1,7.24,106.17l-.63-.63A112.21,112.21,0,0,1-6.74,89.39a33.41,33.41,0,0,1-9-2.7A32.85,32.85,0,0,1-25.05,80.18Z"/><path class="cls-3" d="M-23.11,78.23a30.27,30.27,0,0,1-8.82-18.94l-3-35.24A30.41,30.41,0,0,1-22.71-2.85,30.48,30.48,0,0,1,6.66-6.5c1.11.45,2.19.85,3.19,1.18l.93-.26c16.59-4.71,32.26-9.15,49.88,0A54.15,54.15,0,0,1,74,4.3c6.2,6.16,10.27,12.6,14.2,18.83a89.58,89.58,0,0,0,5.22,7.73c.73.9,1.41,1.83,2,2.79a34,34,0,0,1,20.38,9.74,34.86,34.86,0,0,1,4.23,5.12,34,34,0,0,1,10.92,41A35.36,35.36,0,0,1,129.23,93a34.44,34.44,0,0,1-5,13.15,34,34,0,0,1-19,14.29A34.39,34.39,0,0,1,74.7,133.16a104.54,104.54,0,0,1-65.54-29l-.62-.61A111,111,0,0,1-5.16,86.83a30.57,30.57,0,0,1-9.4-2.63A30.12,30.12,0,0,1-23.11,78.23Z"/><path class="cls-4" d="M-21.18,76.28a27.52,27.52,0,0,1-8-17.22l-3-35.24A27.64,27.64,0,0,1-21.08-.64,27.71,27.71,0,0,1,5.62-4c1.75.71,3.16,1.19,4.19,1.5l1.73-.49h0c16-4.55,31.21-8.86,47.86-.18A51.46,51.46,0,0,1,72.07,6.25C78,12.19,82,18.5,85.88,24.6a91,91,0,0,0,5.41,8,32,32,0,0,1,2.58,3.68,31.09,31.09,0,0,1,20,9.06,32.07,32.07,0,0,1,4.15,5.11,31.29,31.29,0,0,1,10.41,38,32.59,32.59,0,0,1-1.89,3.64,31.6,31.6,0,0,1-4.66,12.6,31.2,31.2,0,0,1-18.28,13.38A31.46,31.46,0,0,1,75,130.43a101.93,101.93,0,0,1-63.92-28.2l-.61-.6A109.5,109.5,0,0,1-3.61,84.21a27.66,27.66,0,0,1-9.79-2.5A27.37,27.37,0,0,1-21.18,76.28Z"/><path class="cls-3" d="M-19.24,74.33a24.77,24.77,0,0,1-7.22-15.5l-3-35.25a24.88,24.88,0,0,1,10-22,24.94,24.94,0,0,1,24-3A48.7,48.7,0,0,0,9.79.41l2.49-.7c15.51-4.4,30.16-8.56,45.84-.39a48.77,48.77,0,0,1,12,8.88c5.76,5.72,9.66,11.9,13.43,17.87a92.57,92.57,0,0,0,5.61,8.27A29,29,0,0,1,92.24,39,28.2,28.2,0,0,1,112,47.29a29.21,29.21,0,0,1,4.06,5.1,28.54,28.54,0,0,1,9.92,35,29.53,29.53,0,0,1-2,3.8,28.76,28.76,0,0,1-4.33,12.05A28.44,28.44,0,0,1,102,115.65a28.53,28.53,0,0,1-26.72,12A99.33,99.33,0,0,1,13,100.26l-.6-.59A108.85,108.85,0,0,1-2.09,81.52a24.79,24.79,0,0,1-10.15-2.3A24.65,24.65,0,0,1-19.24,74.33Z"/><path class="cls-4" d="M-17.3,72.38a22,22,0,0,1-6.41-13.77l-3-35.25A22.12,22.12,0,0,1-17.82,3.79,22.17,22.17,0,0,1,3.54,1.14,48.51,48.51,0,0,0,9.81,3.26L13,2.35c15-4.25,29.11-8.26,43.82-.6a46.08,46.08,0,0,1,11.34,8.39c5.54,5.51,9.36,11.55,13,17.4A94.2,94.2,0,0,0,87,36.08a25.84,25.84,0,0,1,3.51,5.67A25.65,25.65,0,0,1,110,49.24a26.35,26.35,0,0,1,4,5.1,25.79,25.79,0,0,1,9.43,31.91,26.54,26.54,0,0,1-2.16,4A25.89,25.89,0,0,1,101.05,113l-.72.16A25.63,25.63,0,0,1,75.58,125,96.73,96.73,0,0,1,14.91,98.29l-.59-.58a109.11,109.11,0,0,1-14.94-19,21.94,21.94,0,0,1-10.46-2A21.91,21.91,0,0,1-17.3,72.38Z"/><path class="cls-3" d="M-15.36,70.43A19.27,19.27,0,0,1-21,58.38l-3-35.25A19.35,19.35,0,0,1-16.19,6,19.39,19.39,0,0,1,2.5,3.68,48.69,48.69,0,0,0,9.86,6.1l3.27-.92L13.78,5C28.21.91,41.84-3,55.59,4.2A43.4,43.4,0,0,1,66.26,12.1C71.57,17.39,75.31,23.3,78.92,29a96.08,96.08,0,0,0,6,8.8,22.79,22.79,0,0,1,3.86,6.86,23,23,0,0,1,19.34,6.52A23.51,23.51,0,0,1,112,56.3a23,23,0,0,1,8.95,28.85,23.62,23.62,0,0,1-2.33,4.12,23.13,23.13,0,0,1-18.13,21.09l-1.87.39a22.76,22.76,0,0,1-22.73,11.48c-22.51-1.59-43.51-10.8-59-25.91l-.58-.57A109.88,109.88,0,0,1,.8,75.84,19.33,19.33,0,0,1-9.91,74.23,19.18,19.18,0,0,1-15.36,70.43Z"/><path class="cls-4" d="M-13.42,68.48a16.51,16.51,0,0,1-4.81-10.33l-3-35.26A16.59,16.59,0,0,1-14.56,8.22a16.62,16.62,0,0,1,16-2,48.5,48.5,0,0,0,8.48,2.7l4.16-1.16.44-.12c13.89-3.94,27-7.66,39.78-1a40.72,40.72,0,0,1,10,7.42c5.1,5.07,8.75,10.85,12.28,16.44a97.81,97.81,0,0,0,6.18,9.07,20,20,0,0,1,4,8.28l.45-.1a20.3,20.3,0,0,1,18.91,5.41,20.63,20.63,0,0,1,3.75,5.13A20.28,20.28,0,0,1,118.4,84a20.63,20.63,0,0,1-2.52,4.27,20.38,20.38,0,0,1-16,19.36c-1,.22-2.05.43-3.09.61a20.07,20.07,0,0,1-20.63,11.21C54.24,117.94,33.81,109,18.75,94.35l-.57-.56c-7.25-7.2-11.82-14.36-15.5-20.11l-.57-.88A16.6,16.6,0,0,1-8.75,71.74,16.44,16.44,0,0,1-13.42,68.48Z"/><path class="cls-3" d="M-11.48,66.53a13.76,13.76,0,0,1-4-8.61l-3-35.26a13.83,13.83,0,0,1,5.55-12.23A13.85,13.85,0,0,1,.42,8.78a47.87,47.87,0,0,0,9.63,3c1.63-.44,3.29-.91,4.91-1.37l.33-.09c13.93-4,26-7.36,37.76-1.22A38,38,0,0,1,62.38,16c4.88,4.85,8.44,10.49,11.89,16a99.63,99.63,0,0,0,6.37,9.34,17.17,17.17,0,0,1,3.85,9.65,22.48,22.48,0,0,0,3.38-.52,17.56,17.56,0,0,1,16.35,4.68,17.74,17.74,0,0,1,3.6,5.18,17.53,17.53,0,0,1,8.05,22.67,17.69,17.69,0,0,1-2.75,4.4A17.62,17.62,0,0,1,99.29,105c-1.44.32-2.92.6-4.4.83q-.22.53-.47,1.05a17.39,17.39,0,0,1-18,9.89c-21.34-1.52-41.19-10.18-55.78-24.38l-.55-.55c-7-7-11.51-14-15.11-19.63-.57-.89-1.15-1.8-1.71-2.65a13.87,13.87,0,0,1-10.88-.31A13.7,13.7,0,0,1-11.48,66.53Z"/><path class="cls-4" d="M-9.54,64.58a11,11,0,0,1-3.21-6.88l-3-35.26a11.06,11.06,0,0,1,4.44-9.78A11.08,11.08,0,0,1-.62,11.32,46.89,46.89,0,0,0,10.2,14.56c1.87-.5,3.78-1,5.65-1.57l.19-.06c13.36-3.79,24.9-7.07,35.73-1.42A35.37,35.37,0,0,1,60.44,18c4.66,4.63,8.14,10.15,11.51,15.48A101.16,101.16,0,0,0,78.51,43,14.43,14.43,0,0,1,81.7,53.71a23.55,23.55,0,0,0,6.78-.61,14.86,14.86,0,0,1,17.21,9.21,14.91,14.91,0,0,1,4.57,3.08,14.61,14.61,0,0,1,3.24,4.85,14.92,14.92,0,0,1-3.19,16.1,14.86,14.86,0,0,1-11.61,16c-1.92.42-3.89.77-5.86,1a15.45,15.45,0,0,1-.9,2.34A14.7,14.7,0,0,1,76.74,114c-20.76-1.48-40-9.87-54.16-23.62L22,89.87c-6.8-6.76-11.2-13.63-14.73-19.16C6.24,69,5.14,67.32,4.2,66a11,11,0,0,1-10.64.75A11,11,0,0,1-9.54,64.58Z"/><path class="cls-3" d="M-7.61,62.63A8.25,8.25,0,0,1-10,57.47L-13,22.2a8.3,8.3,0,0,1,3.33-7.34,8.31,8.31,0,0,1,8-1c6.58,2.68,10.83,3.39,12.07,3.48,2.11-.56,4.28-1.17,6.38-1.77C29.61,11.94,40.64,8.81,50.51,14a32.69,32.69,0,0,1,8,6c4.43,4.41,7.83,9.79,11.12,15a103.19,103.19,0,0,0,6.76,9.87,11.76,11.76,0,0,1,2,11.3,25.73,25.73,0,0,0,2.61.34,26.1,26.1,0,0,0,8.13-.64,12.11,12.11,0,0,1,14.39,8.63,12.23,12.23,0,0,1,4.83,2.93A11.87,11.87,0,0,1,111,71.28a12.15,12.15,0,0,1-3.58,14,12.11,12.11,0,0,1-9.26,14.31,71,71,0,0,1-7.54,1.23,12.65,12.65,0,0,1-1.12,3.64A12,12,0,0,1,77,111.29c-20.17-1.44-38.86-9.56-52.53-22.85L24,87.91C17.4,81.38,13.09,74.64,9.63,69.23A57.45,57.45,0,0,0,4.9,62.45,7.52,7.52,0,0,0,3,63.52a8.26,8.26,0,0,1-8.24.74A8.22,8.22,0,0,1-7.61,62.63Z"/><path class="cls-4" d="M-5.67,60.68a5.5,5.5,0,0,1-1.6-3.44l-3-35.27A5.53,5.53,0,0,1-8,17.08a5.54,5.54,0,0,1,5.34-.66c7.81,3.18,12.49,3.72,13.43,3.7,2.27-.6,4.6-1.26,6.85-1.9,12.24-3.47,22.75-6.46,31.65-1.83a30,30,0,0,1,7.33,5.46C60.78,26,64.1,31.3,67.31,36.39a105.1,105.1,0,0,0,6.94,10.12,9,9,0,0,1,1,9.89,9.22,9.22,0,0,1-1,1.47,28.32,28.32,0,0,0,6.48,1.28,28.77,28.77,0,0,0,9-.7,9.36,9.36,0,0,1,11.4,8.21,9.51,9.51,0,0,1,5.27,2.63,9.14,9.14,0,0,1,2,3,9.37,9.37,0,0,1-4.27,11.82,9.36,9.36,0,0,1-6.62,12.78,68,68,0,0,1-9.59,1.4,9.73,9.73,0,0,1-.95,5,9.33,9.33,0,0,1-9.66,5.26c-19.59-1.4-37.7-9.25-50.91-22.09l-.52-.51c-6.35-6.31-10.56-12.9-14-18.2a54.1,54.1,0,0,0-5.17-7.31l-.1-.1c-.52-.52-1.64-1.63-5.29.94a5.51,5.51,0,0,1-5.49.49A5.48,5.48,0,0,1-5.67,60.68Z"/><path class="cls-3" d="M-3.73,58.73A2.75,2.75,0,0,1-4.53,57l-3-35.27A2.75,2.75,0,0,1-6.4,19.29,2.75,2.75,0,0,1-3.74,19c8.74,3.56,14,4.07,15,3.86,2.43-.64,4.83-1.32,7.16-2C30,17.55,40,14.7,48,18.83a27.29,27.29,0,0,1,6.66,5c4,4,7.23,9.09,10.36,14a107.31,107.31,0,0,0,7.13,10.39,6.27,6.27,0,0,1,.69,6.88,6,6,0,0,1-4.44,3.22,31.32,31.32,0,0,0,22,2.8,6.62,6.62,0,0,1,7.81,8.33,6.81,6.81,0,0,1,6.3,1.77,6.39,6.39,0,0,1,1.42,2.12,6.62,6.62,0,0,1-3.81,8.71q-1.08.4-2.16.75l.3.28a6.61,6.61,0,0,1-3.25,11.13,65,65,0,0,1-12.62,1.5,6.77,6.77,0,0,1,.19,6.36,6.63,6.63,0,0,1-6.89,3.72c-19-1.36-36.54-8.94-49.28-21.33l-.51-.5C21.7,77.9,17.58,71.45,14.26,66.27a55.16,55.16,0,0,0-5.5-7.73l-.13-.13c-.82-.81-3.3-3.28-8.84.62A2.75,2.75,0,0,1-3,59.27,2.76,2.76,0,0,1-3.73,58.73Z"/><path class="cls-4" d="M56.43,62.91l-1.6,1.93a0,0,0,0,0,0,0,44.23,44.23,0,0,0,43.4,7.44,4,4,0,0,1,5.09,2.1,3.87,3.87,0,0,1-2.23,5.09,52,52,0,0,1-51.2-8.67h0l-1.58,1.91a0,0,0,0,0,0,0A54.17,54.17,0,0,0,78.71,85.09,54.67,54.67,0,0,0,94.7,84a3.85,3.85,0,0,1,1.65,7.53,62.17,62.17,0,0,1-53-12.83h0l-1.58,1.91a0,0,0,0,0,0,0,64.92,64.92,0,0,0,37,14.72c5.59.27,4.55,8.32-.86,7.7C60.3,101.84,43,94.88,30.25,82.52c-10.14-9.86-14.79-21-19.51-25.89C9,54.81,5,52-1.79,56.78l-3-35.27C3.73,25,10,26,11.94,25.48c14-3.67,26.32-8.61,34.76-4.21C56.94,26.6,62.11,40.33,70,50a3.46,3.46,0,0,1-2.88,5.67,10.57,10.57,0,0,1-6.69-3.55C56.7,48.32,53.8,44,50.61,40.76a0,0,0,0,0,0,0A33.91,33.91,0,0,0,80.32,64.64a34.36,34.36,0,0,0,10.62-.82,3.86,3.86,0,1,1,1.71,7.53,43.28,43.28,0,0,1-12.94,1,41.46,41.46,0,0,1-23.29-9.44Z"/></g></g></svg>