<svg xmlns="http://www.w3.org/2000/svg" viewBox="0 0 130 130"><defs><style>.cls-1{fill:#22d3c5;}</style></defs><title>Icons</title><g id="apps_Development" data-name="apps Development"><path class="cls-1" d="M59.34,103.93a74.83,74.83,0,0,0,7.11-39,1.48,1.48,0,1,0-2.94.23,71.85,71.85,0,0,1-6.81,37.46,1.49,1.49,0,0,0,.67,2,1.47,1.47,0,0,0,2-.67Zm-16.77,21.4a65.59,65.59,0,0,0,13-14.8,1.49,1.49,0,0,0-.44-2.05,1.47,1.47,0,0,0-2,.44,62.62,62.62,0,0,1-12.45,14.13,1.49,1.49,0,0,0-.19,2.09,1.47,1.47,0,0,0,2.08.19Zm-6-2.44A62.66,62.66,0,0,0,60.44,80.41a1.48,1.48,0,1,0-2.94-.33,59.67,59.67,0,0,1-22.78,40.46,1.49,1.49,0,0,0-.27,2.08,1.47,1.47,0,0,0,2.07.27Zm12.27,4.45a74.61,74.61,0,0,0,9.55-10.83A73.48,73.48,0,0,0,71.82,64.17,7.14,7.14,0,1,0,57.65,66a59.62,59.62,0,0,1,.46,6.71,1.48,1.48,0,0,0,1.48,1.47h0a1.48,1.48,0,0,0,1.46-1.5,62.56,62.56,0,0,0-.48-7,4.2,4.2,0,0,1,3.63-4.7,4.19,4.19,0,0,1,4.68,3.65A70.51,70.51,0,0,1,56,114.77a71.62,71.62,0,0,1-9.17,10.4,1.49,1.49,0,0,0-.08,2.1,1.47,1.47,0,0,0,2.09.08Zm-4.22-22a55.76,55.76,0,0,0,9.67-39,10.59,10.59,0,1,1,21-2.66,76.42,76.42,0,0,1-1.81,28.65,1.48,1.48,0,1,0,2.86.74,79.39,79.39,0,0,0,1.88-29.76,13.59,13.59,0,0,0-13.43-11.9A13.51,13.51,0,0,0,54,56.73a13.56,13.56,0,0,0-2.74,10,52.78,52.78,0,0,1-9.15,36.88,1.49,1.49,0,0,0,.36,2.07,1.47,1.47,0,0,0,2.06-.36Zm-13.9,13.88a55.62,55.62,0,0,0,9.13-8,1.49,1.49,0,0,0-.08-2.1,1.47,1.47,0,0,0-2.09.08A52.65,52.65,0,0,1,29,116.79a1.49,1.49,0,0,0-.37,2.07,1.47,1.47,0,0,0,2.05.38Zm25.69,9.64a81.6,81.6,0,0,0,7.15-8.59,80.8,80.8,0,0,0,10.55-19.94,1.48,1.48,0,1,0-2.78-1,77.83,77.83,0,0,1-10.16,19.21,78.63,78.63,0,0,1-6.89,8.27,1.49,1.49,0,0,0,0,2.1,1.47,1.47,0,0,0,2.09,0ZM25.18,115.17a49.56,49.56,0,0,0,22.71-48A17.18,17.18,0,0,1,61.12,48.39a1.48,1.48,0,0,0-.63-2.9A20.06,20.06,0,0,0,45,67.58a46.58,46.58,0,0,1-21.34,45.08,1.49,1.49,0,0,0,.78,2.74,1.47,1.47,0,0,0,.78-.23Zm39.28,14.31c1.47-1.73,2.89-3.55,4.23-5.4A86.33,86.33,0,0,0,84.52,62.56,20,20,0,0,0,68.45,45.38a1.48,1.48,0,0,0-.55,2.92A17,17,0,0,1,81.59,62.93a83.36,83.36,0,0,1-15.29,59.4c-1.29,1.79-2.67,3.55-4.09,5.22a1.49,1.49,0,0,0,.16,2.09,1.47,1.47,0,0,0,2.08-.17ZM41.72,76.94A43.3,43.3,0,0,0,41.53,68,23.51,23.51,0,0,1,61.81,41.75a23.83,23.83,0,0,1,2.94-.18,23.44,23.44,0,0,1,16.93,7.32,1.47,1.47,0,0,0,2.09.05,1.49,1.49,0,0,0,.05-2.1A26.4,26.4,0,0,0,64.74,38.6a26.77,26.77,0,0,0-3.3.21A26.48,26.48,0,0,0,38.6,68.38a40.3,40.3,0,0,1,.18,8.31,1.48,1.48,0,0,0,1.35,1.6h.12a1.48,1.48,0,0,0,1.47-1.36Zm-21.48,33.7A43.23,43.23,0,0,0,40.39,84.52a1.48,1.48,0,1,0-2.85-.78,40.25,40.25,0,0,1-18.76,24.32,1.49,1.49,0,0,0,.73,2.78,1.46,1.46,0,0,0,.73-.19ZM73,129.07l.89-1.21a94.32,94.32,0,0,0,9.51-16.4,1.48,1.48,0,1,0-2.69-1.23,91.34,91.34,0,0,1-9.21,15.88l-.86,1.17a1.49,1.49,0,0,0,.29,2.08,1.47,1.47,0,0,0,2.07-.29Zm13.22-24.6a93.09,93.09,0,0,0,4.67-42.71,26.37,26.37,0,0,0-2.56-8.49,1.48,1.48,0,1,0-2.64,1.33,23.41,23.41,0,0,1,2.27,7.53,90.09,90.09,0,0,1-4.52,41.33,1.49,1.49,0,0,0,.89,1.9,1.47,1.47,0,0,0,1.89-.9ZM96.42,68.7a1.48,1.48,0,0,0,1.38-1.58c-.13-2-.32-4.11-.58-6.17A32.85,32.85,0,0,0,64.74,32.16a32.59,32.59,0,0,0-20.33,7.12,1.49,1.49,0,0,0-.24,2.09,1.47,1.47,0,0,0,2.08.24,29.73,29.73,0,0,1,48,19.72c.25,2,.44,4,.57,6a1.48,1.48,0,0,0,1.47,1.39Zm-80.59,37A36.59,36.59,0,0,0,35.19,68.81,29.82,29.82,0,0,1,41.3,46.62,1.49,1.49,0,0,0,41,44.54a1.47,1.47,0,0,0-2.07.25,32.78,32.78,0,0,0-6.71,24.39,33.61,33.61,0,0,1-17.78,33.91,1.49,1.49,0,0,0,.68,2.8,1.46,1.46,0,0,0,.68-.17ZM82,127.32A99.23,99.23,0,0,0,98,74.65a1.48,1.48,0,0,0-1.46-1.5h0A1.48,1.48,0,0,0,95,74.61a96.26,96.26,0,0,1-15.5,51.08,1.49,1.49,0,0,0,.43,2.05,1.47,1.47,0,0,0,2-.44ZM27.11,84a30.06,30.06,0,0,0,1.72-14.39A36.22,36.22,0,0,1,64.74,28.7,35.9,35.9,0,0,1,89.93,39,1.47,1.47,0,0,0,92,39a1.49,1.49,0,0,0,0-2.1A38.94,38.94,0,0,0,59.84,26,39.35,39.35,0,0,0,25.9,70a27.07,27.07,0,0,1-1.55,13,1.49,1.49,0,0,0,.85,1.92A1.47,1.47,0,0,0,27.11,84ZM12,100.44a30,30,0,0,0,11.39-9.56,1.49,1.49,0,0,0-.33-2.07,1.47,1.47,0,0,0-2.06.34,27,27,0,0,1-10.26,8.62,1.49,1.49,0,0,0,.63,2.83,1.46,1.46,0,0,0,.63-.14Zm79.44,23.49a105.08,105.08,0,0,0,12.1-63.79A39.5,39.5,0,0,0,97,42.75a1.47,1.47,0,0,0-2.05-.38,1.49,1.49,0,0,0-.37,2.07,36.51,36.51,0,0,1,6.12,16.08,102.12,102.12,0,0,1-11.76,62,1.49,1.49,0,0,0,.58,2,1.47,1.47,0,0,0,2-.59ZM34.78,34.67A42.05,42.05,0,0,1,59.41,22.6a42.57,42.57,0,0,1,4.87-.33,1.48,1.48,0,0,0,0-3h0a45.49,45.49,0,0,0-5.21.36A45,45,0,0,0,32.7,32.56a1.49,1.49,0,0,0,0,2.1,1.47,1.47,0,0,0,2.09,0ZM8.86,94.83A23.67,23.67,0,0,0,19.6,85a23.42,23.42,0,0,0,2.88-14.56,42.8,42.8,0,0,1,7.67-30.3,1.49,1.49,0,0,0-.34-2.07,1.47,1.47,0,0,0-2.06.34,45.77,45.77,0,0,0-8.2,32.4A20.74,20.74,0,0,1,7.65,92.12,1.49,1.49,0,0,0,8.25,95a1.46,1.46,0,0,0,.61-.13Zm92.44,23.63a111.88,111.88,0,0,0,8-27.12,1.48,1.48,0,1,0-2.92-.48,108.91,108.91,0,0,1-7.83,26.4,1.49,1.49,0,0,0,.75,2,1.47,1.47,0,0,0,1.95-.76Zm9-34.58a112.5,112.5,0,0,0-.38-24.54A45.76,45.76,0,0,0,71.85,19.86a1.48,1.48,0,0,0-.46,2.93A42.91,42.91,0,0,1,107,59.71a109.51,109.51,0,0,1,.37,23.89,1.48,1.48,0,0,0,1.33,1.62h.14a1.48,1.48,0,0,0,1.47-1.34ZM16.5,56.45a48.93,48.93,0,0,1,94.74-6.84,1.48,1.48,0,1,0,2.8-.93A52,52,0,0,0,95.32,22.9a51.34,51.34,0,0,0-30.57-10,52.07,52.07,0,0,0-6.51.41A51.37,51.37,0,0,0,28.71,27.49,52.82,52.82,0,0,0,13.59,55.92a1.48,1.48,0,0,0,1.19,1.72l.26,0a1.48,1.48,0,0,0,1.45-1.22ZM6.25,89a17.25,17.25,0,0,0,9.88-17.72,49.88,49.88,0,0,1-.37-7.65,1.48,1.48,0,1,0-3-.09,52.9,52.9,0,0,0,.39,8.11A14.25,14.25,0,0,1,5,86.25a1.49,1.49,0,0,0,.61,2.84A1.47,1.47,0,0,0,6.25,89Zm105.19,20.86a117.65,117.65,0,0,0,4.82-51.28c-.11-.83-.23-1.66-.37-2.45a1.48,1.48,0,1,0-2.91.51c.13.75.25,1.52.35,2.31a114.69,114.69,0,0,1-4.7,50,1.49,1.49,0,0,0,.95,1.87,1.47,1.47,0,0,0,1.86-1Zm10.46-43.92a1.48,1.48,0,0,0,1.37-1.59c-.16-2.18-.38-4.39-.65-6.57a58.78,58.78,0,0,0-10.77-27.21,1.47,1.47,0,0,0-2.06-.32,1.49,1.49,0,0,0-.32,2.07A55.79,55.79,0,0,1,119.69,58.1c.27,2.13.48,4.29.63,6.42a1.48,1.48,0,0,0,1.47,1.38ZM4.39,82.7A10.77,10.77,0,0,0,9.79,72,56,56,0,0,1,31.2,20.78a1.49,1.49,0,0,0,.28-2.08,1.47,1.47,0,0,0-2.07-.28,58.79,58.79,0,0,0-22.55,54A7.77,7.77,0,0,1,3,80.1a1.49,1.49,0,0,0,.72,2.78,1.47,1.47,0,0,0,.71-.19ZM106.94,26.78a1.49,1.49,0,0,0,.05-2.1A58.36,58.36,0,0,0,88,11.32,57.51,57.51,0,0,0,64.74,6.43a58.11,58.11,0,0,0-29.05,7.78,1.49,1.49,0,0,0-.54,2,1.47,1.47,0,0,0,2,.55A55.17,55.17,0,0,1,64.74,9.4a55.53,55.53,0,0,1,40.11,17.33,1.47,1.47,0,0,0,2.09.05Zm14.61,69.15a125.07,125.07,0,0,0,2-24.12,1.48,1.48,0,0,0-1.48-1.47h0a1.48,1.48,0,0,0-1.46,1.5,122,122,0,0,1-2,23.54,1.48,1.48,0,0,0,1.18,1.73l.27,0a1.48,1.48,0,0,0,1.45-1.22ZM16.33,26.53A61.45,61.45,0,0,1,93.07,9.91a1.48,1.48,0,0,0,1.36-2.64A64.4,64.4,0,0,0,14,24.68a1.49,1.49,0,0,0,.24,2.09,1.47,1.47,0,0,0,2.07-.24ZM2.15,74.5a1.48,1.48,0,0,0,1.28-1.66A62.45,62.45,0,0,1,12.2,32.43a1.49,1.49,0,0,0-.48-2,1.47,1.47,0,0,0-2,.48A65.44,65.44,0,0,0,.5,73.21,1.48,1.48,0,0,0,2,74.51ZM128.5,77.13h0A1.48,1.48,0,0,1,127,75.62a129.9,129.9,0,0,0-1-18.32A62.22,62.22,0,0,0,99.27,13.61a1.49,1.49,0,0,1-.4-2.06,1.47,1.47,0,0,1,2.05-.4,65.19,65.19,0,0,1,28,45.77,132.93,132.93,0,0,1,1,18.74,1.48,1.48,0,0,1-1.48,1.46Z"/></g></svg>