<svg xmlns="http://www.w3.org/2000/svg" viewBox="0 0 491.83 501.2"><defs><style>.cls-1{fill:#22d3c5;}.cls-2,.cls-20,.cls-3{fill:#2f2a34;}.cls-15,.cls-3{font-size:12.75px;}.cls-14,.cls-15,.cls-3{font-family:Gotham-Bold, Gotham;font-weight:700;}.cls-4{letter-spacing:-0.09em;}.cls-5{letter-spacing:-0.03em;}.cls-6{letter-spacing:-0.04em;}.cls-7{letter-spacing:-0.01em;}.cls-8{letter-spacing:0em;}.cls-9{letter-spacing:-0.03em;}.cls-10{letter-spacing:-0.09em;}.cls-11{letter-spacing:-0.05em;}.cls-12{letter-spacing:-0.02em;}.cls-13{fill:none;stroke:#fff5b1;stroke-miterlimit:10;stroke-width:8.5px;}.cls-14{font-size:10.06px;}.cls-14,.cls-15,.cls-28{fill:#fff;}.cls-16{letter-spacing:-0.07em;}.cls-17{letter-spacing:0em;}.cls-18{fill:#c0cdd5;}.cls-19{fill:#fff5b1;}.cls-20{font-size:8.5px;font-family:Gotham-Black, Gotham;}.cls-21{letter-spacing:-0.04em;}.cls-22{letter-spacing:-0.01em;}.cls-23{letter-spacing:-0.03em;}.cls-24{letter-spacing:-0.03em;}.cls-25{letter-spacing:-0.04em;}.cls-26{letter-spacing:0em;}.cls-27{letter-spacing:-0.09em;}</style></defs><title>Whole_CXP</title><g id="Layer_2" data-name="Layer 2"><g id="apps_Development" data-name="apps Development"><path class="cls-1" d="M399.9,248.64A153.62,153.62,0,0,1,252.79,395.75c-2.11.08-4.23.13-6.37.13s-4.26,0-6.37-.13A153.62,153.62,0,0,1,92.95,248.64Z"/><path class="cls-2" d="M464.67,248.73c-3.37,117.67-99.82,212-218.25,212s-214.87-94.27-218.25-212H80.36a166.19,166.19,0,0,0,332.12,0Z"/><path class="cls-2" d="M464.67,236H412.49A166.18,166.18,0,0,0,252.81,76.28V24.1C368.33,27.4,461.36,120.43,464.67,236Z"/><path class="cls-2" d="M240,24.1V76.28A166.18,166.18,0,0,0,80.36,236H28.18C31.49,120.43,124.53,27.4,240,24.1Z"/><path class="cls-1" d="M399.9,235.9H252.79V88.79A153.62,153.62,0,0,1,399.9,235.9Z"/><path class="cls-1" d="M240.05,88.86V236H92.95A153.62,153.62,0,0,1,240.05,88.86Z"/><text class="cls-3" transform="translate(287.53 164.11)">DIGI<tspan class="cls-4" x="28.53" y="0">T</tspan><tspan x="35.65" y="0">AL</tspan><tspan x="-13.6" y="15.3">MARKETING</tspan><tspan class="cls-5"><tspan x="0.66" y="30.6">S</tspan><tspan class="cls-6" x="8.43" y="30.6">Y</tspan><tspan class="cls-7" x="17.12" y="30.6">S</tspan><tspan class="cls-8" x="25.08" y="30.6">TEM</tspan></tspan></text><text class="cls-3" transform="translate(157.89 316.97)">CU<tspan class="cls-7" x="19.05" y="0">S</tspan><tspan class="cls-9" x="27.02" y="0">T</tspan><tspan x="34.89" y="0">OMER REL</tspan><tspan class="cls-10" x="104.03" y="0">A</tspan><tspan x="112.96" y="0">TIONSHIP</tspan><tspan x="39.94" y="15.3">MAN</tspan><tspan class="cls-11" x="71.15" y="15.3">A</tspan><tspan x="80.64" y="15.3">GEMENT</tspan></text><text class="cls-3" transform="translate(143.66 164.11)"><tspan class="cls-12">C<tspan class="cls-8" x="9.15" y="0">ONTENT</tspan></tspan><tspan x="-15.99" y="15.3">MAN</tspan><tspan class="cls-11" x="15.22" y="15.3">A</tspan><tspan x="24.71" y="15.3">GEMENT</tspan><tspan class="cls-5"><tspan x="6.45" y="30.6">S</tspan><tspan class="cls-6" x="14.23" y="30.6">Y</tspan><tspan class="cls-7" x="22.91" y="30.6">S</tspan><tspan class="cls-8" x="30.88" y="30.6">TEM</tspan></tspan></text><circle class="cls-13" cx="246.42" cy="242.39" r="235.49"/><text class="cls-14" transform="matrix(0.19, 0.98, -0.98, 0.19, 52.72, 276.48)">C</text><text class="cls-14" transform="matrix(0.23, 0.97, -0.97, 0.23, 54.16, 283.83)">O</text><text class="cls-14" transform="translate(56.23 292.4) rotate(74.03)">N</text><text class="cls-14" transform="translate(58.5 300.26) rotate(71.88)">S</text><text class="cls-14" transform="translate(60.57 306.61) rotate(69.79)">U</text><text class="cls-14" transform="translate(63.27 313.97) rotate(67.38)">M</text><text class="cls-14" transform="translate(66.75 322.26) rotate(65.08)">E</text><text class="cls-14" transform="matrix(0.45, 0.89, -0.89, 0.45, 69.69, 328.58)">R</text><text class="cls-14" transform="matrix(0.48, 0.88, -0.88, 0.48, 73.1, 335.2)"> </text><text class="cls-14" transform="matrix(0.5, 0.86, -0.86, 0.5, 74.59, 338.01)">D</text><text class="cls-14" transform="translate(78.42 344.6) rotate(57.57)">A</text><text class="cls-14" transform="matrix(0.56, 0.83, -0.83, 0.56, 82.31, 350.72)">T</text><text class="cls-14" transform="translate(85.58 355.55) rotate(53.73)">A</text><text class="cls-14" transform="matrix(0.62, 0.78, -0.78, 0.62, 90.43, 362.14)">B</text><text class="cls-14" transform="translate(95.11 368.01) rotate(49.12)">A</text><text class="cls-14" transform="matrix(0.68, 0.73, -0.73, 0.68, 100.42, 374.12)">S</text><text class="cls-14" transform="translate(104.96 378.98) rotate(44.98)">E</text><text class="cls-14" transform="translate(109.86 383.84) rotate(43.5)"> </text><text class="cls-14" transform="matrix(0.74, 0.68, -0.68, 0.74, 112.13, 385.99)"> </text><text class="cls-14" transform="matrix(0.75, 0.66, -0.66, 0.75, 114.43, 388.11)"> </text><text class="cls-14" transform="translate(116.74 390.16) rotate(40.76)"> </text><text class="cls-14" transform="translate(119.1 392.2) rotate(39.85)"> </text><text class="cls-14" transform="translate(121.5 394.2) rotate(38.94)"> </text><text class="cls-14" transform="matrix(0.79, 0.62, -0.62, 0.79, 123.92, 396.16)"> </text><text class="cls-14" transform="matrix(0.8, 0.6, -0.6, 0.8, 126.38, 398.07)"> </text><text class="cls-14" transform="matrix(0.81, 0.58, -0.58, 0.81, 128.91, 400.03)">R</text><text class="cls-14" transform="matrix(0.83, 0.55, -0.55, 0.83, 135.03, 404.39)">E</text><text class="cls-14" transform="matrix(0.85, 0.52, -0.52, 0.85, 140.83, 408.22)">P</text><text class="cls-14" transform="translate(146.78 411.87) rotate(29.15)">O</text><text class="cls-14" transform="translate(154.46 416.14) rotate(26.79)">R</text><text class="cls-14" transform="translate(161.15 419.5) rotate(24.73)">T</text><text class="cls-14" transform="translate(167.24 422.28) rotate(23.25)">I</text><text class="cls-14" transform="translate(170.51 423.72) rotate(21.55)">N</text><text class="cls-14" transform="translate(178.15 426.73) rotate(19.18)">G</text><text class="cls-14" transform="translate(185.79 429.35) rotate(17.54)"> </text><text class="cls-14" transform="translate(188.74 430.28) rotate(16.64)"> </text><text class="cls-14" transform="translate(191.74 431.18) rotate(15.73)"> </text><text class="cls-14" transform="matrix(0.97, 0.26, -0.26, 0.97, 194.73, 432.02)"> </text><text class="cls-14" transform="translate(197.73 432.81) rotate(13.93)"> </text><text class="cls-14" transform="translate(200.77 433.57) rotate(13.02)"> </text><text class="cls-14" transform="translate(203.8 434.26) rotate(12.12)"> </text><text class="cls-14" transform="translate(206.84 434.92) rotate(11.21)"> </text><text class="cls-14" transform="matrix(0.98, 0.18, -0.18, 0.98, 209.89, 435.52)"> </text><text class="cls-14" transform="matrix(0.99, 0.16, -0.16, 0.99, 212.99, 436.08)"> </text><text class="cls-14" transform="translate(216.06 436.59) rotate(8.48)"> </text><text class="cls-14" transform="matrix(0.99, 0.13, -0.13, 0.99, 219.14, 437.05)"> </text><text class="cls-14" transform="translate(222.23 437.46) rotate(6.66)"> </text><text class="cls-14" transform="translate(225.3 437.82) rotate(5.76)"> </text><text class="cls-14" transform="matrix(1, 0.08, -0.08, 1, 228.41, 438.13)"> </text><text class="cls-14" transform="matrix(1, 0.07, -0.07, 1, 231.53, 438.39)"> </text><text class="cls-14" transform="translate(234.62 438.6) rotate(3.02)"> </text><text class="cls-14" transform="translate(237.75 438.77) rotate(2.1)"> </text><text class="cls-14" transform="matrix(1, 0.02, -0.02, 1, 240.85, 438.88)"> </text><text class="cls-14" transform="matrix(1, 0, 0, 1, 243.96, 438.94)"> </text><text class="cls-14" transform="translate(247.11 438.96) rotate(-0.65)"> </text><text class="cls-14" transform="translate(250.23 438.92) rotate(-1.56)"> </text><text class="cls-14" transform="translate(253.31 438.84) rotate(-2.47)"> </text><text class="cls-14" transform="matrix(1, -0.06, 0.06, 1, 256.44, 438.7)"> </text><text class="cls-14" transform="translate(259.56 438.52) rotate(-4.31)"> </text><text class="cls-14" transform="matrix(1, -0.09, 0.09, 1, 262.66, 438.28)"> </text><text class="cls-14" transform="matrix(0.99, -0.11, 0.11, 0.99, 265.75, 438)"> </text><text class="cls-14" transform="translate(268.88 437.66) rotate(-7.06)"> </text><text class="cls-14" transform="translate(271.94 437.28) rotate(-7.96)"> </text><text class="cls-14" transform="translate(275.04 436.85) rotate(-8.88)"> </text><text class="cls-14" transform="translate(278.13 436.36) rotate(-9.8)"> </text><text class="cls-14" transform="translate(281.19 435.84) rotate(-10.7)"> </text><text class="cls-14" transform="translate(284.25 435.26) rotate(-11.61)"> </text><text class="cls-14" transform="matrix(0.98, -0.22, 0.22, 0.98, 287.3, 434.63)"> </text><text class="cls-14" transform="translate(290.35 433.95) rotate(-13.44)"> </text><text class="cls-14" transform="matrix(0.97, -0.25, 0.25, 0.97, 293.4, 433.22)"> </text><text class="cls-14" transform="translate(296.4 432.45) rotate(-15.26)"> </text><text class="cls-14" transform="translate(299.41 431.63) rotate(-16.16)"> </text><text class="cls-14" transform="matrix(0.96, -0.29, 0.29, 0.96, 302.41, 430.76)"> </text><text class="cls-14" transform="translate(305.4 429.84) rotate(-17.97)"> </text><text class="cls-14" transform="translate(308.35 428.89) rotate(-18.86)"> </text><text class="cls-14" transform="translate(311.29 427.88) rotate(-19.76)"> </text><text class="cls-14" transform="matrix(0.94, -0.35, 0.35, 0.94, 314.22, 426.82)"> </text><text class="cls-14" transform="translate(317.26 425.7) rotate(-22.47)"> <tspan x="3" y="0.03"> </tspan></text><text class="cls-14" transform="translate(322.99 423.4) rotate(-24.06)">A</text><text class="cls-14" transform="translate(330.5 420.04) rotate(-26.43)">N</text><text class="cls-14" transform="translate(337.84 416.38) rotate(-28.82)">A</text><text class="cls-14" transform="matrix(0.86, -0.51, 0.51, 0.86, 345, 412.42)">L</text><text class="cls-14" transform="matrix(0.84, -0.54, 0.54, 0.84, 349.38, 409.82)">Y</text><text class="cls-14" transform="matrix(0.82, -0.57, 0.57, 0.82, 355.62, 405.82)">T</text><text class="cls-14" transform="translate(361.13 401.98) rotate(-36.17)">I</text><text class="cls-14" transform="matrix(0.79, -0.61, 0.61, 0.79, 364.01, 399.91)">C</text><text class="cls-14" transform="translate(370.04 395.22) rotate(-39.9)">S</text><text class="cls-14" transform="matrix(0.75, -0.66, 0.66, 0.75, 375.09, 390.96)"> </text><text class="cls-14" transform="translate(377.43 388.9) rotate(-42.26)"> </text><text class="cls-14" transform="translate(379.73 386.81) rotate(-43.17)"> </text><text class="cls-14" transform="translate(382 384.68) rotate(-44.08)"> </text><text class="cls-14" transform="translate(384.26 382.49) rotate(-45)"> </text><text class="cls-14" transform="matrix(0.7, -0.72, 0.72, 0.7, 386.45, 380.3)"> </text><text class="cls-14" transform="matrix(0.68, -0.73, 0.73, 0.68, 388.63, 378.05)"> </text><text class="cls-14" transform="translate(390.81 375.75) rotate(-48.23)">L</text><text class="cls-14" transform="translate(395.09 370.95) rotate(-50.18)">E</text><text class="cls-14" transform="translate(399.56 365.61) rotate(-52.39)">A</text><text class="cls-14" transform="translate(404.57 359.09) rotate(-54.77)">D</text><text class="cls-14" transform="translate(409.18 352.5) rotate(-56.41)"> </text><text class="cls-14" transform="translate(410.99 349.86) rotate(-58.17)">M</text><text class="cls-14" transform="matrix(0.49, -0.87, 0.87, 0.49, 415.74, 342.18)">A</text><text class="cls-14" transform="matrix(0.45, -0.89, 0.89, 0.45, 419.74, 335.04)">N</text><text class="cls-14" transform="matrix(0.42, -0.91, 0.91, 0.42, 423.46, 327.72)">A</text><text class="cls-14" transform="translate(426.67 320.69) rotate(-67.66)">G</text><text class="cls-14" transform="translate(429.75 313.17) rotate(-69.85)">E</text><text class="cls-14" transform="translate(432.18 306.6) rotate(-72.17)">M</text><text class="cls-14" transform="matrix(0.27, -0.96, 0.96, 0.27, 434.9, 298.06)">E</text><text class="cls-14" transform="translate(436.78 291.31) rotate(-76.69)">N</text><text class="cls-14" transform="matrix(0.19, -0.98, 0.98, 0.19, 438.65, 283.34)">T</text><text class="cls-14" transform="translate(286.78 56.84) rotate(13.64)">F</text><text class="cls-14" transform="translate(292.43 58.18) rotate(15.57)">A</text><text class="cls-14" transform="translate(299.67 60.2) rotate(17.74)">C</text><text class="cls-14" transform="translate(306.77 62.47) rotate(19.85)">E</text><text class="cls-14" transform="translate(313.14 64.77) rotate(21.94)">B</text><text class="cls-14" transform="matrix(0.91, 0.41, -0.41, 0.91, 319.91, 67.48)">O</text><text class="cls-14" transform="matrix(0.89, 0.45, -0.45, 0.89, 327.72, 71.01)">O</text><text class="cls-14" transform="translate(335.37 74.9) rotate(29.23)">K</text><text class="cls-14" transform="matrix(0.86, 0.51, -0.51, 0.86, 341.79, 78.53)"> </text><text class="cls-14" transform="translate(344.38 80.07) rotate(31.68)"> </text><text class="cls-14" transform="translate(346.95 81.66) rotate(32.58)"> </text><text class="cls-14" transform="translate(349.5 83.29) rotate(33.48)"> </text><text class="cls-14" transform="matrix(0.83, 0.56, -0.56, 0.83, 352.02, 84.95)"> </text><text class="cls-14" transform="translate(354.55 86.64) rotate(36.02)">G</text><text class="cls-14" transform="translate(360.97 91.3) rotate(38.5)">O</text><text class="cls-14" transform="translate(367.69 96.64) rotate(41.07)">O</text><text class="cls-14" transform="translate(374.14 102.28) rotate(43.54)">G</text><text class="cls-14" transform="translate(379.87 107.75) rotate(45.68)">L</text><text class="cls-14" transform="matrix(0.67, 0.74, -0.74, 0.67, 384.24, 112.21)">E</text><text class="cls-14" transform="translate(388.78 117.23) rotate(49.11)"> </text><text class="cls-14" transform="translate(390.77 119.53) rotate(50.03)"> </text><text class="cls-14" transform="translate(392.71 121.84) rotate(50.94)"> </text><text class="cls-14" transform="translate(394.61 124.18) rotate(51.85)"> </text><text class="cls-14" transform="matrix(0.61, 0.8, -0.8, 0.61, 396.48, 126.56)"> </text><text class="cls-14" transform="translate(398.34 128.98) rotate(54.24)">E</text><text class="cls-14" transform="matrix(0.55, 0.83, -0.83, 0.55, 402.32, 134.46)">M</text><text class="cls-14" transform="matrix(0.51, 0.86, -0.86, 0.51, 407.13, 141.78)">A</text><text class="cls-14" transform="matrix(0.49, 0.87, -0.87, 0.49, 411.19, 148.62)">I</text><text class="cls-14" transform="translate(412.87 151.59) rotate(62.24)">L</text><text class="cls-14" transform="translate(415.76 157.12) rotate(63.62)"> </text><text class="cls-14" transform="translate(417.09 159.81) rotate(64.52)"> </text><text class="cls-14" transform="translate(418.41 162.57) rotate(65.42)"> </text><text class="cls-14" transform="translate(419.67 165.33) rotate(66.32)"> </text><text class="cls-14" transform="translate(420.87 168.07) rotate(67.2)"> </text><text class="cls-14" transform="matrix(0.35, 0.94, -0.94, 0.35, 422.12, 170.86)">P</text><text class="cls-14" transform="translate(424.54 177.15) rotate(70.71)">R</text><text class="cls-14" transform="matrix(0.3, 0.95, -0.95, 0.3, 426.92, 184.05)">I</text><text class="cls-14" transform="translate(427.98 187.27) rotate(73.98)">N</text><text class="cls-14" transform="translate(430.17 194.94) rotate(76.15)">T</text><text class="cls-14" transform="translate(55.54 215.34) rotate(-79.74)">W</text><text class="cls-14" transform="translate(57.6 204.21) rotate(-77.03)">E</text><text class="cls-14" transform="translate(59.12 197.63) rotate(-74.94)">B</text><text class="cls-14" transform="translate(61.01 190.61) rotate(-72.9)">S</text><text class="cls-14" transform="matrix(0.32, -0.95, 0.95, 0.32, 62.94, 184.41)">I</text><text class="cls-14" transform="translate(64 181.2) rotate(-69.94)">T</text><text class="cls-14" transform="translate(66.24 175.06) rotate(-67.97)">E</text><text class="cls-14" transform="translate(68.79 168.77) rotate(-66)">S</text><text class="cls-14" transform="translate(71.43 162.89) rotate(-64.59)"> </text><text class="cls-14" transform="translate(72.73 160.16) rotate(-63.69)"> </text><text class="cls-14" transform="translate(74.08 157.43) rotate(-62.78)"> </text><text class="cls-14" transform="matrix(0.47, -0.88, 0.88, 0.47, 75.46, 154.75)"> </text><text class="cls-14" transform="translate(76.88 152.09) rotate(-60.99)"> </text><text class="cls-14" transform="translate(78.33 149.43) rotate(-59.61)">L</text><text class="cls-14" transform="translate(81.48 144.02) rotate(-57.48)">A</text><text class="cls-14" transform="translate(85.78 137.28) rotate(-55.1)">N</text><text class="cls-14" transform="matrix(0.61, -0.8, 0.8, 0.61, 90.34, 130.74)">D</text><text class="cls-14" transform="translate(95.14 124.5) rotate(-51.04)">I</text><text class="cls-14" transform="matrix(0.65, -0.76, 0.76, 0.65, 97.25, 121.83)">N</text><text class="cls-14" transform="matrix(0.68, -0.73, 0.73, 0.68, 102.45, 115.79)">G</text><text class="cls-14" transform="translate(107.88 110.02) rotate(-45.3)"> </text><text class="cls-14" transform="matrix(0.72, -0.69, 0.69, 0.72, 110, 107.85)">P</text><text class="cls-14" transform="translate(114.33 103.66) rotate(-41.83)">A</text><text class="cls-14" transform="matrix(0.77, -0.64, 0.64, 0.77, 119.93, 98.64)">G</text><text class="cls-14" transform="translate(126.05 93.59) rotate(-37.35)">E</text><text class="cls-14" transform="translate(131.41 89.51) rotate(-35.36)">S</text><text class="cls-14" transform="translate(136.69 85.79) rotate(-33.93)"> </text><text class="cls-14" transform="matrix(0.84, -0.54, 0.54, 0.84, 139.21, 84.09)"> </text><text class="cls-14" transform="matrix(0.85, -0.53, 0.53, 0.85, 141.76, 82.44)"> </text><text class="cls-14" transform="matrix(0.86, -0.52, 0.52, 0.86, 144.33, 80.83)"> </text><text class="cls-14" transform="translate(146.89 79.27) rotate(-30.29)"> </text><text class="cls-14" transform="translate(149.51 77.69) rotate(-28.52)">M</text><text class="cls-14" transform="translate(157.21 73.51) rotate(-25.94)">O</text><text class="cls-14" transform="matrix(0.92, -0.4, 0.4, 0.92, 164.93, 69.77)">B</text><text class="cls-14" transform="translate(171.61 66.9) rotate(-22.47)">I</text><text class="cls-14" transform="translate(174.74 65.6) rotate(-20.61)">L</text><text class="cls-14" transform="translate(180.61 63.38) rotate(-18.68)">E</text><text class="cls-14" transform="matrix(0.96, -0.3, 0.3, 0.96, 187.02, 61.24)"> </text><text class="cls-14" transform="matrix(0.96, -0.27, 0.27, 0.96, 189.91, 60.31)">A</text><text class="cls-14" transform="matrix(0.97, -0.23, 0.23, 0.97, 197.6, 58.18)">P</text><text class="cls-14" transform="translate(204.13 56.62) rotate(-11.38)">P</text><text class="cls-14" transform="translate(210.75 55.29) rotate(-9.39)">S</text><rect class="cls-2" x="176.8" y="213.34" width="139.24" height="58.09" rx="26.5" ry="26.5"/><text class="cls-15" transform="translate(208.21 238.27)">CAM<tspan class="cls-16" x="30.55" y="0">P</tspan><tspan class="cls-17" x="38.17" y="0">AIGN </tspan><tspan x="-10.38" y="15.3">MAN</tspan><tspan class="cls-11" x="20.83" y="15.3">A</tspan><tspan x="30.32" y="15.3">GEMENT</tspan></text><circle class="cls-18" cx="206.47" cy="442.72"/><path class="cls-18" d="M243.25,430.19l-2.12.11c.36-.35.74-.69,1.12-1C242.59,429.57,242.93,429.88,243.25,430.19Z"/><path class="cls-18" d="M243.25,430.19l-2.12.11c.36-.35.74-.69,1.12-1C242.59,429.57,242.93,429.88,243.25,430.19Z"/><path class="cls-19" d="M243.88,477.88a234.8,234.8,0,0,0,89.29-17.52,33.88,33.88,0,0,0-39.47-17.78,54.32,54.32,0,0,0-93.63,0,33.87,33.87,0,0,0-40.38,19.8A234.93,234.93,0,0,0,243.88,477.88Z"/><text class="cls-20" transform="translate(213.34 442.72)">C<tspan class="cls-21" x="6.22" y="0">L</tspan><tspan x="11.12" y="0">OUD B</tspan><tspan class="cls-22" x="39.59" y="0">A</tspan><tspan x="46.26" y="0">SE</tspan><tspan class="cls-23" x="57.49" y="0">D</tspan><tspan x="63.75" y="0">.</tspan><tspan x="0.13" y="12.47">API ORIENTE</tspan><tspan class="cls-24" x="57.36" y="12.47">D</tspan><tspan x="63.62" y="12.47">.</tspan><tspan class="cls-25" x="-25.45" y="24.95">A</tspan><tspan class="cls-26" x="-19.07" y="24.95">GILE PERSONALIZ</tspan><tspan class="cls-27" x="61.07" y="24.95">A</tspan><tspan x="67.06" y="24.95">TION.</tspan></text><path class="cls-1" d="M22.68,154a21.55,21.55,0,1,0,21.55,21.55A21.55,21.55,0,0,0,22.68,154Z"/><path class="cls-1" d="M40.25,329.79A21.55,21.55,0,1,0,61.8,351.34,21.55,21.55,0,0,0,40.25,329.79Z"/><path class="cls-1" d="M371.29,418a21.55,21.55,0,1,0,21.55,21.55A21.55,21.55,0,0,0,371.29,418Z"/><path class="cls-1" d="M452.69,329.79a21.55,21.55,0,1,0,21.55,21.55A21.55,21.55,0,0,0,452.69,329.79Z"/><path class="cls-1" d="M401.46,46.48A21.55,21.55,0,1,0,423,68,21.55,21.55,0,0,0,401.46,46.48Z"/><path class="cls-1" d="M326.91,1.13a21.55,21.55,0,1,0,21.55,21.55A21.55,21.55,0,0,0,326.91,1.13Z"/><path class="cls-1" d="M135.82,426.52a21.55,21.55,0,1,0,21.55,21.55A21.55,21.55,0,0,0,135.82,426.52Z"/><path class="cls-1" d="M443.63,96.51a21.55,21.55,0,1,0,21.55,21.55A21.55,21.55,0,0,0,443.63,96.51Z"/><path class="cls-1" d="M469.15,150.87a21.55,21.55,0,1,0,21.55,21.55A21.55,21.55,0,0,0,469.15,150.87Z"/><path class="cls-1" d="M75.85,61.23A21.55,21.55,0,1,0,97.4,82.78,21.55,21.55,0,0,0,75.85,61.23Z"/><path class="cls-1" d="M166.5,1.13a21.55,21.55,0,1,0,21.55,21.55A21.55,21.55,0,0,0,166.5,1.13Z"/><path class="cls-28" d="M469.15,195.1a22.68,22.68,0,1,1,22.68-22.68A22.7,22.7,0,0,1,469.15,195.1Zm0-43.11a20.43,20.43,0,1,0,20.43,20.43A20.45,20.45,0,0,0,469.15,152Z"/><polygon class="cls-28" points="468.4 163.68 462.11 163.68 462.11 174.49 459.15 174.49 459.15 161.28 468.4 161.28 468.4 163.68"/><polygon class="cls-28" points="473.61 165.93 473.61 168.34 467.32 168.34 467.32 179.14 464.36 179.14 464.36 165.93 473.61 165.93"/><rect class="cls-28" x="469.57" y="170.59" width="9.24" height="13.21"/><path class="cls-28" d="M22.68,198.22a22.68,22.68,0,1,1,22.68-22.68A22.7,22.7,0,0,1,22.68,198.22Zm0-43.11a20.43,20.43,0,1,0,20.43,20.43A20.45,20.45,0,0,0,22.68,155.11Z"/><path class="cls-28" d="M32.22,165.78H13.71a1.89,1.89,0,0,0-1.88,1.89v14.2H34.1v-14.2A1.89,1.89,0,0,0,32.22,165.78Zm.36,15.44H13.35V167.58H32.58Z"/><path class="cls-28" d="M8.42,181.23h29.1a0,0,0,0,1,0,0v.19a2,2,0,0,1-2,2H10.38a2,2,0,0,1-2-2v-.19A0,0,0,0,1,8.42,181.23Z"/><rect class="cls-28" x="15.15" y="171.51" width="15.81" height="4.35"/><rect class="cls-28" x="15.15" y="176.99" width="7.9" height="0.86"/><rect class="cls-28" x="15.15" y="169.01" width="3.59" height="0.93"/><rect class="cls-28" x="15.15" y="178.99" width="7.9" height="0.86"/><rect class="cls-28" x="24.49" y="176.99" width="6.47" height="2.8"/><rect class="cls-28" x="24.49" y="178.99" width="6.47" height="0.86"/><path class="cls-28" d="M452.69,328.66a22.68,22.68,0,1,0,22.68,22.68A22.7,22.7,0,0,0,452.69,328.66Zm0,43.11a20.43,20.43,0,1,1,20.42-20.43A20.45,20.45,0,0,1,452.69,371.77Z"/><path class="cls-28" d="M443.9,355.5h-1.11a2.25,2.25,0,0,0-2.25,2.25v1.11a2.24,2.24,0,0,0,2.25,2.25h1.11a2.24,2.24,0,0,0,2.25-2.25v-1.11A2.25,2.25,0,0,0,443.9,355.5Zm1.5,4.11a.75.75,0,0,1-.75.75H442a.75.75,0,0,1-.75-.75V357a.75.75,0,0,1,.75-.75h2.61a.75.75,0,0,1,.75.75Z"/><path class="cls-28" d="M444.65,354.76H442a2.25,2.25,0,0,0-2.25,2.25v2.61a2.25,2.25,0,0,0,2.25,2.25h2.61a2.25,2.25,0,0,0,2.25-2.25V357A2.25,2.25,0,0,0,444.65,354.76Zm.75,4.86a.75.75,0,0,1-.75.75H442a.75.75,0,0,1-.75-.75V357a.75.75,0,0,1,.75-.75h2.61a.75.75,0,0,1,.75.75Z"/><path class="cls-28" d="M453.24,358.32h-1.11a2.25,2.25,0,0,0-2.25,2.25v1.11a2.25,2.25,0,0,0,2.25,2.25h1.11a2.25,2.25,0,0,0,2.25-2.25v-1.11A2.25,2.25,0,0,0,453.24,358.32Zm1.5,4.1a.75.75,0,0,1-.75.75h-2.61a.75.75,0,0,1-.75-.75v-2.61a.75.75,0,0,1,.75-.75H454a.76.76,0,0,1,.75.75Z"/><path class="cls-28" d="M454,357.57h-2.61a2.25,2.25,0,0,0-2.25,2.25v2.61a2.25,2.25,0,0,0,2.25,2.25H454a2.25,2.25,0,0,0,2.25-2.25v-2.61A2.25,2.25,0,0,0,454,357.57Zm.75,4.85a.75.75,0,0,1-.75.75h-2.61a.75.75,0,0,1-.75-.75v-2.61a.75.75,0,0,1,.75-.75H454a.76.76,0,0,1,.75.75Z"/><path class="cls-28" d="M462.59,355.5h-1.11a2.25,2.25,0,0,0-2.25,2.25v1.11a2.25,2.25,0,0,0,2.25,2.25h1.11a2.25,2.25,0,0,0,2.25-2.25v-1.11A2.25,2.25,0,0,0,462.59,355.5Zm1.5,4.11a.75.75,0,0,1-.75.75h-2.61a.75.75,0,0,1-.75-.75V357a.75.75,0,0,1,.75-.75h2.61a.75.75,0,0,1,.75.75Z"/><path class="cls-28" d="M463.33,354.76h-2.61a2.25,2.25,0,0,0-2.25,2.25v2.61a2.25,2.25,0,0,0,2.25,2.25h2.61a2.25,2.25,0,0,0,2.25-2.25V357A2.25,2.25,0,0,0,463.33,354.76Zm.75,4.86a.75.75,0,0,1-.75.75h-2.61a.75.75,0,0,1-.75-.75V357a.75.75,0,0,1,.75-.75h2.61a.75.75,0,0,1,.75.75Z"/><path class="cls-28" d="M462.78,355.51h-1.5v-4.08H444.1v4.08h-1.5v-4.83a.75.75,0,0,1,.75-.75H462a.75.75,0,0,1,.75.75Z"/><rect class="cls-28" x="451.94" y="344.2" width="1.5" height="14.12"/><path class="cls-28" d="M453,337.57h-.53A3.42,3.42,0,0,0,449,341v.53a3.42,3.42,0,0,0,2.94,3.38,2.78,2.78,0,0,0,.49,0H453a2.72,2.72,0,0,0,.48,0,3.42,3.42,0,0,0,2.94-3.38V341A3.43,3.43,0,0,0,453,337.57Zm2.67,5.1a1.54,1.54,0,0,1-1.53,1.54h-2.82a1.54,1.54,0,0,1-1.53-1.54v-2.81a1.54,1.54,0,0,1,1.53-1.54h2.82a1.54,1.54,0,0,1,1.53,1.54Z"/><path class="cls-28" d="M454.1,336.82h-2.82a3,3,0,0,0-3,3v2.81a3,3,0,0,0,3,3h2.82a3,3,0,0,0,3-3v-2.81A3,3,0,0,0,454.1,336.82Zm1.53,5.85a1.54,1.54,0,0,1-1.53,1.54h-2.82a1.54,1.54,0,0,1-1.53-1.54v-2.81a1.54,1.54,0,0,1,1.53-1.54h2.82a1.54,1.54,0,0,1,1.53,1.54Z"/><path class="cls-28" d="M135.82,470.75a22.68,22.68,0,1,1,22.68-22.68A22.7,22.7,0,0,1,135.82,470.75Zm0-43.11a20.43,20.43,0,1,0,20.43,20.43A20.45,20.45,0,0,0,135.82,427.65Z"/><rect class="cls-28" x="129.59" y="451.67" width="3.2" height="7.09"/><rect class="cls-28" x="124.4" y="454.82" width="3.2" height="3.94"/><rect class="cls-28" x="134.72" y="448.52" width="3.2" height="10.24"/><rect class="cls-28" x="139.85" y="449.26" width="3.2" height="9.5"/><rect class="cls-28" x="144.98" y="444.83" width="3.2" height="13.93"/><polygon class="cls-28" points="115.99 453.42 115.11 452.21 133.02 439.16 139.98 443.23 147.04 438.38 147.89 439.61 140.04 445.01 133.11 440.95 115.99 453.42"/><polygon class="cls-28" points="148.39 441.81 150.83 436.68 145.16 437.12 148.39 441.81"/><path class="cls-28" d="M443.63,140.74a22.68,22.68,0,1,1,22.68-22.68A22.7,22.7,0,0,1,443.63,140.74Zm0-43.11a20.43,20.43,0,1,0,20.43,20.43A20.45,20.45,0,0,0,443.63,97.64Z"/><path class="cls-28" d="M443.63,140.74a22.68,22.68,0,1,1,22.68-22.68A22.7,22.7,0,0,1,443.63,140.74Zm0-43.11a20.43,20.43,0,1,0,20.43,20.43A20.45,20.45,0,0,0,443.63,97.64Z"/><path class="cls-28" d="M454.3,126.24H433V109.89H454.3Zm-19.46-1.88h17.59V111.77H434.84Z"/><polygon class="cls-28" points="443.63 121.28 433.26 111.52 434.55 110.15 443.63 118.7 452.72 110.15 454.01 111.52 443.63 121.28"/><path class="cls-28" d="M40.25,374a22.68,22.68,0,1,1,22.68-22.68A22.7,22.7,0,0,1,40.25,374Zm0-43.11a20.43,20.43,0,1,0,20.43,20.43A20.45,20.45,0,0,0,40.25,330.92Z"/><path class="cls-28" d="M49.44,343.77c-.18-2.58-4.06-4.5-9.18-4.5s-9,1.92-9.19,4.5a.86.86,0,0,0,0,.2v14.77c0,2.67,4,4.68,9.2,4.68s9.2-2,9.2-4.68V344A.86.86,0,0,0,49.44,343.77ZM47.58,349c0,1.17-2.79,2.81-7.32,2.81s-7.33-1.64-7.33-2.81v-2.11a13.6,13.6,0,0,0,7.33,1.79,13.65,13.65,0,0,0,7.32-1.78Zm0,5c0,1.18-2.79,2.82-7.32,2.82s-7.33-1.64-7.33-2.82v-2.1a13.68,13.68,0,0,0,7.33,1.78,13.72,13.72,0,0,0,7.32-1.77Zm0,4.75c0,1.17-2.79,2.81-7.32,2.81s-7.33-1.64-7.33-2.81v-1.85a13.61,13.61,0,0,0,7.33,1.79,13.65,13.65,0,0,0,7.32-1.78Zm-7.32-17.58c4.29,0,7,1.46,7.3,2.62a.87.87,0,0,1,0,.2,1.19,1.19,0,0,1-.33.74,4.08,4.08,0,0,1-1.3.94,12.93,12.93,0,0,1-5.69,1.13,13,13,0,0,1-5.7-1.13,4.08,4.08,0,0,1-1.3-.94,1.19,1.19,0,0,1-.33-.74.86.86,0,0,1,0-.2C33.24,342.61,36,341.15,40.26,341.15Z"/><path class="cls-28" d="M371.29,416.89A22.68,22.68,0,1,0,394,439.57,22.7,22.7,0,0,0,371.29,416.89Zm0,43.11a20.43,20.43,0,1,1,20.43-20.43A20.45,20.45,0,0,1,371.29,460Z"/><path class="cls-28" d="M371,439.56v-9.21h-.52a9.73,9.73,0,0,0-9.72,9.73,9.92,9.92,0,0,0,2.82,6.8l.1.11a10,10,0,0,0,7.06,3.07,9.1,9.1,0,0,0,6.78-3.06,10.4,10.4,0,0,0,2.69-6.92v-.52Zm-.25,9.47a8.94,8.94,0,0,1-6.35-2.77l-.1-.1a8.9,8.9,0,0,1-2.51-6.08,8.71,8.71,0,0,1,8.19-8.68v9.2h9.2C378.87,445.22,375.12,449,370.71,449Z"/><path class="cls-28" d="M373.76,426.89h-.66v10.53h10.53v-.66A9.88,9.88,0,0,0,373.76,426.89Zm.66,8.31v-2.45l3.46-3.46a8.59,8.59,0,0,1,1.45,1Zm0-7a8.48,8.48,0,0,1,2.22.47l-2.22,2.22Zm5.82,2.95a8.59,8.59,0,0,1,1.18,1.79l-3.12,3.12h-3Zm-.14,4.92,1.83-1.83a8.17,8.17,0,0,1,.35,1.83Z"/><path class="cls-28" d="M371.11,439.42v-9.21h-.66a9.87,9.87,0,0,0-7,16.8l.1.1.13.14a10.2,10.2,0,0,0,7.05,3,9.25,9.25,0,0,0,6.9-3.1,10.56,10.56,0,0,0,2.72-7v-.66Zm-.4,9.47a8.81,8.81,0,0,1-6.24-2.72l-.1-.11a8.74,8.74,0,0,1-2.47-6,8.57,8.57,0,0,1,7.89-8.53v9.19H379A8.53,8.53,0,0,1,370.71,448.89Z"/><path class="cls-28" d="M379,440.74a8.53,8.53,0,0,1-8.27,8.15,8.81,8.81,0,0,1-6.24-2.72l5.43-5.43Z"/><path class="cls-28" d="M166.5,45.36a22.68,22.68,0,1,1,22.68-22.68A22.7,22.7,0,0,1,166.5,45.36Zm0-43.11a20.43,20.43,0,1,0,20.43,20.43A20.45,20.45,0,0,0,166.5,2.25Z"/><rect class="cls-28" x="164.05" y="23.27" width="5.13" height="1.71"/><rect class="cls-28" x="160.94" y="19.74" width="10.95" height="0.79"/><rect class="cls-28" x="160.94" y="21.18" width="10.95" height="0.79"/><rect class="cls-28" x="160.94" y="11.12" width="11.12" height="6.84"/><rect class="cls-28" x="161.11" y="28.36" width="10.95" height="2.16"/><path class="cls-28" d="M172.84,8.25H160.16a2.45,2.45,0,0,0-2.44,2.44V33.11a2.45,2.45,0,0,0,2.44,2.44h12.67a2.45,2.45,0,0,0,2.44-2.44V10.69A2.45,2.45,0,0,0,172.84,8.25ZM169,34.11h-5v-.72h5ZM173.78,32H159.22V9.69h14.56Z"/><rect class="cls-28" x="164.05" y="23.27" width="5.13" height="1.71"/><rect class="cls-28" x="160.94" y="19.74" width="10.95" height="0.79"/><rect class="cls-28" x="160.94" y="21.18" width="10.95" height="0.79"/><rect class="cls-28" x="160.94" y="11.12" width="11.12" height="6.84"/><rect class="cls-28" x="161.11" y="28.36" width="10.95" height="2.16"/><rect class="cls-28" x="160.94" y="11.12" width="11.12" height="6.84"/><rect class="cls-28" x="160.94" y="19.74" width="10.95" height="0.79"/><rect class="cls-28" x="160.94" y="21.18" width="10.95" height="0.79"/><rect class="cls-28" x="161.11" y="28.36" width="10.95" height="2.16"/><rect class="cls-28" x="164.05" y="23.27" width="5.13" height="1.71"/><path class="cls-28" d="M401.46,90.71A22.68,22.68,0,1,1,424.14,68,22.7,22.7,0,0,1,401.46,90.71Zm0-43.11A20.43,20.43,0,1,0,421.89,68,20.45,20.45,0,0,0,401.46,47.6Z"/><path class="cls-28" d="M412.43,66c0-.12-.07-.15-.18-.15H401.87c-.15,0-.17.05-.17.18q0,2,0,4.06c0,.15,0,.19.19.19h5.82c.21,0,.21,0,.16.21a5.16,5.16,0,0,1-2.37,3.4,6.85,6.85,0,0,1-5.18.88,6.71,6.71,0,0,1-4.7-3.68c-.15-.28-.25-.59-.38-.88a.79.79,0,0,0,0-.09,6.58,6.58,0,0,1,.1-4.51,6.69,6.69,0,0,1,5.7-4.52,6.07,6.07,0,0,1,5,1.59c.1.09.14,0,.21,0l2.94-2.94c.17-.17.19-.12,0-.31h0a10.8,10.8,0,0,0-5.7-2.68,11.4,11.4,0,0,0-12,6.26A11,11,0,0,0,390.36,67a11.26,11.26,0,0,0,.38,4.13c.1.35.21.69.34,1a8.66,8.66,0,0,0,.45,1,.92.92,0,0,0,0,.1,11.41,11.41,0,0,0,7.88,6,12,12,0,0,0,4.94-.06,10,10,0,0,0,6.92-5.21,11.52,11.52,0,0,0,1.2-4A13.67,13.67,0,0,0,412.43,66Z"/><path class="cls-28" d="M326.91,45.36a22.68,22.68,0,1,1,22.68-22.68A22.7,22.7,0,0,1,326.91,45.36Zm0-43.11a20.43,20.43,0,1,0,20.43,20.43A20.45,20.45,0,0,0,326.91,2.25Z"/><path class="cls-28" d="M332.51,15.48h-2c-1.59,0-1.9.76-1.9,1.87v2.45h3.79l-.49,3.83h-3.3v9.83h-4V23.62h-3.31V19.79h3.31V17c0-3.28,2-5.06,4.93-5.06a27.13,27.13,0,0,1,3,.15Z"/><path class="cls-28" d="M75.85,105.46A22.68,22.68,0,1,1,98.53,82.78,22.7,22.7,0,0,1,75.85,105.46Zm0-43.11A20.43,20.43,0,1,0,96.28,82.78,20.45,20.45,0,0,0,75.85,62.35Z"/><rect class="cls-28" x="66" y="75.89" width="3.76" height="0.72"/><rect class="cls-28" x="66" y="77.33" width="3.76" height="0.72"/><rect class="cls-28" x="66" y="78.77" width="3.76" height="0.72"/><rect class="cls-28" x="66" y="80.92" width="3.76" height="0.72"/><rect class="cls-28" x="66" y="74.46" width="5.2" height="0.71"/><rect class="cls-28" x="72.47" y="74.46" width="4.48" height="2.51"/><polygon class="cls-28" points="79.82 71.94 79.82 76.97 78.84 76.97 78.84 73.02 64.28 73.02 64.28 83.08 70.48 83.08 70.48 84.15 63.3 84.15 63.3 71.94 79.82 71.94"/><rect class="cls-28" x="74.26" y="80.56" width="5.2" height="0.71"/><rect class="cls-28" x="74.26" y="82" width="3.76" height="0.72"/><rect class="cls-28" x="74.26" y="83.43" width="3.76" height="0.72"/><polygon class="cls-28" points="79.82 78.05 79.82 79.12 72.54 79.12 72.54 84.15 71.56 84.15 71.56 78.05 79.82 78.05"/><rect class="cls-28" x="66" y="75.89" width="3.76" height="0.72"/><rect class="cls-28" x="66" y="77.33" width="3.76" height="0.72"/><rect class="cls-28" x="66" y="78.77" width="3.76" height="0.72"/><rect class="cls-28" x="66" y="80.92" width="3.76" height="0.72"/><rect class="cls-28" x="66" y="74.46" width="5.2" height="0.71"/><rect class="cls-28" x="72.47" y="74.46" width="4.48" height="2.51"/><rect class="cls-28" x="66" y="74.46" width="5.2" height="0.71"/><rect class="cls-28" x="66" y="75.89" width="3.76" height="0.72"/><rect class="cls-28" x="66" y="77.33" width="3.76" height="0.72"/><rect class="cls-28" x="66" y="78.77" width="3.76" height="0.72"/><rect class="cls-28" x="66" y="80.92" width="3.76" height="0.72"/><rect class="cls-28" x="72.47" y="74.46" width="4.48" height="2.51"/><polygon class="cls-28" points="76.94 78.05 76.94 79.12 72.54 79.12 72.54 81.64 72.47 81.64 72.47 78.05 76.94 78.05"/><rect class="cls-28" x="74.26" y="80.56" width="2.69" height="0.71"/><rect class="cls-28" x="69.31" y="84.15" width="1.17" height="2.15"/><rect class="cls-28" x="71.56" y="84.15" width="0.98" height="2.15"/><rect class="cls-28" x="67.16" y="86.31" width="3.32" height="0.72"/><rect class="cls-28" x="74.26" y="80.56" width="5.2" height="0.71"/><rect class="cls-28" x="74.26" y="82" width="3.76" height="0.72"/><rect class="cls-28" x="74.26" y="83.43" width="3.76" height="0.72"/><rect class="cls-28" x="74.26" y="84.87" width="3.76" height="0.72"/><rect class="cls-28" x="74.26" y="87.03" width="3.76" height="0.72"/><rect class="cls-28" x="80.73" y="80.56" width="4.48" height="7.18"/><path class="cls-28" d="M71.56,78V90.26H88.08V78ZM87.1,89.18H72.54V79.12H87.1Z"/><rect class="cls-28" x="74.26" y="80.56" width="5.2" height="0.71"/><rect class="cls-28" x="74.26" y="82" width="3.76" height="0.72"/><rect class="cls-28" x="74.26" y="83.43" width="3.76" height="0.72"/><rect class="cls-28" x="74.26" y="84.87" width="3.76" height="0.72"/><rect class="cls-28" x="74.26" y="87.03" width="3.76" height="0.72"/><rect class="cls-28" x="80.73" y="80.56" width="4.48" height="7.18"/><rect class="cls-28" x="74.26" y="80.56" width="5.2" height="0.71"/><rect class="cls-28" x="74.26" y="82" width="3.76" height="0.72"/><rect class="cls-28" x="74.26" y="83.43" width="3.76" height="0.72"/><rect class="cls-28" x="74.26" y="84.87" width="3.76" height="0.72"/><rect class="cls-28" x="74.26" y="87.03" width="3.76" height="0.72"/><rect class="cls-28" x="80.73" y="80.56" width="4.48" height="7.18"/><rect class="cls-28" x="77.58" y="90.26" width="4.48" height="2.16"/><rect class="cls-28" x="75.42" y="92.41" width="8.79" height="0.72"/></g></g></svg>